<svg xmlns="http://www.w3.org/2000/svg" viewBox="0 0 400.48 234.61"><g id="Kleenex"><path d="M259,56.09S221,10,131.09,10,30.85,14.61,30.85,14.61L41.22,35.35,25.08,59.55,38.91,76.83,29.69,96.42l19.59,10.37-6.91,21.89,20.74,4.61,5.76,23.05S203.68,52.63,249.77,64.16Z" transform="translate(-25.08 -10)" fill="#e0e0e0"/><path d="M41.22,35.35s127.9-16.13,184.36,9.22c0,0-96.79-24.2-200.5,15Z" transform="translate(-25.08 -10)" fill="#ccc"/><path d="M38.91,76.83,29.69,96.42s71.44-34.57,198.19-46.09C227.88,50.33,109.2,52.63,38.91,76.83Z" transform="translate(-25.08 -10)" fill="#ccc"/><path d="M49.28,106.79l-6.91,21.89S156.44,71.07,225.58,56.09C225.58,56.09,101.13,87.2,49.28,106.79Z" transform="translate(-25.08 -10)" fill="#ccc"/></g><g id="bottle"><path d="M244.91,65.82s-2.57-1.32,4.82-7.94,8.75-7,11.36-6.86,3.25,6.3,3.25,6.3l7.89,6.55,2.6,4.16,21.54,19.78L307.8,97.88,322.18,112l4.72,1.3,6.84,1.48,7.59,3.75,8.63,8.06,6.78,7.41,19.4,21.19,48.25,53.12-9.85,18.47L402,237.5l-15.85,5.78L318.28,170.8l-12.85-14.05-4.61-12.39-2-10.34-14.28-18.63L265.57,91.85l-10.13-13.7L250,71.45l-5.87-5Z" transform="translate(-25.08 -10)" fill="#f4f4f4"/><path d="M345.81,121.09A30.27,30.27,0,0,0,330.44,113a22.81,22.81,0,0,1-11.85-6q-21.51-20.16-43-40.35c-.79-.74-1.64-1.39-1.5-2.72.11-1-.62-1.46-1.59-1.92a15.93,15.93,0,0,1-8.29-8.74c-1-2.52-2.93-3.73-5-2.91C252.45,53,247.8,58,244,63.88a3.12,3.12,0,0,0,.41,4c1.86,2,4.23,3.38,6.18,5.34a13.15,13.15,0,0,1,3.72,5.67c.23.86.45,1.44,1.32,1.52,1.28.12,1.82,1.11,2.47,2,11.7,15.16,23.44,30.29,35.06,45.5,2.62,3.45,5.19,7,5.81,11.54.22,1.57.21,3.19.55,4.74,1.59,7.26,5.45,13.23,10.44,18.63,11.46,12.41,22.82,24.9,34.22,37.36l.06-.06q18.9,20.64,37.77,41.28c2.63,2.88,5.73,4.08,9.46,2.71,2.81-1,5.82-1.92,8.22-3.61,9.71-6.85,18.37-14.81,24.4-25.26,2.22-3.86,2-6.7-.71-9.62-18.86-20.56-37.65-41.17-56.59-61.65C359.75,136.33,353.38,128.15,345.81,121.09Zm-14.44-5.74c.91.44,0,1.31.26,1.92.69.07.9-.48,1.3-.75.83-.57,1.62-1,1.71.68.05,1,.21,1,1.09.21s1.44-.48,1.75.52c.17.52-.43,1.14.24,1.68,1-.13,3.19-2.17,2.33,1.26-.12.44.27.78.47.66,1.67-1,1.75-.36,2,1.32s1.49-.21,2.31.06c1.1.38-1.12,2.09.8,2,.47,0,.88-.42,1.26.16s0,1.17-.28,1.61c-1,1.42-2.58,1.88-4.32,3.07.27-1.84,1.7-2.34,1.78-3.61-1.31-.71-2,.74-3,.77-.06-1,1.88-1.32.81-2.46-1.55-1.66-2.24,1.13-3.71.83,0-1.17,1.25-1.56,1.53-2.6-1.36-.74-2.14.36-3.06.92-.39.24-.8.36-1.12,0a1,1,0,0,1,0-.67c.16-.64,1.52-1.06.6-1.82s-1.46.47-2.21.72a2.24,2.24,0,0,1-.55,0c-.23-.71,1.21-1.45.08-2.08s-1.74.77-2.74.79c-.78-.63.76-1.44-.1-2s-1.25.51-1.87.81c-.39.18-.68.92-1.2.31-.38-.46-.13-.93.26-1.33.64-.66,1.26-1.34,1.91-2C330.12,115.88,330.37,114.87,331.37,115.35Zm17.17,11.1c-.1,2.48-2.06,3-3.24,4.06C345.78,128.82,347.05,127.79,348.54,126.45Zm-20.07-11.51c-.56,2-2.23,2.59-3.82,3.52A6.15,6.15,0,0,1,328.47,114.94Zm-19.4-13.7,8.93,8.14c.33.31,1.11.29.91,1a1.52,1.52,0,0,1-.88.8c-.58.21-.83-.37-1.19-.7-3-2.83-5.84-5.9-9.17-8.39-.6-.44-1.4-.66-1.47-1.53,0-.18.42-.48.71-.58C307.91,99.59,308.47,100.19,309.07,101.24ZM303,95.32c.73,1.12-.54,1.39-1.14,1.78-3.08,2-6,4.2-9.05,6.29a17.61,17.61,0,0,0-6.27,7.6c-.31.69-.49,2-1.48,1.7-1.31-.37-.79-1.58-.57-2.55a12.69,12.69,0,0,1,3.89-6.77c4.43-3.81,8.37-6,12.05-8.65A1.68,1.68,0,0,1,303,95.32ZM245,65.79a2.09,2.09,0,0,1,.44-2.11c3.89-4.28,7.77-8.58,12.81-11.58,1.09-.66,2.34-1.49,3.87-.08-3.13.26-3.06,2-1.91,4.29-1.18-.67-1.27-2.49-2.91-2-.05.14-.16.29-.14.43.14,1,2,1.84,1,2.69s-1.43-1.34-2.74-1.41c0,.63-.63,1.29.52,1.67.8.26,1.44.71.65,1.62-.56.65-1.12,1.23-2.07.35-.37-.34-.79-1.7-1.6-.62s.55.89,1,1.19c.64.44.7.9.17,1.43s-1,1.28-1.87.56c-.51-.42-1-.9-1.46-1.37-.6,1.19-.6,1.18.39,1.71.47.24.92.57.62,1.16s-.76,1-1.43.68a10.93,10.93,0,0,1-1.2-.89c-.34-.22-.75-.48-1,.15-.16.43-.25.71.41.84s1.66.37.94,1.45-1.41,1-2.33.26c-.34-.27-.77-1.79-1.46-.1C245.41,66.8,245,66.1,245,65.79Zm33.8,9.37a.75.75,0,0,1-.36-1.2c.36-.66.91-.21,1.23.09.72.68,1.36,1.45,2,2.18l0,0c.51.55,1,1.09,1.52,1.67.27.33.95.72.26,1.14-.38.23-1.07.58-1.44-.31A6.83,6.83,0,0,0,278.75,75.16ZM257,78.94c.51-3.14,11.36-13.36,14.71-13.89A163.32,163.32,0,0,0,257,78.94ZM253.54,73c.25-.75,1.42-1.3.76-2.2-.84-1.14-1.41,1-2.76,0a59.23,59.23,0,0,1,7.32-7.45.89.89,0,0,1,1.35.05c.3.4-.09.77-.36,1.07-1,1.07-2,2.12-3.28,3.49,1.61-.43,2.12-2,3.39-1.82.66.09,2.5-2.6,2.12.79-.08.76,1.16-.75,2,.31-1.5,1.53-3.06,3.08-4.58,4.68a25,25,0,0,0-2.25,2.69c-.37.53-.42,1.44-1.36.82s-.11-1.14.17-1.68l.49-.92c-1.42,0-1.78,1.67-3.05,1.57C253,73.91,253.39,73.5,253.54,73Zm-3.84-3.77c1.1-2.59,3.81-5.36,7.44-7.54C254.81,64.08,252.48,66.43,249.7,69.26Zm20.81,22.65c.34-.29.68-.48,1.11,0a3,3,0,0,1-.81,2.47.51.51,0,0,1-.86,0A1.77,1.77,0,0,1,270.51,91.91Zm1.3,3.16c2.49-3.14,2.12-2.94-.52-6.37-2-2.59-5.06-4.42-6-7.81-.29-1-1.45-1.1-2.09-2-1.22-1.63-.38-2.09.46-3,1.1-1.14,2.12-2.39,3.93-2.74-.28,1.37-1.61,2-2.28,3.36,2.23-1.22,3.45-3.51,6.76-3.77-1.79,1.64-3.05,2.78-4.3,3.94-.4.38-.64.86-.23,1.33s.89,0,1.22-.31c1.54-1.27,3-2.66,5.43-3.1L272,77.41l.21.38c.75-.37,1.53-.7,2.25-1.12s1.24-.79,1.76-.07-.38,1-.71,1.34a49,49,0,0,0-3.3,4c1.53-.91,2.69-2.26,4.3-3,.71-.32,1.45-1.27,2.22-.38s-.5,1.33-.89,1.94a13.24,13.24,0,0,1-1.16,1.29l4-1.43c-1.87,2.29-3.9,3.66-5.4,6.47,2.17-1.74,3.56-3.35,5.46-4.27.66-.32,1.33-.6,1.78.08s-.37,1-.76,1.33a23.82,23.82,0,0,0-4.34,4.88c2.09-1.54,4.08-3.22,7-4.12-4.07,4.39-7.93,8.45-12.68,11.61A1,1,0,0,1,271.81,95.07Zm6.78.15a7.6,7.6,0,0,0,3.6-3.32c1.64-3.08,4.18-5.64,5.26-9.05.15-.47.48-1,1.1-.63a.86.86,0,0,1,.4,1.27c-.72,1.23-1.49,2.43-2.24,3.64-1.54,2.46-3.44,4.71-4.42,7.51a1.78,1.78,0,0,1-1,1.09c-2.8.66-5.2,2.38-8.1,2.89C274.61,96.79,276.7,96.14,278.59,95.22Zm-2.47,8.08c.94-1.15.64-3,2.39-3.73s1.92.62,2.55,1.48,1.2,1.29,2.12.28c.11-.13,1.19-1.22,1.64.1-.18-1.69,1.46-3.18.33-5,1.45.44,1,1.77,1.67,2.56.7-.94.63-2.82,2.59-2.13-.51-1.51.89-1.94,1.64-2.49a26.3,26.3,0,0,0,4.75-4.24c.37-.45.67-1.27,1.42-.72s.24,1.17,0,1.79c-.59,1.62-2.14,2.4-3.22,3.55s-2.77,1.7-4.19,2.51a7,7,0,0,1-4.71,4.52c-.93,1.88-2.16,3.41-4.41,3.74h.08c-.08.48-.12,1.08-.64,1.23s-.82-.38-1-.85c-.38-1.09-.3-2.72-2.31-1.79C276.5,104.26,276,103.49,276.12,103.3Zm22.25,25.75a7.56,7.56,0,0,1,1.56-4.52c-1.82.58-2.13,1.86-3.08,2.59-.79-1.11.44-2,.16-3-1.12-.25-1.44,2.06-2.25,1.15-1-1.14.9-2.29.84-3.74-1.14,0-1.26,1.44-2.39,1.59-.58-1.1.41-1.79.73-2.62.19-.5.94-1,.24-1.51s-1,.32-1.42.65-.73.93-1.49,1c-.7-1.51,1.13-2.32,1-3.62-.18-.37-.4-.13-.61,0-.85.39-1.21,2.18-2.21,1.46-1.23-.88.25-1.87.63-2.79.19-.44.68-1,.2-1.35-1-.82-.91,1-1.9.75,1.5-3.39,2.9-6.73,5.91-9.17a28.66,28.66,0,0,0-2.66,1.93c-.94.82-1.74,1.79-2.61,2.69l-.48-.42c2.17-4.43,6.64-6.32,10.4-9.43.24,1.35-.65,1.88-.94,3,1.73-.58,3-1.72,4.67-1.83.48,1.4-1.59,1.36-1.46,2.54,1.24.56,2.52-1.81,3.2-.46.53,1.06-1.66,1.8-2.1,3.08l4.42-1.87.28.36-4.59,4.2a35.72,35.72,0,0,0,6.5-1.77l-5.35,4.89c2.68-1.11,4.72-3.07,7.5-3.91-1.29,1.19-2.63,2.31-3.84,3.57-.61.64-2.17,1.26-1.38,2.2s1.49-.59,2.18-1.07a16.72,16.72,0,0,1,5.11-2.79c-1.62,2.27-4.15,3.63-5.51,6.11,2.66-1.43,4.88-3.62,8.31-4a71,71,0,0,0-8.75,8.14c3.66-1.51,5.87-5.33,10-6.17-1.27,1.17-2.55,2.31-3.8,3.5-.33.33-.81.8-.41,1.3s.88,0,1.3-.18c.84-.46,1.46-1.41,3-1.21-4.87,5.49-10.49,9.88-15.48,15.25a4.1,4.1,0,0,1,.93-2.85c.35-.62.59-1.29-.13-1.78s-1,.34-1.39.66c-.84.63-1.13,1.83-2.43,2.37.38-1.84,1.59-3.07,2.33-4.67C299.76,127.42,299.49,128.65,298.37,129.05ZM316,127.13l-11.24,10.29C307.63,133.13,311.71,130,316,127.13ZM305.2,133.3c2.73-2.61,4.75-6,8.28-7.78C311.33,128.73,308.21,131,305.2,133.3Zm1.19,19.84c.93-1.72,2.8-2.4,3.52-4.21-1.76,0-2.82,2.1-4.56.93.11-1.23,1.75-1.48,1.88-2.93l-2.73,1.17c-.12-2.26,3.27-2.63,2.43-5-1.37.35-2,2-3.64,1.83.8-2.18,3.09-3,4.39-5.22l-3.2,1.71c5.92-8.44,11.77-13.8,15.5-14l-4.23,4.94c2.85-1.44,4.93-3.86,7.93-5-1.45,2.49-4,4.12-5,7.28,3.07-2.48,5.92-4.78,8.76-7.09-.5,2-2.31,2.94-3.18,5.17,2.23-1.1,3.71-2.67,6.3-3.48l-8.39,9,.34.37,10.61-8.45c-2.77,2.61-4,6.4-6.81,8.9,3.35-1.84,5.88-4.73,9.06-6.82-2.71,4.16-6.75,7.08-10.08,10.71,4.68-2.21,7.77-6.58,12.26-9.15-.7,2.79-3.22,4.11-4.91,6.06s-4.15,3.27-5.47,6.45c4-2.66,6.45-6.17,10.09-8.28-2.54,4.92-7.9,7.58-10.08,12.84l14.47-13.24.47.46c-4,5.37-9.64,9.32-13.6,14.77a81.45,81.45,0,0,0,11-9.56c.76-.77,1.52-1.56,2.35-2.27.46-.39,1-1.29,1.65-.67s-.26,1.14-.64,1.55a159.3,159.3,0,0,1-15.89,15.06c-3.23,2.68-7.06,4.29-10.61,6.42l5.51-5-.14-.2c-1.84,1.12-3.67,2.26-5.52,3.36-.7.42-1.75,1.2-2.21.36-.56-1,.78-1.52,1.5-1.81a5.43,5.43,0,0,0,2.95-2.32c-2.77-.13-4.2,2.73-7,2.39,1.24-1.75,3-2.83,3.79-4.82a12.39,12.39,0,0,1-5.69,2.61c1-2.1,3.22-2.92,4.18-5.15-2.22,1-3.54,2.91-6.31,3.57l5.69-5.91C310.13,150.51,309.07,153.36,306.39,153.14ZM345,142.57a12.77,12.77,0,0,1-4.14,4.41A9.75,9.75,0,0,1,345,142.57Zm-6.85,6.85c-4.46,5.34-10.17,9.2-15.87,13.06C327.47,158,333,153.94,338.13,149.42Zm15.58-13.88c1.12,1.13-.15,2-.16,3,.91.32,1-1,2.05-.8a137.93,137.93,0,0,1-35.17,30.95l1.14-1.33c-1.37.24-2.68.53-4.11.87C331.53,159.47,344.5,149.57,353.71,135.54ZM373.56,162c-2.1.9-4.33,1.52-6.39,2.6A11.48,11.48,0,0,1,373,161c2-.58,2.44-1.46,2.11-3.21-.08-.41-.22-.82-.33-1.23h.74C377,160.32,377,160.52,373.56,162Zm1.42.72a19.78,19.78,0,0,1-2.8,4.41,1,1,0,0,1-1.56.1c-.54-.56.17-.87.48-1.13C372.3,165.07,372.77,163.2,375,162.72Zm-2.71-2.43c-1.78.93-3.55,1.86-5.32,2.82-.58.32-1.13.85-1.77.16s-1.73-1.13-1.29-2.23c1-2.57.69-5.4,1.63-8,1.1-3.07,3.64-3.73,5.86-1.4.23.25.45.5.68.74l.07,0a16.69,16.69,0,0,1,2,2.57A4,4,0,0,1,372.27,160.29Zm-15.17,6.84c3.94-.7,6,1.49,5.19,5.42a22.77,22.77,0,0,0-.09,4.66c1.36-.19,1.42.81,1.08,1.54-.59,1.28-1.48,2.4-3.25,1.83.35-1.18,2.65-.9,1.93-2.74-1.49,1.67-3.39,1.55-5.31,1.12a16.25,16.25,0,0,1-2.44-1l.42.9c-1.12.37-2.1-.3-3.14-.46-1.93-.31-1.52-2.13-1.86-3.4-.11-.41-.71-1.45.66-1.24.07,0,.13.09.2.14-.34-.93-.75-1.84-1-2.8a3.81,3.81,0,0,1,.9-4.17,3.94,3.94,0,0,1,4.24-.65,13,13,0,0,1,6.42,5.51C362.06,168.5,359.06,168.31,357.1,167.13Zm2.31-2.45c-1.37-.52-2.73-1.47-4.37-1.11-.49.11-1.11.28-1.19-.41s.65-.91,1.22-.95c2.68-.22,4.89,1,6.86,2.57,2.41,1.87,4.3,4.23,4.64,7.45a3.52,3.52,0,0,0,.85,1.7c-.95,1.1-.21,3-1.89,3.91-.85-1.38-.32-2.88-.27-4.15C365.38,170.46,362.68,165.93,359.41,164.68ZM350,179.53c2.59,2.73,6.24,3.06,9.81,3.32-4.31,1.8-9.15-.25-12.42-4.95-2.19-3.16-2.46-6.36-.51-8.6A11.17,11.17,0,0,0,350,179.53Zm8.4,4.79c5.28-.89,8.74-4.84,9.09-10.35h0s0,0,0,0,0,0,0-.07l0,0c-.34-5-3.09-8.59-7.47-11.31,2.95-.13,6.26,3.29,8,7.49,2,5,.4,10.87-3.1,13.66-4.13,3.3-10.52,2.86-15-.2-3.84-2.63-6.44-7.91-5.54-10.88C347.91,181.37,352.63,185.29,358.36,184.32Zm-15.2-14a47.27,47.27,0,0,0-4,6.86c-.74,1.36-1.49,1.59-2.73.59s-2.33-1.63-3.5-2.45c-3.23-2.28-3.51-3.66-1.23-7,1.33-1.93,2.78-3.78,4.28-5.59a49.87,49.87,0,0,1,5.19-5.57,63.52,63.52,0,0,1,13.09-9.59c3.16-1.7,4-1.45,5.92,1.42,1,1.53,2,3.09,3.11,4.59s.79,2.11-.9,2.72A42.09,42.09,0,0,0,343.16,170.32ZM345.74,183c-1.2,2.2-2.58,4.29-3.89,6.42-.39.64-1.15.54-1.73.81-3.45-.33-4.95-3.24-7-5.41-.92-1,.3-3.95,1.73-4.2,2.77-.49,5.57-.89,8.37-1.15C344.67,179.3,346.39,181.77,345.74,183Zm.95.42c-1.25,2.72-1.87,5.81-4.13,7.92-1.19,1.12-2.59,0-3.9-.46.39-.78,1.12-.17,1.5-.59,1.7,1.29,2.84.5,3.18-1.24C343.78,186.68,345.46,185.2,346.69,183.39Zm7.93,17.18c-.61,2.25-2.78,2.21-4.35,3.09C351.3,202.05,353.42,202,354.62,200.57Zm-21.69-23.86c1,.94,2.43,1.4,2.93,2.9-2.9-1.33-5.18-3.51-7.61-5.45-.36-.3-.42-1.07-.48-1.63,0-.39.14-.9.65-.87.24,0,.66.41.65.61C328.91,175,331.51,175.37,332.93,176.71Zm-11.31-5.43c2.54-2.28,6-3,8.62-5.15C327.89,168.75,325.32,171,321.62,171.28ZM364.05,153l-4.78-7.4.75-.51a62,62,0,0,1,4.92,7.29Zm-12-6.1c1.78-3,4.38-5.29,6.14-8.24A17,17,0,0,1,352,146.9Zm9.6,69.28c1.51-2.17,4.19-2.78,5.48-5.16A27.4,27.4,0,0,1,359.4,214c1.78-1.89,3.89-2.56,5.16-4.72l-5.18,2.54c-.62.31-1.34.62-1.78-.15s.4-1.11.87-1.54c1-.94,2.41-1.47,3.47-3-2.43.7-4,2.66-6.33,2.35,1.6-1.14,3.23-2.26,4.8-3.43.2-.15,3.93-3.41,4.16-5.32a1.9,1.9,0,0,0,.85-.27c1.06-.57.21-1,.21-1a5.55,5.55,0,0,1-1.42-1.31c-.28-.55.49-.45.49-.45a11.86,11.86,0,0,1,2.2.19c.87.21,1.68-1.13,1.72-1.57s.17-.56.63-.56a1.65,1.65,0,0,0,1.57-1.34c.06-.36.21-.46.82-.46s1.67-1.35,1.65-1.91c0-.41.49-.45.49-.45a1.71,1.71,0,0,0,1.25-1.34c.09-.63-.57-2.1.11-1.11s1,1.09,1.61.53-.51-1.54-.8-1.87-.09-.59.14-.33a1.89,1.89,0,0,0,1.12.55.9.9,0,0,0,1.13-.81c.05-.44.59-.34.59-.34.65.22,1.53-.79,1.6-1.46a6.11,6.11,0,0,0-.24-2c-.16-.67.26-.45.26-.45s.53.32.48.77a7.82,7.82,0,0,0,.44,2.2.74.74,0,0,0,1.07.43c.47-.23.19-.78.19-.78a7.28,7.28,0,0,1-.41-1.43c0-.47,0-.54.72-.76.06.11.13.16.21.11l.27-.25h0a1.8,1.8,0,0,0,1.09-1.1,9.13,9.13,0,0,1,1.37-1.18,4.91,4.91,0,0,0,1.52-1.06c1.5-1.76,1.28-4,2.68-5.6.21-.24.23-.64,1.07-.61.47,3.26-2.07,5.47-2.74,8.38,1.47-1.87,2.93-3.75,4.39-5.62-.32,2.38-2.17,4.15-2.22,6.89a16.26,16.26,0,0,0,3.29-3.9c.35-.47.59-1.44,1.47-.85s.29,1.23,0,1.79c-.75,1.29-1.57,2.54-2.64,4.27,2-1.14,2.52-2.86,3.94-4.06.42,2.76-1.59,4.55-2.32,7.09,2-1.47,2.76-3.75,4.39-5.15l.65.38-4.29,8.88a19.43,19.43,0,0,0,4.78-6.07c.25-.54-.06-1.6,1.06-1.05a1.26,1.26,0,0,1,.53,2.07c-1.18,1.79-2.29,3.64-3.74,6,3.51-.87,2.81-4.45,5.36-5.85.29,3.41-2.81,5.4-3.08,8.58,2.16-1.87,3.35-4.26,5.21-6.14-.45,2.28-.92,4.5-2.4,6.31-7.27,8.86-15.21,17-24.71,23.54-1.67,1.15-3.06,3.32-5.84,2.07-.68-.31-2,.86-3.34.88l8.29-5.86c-3.5,1.73-6.82,3.77-10.68,4.54,1-1.8,3-2.35,4.24-4.55L365,218.45l-.3-.49,5.29-4C366.7,213.12,365,216.86,361.61,216.18Zm-3-14.84c-.1-1.25,2.82-1,1.51-.16a4,4,0,0,1-1.09.6C358.8,201.81,358.63,201.71,358.6,201.34Zm7.37-9.28a4.64,4.64,0,0,1-.42-1.29c0-.26.1-.35.34-.08.6.65,1.82,2.69,1.72,3.22S366.41,193,366,192.06Zm3.36-.87a1.1,1.1,0,0,1-.12-.61c0-.15.22-.27.37,0,.25.39.84,1.46.62,1.71S369.52,191.65,369.33,191.19Zm2.23-2.51a.79.79,0,0,1,0-.43c.05-.14.2-.26.35,0,.25.39.74,1.55.51,1.8S371.68,189.2,371.56,188.68Zm5.32-5.08a1.45,1.45,0,0,1,0-.62c.06-.17.22-.26.35-.06.28.46.81,1.66.55,1.94S377,184.38,376.88,183.6Zm-3.05,44.76a.79.79,0,0,1-.9-.69c-.1-.41.23-.57.51-.76.52-.36,2,.27,1.55-.95s-1.57.34-3-.36a101.12,101.12,0,0,0,35.95-32.88c.2,2.38-1.87,4.06-1.86,6.64,1.69-1.15,2.31-2.94,3.92-4a26.58,26.58,0,0,1-1.61,2.74,112.34,112.34,0,0,1-32.74,29.43A7,7,0,0,1,373.83,228.36Zm25.69,9c4.43-4.17,9.33-7.84,13.51-12.32A37,37,0,0,1,399.52,237.37Zm11-21.56c-1.13,3.81-3.73,5.94-6,8.37,2.56-1.4,4.67-3.37,7-5.11-1.37,3-3.8,5.28-5.54,8.11l6.06-5.55.6.74a56.34,56.34,0,0,1-23,18c2.72-2.22,5.63-4.2,8-6.84l-9,5.29c1.16-2.21,3.69-2.83,5.13-5-3.72-.22-6.18,3-10,3.23,2.36-1.93,5-2.78,6.64-5a26.26,26.26,0,0,1-9.36,3.28c2.91-1.68,5.56-2.8,7.67-5.12-3.07.5-5.34,2.77-8.4,2.8,2.12-2,5.35-2.41,7.13-5-1.68-.8-2.91.47-4.26,1s-2.82,1.24-4.34,1.65c2.46-2.14,5.39-3.61,7.73-6.19-2.92.68-4.81,3.5-8,3C388.05,223.34,395,216,402.22,209c-.88,2.31-3.1,3.67-3.79,6.16l5.86-5.37c.18,3.19-2,4.81-3.6,6.76,2.64-1,4.32-3.27,6.9-4.5l-7.24,8.2c2.53-.45,3.68-2,5-3.21l4.42-4a34.37,34.37,0,0,1-5.05,7.3A27.26,27.26,0,0,0,410.5,215.81Zm8.11-.93,3.93-6.2C422.79,210.33,421.47,212.49,418.61,214.88Zm-.82-11.69c-.42,1.41-.68,2.1,1.42,1.78,1-.14-.41,1.56.28,2.38.73.48.89-1.45,1.74-.5s.08,1.53-.35,2.23a8.56,8.56,0,0,1-3.43,3.34l1.53-4.06c-1.53-.33-1.93,1.42-3.32,1.41.36-.64.67-1.11.89-1.61s.85-1.08.33-1.59-1,.09-1.38.51c-.23.25-.49.54-.86.34a.64.64,0,0,1-.25-.87c.3-.78,1.56-1.62.49-2.38-1.33-.94-1.35,1.37-2.67,1.38.38-1.17,1.46-2.32.76-3.41-.45-.69-1,.67-1.67.6-.28-.42,0-.76.15-1.14a5.23,5.23,0,0,1,1.95-3c.08,1.62,3,1,2.46,3.19-.21.78.3.73.89.52C417.56,202,418,202.61,417.79,203.19Zm-35.71-28.28a20.13,20.13,0,0,0,4-4.85c.27-.38.45-1.05,1.09-.74s.36.94.12,1.32c-1.2,1.92-.78,4.53-2.9,6.17a2.42,2.42,0,0,0-.68,1.5c-.12.64-.18,1.35-.33,1.92-1.06.12-.49,1.23-.52,1.65l-.44.12c-.57.12-.6-.66-.6-.66s-.2-2.43-.15-2.87.09-.89-.58-.88-.77.59-.84,1.26a9.27,9.27,0,0,0,.18,2c.05.55-.15.33-.15.33l-.9-1c-.5-.55-1.13.24-.68,1.23a17.77,17.77,0,0,1,.77,3.3c.08.34-.19.78-.51.68s-.16-.91-.31-1.58a2.9,2.9,0,0,0-1.33-1.94c-.44-.19-1.22-.09-1.38.46a3,3,0,0,0,.2,2.15,3.92,3.92,0,0,0,1.78,1.78s-.33.58-.78.59-1-1.09-1.4-1.53-.7-.76-1.19-.31.16,1.65.24,2-.12.12-.12.12l-.68-1s-.48-.77-.87-.21.31,1.32.59,1.87a5.13,5.13,0,0,1,.26,1.77s-.09.88-.41.78-.23-.7-.31-1a4.58,4.58,0,0,0-1.06-1.94.86.86,0,0,0-1.24-.13,1.35,1.35,0,0,0-.35,1.59,4.6,4.6,0,0,0,1.53,2.41h0a.51.51,0,0,1,.16.72,2.42,2.42,0,0,1-.77.83c-.66.34-.5-.54-.46-1a2.22,2.22,0,0,0-.61-1.65c-.5-.54-1-.87-1.49-.64a1.59,1.59,0,0,0-.63,1.78,8.29,8.29,0,0,0,1.34,2.19c.3.33-.42.78-.42.78s-.39.17-.46-.16a7.47,7.47,0,0,0-.47-1.6,16.16,16.16,0,0,0-2-2.78c-.4-.43-1.73-1.14-1.88.29a5.9,5.9,0,0,0,1.17,3.75c1,1.53,2,1.63,2,1.63s.13.88-.56,1.12a2.32,2.32,0,0,1-2.28-.53c-.82-.65-.82-2.86-.73-3.75s-.13-.88-.57-.87-.82.34-.93,1.45a13.79,13.79,0,0,0,.55,3.31c.05.55-.37.34-.37.34s-1.18-1.54-1.58-2-.62-.44-1.23.13-.32.88-.32.88l2.48,2.71a21.45,21.45,0,0,0-7.95-1.22,1.43,1.43,0,0,1-.11,1.89,5.76,5.76,0,0,1-1.44,1.35c-.79.46-1.75,1.56-2.6.44s.56-1.64,1-2.19c.47-.39,1.1-.71,1.06-.91s0-.18,0-.26c-1.66.31-2.93.73-3.28,1.3a2.27,2.27,0,0,1-2,.78c0-.18-.14-.36-.09-.46.49-1,2.59-1.55,1.93-2.57-1-1.54-2.34,1.11-3.93.27.43-1.29,2-1.57,2.56-2.77-.47-.25-.76.21-1.14.3-.76.19-1.57,1.26-2.26.45-.85-1,1-1.38.92-1.87-.62-2.46,1.52-3.73,2.21-5.59a23.53,23.53,0,0,1,1.87-3.15,15.31,15.31,0,0,0,1.94,5.74,3,3,0,0,0,.61,1.06c.73.59,5.74-1.08,5.78-2s.46-.88,1.18-1c7-1.07,10.71-4.69,12.1-11.73a3.17,3.17,0,0,1,.17-.68c3.15.23,2.11-2.81,3.24-4.14.88-1,.61-1.86-.65-2.31s-1.46-1-.24-1.79a17.64,17.64,0,0,0,4-4.49c.42-.56.78-1.19,1.59-.61s.22,1,0,1.55c-.47,1-1,2-1.73,3.68,2.26-1.35,2.64-3.45,4.4-4.81-.49,3.17-2.91,5.18-3.18,8.21,1.63-1.56,3.34-2.87,3.77-5.17.09-.48.32-1.11.93-1,.83.19.55.88.37,1.43-.61,1.88-2.2,3.31-2.78,5.82,2.22-1.5,2.93-3.66,4.71-5.53C385.44,169.87,383.09,172,382.08,174.91ZM350.88,130c-1,1.4-2.47,2.09-4.14,3.38.61-2.24,2.53-3,3.08-4.65,0-.09.64-.11.88,0C351.28,129.08,351.2,129.57,350.88,130Z" transform="translate(-25.08 -10)" fill="#ba455c"/><g id="ZNhrk4.tif"><path d="M351,170.93a1.89,1.89,0,0,1-.11-2.89,2.53,2.53,0,0,1,2.95-.72,11.42,11.42,0,0,1,6.76,6.33,3.15,3.15,0,0,1-.42,3.54,2.69,2.69,0,0,1-3.47.46c-2.75-1.52-5.6-3.06-5.7-6.84a10.86,10.86,0,0,0,5.54,6.16,2.46,2.46,0,0,0,3-.29,2.29,2.29,0,0,0,.4-3,10.15,10.15,0,0,0-5.17-5.25C351.6,167.14,351,167.56,351,170.93Z" transform="translate(-25.08 -10)" fill="#ba455c"/><path d="M354.3,178c-2.79,0-3.67-1.74-3.82-4.17Z" transform="translate(-25.08 -10)" fill="#ba455c"/><path d="M356.19,173.62c.26-.58-.07-.78-.22-1.05-.37-.68-2-1.16-.78-2.12s1.68.69,2.43,1.16c1.05.66.72,1.61-.29,2.11-.81.39-1.14,1.95-2.43,1.12-.86-.55-1.72-1.52-1.58-2.4.22-1.34,1-.49,1.53,0S355.46,173.45,356.19,173.62Z" transform="translate(-25.08 -10)" fill="#ba455c"/></g></g></svg>