<svg xmlns="http://www.w3.org/2000/svg" xmlns:xlink="http://www.w3.org/1999/xlink" width="450" height="220" viewBox="0 0 450 220"><defs><style>.a{fill:#d9d9d9;stroke:#707070;}.b{clip-path:url(#a);}.c{fill:#e0e0e0;}.d{fill:#ccc;}.e{fill:#f4f4f4;}.f{fill:#a05d5d;}</style><clipPath id="a"><rect class="a" width="450" height="220" transform="translate(982 753)"/></clipPath></defs><g class="b" transform="translate(-982 -753)"><g transform="translate(1019.264 753)"><path class="c" d="M242.8,52.582S207.179,9.375,122.892,9.375,28.921,13.7,28.921,13.7l9.721,19.443L23.512,55.826l12.965,16.2L27.833,90.39,46.2,100.112,39.72,120.633l19.443,4.322,5.4,21.609S190.942,49.339,234.15,60.148Z" transform="translate(-23.512 -9.375)"/><path class="d" d="M38.642,33.139s119.9-15.121,172.831,8.643c0,0-90.737-22.687-187.961,14.062Z" transform="translate(-23.512 -9.375)"/><path class="d" d="M36.477,72.025,27.833,90.39s66.972-32.408,185.8-43.208C213.629,47.183,102.371,49.339,36.477,72.025Z" transform="translate(-23.512 -9.375)"/><path class="d" d="M46.2,100.112,39.72,120.633s106.936-54.007,171.753-68.05C211.473,52.582,94.806,81.747,46.2,100.112Z" transform="translate(-23.512 -9.375)"/><path class="e" d="M229.594,61.7s-2.409-1.237,4.519-7.443,8.2-6.562,10.65-6.431,3.047,5.906,3.047,5.906l7.4,6.14,2.437,3.9,20.193,18.543,10.715,9.44L302.032,105l4.425,1.219,6.412,1.387,7.115,3.515,8.09,7.556,6.356,6.947,18.187,19.865,45.233,49.8L388.616,212.6l-11.756,10.05L362,228.066l-63.626-67.947-12.046-13.171-4.322-11.615-1.875-9.693-13.387-17.465L248.962,86.106l-9.5-12.843-5.1-6.281-5.5-4.687Z" transform="translate(-23.512 -9.375)"/><path class="f" d="M324.184,113.517a28.377,28.377,0,0,0-14.409-7.584,21.384,21.384,0,0,1-11.109-5.625q-20.165-18.9-40.311-37.827c-.741-.694-1.537-1.3-1.406-2.55.1-.937-.581-1.369-1.491-1.8a14.934,14.934,0,0,1-7.772-8.193c-.937-2.362-2.747-3.5-4.687-2.728-6.337,2.475-10.7,7.162-14.259,12.674a2.925,2.925,0,0,0,.384,3.75c1.744,1.875,3.965,3.169,5.794,5.006a12.328,12.328,0,0,1,3.487,5.315c.216.806.422,1.35,1.237,1.425,1.2.112,1.706,1.041,2.316,1.875,10.968,14.212,21.974,28.4,32.867,42.655,2.456,3.234,4.865,6.562,5.447,10.818.206,1.472.2,2.991.516,4.444,1.491,6.806,5.109,12.4,9.787,17.465,10.743,11.634,21.393,23.343,32.08,35.024l.056-.056q17.718,19.349,35.408,38.7c2.466,2.7,5.372,3.825,8.868,2.541,2.634-.937,5.456-1.8,7.706-3.384,9.1-6.422,17.221-13.884,22.874-23.68,2.081-3.619,1.875-6.281-.666-9.018-17.681-19.274-35.3-38.6-53.051-57.795C337.252,127.8,331.281,120.136,324.184,113.517Zm-13.537-5.381c.853.412,0,1.228.244,1.8.647.066.844-.45,1.219-.7.778-.534,1.519-.937,1.6.637.047.937.2.937,1.022.2s1.35-.45,1.641.487c.159.487-.4,1.069.225,1.575.937-.122,2.991-2.034,2.184,1.181-.112.412.253.731.441.619,1.566-.937,1.641-.337,1.875,1.237s1.4-.2,2.166.056c1.031.356-1.05,1.959.75,1.875.441,0,.825-.394,1.181.15s0,1.1-.263,1.509c-.937,1.331-2.419,1.762-4.05,2.878.253-1.725,1.594-2.194,1.669-3.384-1.228-.666-1.875.694-2.812.722-.056-.937,1.762-1.237.759-2.306-1.453-1.556-2.1,1.059-3.478.778,0-1.1,1.172-1.462,1.434-2.437-1.275-.694-2.006.337-2.869.862-.366.225-.75.337-1.05,0a.938.938,0,0,1,0-.628c.15-.6,1.425-.994.563-1.706s-1.369.441-2.072.675a2.1,2.1,0,0,1-.516,0c-.216-.666,1.134-1.359.075-1.95s-1.631.722-2.569.741c-.731-.591.712-1.35-.094-1.875s-1.172.478-1.753.759c-.366.169-.637.862-1.125.291-.356-.431-.122-.872.244-1.247.6-.619,1.181-1.256,1.791-1.875C309.475,108.633,309.71,107.686,310.647,108.136Zm16.1,10.406c-.094,2.325-1.931,2.812-3.037,3.806C324.156,120.764,325.347,119.8,326.743,118.542Zm-18.815-10.79c-.525,1.875-2.091,2.428-3.581,3.3a5.765,5.765,0,0,1,3.581-3.3ZM289.742,94.909l8.372,7.631c.309.291,1.041.272.853.937a1.425,1.425,0,0,1-.825.75c-.544.2-.778-.347-1.116-.656a102.005,102.005,0,0,0-8.6-7.865c-.562-.412-1.312-.619-1.378-1.434,0-.169.394-.45.666-.544C288.654,93.362,289.179,93.924,289.742,94.909Zm-5.69-5.55c.684,1.05-.506,1.3-1.069,1.669-2.887,1.875-5.625,3.937-8.484,5.9a16.509,16.509,0,0,0-5.878,7.125c-.291.647-.459,1.875-1.387,1.594-1.228-.347-.741-1.481-.534-2.391a11.9,11.9,0,0,1,3.647-6.347c4.153-3.572,7.847-5.625,11.3-8.109a1.575,1.575,0,0,1,2.409.562ZM229.678,61.676a1.959,1.959,0,0,1,.412-1.978c3.647-4.012,7.284-8.043,12.009-10.856,1.022-.619,2.194-1.4,3.628-.075-2.934.244-2.869,1.875-1.791,4.022-1.106-.628-1.191-2.334-2.728-1.875-.047.131-.15.272-.131.4.131.937,1.875,1.725.937,2.522s-1.341-1.256-2.569-1.322c0,.591-.591,1.209.487,1.566.75.244,1.35.666.609,1.519-.525.609-1.05,1.153-1.941.328-.347-.319-.741-1.594-1.5-.581s.516.834.937,1.116c.6.412.656.844.159,1.341s-.937,1.2-1.753.525a17.739,17.739,0,0,1-1.369-1.284c-.562,1.116-.562,1.106.366,1.6.441.225.862.534.581,1.087s-.712.937-1.341.637a10.245,10.245,0,0,1-1.125-.834c-.319-.206-.7-.45-.937.141-.15.4-.234.666.384.787s1.556.347.881,1.359-1.322.937-2.184.244c-.319-.253-.722-1.678-1.369-.094C230.063,62.623,229.678,61.966,229.678,61.676Zm31.686,8.784a.7.7,0,0,1-.337-1.125c.337-.619.853-.2,1.153.084.675.637,1.275,1.359,1.875,2.044h0c.478.516.937,1.022,1.425,1.566.253.309.891.675.244,1.069-.356.216-1,.544-1.35-.291a6.4,6.4,0,0,0-3.056-3.347ZM240.928,74c.478-2.944,10.65-12.525,13.79-13.021A153.106,153.106,0,0,0,240.928,74Zm-3.244-5.569c.234-.7,1.331-1.219.712-2.062-.787-1.069-1.322.937-2.587,0a55.524,55.524,0,0,1,6.862-6.984.834.834,0,0,1,1.266.047c.281.375-.084.722-.337,1-.937,1-1.875,1.987-3.075,3.272,1.509-.4,1.987-1.875,3.178-1.706.619.084,2.344-2.437,1.987.741-.075.712,1.087-.7,1.875.291-1.406,1.434-2.869,2.887-4.294,4.387a23.437,23.437,0,0,0-2.109,2.522c-.347.5-.394,1.35-1.275.769s-.1-1.069.159-1.575l.459-.862c-1.331,0-1.669,1.566-2.859,1.472C237.178,69.288,237.544,68.9,237.684,68.435Zm-3.6-3.534c1.031-2.428,3.572-5.025,6.975-7.068-2.184,2.241-4.369,4.444-6.975,7.1Zm19.509,21.234c.319-.272.637-.45,1.041,0a2.812,2.812,0,0,1-.759,2.316.478.478,0,0,1-.806,0,1.659,1.659,0,0,1,.525-2.287Zm1.219,2.962c2.334-2.944,1.987-2.756-.487-5.972-1.875-2.428-4.744-4.144-5.625-7.322-.272-.937-1.359-1.031-1.959-1.875-1.144-1.528-.356-1.959.431-2.812,1.031-1.069,1.987-2.241,3.684-2.569-.262,1.284-1.509,1.875-2.137,3.15,2.091-1.144,3.234-3.29,6.337-3.534-1.678,1.537-2.859,2.606-4.031,3.694-.375.356-.6.806-.216,1.247s.834,0,1.144-.291c1.444-1.191,2.812-2.494,5.09-2.906l-2.053,2.662.2.356c.7-.347,1.434-.656,2.109-1.05s1.162-.741,1.65-.066-.356.937-.666,1.256a45.93,45.93,0,0,0-3.094,3.75c1.434-.853,2.522-2.119,4.031-2.812.666-.3,1.359-1.191,2.081-.356s-.469,1.247-.834,1.819a12.406,12.406,0,0,1-1.087,1.209l3.75-1.341c-1.753,2.147-3.656,3.431-5.062,6.065,2.034-1.631,3.337-3.14,5.119-4,.619-.3,1.247-.562,1.669.075s-.347.937-.712,1.247a22.331,22.331,0,0,0-4.069,4.575c1.959-1.444,3.825-3.019,6.562-3.862-3.815,4.115-7.434,7.922-11.887,10.884a.937.937,0,0,1,.066-1.191Zm6.356.141a7.125,7.125,0,0,0,3.375-3.112c1.537-2.887,3.919-5.287,4.931-8.484.141-.441.45-.937,1.031-.591a.806.806,0,0,1,.375,1.191c-.675,1.153-1.4,2.278-2.1,3.412-1.444,2.306-3.225,4.415-4.144,7.04a1.669,1.669,0,0,1-.937,1.022c-2.625.619-4.875,2.231-7.593,2.709,1.331-1.687,3.29-2.3,5.062-3.159Zm-2.316,7.575c.881-1.078.6-2.812,2.241-3.5s1.8.581,2.391,1.387,1.125,1.209,1.987.262c.1-.122,1.116-1.144,1.537.094-.169-1.584,1.369-2.981.309-4.687,1.359.412.937,1.659,1.566,2.4.656-.881.591-2.644,2.428-2-.478-1.416.834-1.819,1.537-2.334a24.655,24.655,0,0,0,4.453-3.975c.347-.422.628-1.191,1.331-.675s.225,1.1,0,1.678c-.553,1.519-2.006,2.25-3.019,3.328s-2.6,1.594-3.928,2.353a6.562,6.562,0,0,1-4.415,4.237c-.872,1.762-2.025,3.2-4.134,3.506h.075c-.075.45-.112,1.012-.6,1.153s-.769-.356-.937-.8c-.356-1.022-.281-2.55-2.166-1.678-.3.169-.769-.553-.656-.731Zm20.859,24.14a7.088,7.088,0,0,1,1.462-4.237c-1.706.544-2,1.744-2.887,2.428-.741-1.041.412-1.875.15-2.812-1.05-.234-1.35,1.931-2.109,1.078-.937-1.069.844-2.147.787-3.506-1.069,0-1.181,1.35-2.241,1.491-.544-1.031.384-1.678.684-2.456.178-.469.881-.937.225-1.416s-.937.3-1.331.609-.684.872-1.4.937c-.656-1.416,1.059-2.175.937-3.394-.169-.347-.375-.122-.572,0-.8.366-1.134,2.044-2.072,1.369-1.153-.825.234-1.753.591-2.616.178-.412.637-.937.188-1.266-.937-.769-.853.937-1.781.7,1.406-3.178,2.719-6.309,5.54-8.6a26.872,26.872,0,0,0-2.494,1.809c-.881.769-1.631,1.678-2.447,2.522l-.45-.394c2.034-4.153,6.225-5.925,9.75-8.84.225,1.266-.609,1.762-.881,2.812,1.622-.544,2.812-1.612,4.378-1.716.45,1.312-1.491,1.275-1.369,2.381,1.162.525,2.362-1.7,3-.431.5.994-1.556,1.687-1.969,2.887l4.144-1.753.262.337-4.3,3.937a33.487,33.487,0,0,0,6.094-1.659l-5.015,4.584c2.512-1.041,4.425-2.878,7.031-3.665-1.209,1.116-2.466,2.166-3.6,3.347-.572.6-2.034,1.181-1.294,2.062s1.4-.553,2.044-1a15.674,15.674,0,0,1,4.79-2.616c-1.519,2.128-3.89,3.4-5.165,5.728,2.494-1.341,4.575-3.394,7.79-3.75a66.56,66.56,0,0,0-8.2,7.631c3.431-1.416,5.5-5,9.375-5.784-1.191,1.1-2.391,2.166-3.562,3.281-.309.309-.759.75-.384,1.219s.825,0,1.219-.169c.787-.431,1.369-1.322,2.812-1.134-4.565,5.147-9.834,9.262-14.512,14.3a3.844,3.844,0,0,1,.872-2.672c.328-.581.553-1.209-.122-1.669s-.937.319-1.3.619c-.787.591-1.059,1.716-2.278,2.222.356-1.725,1.491-2.878,2.184-4.378-1.266.141-1.519,1.294-2.569,1.669Zm16.527-1.772L285.7,128.826C288.392,124.8,292.217,121.87,296.238,119.18Zm-10.125,5.784c2.559-2.447,4.453-5.625,7.762-7.293C291.86,120.68,288.936,122.808,286.114,124.964Zm1.116,18.6c.872-1.612,2.625-2.25,3.3-3.947-1.65,0-2.644,1.969-4.275.872.1-1.153,1.641-1.387,1.762-2.747l-2.559,1.1c-.112-2.119,3.066-2.466,2.278-4.687-1.284.328-1.875,1.875-3.412,1.716.75-2.044,2.9-2.812,4.115-4.894l-3,1.6c5.55-7.912,11.034-12.937,14.531-13.124L296,124.083c2.672-1.35,4.622-3.619,7.434-4.687-1.359,2.334-3.75,3.862-4.687,6.825,2.878-2.325,5.55-4.481,8.212-6.647-.469,1.875-2.166,2.756-2.981,4.847,2.091-1.031,3.478-2.5,5.906-3.262l-7.865,8.437.319.347,9.946-7.922c-2.6,2.447-3.75,6-6.384,8.343,3.141-1.725,5.512-4.434,8.493-6.394-2.541,3.9-6.328,6.637-9.45,10.04,4.387-2.072,7.284-6.169,11.493-8.578-.656,2.616-3.019,3.853-4.6,5.681s-3.89,3.066-5.128,6.047c3.75-2.494,6.047-5.784,9.459-7.762-2.381,4.612-7.406,7.106-9.45,12.037l13.565-12.412.441.431c-3.75,5.034-9.037,8.737-12.749,13.846a76.353,76.353,0,0,0,10.312-8.962c.712-.722,1.425-1.462,2.2-2.128.431-.366.937-1.209,1.547-.628s-.244,1.069-.6,1.453a149.33,149.33,0,0,1-14.9,14.118c-3.028,2.512-6.618,4.022-9.946,6.019l5.165-4.687-.131-.187c-1.725,1.05-3.441,2.119-5.175,3.15-.656.394-1.641,1.125-2.072.337-.525-.937.731-1.425,1.406-1.7a5.09,5.09,0,0,0,2.766-2.175c-2.6-.122-3.937,2.559-6.562,2.241,1.162-1.641,2.812-2.653,3.553-4.519a11.615,11.615,0,0,1-5.334,2.447c.937-1.969,3.019-2.737,3.919-4.828-2.081.937-3.319,2.728-5.915,3.347l5.334-5.54C290.735,141.1,289.742,143.769,287.229,143.563Zm36.2-9.909a11.971,11.971,0,0,1-3.881,4.134A9.14,9.14,0,0,1,323.425,133.654ZM317,140.076c-4.181,5.006-9.534,8.625-14.878,12.243,4.865-4.2,10.05-8.006,14.859-12.243Zm14.606-13.012c1.05,1.059-.141,1.875-.15,2.812.853.3.937-.937,1.922-.75a129.305,129.305,0,0,1-32.971,29.014l1.069-1.247c-1.284.225-2.512.5-3.853.816,13.171-8.212,25.33-17.493,33.964-30.646Zm18.59,24.805c-1.969.844-4.059,1.425-5.99,2.437a10.762,10.762,0,0,1,5.465-3.375c1.875-.544,2.287-1.369,1.978-3.009-.075-.384-.206-.769-.309-1.153h.694C353.424,150.294,353.424,150.482,350.2,151.869Zm1.331.675a18.543,18.543,0,0,1-2.625,4.134.937.937,0,0,1-1.462.094c-.506-.525.159-.816.45-1.059,1.125-.966,1.566-2.719,3.656-3.169Zm-2.54-2.278c-1.669.872-3.328,1.744-4.987,2.644-.544.3-1.059.8-1.659.15s-1.622-1.059-1.209-2.091c.937-2.409.647-5.062,1.528-7.5,1.031-2.878,3.412-3.5,5.493-1.312.216.234.422.469.637.694h.066a15.645,15.645,0,0,1,1.875,2.409,3.75,3.75,0,0,1-1.744,5.006Zm-14.221,6.412c3.694-.656,5.625,1.4,4.865,5.081a21.35,21.35,0,0,0-.084,4.369c1.275-.178,1.331.759,1.012,1.444-.553,1.2-1.387,2.25-3.047,1.716.328-1.106,2.484-.844,1.809-2.569-1.4,1.566-3.178,1.453-4.978,1.05a15.237,15.237,0,0,1-2.287-.937l.394.844c-1.05.347-1.969-.281-2.944-.431-1.809-.291-1.425-2-1.744-3.187-.1-.384-.666-1.359.619-1.162.066,0,.122.084.188.131-.319-.872-.7-1.725-.937-2.625a3.572,3.572,0,0,1,.844-3.909,3.694,3.694,0,0,1,3.975-.609,12.187,12.187,0,0,1,6.019,5.165C339.418,157.963,336.606,157.784,334.768,156.678Zm2.166-2.3c-1.284-.487-2.559-1.378-4.1-1.041-.459.1-1.041.262-1.116-.384s.609-.853,1.144-.891c2.512-.206,4.584.937,6.431,2.409a10.177,10.177,0,0,1,4.35,6.984,3.3,3.3,0,0,0,.8,1.594c-.891,1.031-.2,2.812-1.772,3.665-.8-1.294-.3-2.7-.253-3.89.112-3.028-2.419-7.275-5.484-8.447ZM328.112,168.3c2.428,2.559,5.85,2.869,9.2,3.112-4.04,1.687-8.578-.234-11.643-4.64-2.053-2.962-2.306-5.962-.478-8.062a10.471,10.471,0,0,0,2.925,9.59Zm7.875,4.49c4.95-.834,8.193-4.537,8.522-9.7h0v-.066h0c-.319-4.687-2.9-8.053-7-10.6,2.766-.122,5.868,3.084,7.5,7.022,1.875,4.687.375,10.19-2.906,12.806-3.872,3.094-9.862,2.681-14.062-.187-3.6-2.466-6.037-7.415-5.194-10.2,3.309,8.165,7.734,11.84,13.106,10.931Zm-14.249-13.124a44.31,44.31,0,0,0-3.75,6.431c-.694,1.275-1.4,1.491-2.559.553s-2.184-1.528-3.281-2.3c-3.028-2.137-3.291-3.431-1.153-6.562,1.247-1.809,2.606-3.544,4.012-5.24a46.75,46.75,0,0,1,4.865-5.222,59.548,59.548,0,0,1,12.271-8.99c2.962-1.594,3.75-1.359,5.55,1.331.937,1.434,1.875,2.9,2.915,4.3s.741,1.978-.844,2.55A39.458,39.458,0,0,0,321.7,159.669Zm2.381,11.887c-1.125,2.062-2.419,4.022-3.647,6.019-.366.6-1.078.506-1.622.759-3.234-.309-4.64-3.037-6.562-5.072-.862-.937.281-3.7,1.622-3.937,2.6-.459,5.222-.834,7.847-1.078C323.115,168.087,324.728,170.4,324.118,171.556Zm.891.394c-1.172,2.55-1.753,5.447-3.872,7.425-1.116,1.05-2.428,0-3.656-.431.366-.731,1.05-.159,1.406-.553,1.594,1.209,2.662.469,2.981-1.162.413-2.222,1.987-3.609,3.141-5.306Zm7.434,16.106c-.572,2.109-2.606,2.072-4.078,2.9.966-1.537,2.953-1.584,4.078-2.925ZM312.11,165.687c.937.881,2.278,1.312,2.747,2.719-2.719-1.247-4.856-3.29-7.134-5.109-.337-.281-.394-1-.45-1.528,0-.366.131-.844.609-.816.225,0,.619.384.609.572-.15,2.531,2.287,2.878,3.619,4.134Zm-10.6-5.09c2.381-2.137,5.625-2.812,8.081-4.828-2.2,2.428-4.612,4.537-8.081,4.8Zm39.777-17.165-4.481-6.937.7-.478a58.132,58.132,0,0,1,4.612,6.834Zm-11.25-5.719c1.669-2.812,4.106-4.959,5.756-7.725a15.937,15.937,0,0,1-5.8,7.725Zm9,64.947c1.416-2.034,3.928-2.606,5.137-4.837a25.687,25.687,0,0,1-7.247,2.794c1.669-1.772,3.647-2.4,4.837-4.425l-4.856,2.381c-.581.291-1.256.581-1.669-.141s.375-1.041.816-1.444c.937-.881,2.259-1.378,3.253-2.812-2.278.656-3.75,2.494-5.934,2.2,1.5-1.069,3.028-2.119,4.5-3.215.188-.141,3.684-3.2,3.9-4.987a1.781,1.781,0,0,0,.8-.253c.994-.534.2-.937.2-.937a5.2,5.2,0,0,1-1.331-1.228c-.262-.516.459-.422.459-.422a11.12,11.12,0,0,1,2.062.178c.816.2,1.575-1.059,1.612-1.472s.159-.525.591-.525a1.547,1.547,0,0,0,1.472-1.256c.056-.337.2-.431.769-.431s1.566-1.266,1.547-1.791c0-.384.459-.422.459-.422a1.6,1.6,0,0,0,1.172-1.256c.084-.591-.534-1.969.1-1.041s.937,1.022,1.509.5-.478-1.444-.75-1.753-.084-.553.131-.309a1.772,1.772,0,0,0,1.05.516.844.844,0,0,0,1.059-.759c.047-.412.553-.319.553-.319.609.206,1.434-.741,1.5-1.369a5.728,5.728,0,0,0-.225-1.875c-.15-.628.244-.422.244-.422s.5.3.45.722a7.331,7.331,0,0,0,.412,2.062.694.694,0,0,0,1,.4c.441-.216.178-.731.178-.731a6.825,6.825,0,0,1-.384-1.341c0-.441,0-.506.675-.712.056.1.122.15.2.1l.253-.234h0a1.687,1.687,0,0,0,1.022-1.031,8.561,8.561,0,0,1,1.284-1.106,4.6,4.6,0,0,0,1.425-.994c1.406-1.65,1.2-3.75,2.512-5.25.2-.225.216-.6,1-.572.441,3.056-1.941,5.128-2.569,7.856,1.378-1.753,2.747-3.515,4.115-5.269-.3,2.231-2.034,3.89-2.081,6.459a15.242,15.242,0,0,0,3.084-3.656c.328-.441.553-1.35,1.378-.8s.272,1.153,0,1.678c-.7,1.209-1.472,2.381-2.475,4,1.875-1.069,2.362-2.681,3.694-3.806.394,2.587-1.491,4.265-2.175,6.647,1.875-1.378,2.587-3.515,4.115-4.828l.609.356-4.022,8.325a18.215,18.215,0,0,0,4.481-5.69c.234-.506-.056-1.5.994-.984a1.181,1.181,0,0,1,.5,1.941c-1.106,1.678-2.147,3.412-3.506,5.625,3.291-.816,2.634-4.172,5.025-5.484.272,3.2-2.634,5.062-2.887,8.043,2.025-1.753,3.141-3.994,4.884-5.756-.422,2.137-.862,4.219-2.25,5.915-6.815,8.306-14.259,15.937-23.165,22.068-1.566,1.078-2.869,3.112-5.475,1.941-.637-.291-1.875.806-3.131.825l7.772-5.494c-3.281,1.622-6.394,3.534-10.012,4.256.937-1.687,2.812-2.2,3.975-4.265l-5.484,2.034-.281-.459,4.959-3.75c-3.084-.787-4.678,2.719-7.856,2.081Zm-2.812-13.912c-.094-1.172,2.644-.937,1.416-.15a3.75,3.75,0,0,1-1.022.562c-.253.028-.412-.066-.441-.412Zm6.909-8.7a4.351,4.351,0,0,1-.394-1.209c0-.244.094-.328.319-.075.563.609,1.706,2.522,1.612,3.019s-1.172-.853-1.556-1.734Zm3.15-.816a1.031,1.031,0,0,1-.112-.572c0-.141.206-.253.347,0,.234.366.787,1.369.581,1.6s-.684-.6-.862-1.031Zm2.091-2.353a.741.741,0,0,1,0-.4c.047-.131.188-.244.328,0,.234.366.694,1.453.478,1.687s-.741-.8-.853-1.284Zm4.987-4.762a1.359,1.359,0,0,1,0-.581c.056-.159.206-.244.328-.056.262.431.759,1.556.516,1.819s-.778-.45-.891-1.181ZM350.5,214.079a.741.741,0,0,1-.844-.647c-.094-.384.216-.534.478-.712.487-.337,1.875.253,1.453-.891s-1.472.319-2.812-.337a94.8,94.8,0,0,0,33.7-30.824c.187,2.231-1.753,3.806-1.744,6.225,1.584-1.078,2.166-2.756,3.675-3.75a24.923,24.923,0,0,1-1.509,2.569A105.315,105.315,0,0,1,352.2,213.3a6.561,6.561,0,0,1-1.753.778Zm24.083,8.437c4.153-3.909,8.747-7.35,12.665-11.55a34.687,34.687,0,0,1-12.712,11.559ZM384.894,202.3c-1.059,3.572-3.5,5.569-5.625,7.847a57.289,57.289,0,0,0,6.562-4.79c-1.284,2.812-3.562,4.95-5.194,7.6l5.681-5.2.563.694a52.817,52.817,0,0,1-21.562,16.874c2.55-2.081,5.278-3.937,7.5-6.412l-8.437,4.959c1.087-2.072,3.459-2.653,4.809-4.687-3.487-.206-5.794,2.812-9.375,3.028,2.212-1.809,4.687-2.606,6.225-4.687a24.618,24.618,0,0,1-8.775,3.075c2.728-1.575,5.212-2.625,7.19-4.8-2.878.469-5.006,2.6-7.875,2.625,1.987-1.875,5.015-2.259,6.684-4.687-1.575-.75-2.728.441-3.994.937a39.051,39.051,0,0,1-4.069,1.547c2.306-2.006,5.053-3.384,7.247-5.8-2.737.637-4.509,3.281-7.5,2.812,8.831-3.862,15.346-10.743,22.115-17.306-.825,2.166-2.906,3.44-3.553,5.775l5.494-5.034c.169,2.991-1.875,4.509-3.375,6.337,2.475-.937,4.05-3.066,6.469-4.219l-6.787,7.687c2.372-.422,3.45-1.875,4.687-3.009l4.144-3.75a32.221,32.221,0,0,1-4.734,6.843,25.554,25.554,0,0,0,5.419-4.247Zm7.6-.872,3.684-5.812c.169,1.556-1.069,3.581-3.75,5.822Zm-.769-10.959c-.394,1.322-.637,1.969,1.331,1.669.937-.131-.384,1.462.263,2.231.684.45.834-1.359,1.631-.469s.075,1.434-.328,2.091a8.025,8.025,0,0,1-3.215,3.131l1.434-3.806c-1.434-.309-1.809,1.331-3.112,1.322.337-.6.628-1.041.834-1.509s.8-1.012.309-1.491-.937.084-1.294.478c-.216.234-.459.506-.806.319a.6.6,0,0,1-.234-.816c.281-.731,1.462-1.519.459-2.231-1.247-.881-1.266,1.284-2.5,1.294.356-1.1,1.369-2.175.712-3.2-.422-.647-.937.628-1.566.562-.262-.394,0-.712.141-1.069a4.9,4.9,0,0,1,1.828-2.812c.075,1.519,2.812.937,2.306,2.991-.2.731.281.684.834.487a.646.646,0,0,1,.909.834Zm-33.477-26.511a18.871,18.871,0,0,0,3.75-4.547c.253-.356.422-.984,1.022-.694s.337.881.112,1.237c-1.125,1.8-.731,4.247-2.719,5.784a2.269,2.269,0,0,0-.637,1.406c-.112.6-.169,1.266-.309,1.8-.994.112-.459,1.153-.487,1.547l-.412.113c-.534.112-.562-.619-.562-.619s-.187-2.278-.141-2.691.084-.834-.544-.825-.722.553-.787,1.181a8.691,8.691,0,0,0,.169,1.875c.047.516-.141.309-.141.309l-.844-.937c-.469-.516-1.059.225-.637,1.153a16.657,16.657,0,0,1,.722,3.094c.075.319-.178.731-.478.637s-.15-.853-.291-1.481a2.719,2.719,0,0,0-1.247-1.819c-.412-.178-1.144-.084-1.294.431a2.812,2.812,0,0,0,.188,2.016,3.675,3.675,0,0,0,1.669,1.669s-.309.544-.731.553-.937-1.022-1.312-1.434-.656-.712-1.116-.291.15,1.547.225,1.875-.112.112-.112.112l-.637-.937s-.45-.722-.816-.2.291,1.237.553,1.753a4.81,4.81,0,0,1,.244,1.659s-.084.825-.384.731-.216-.656-.291-.937a4.294,4.294,0,0,0-.994-1.819.806.806,0,0,0-1.162-.122,1.266,1.266,0,0,0-.328,1.491,4.312,4.312,0,0,0,1.434,2.259h0a.478.478,0,0,1,.15.675,2.268,2.268,0,0,1-.722.778c-.619.319-.469-.506-.431-.937a2.081,2.081,0,0,0-.572-1.547c-.469-.506-.937-.816-1.4-.6a1.491,1.491,0,0,0-.591,1.669,7.771,7.771,0,0,0,1.256,2.053c.281.309-.394.731-.394.731s-.366.159-.431-.15a7,7,0,0,0-.441-1.5,15.148,15.148,0,0,0-1.875-2.606c-.375-.4-1.622-1.069-1.762.272a5.531,5.531,0,0,0,1.1,3.515c.937,1.434,1.875,1.528,1.875,1.528s.122.825-.525,1.05a2.175,2.175,0,0,1-2.137-.5c-.769-.609-.769-2.681-.684-3.515s-.122-.825-.534-.816-.769.319-.872,1.359a12.927,12.927,0,0,0,.516,3.1c.047.516-.347.319-.347.319s-1.106-1.444-1.481-1.875-.581-.412-1.153.122-.3.825-.3.825l2.325,2.541a20.109,20.109,0,0,0-7.453-1.144,1.341,1.341,0,0,1-.1,1.772,5.4,5.4,0,0,1-1.35,1.266c-.741.431-1.641,1.462-2.437.412s.525-1.537.937-2.053c.441-.366,1.031-.666.994-.853a.474.474,0,0,1,0-.244c-1.556.291-2.747.684-3.075,1.219a2.128,2.128,0,0,1-1.875.731c0-.169-.131-.337-.084-.431.459-.937,2.428-1.453,1.809-2.409-.937-1.444-2.194,1.041-3.684.253.4-1.209,1.875-1.472,2.4-2.6-.441-.234-.712.2-1.069.281-.712.178-1.472,1.181-2.119.422-.8-.937.937-1.294.862-1.753-.581-2.306,1.425-3.5,2.072-5.24a22.052,22.052,0,0,1,1.753-2.953,14.352,14.352,0,0,0,1.819,5.381,2.813,2.813,0,0,0,.572.994c.684.553,5.381-1.012,5.419-1.875s.431-.825,1.106-.937c6.562-1,10.04-4.4,11.343-11a2.972,2.972,0,0,1,.159-.637c2.953.216,1.978-2.634,3.037-3.881.825-.937.572-1.744-.609-2.166s-1.369-.937-.225-1.678a16.538,16.538,0,0,0,3.75-4.209c.394-.525.731-1.116,1.491-.572s.206.937,0,1.453c-.441.937-.937,1.875-1.622,3.45,2.119-1.266,2.475-3.234,4.125-4.509-.459,2.972-2.728,4.856-2.981,7.7,1.528-1.462,3.131-2.691,3.534-4.847.084-.45.3-1.041.872-.937.778.178.516.825.347,1.341-.572,1.762-2.062,3.1-2.606,5.456,2.081-1.406,2.747-3.431,4.415-5.184.319,3.431-1.884,5.428-2.831,8.156ZM328.937,121.87c-.937,1.312-2.316,1.959-3.881,3.169.572-2.1,2.372-2.812,2.887-4.359,0-.084.6-.1.825,0C329.312,121.008,329.237,121.467,328.937,121.87Z" transform="translate(-23.512 -9.375)"/><path class="f" d="M329.05,160.241a1.772,1.772,0,0,1-.1-2.709,2.372,2.372,0,0,1,2.766-.675,10.706,10.706,0,0,1,6.337,5.934,2.953,2.953,0,0,1-.394,3.319,2.522,2.522,0,0,1-3.253.431c-2.578-1.425-5.25-2.869-5.344-6.412a10.181,10.181,0,0,0,5.194,5.775,2.306,2.306,0,0,0,2.812-.272,2.147,2.147,0,0,0,.375-2.812,9.515,9.515,0,0,0-4.847-4.922C329.612,156.688,329.05,157.081,329.05,160.241Z" transform="translate(-23.512 -9.375)"/><path class="f" d="M332.143,166.868c-2.616,0-3.44-1.631-3.581-3.909Z" transform="translate(-23.512 -9.375)"/><path class="f" d="M333.915,162.762c.244-.544-.066-.731-.206-.984-.347-.637-1.875-1.087-.731-1.987s1.575.647,2.278,1.087c.984.619.675,1.509-.272,1.978-.759.366-1.069,1.828-2.278,1.05-.806-.516-1.612-1.425-1.481-2.25.206-1.256.937-.459,1.434,0S333.231,162.6,333.915,162.762Z" transform="translate(-23.512 -9.375)"/></g></g></svg>