<svg xmlns="http://www.w3.org/2000/svg" xmlns:xlink="http://www.w3.org/1999/xlink" width="100" height="100" viewBox="0 0 100 100"><defs><style>.a{fill:#fff;stroke:#707070;}.b{clip-path:url(#a);}.c{fill:#4c4c4c;}</style><clipPath id="a"><rect class="a" width="100" height="100" transform="translate(1043 2015)"/></clipPath></defs><g class="b" transform="translate(-1043 -2015)"><g transform="translate(1069.98 2015.016)"><path class="c" d="M298,37c-.71-8.73-7.89-15.15-7.89-15.15s-7.8,8-8,15.69,8,15.69,8,15.69S298.67,45.71,298,37Z" transform="translate(-266.93)"/><path class="c" d="M267.37,47.88a19.32,19.32,0,0,0,.95,6.08c1,2.89,2.82,6.49,6.18,7.61,5.89,2,13.38,7,13.38,7V60.89a13.87,13.87,0,0,0-2.13-7.53,10.62,10.62,0,0,0-4.65-4.09c-5.71-2.5-10.17-4.28-13.73-7.49Z" transform="translate(-266.93)"/><path class="c" d="M294.26,53.43A13.86,13.86,0,0,0,292.14,61v7.6s7.49-5,13.37-7c3.37-1.12,5.22-4.73,6.18-7.61a19,19,0,0,0,1-6.08v-6.1c-3.57,3.21-8,5-13.73,7.49a10.64,10.64,0,0,0-4.7,4.13Z" transform="translate(-266.93)"/><path class="c" d="M294.26,73.8a13.64,13.64,0,0,0-2.07,6.32.561.561,0,0,0-.05.19c-.18,1.33.11,4.07-2.08,4.1s-2.21-4.09-2.21-4.1a13.74,13.74,0,0,0-2.1-6.58,10.62,10.62,0,0,0-4.65-4.09c-5.71-2.49-10.17-4.28-13.73-7.49v6.1a19.33,19.33,0,0,0,.95,6.09c1,2.88,2.82,6.49,6.18,7.61,5.89,2,13.38,7,13.38,7v8.56s-.18,2.54,2.18,2.54,2.28-2.69,2.28-2.69l-.2-8.34s7.49-5,13.37-7c3.37-1.12,5.22-4.73,6.18-7.62a19,19,0,0,0,1-6.08v-6.1c-3.57,3.21-8,5-13.73,7.49a10.7,10.7,0,0,0-4.7,4.09Z" transform="translate(-266.93)"/><path class="c" d="M287.25,19V1.4A1.46,1.46,0,0,0,285.59.17C284.06.2,284,1.4,284,1.4l.07,22.21S286.32,19.67,287.25,19Z" transform="translate(-266.93)"/><path class="c" d="M278.62,8.34A1.48,1.48,0,0,0,277.12,7a1.66,1.66,0,0,0-1.58,1.35v33.9a21.091,21.091,0,0,0,3.1,1.56Z" transform="translate(-266.93)"/><path class="c" d="M270.08,18.79a1.41,1.41,0,0,0-1.6-1.22c-1.51,0-1.55,1.22-1.55,1.22L267,38a12.22,12.22,0,0,0,3.11,1.68Z" transform="translate(-266.93)"/><path class="c" d="M295.91,23.44,296,1.24s0-1.2-1.57-1.24a1.46,1.46,0,0,0-1.66,1.24V18.79C293.68,19.5,295.91,23.44,295.91,23.44Z" transform="translate(-266.93)"/><path class="c" d="M304.46,8.18a1.65,1.65,0,0,0-1.58-1.35,1.48,1.48,0,0,0-1.5,1.35V43.63a20.41,20.41,0,0,0,3.1-1.55Z" transform="translate(-266.93)"/><path class="c" d="M311.52,17.4a1.42,1.42,0,0,0-1.6,1.23V39.51A12.11,12.11,0,0,0,313,37.82V18.63a1.36,1.36,0,0,0-1.48-1.23Z" transform="translate(-266.93)"/></g></g></svg>