<svg xmlns="http://www.w3.org/2000/svg" viewBox="0 0 422.67 243.56"><g id="Rolling_Rack" data-name="Rolling Rack"><rect id="backBar" x="74.94" y="99.29" width="347.73" height="10.76" rx="2.76" fill="#727272"/><g id="roll1"><path d="M117.66,114.68a6.83,6.83,0,0,0,.4-2.23,6.42,6.42,0,0,0-6.31-6.51,6.27,6.27,0,0,0-5.61,3.58h0L21.71,236.6h0a8,8,0,1,0,13.51,8.65h0l80.9-128.14a6.56,6.56,0,0,0,1.5-2.38l0,0Z" transform="translate(-10.87 -6.17)" fill="#8c8c8c"/><path d="M22,239.63h0a1.88,1.88,0,0,1-.53-2.6S106.11,109,107.15,107.45s3.59-1.56,4.38-1.52l1.08.08L24.6,239.1A1.88,1.88,0,0,1,22,239.63Z" transform="translate(-10.87 -6.17)" fill="#939393"/><path d="M118.06,112a8.24,8.24,0,0,1-1,4.27L36.22,243.91a1,1,0,0,1-1.3.29h0a1,1,0,0,1-.29-1.29l83.15-132.22C117.74,110.41,118.06,110.86,118.06,112Z" transform="translate(-10.87 -6.17)" fill="#757575"/></g><g id="roll2"><path d="M160.53,114.85a6.58,6.58,0,0,0,.41-2.23,6.42,6.42,0,0,0-6.32-6.51,6.28,6.28,0,0,0-5.61,3.58l0,0L64.58,236.77h0a8,8,0,1,0,13.52,8.65h0L159,117.29a6.64,6.64,0,0,0,1.5-2.38l0,0Z" transform="translate(-10.87 -6.17)" fill="#8c8c8c"/><path d="M160.94,112.18a8.3,8.3,0,0,1-1,4.27L79.09,244.14a.94.94,0,0,1-1.29.29h0a.93.93,0,0,1-.29-1.29l83.14-132.22C160.62,110.64,160.93,111.09,160.94,112.18Z" transform="translate(-10.87 -6.17)" fill="#757575"/><path d="M65.23,239.63h0a1.88,1.88,0,0,1-.53-2.6S149.34,109,150.39,107.45s3.58-1.56,4.37-1.52l1.08.08-88,133.09A1.89,1.89,0,0,1,65.23,239.63Z" transform="translate(-10.87 -6.17)" fill="#939393"/></g><g id="roll3"><path d="M203.4,114.85a6.58,6.58,0,0,0,.41-2.23,6.42,6.42,0,0,0-6.32-6.51,6.26,6.26,0,0,0-5.6,3.58l0,0-84.4,127.1h0A8,8,0,1,0,121,245.42h0l80.9-128.14a6.64,6.64,0,0,0,1.5-2.38l0,0Z" transform="translate(-10.87 -6.17)" fill="#8c8c8c"/><path d="M203.81,112.18a8.36,8.36,0,0,1-1,4.27L122,244.14a.94.94,0,0,1-1.29.29h0a1,1,0,0,1-.29-1.29l83.15-132.22C203.49,110.64,203.81,111.09,203.81,112.18Z" transform="translate(-10.87 -6.17)" fill="#757575"/><path d="M107.77,239.63h0a1.88,1.88,0,0,1-.53-2.6S191.87,109,192.92,107.45s3.59-1.56,4.38-1.52l1.08.08-88,133.09A1.88,1.88,0,0,1,107.77,239.63Z" transform="translate(-10.87 -6.17)" fill="#939393"/></g><g id="roll4"><path d="M246.28,114.85a6.58,6.58,0,0,0,.4-2.23,6.41,6.41,0,0,0-6.31-6.51,6.28,6.28,0,0,0-5.61,3.58l0,0-84.41,127.1h0a8,8,0,1,0,13.52,8.65h0l80.9-128.14a6.64,6.64,0,0,0,1.5-2.38l0,0Z" transform="translate(-10.87 -6.17)" fill="#8c8c8c"/><path d="M246.68,112.18a8.24,8.24,0,0,1-1,4.27L164.84,244.14a.94.94,0,0,1-1.29.29h0a.93.93,0,0,1-.29-1.29L246.4,110.92C246.37,110.64,246.68,111.09,246.68,112.18Z" transform="translate(-10.87 -6.17)" fill="#757575"/><path d="M150.3,239.63h0a1.88,1.88,0,0,1-.53-2.6S234.41,109,235.45,107.45s3.59-1.56,4.38-1.52l1.08.08-88,133.09A1.88,1.88,0,0,1,150.3,239.63Z" transform="translate(-10.87 -6.17)" fill="#939393"/></g><g id="roll5"><path d="M289.15,114.85a6.58,6.58,0,0,0,.41-2.23,6.42,6.42,0,0,0-6.32-6.51,6.26,6.26,0,0,0-5.6,3.58l0,0-84.4,127.1h0a8,8,0,1,0,13.51,8.65h0l80.89-128.14a6.53,6.53,0,0,0,1.51-2.38l0,0Z" transform="translate(-10.87 -6.17)" fill="#8c8c8c"/><path d="M289.56,112.18a8.36,8.36,0,0,1-1,4.27L207.71,244.14a.94.94,0,0,1-1.29.29h0a.93.93,0,0,1-.29-1.29l83.15-132.22C289.24,110.64,289.56,111.09,289.56,112.18Z" transform="translate(-10.87 -6.17)" fill="#757575"/><path d="M193.35,240.15h0a1.89,1.89,0,0,1-.53-2.61S277.46,109.48,278.51,108s3.58-1.56,4.37-1.52,1.08.07,1.08.07L196,239.61A1.89,1.89,0,0,1,193.35,240.15Z" transform="translate(-10.87 -6.17)" fill="#939393"/></g><g id="roll6"><path d="M332,114.85a6.58,6.58,0,0,0,.4-2.23,6.41,6.41,0,0,0-6.31-6.51,6.28,6.28,0,0,0-5.61,3.58l0,0-84.41,127.1h0a8,8,0,1,0,13.52,8.65h0l80.9-128.14a6.64,6.64,0,0,0,1.5-2.38l0,0Z" transform="translate(-10.87 -6.17)" fill="#8c8c8c"/><path d="M332.43,112.18a8.24,8.24,0,0,1-1,4.27L250.59,244.14a.94.94,0,0,1-1.29.29h0a.93.93,0,0,1-.29-1.29l83.14-132.22C332.12,110.64,332.43,111.09,332.43,112.18Z" transform="translate(-10.87 -6.17)" fill="#757575"/><path d="M236.06,240.15h0a1.89,1.89,0,0,1-.53-2.61S320.17,109.48,321.21,108s3.59-1.56,4.38-1.52,1.08.07,1.08.07l-88,133.09A1.88,1.88,0,0,1,236.06,240.15Z" transform="translate(-10.87 -6.17)" fill="#939393"/></g><g id="roll7"><path d="M374.9,114.85a6.58,6.58,0,0,0,.41-2.23,6.42,6.42,0,0,0-6.32-6.51,6.26,6.26,0,0,0-5.6,3.58l0,0L279,236.77h0a8,8,0,1,0,13.52,8.65h0l80.89-128.14a6.8,6.8,0,0,0,1.51-2.38l0,0Z" transform="translate(-10.87 -6.17)" fill="#8c8c8c"/><path d="M375.31,112.18a8.36,8.36,0,0,1-1,4.27L293.46,244.14a.94.94,0,0,1-1.29.29h0a.93.93,0,0,1-.29-1.29L375,110.92C375,110.64,375.3,111.09,375.31,112.18Z" transform="translate(-10.87 -6.17)" fill="#757575"/><path d="M279,240.15h0a1.89,1.89,0,0,1-.53-2.61S363.13,109.48,364.18,108s3.59-1.56,4.38-1.52,1.08.07,1.08.07l-88,133.09A1.88,1.88,0,0,1,279,240.15Z" transform="translate(-10.87 -6.17)" fill="#939393"/></g><g id="roll8"><path d="M417.78,114.85a6.83,6.83,0,0,0,.4-2.23,6.42,6.42,0,0,0-6.31-6.51,6.27,6.27,0,0,0-5.61,3.58l0,0-84.4,127.1h0a8,8,0,1,0,13.51,8.65h0l80.9-128.14a6.64,6.64,0,0,0,1.5-2.38l0,0Z" transform="translate(-10.87 -6.17)" fill="#8c8c8c"/><path d="M418.18,112.18a8.24,8.24,0,0,1-1,4.27L336.34,244.14a1,1,0,0,1-1.3.29h0a1,1,0,0,1-.29-1.29L417.9,110.92C417.86,110.64,418.18,111.09,418.18,112.18Z" transform="translate(-10.87 -6.17)" fill="#757575"/><path d="M321.91,240.15h0a1.89,1.89,0,0,1-.54-2.61S406,109.48,407.06,108s3.59-1.56,4.38-1.52,1.08.07,1.08.07l-88,133.09A1.88,1.88,0,0,1,321.91,240.15Z" transform="translate(-10.87 -6.17)" fill="#939393"/></g><g id="frontRoll"><circle id="frontCap1" cx="17.35" cy="235.24" r="7.89" fill="#a0a0a0"/><circle id="frontCap2" cx="60.23" cy="235.24" r="7.89" fill="#a0a0a0"/><circle id="frontCap3" cx="103.1" cy="235.24" r="7.89" fill="#a0a0a0"/><circle id="frontCap4" cx="145.98" cy="235.24" r="7.89" fill="#a0a0a0"/><circle id="frontCap5" cx="188.85" cy="235.24" r="7.89" fill="#a0a0a0"/><circle id="frontCap6" cx="231.72" cy="235.24" r="7.89" fill="#a0a0a0"/><circle id="frontCap7" cx="274.6" cy="235.24" r="7.89" fill="#a0a0a0"/><circle id="frontCap8" cx="317.47" cy="235.24" r="7.89" fill="#a0a0a0"/></g><rect id="frontBar" y="230.2" width="339.77" height="13.35" rx="2.76" fill="#727272"/></g><g id="box_bottles" data-name="box+bottles"><polygon id="backBox" points="280.51 72.82 59.36 72.82 153.03 0 341.78 0 280.51 72.82" fill="#a0a0a0"/><polygon id="leftBox" points="153.03 0 150.42 72.82 59.36 72.82 153.03 0" fill="#b2b2b2"/><g id="mid-backBottles"><path d="M167.38,23l-2,64.36a17.44,17.44,0,0,1-6.51,9.54c-5.23,3.69-4.93,12.62-4.93,12.62v16l45.24,7.39V112.28s.93-6.16-6.46-13.55S181.89,23,181.89,23Z" transform="translate(-10.87 -6.17)" fill="#ba455c" stroke="#a83651" stroke-miterlimit="10"/><path d="M213.2,23l-2,64.36a17.44,17.44,0,0,1-6.51,9.54c-5.24,3.69-4.93,12.62-4.93,12.62v16L245,132.9V112.28s.93-6.16-6.46-13.55S227.71,23,227.71,23Z" transform="translate(-10.87 -6.17)" fill="#ba455c" stroke="#a83651" stroke-miterlimit="10"/><path d="M261.09,23l-2,64.36a17.42,17.42,0,0,1-6.52,9.54c-5.23,3.69-4.92,12.62-4.92,12.62v16l45.24,7.39V112.28s.92-6.16-6.46-13.55S275.6,23,275.6,23Z" transform="translate(-10.87 -6.17)" fill="#ba455c" stroke="#a83651" stroke-miterlimit="10"/><path d="M308.27,23l-2,64.36a17.44,17.44,0,0,1-6.51,9.54c-5.24,3.69-4.93,12.62-4.93,12.62v16L340,132.9V112.28s.93-6.16-6.46-13.55S322.78,23,322.78,23Z" transform="translate(-10.87 -6.17)" fill="#ba455c" stroke="#a83651" stroke-miterlimit="10"/></g><g id="midBackBottles"><path d="M152,37.75l-2,64.36a17.45,17.45,0,0,1-6.52,9.54c-5.23,3.69-4.92,12.62-4.92,12.62v16l45.25,7.39V127s.92-6.16-6.47-13.54-10.78-75.75-10.78-75.75Z" transform="translate(-10.87 -6.17)" fill="#ba455c" stroke="#a83651" stroke-miterlimit="10"/><path d="M197.26,37.75l-2,64.36a17.41,17.41,0,0,1-6.51,9.54c-5.24,3.69-4.93,12.62-4.93,12.62v16L229,147.66V127s.93-6.16-6.46-13.54-10.79-75.75-10.79-75.75Z" transform="translate(-10.87 -6.17)" fill="#ba455c" stroke="#a83651" stroke-miterlimit="10"/><path d="M246.09,37.75l-2,64.36a17.45,17.45,0,0,1-6.52,9.54c-5.23,3.69-4.92,12.62-4.92,12.62v16l45.25,7.39V127s.92-6.16-6.47-13.54-10.78-75.75-10.78-75.75Z" transform="translate(-10.87 -6.17)" fill="#ba455c" stroke="#a83651" stroke-miterlimit="10"/><path d="M292,37.06l-2,64.36a17.44,17.44,0,0,1-6.51,9.54c-5.23,3.69-4.93,12.61-4.93,12.61v16L323.78,147V126.34s.93-6.15-6.46-13.54-10.79-75.74-10.79-75.74Z" transform="translate(-10.87 -6.17)" fill="#ba455c" stroke="#a83651" stroke-miterlimit="10"/></g><g id="mid-frontBottles"><path d="M136,54.51l-2,64.36a17.49,17.49,0,0,1-6.52,9.54c-5.23,3.69-4.92,12.62-4.92,12.62v16l45.25,7.39V143.8s.92-6.16-6.47-13.55-10.78-75.74-10.78-75.74Z" transform="translate(-10.87 -6.17)" fill="#ba455c" stroke="#a83651" stroke-miterlimit="10"/><path d="M182.78,54.51l-2,64.36a17.49,17.49,0,0,1-6.52,9.54C169,132.1,169.31,141,169.31,141v16l45.25,7.39V143.8s.92-6.16-6.47-13.55S197.3,54.51,197.3,54.51Z" transform="translate(-10.87 -6.17)" fill="#ba455c" stroke="#a83651" stroke-miterlimit="10"/><path d="M230.47,54.51l-2,64.36a17.42,17.42,0,0,1-6.52,9.54C216.68,132.1,217,141,217,141v16l45.24,7.39V143.8s.93-6.16-6.46-13.55S245,54.51,245,54.51Z" transform="translate(-10.87 -6.17)" fill="#ba455c" stroke="#a83651" stroke-miterlimit="10"/><path d="M276.08,54.51l-2,64.36a17.44,17.44,0,0,1-6.51,9.54C262.3,132.1,262.6,141,262.6,141v16l45.25,7.39V143.8s.92-6.16-6.47-13.55-10.79-75.74-10.79-75.74Z" transform="translate(-10.87 -6.17)" fill="#ba455c" stroke="#a83651" stroke-miterlimit="10"/></g><g id="frontRowBottles"><path d="M120.07,69.8l-2,64.35a17.45,17.45,0,0,1-6.52,9.54c-5.23,3.7-4.92,12.62-4.92,12.62v16l45.25,7.39V159.08s.92-6.15-6.46-13.54S134.59,69.8,134.59,69.8Z" transform="translate(-10.87 -6.17)" fill="#ba455c" stroke="#a83651" stroke-miterlimit="10"/><path d="M166.84,69.8l-2,64.35a17.45,17.45,0,0,1-6.52,9.54c-5.23,3.7-4.92,12.62-4.92,12.62v16l45.25,7.39V159.08s.92-6.15-6.46-13.54S181.36,69.8,181.36,69.8Z" transform="translate(-10.87 -6.17)" fill="#ba455c" stroke="#a83651" stroke-miterlimit="10"/><path d="M214.53,69.8l-2,64.35a17.41,17.41,0,0,1-6.51,9.54c-5.24,3.7-4.93,12.62-4.93,12.62v16l45.24,7.39V159.08s.93-6.15-6.46-13.54S229,69.8,229,69.8Z" transform="translate(-10.87 -6.17)" fill="#ba455c" stroke="#a83651" stroke-miterlimit="10"/><path d="M261.09,69.8l-2,64.35a17.39,17.39,0,0,1-6.52,9.54c-5.23,3.7-4.92,12.62-4.92,12.62v16l45.24,7.39V159.08s.92-6.15-6.46-13.54S275.6,69.8,275.6,69.8Z" transform="translate(-10.87 -6.17)" fill="#ba455c" stroke="#a83651" stroke-miterlimit="10"/></g><polygon id="rightBox" points="342.49 119.37 279.13 217.28 280.51 72.82 341.78 0 342.49 119.37" fill="#c1c1c1"/><polygon id="frontBox" points="59.36 217.28 279.13 217.28 280.51 72.82 59.36 72.82 59.36 217.28" fill="#aaa"/><g id="bottleCaps"><ellipse cx="163.81" cy="15.35" rx="8.35" ry="3.91" fill="#c6c6c6" stroke="#d3d3d3" stroke-miterlimit="10" stroke-width="0.25"/><ellipse cx="209.36" cy="15.35" rx="8.35" ry="3.91" fill="#c6c6c6" stroke="#d3d3d3" stroke-miterlimit="10" stroke-width="0.25"/><ellipse cx="257.55" cy="16.82" rx="8.35" ry="3.91" fill="#c6c6c6" stroke="#d3d3d3" stroke-miterlimit="10" stroke-width="0.25"/><ellipse cx="304.6" cy="16.82" rx="8.35" ry="3.91" fill="#c6c6c6" stroke="#d3d3d3" stroke-miterlimit="10" stroke-width="0.25"/><ellipse cx="147.11" cy="31.59" rx="8.35" ry="3.91" fill="#c6c6c6" stroke="#d3d3d3" stroke-miterlimit="10" stroke-width="0.25"/><ellipse cx="131.46" cy="48.11" rx="8.35" ry="3.91" fill="#c6c6c6" stroke="#d3d3d3" stroke-miterlimit="10" stroke-width="0.25"/><ellipse cx="179.18" cy="47.93" rx="8.35" ry="3.91" fill="#c6c6c6" stroke="#d3d3d3" stroke-miterlimit="10" stroke-width="0.25"/><ellipse cx="226.53" cy="47.93" rx="8.35" ry="3.91" fill="#c6c6c6" stroke="#d3d3d3" stroke-miterlimit="10" stroke-width="0.25"/><ellipse cx="272.16" cy="47.93" rx="8.35" ry="3.91" fill="#c6c6c6" stroke="#d3d3d3" stroke-miterlimit="10" stroke-width="0.25"/><ellipse cx="257.29" cy="63.63" rx="8.35" ry="3.91" fill="#c6c6c6" stroke="#d3d3d3" stroke-miterlimit="10" stroke-width="0.25"/><ellipse cx="210.72" cy="63.63" rx="8.35" ry="3.91" fill="#c6c6c6" stroke="#d3d3d3" stroke-miterlimit="10" stroke-width="0.25"/><ellipse cx="162.96" cy="63.63" rx="8.35" ry="3.91" fill="#c6c6c6" stroke="#d3d3d3" stroke-miterlimit="10" stroke-width="0.25"/><ellipse cx="115.81" cy="63.63" rx="8.35" ry="3.91" fill="#c6c6c6" stroke="#d3d3d3" stroke-miterlimit="10" stroke-width="0.25"/><ellipse cx="193.19" cy="31.91" rx="8.35" ry="3.91" fill="#c6c6c6" stroke="#d3d3d3" stroke-miterlimit="10" stroke-width="0.25"/><ellipse cx="242.19" cy="31.59" rx="8.35" ry="3.91" fill="#c6c6c6" stroke="#d3d3d3" stroke-miterlimit="10" stroke-width="0.25"/><ellipse cx="287.94" cy="31.04" rx="8.35" ry="3.91" fill="#c6c6c6" stroke="#d3d3d3" stroke-miterlimit="10" stroke-width="0.25"/></g><polygon id="rightFlap" points="341.78 0 344.96 57.08 283.91 136.06 280.51 72.82 341.78 0" fill="#ccc"/><polygon id="leftFlap" points="59.36 72.82 52.79 135.97 59.36 127.09 59.36 72.82" fill="#bfbfbf"/></g><g id="Logo"><polygon id="LogoWire" points="159.08 137.01 110.16 115.88 76.3 177.26 151.56 159.15 221.17 179.27 255.03 115.88 159.08 137.01" fill="none" stroke="#ccc" stroke-miterlimit="10" stroke-width="3"/><path id="Kleenex" d="M249.92,155.34c-2.41-.72-4,2.85-7.22,5s-6.42.71-8.83-.72,0-4.28,0-4.28,7.22-9.29,8.83-10.72,3.21-2.85.8-5-4.68-.43-7.09,1.72-4.15,5.43-5.75,7.57-1.61.71-1.61.71v-6.43c0-3.57-4.81-2.85-6.42,2.15s-7.23,12.85-8,14.28-3.21,2.14-4,.72,2.41-3.74,4-6.6,3.15-7.86,1.6-11.26c-1-2.08-4-4.28-6.42-2.86s-4,3-6.28,8.31c-2.2,5.1.55,12.13.55,12.13s-3.1,1-4.71-.44,0-7.14,0-10,0-5-3.21-5-4.82,6.43-5.62,7.86-.8,0-.8,0l.8-5.71s.8-4.29-2.41-3.58-3.21,5.72-4,8.58-4.82,7.14-4.82,7.14-3.21,2.85-4,1.43,1.46-3.23,2.26-4.66a22.28,22.28,0,0,0,2.55-10.34,4.18,4.18,0,0,0-4-4.54s-3.94-.59-6.41,4.54-3.28,10.73-2.41,13.57l0,.05a2.53,2.53,0,0,1-1.76,3.1,11.84,11.84,0,0,1-5.49.42c-3.43-1,0-3.57,1.61-5a10.74,10.74,0,0,0,3.21-7.86c0-3.57-.8-6.43-3.21-7.14s-6.54,1-8,4.29c-1.6,3.57-2.41,10-2.41,12.14s-4,1.43-4,1.43-1.92-.67-1.12-2.1a34.1,34.1,0,0,0,3.53-7.19c1.31-3.86,2-13.49,2-16.35s-2.44-9.7-7.62-5.08c-4,3.55-6.42,8.58-8,17.15s1.61,12.14,1.61,12.14-2.41,3.57-5.62,2.14-5.62-4.28-6.42-9.28,6.42-12.86,9.63-15.72,2.41-3.57.8-5-4-1.43-8,2.15-7.22,11.42-8.83,13.57-2.4,0-2.4,0,.8-9.29.8-12.15-.8-3.57-4.82-3.57-4,2.15-4,2.15v30.71c0,2.14-.8,4.28,4.82,5.71s4-2.86,4-2.86-1.61-6.42-.8-9.28,3.21,0,3.21,0a53.56,53.56,0,0,1,7.22,7.86c2.41,3.57,9.64,1.42,11.24,0s2.43-1.43,4.08,0a8,8,0,0,0,10,.34c1.37-1.09,2.22-.93,4.43,1,2.41,2.15,10.31.62,12-1.42,1.28-1.52,3.21,0,3.21,0,3.21,2.14,7.47.39,8.83-.72,2.38-2,4.81-9.28,4-3.57s0,7.14,4,7.14,3.21-7.14,3.21-9.28,1.63-2.41,1.61-.72a9,9,0,0,0,2.19,5.62c2.4,2.86,5,2.24,6.64.81s3.21.72,3.21.72c1.61,2.85,8,2.14,10.44,0s4-5,5.62-7.86,2.41-.71,2.41-.71.8,2.85-.81,4.28-4.81,7.14-5.62,9.29a3.58,3.58,0,0,0,2.41,5c2.41.71,3.21-2.15,3.21-2.15a33.87,33.87,0,0,1,3.21-6.43c1.61-2.14,1.61-2.14,7.23.72s12.84-3.57,14.45-5S252.33,156.05,249.92,155.34Zm-107.59-1.6c-1.77,1.32-1.16-7.33.2-11.93.31-1,1.86-5.21,2.7-6s1.49-.92,1.49.81C146.72,141,144.43,152.17,142.33,153.74ZM157,156.27c-1.4.13-.47-4.34.35-6.6a5.61,5.61,0,0,1,1.56-2.56c.62-.41,1.67-.26,1.44,1.06C159.92,150.37,158.55,156.11,157,156.27Zm15.23-.59c-1.4.14,0-5.44,1.26-7.69a4,4,0,0,1,1.44-1.46c.66-.35,1.57-.27,1.34,1.06C175.83,149.79,173.78,155.52,172.18,155.68Zm35.75-1.07c-1.63.16-1.07-4.11,1-7.37a7.52,7.52,0,0,1,1.92-2.26c.77-.39,1.65-.21,1.44.9C211.81,148.44,209.78,154.43,207.93,154.61Z" transform="translate(-10.87 -6.17)" fill="#ccc"/><g id="logorown"><ellipse cx="161.26" cy="128.79" rx="0.87" ry="0.52" transform="translate(-55.74 112.35) rotate(-35.76)" fill="#ccc"/><ellipse cx="167.47" cy="126.08" rx="0.87" ry="0.52" transform="matrix(0.96, -0.27, 0.27, 0.96, -38.88, 44.2)" fill="#ccc"/><ellipse cx="162.22" cy="118.29" rx="0.87" ry="0.52" fill="#ccc"/><ellipse cx="178.36" cy="126.08" rx="0.52" ry="0.87" transform="translate(6.38 267.4) rotate(-77.73)" fill="#ccc"/><ellipse cx="184.84" cy="128.71" rx="0.52" ry="0.87" transform="translate(-29.92 218.27) rotate(-60)" fill="#ccc"/><polygon points="150.92 124.64 150.92 125.38 154.68 132.76 154.99 132.57 150.92 124.64" fill="#ccc"/><polygon points="151.46 124.01 151.93 124.11 155.62 132.27 155.24 132.44 151.46 124.01" fill="#ccc"/><polygon points="153.42 126.16 153.94 126.34 156.17 132.01 155.78 132.18 153.42 126.16" fill="#ccc"/><polygon points="153.65 122.73 153.42 123.16 156.5 131.9 156.9 131.75 153.65 122.73" fill="#ccc"/><polygon points="155.28 125.41 155.74 125.68 157.53 131.54 157.16 131.66 155.28 125.41" fill="#ccc"/><polygon points="156.27 124.26 155.95 124.76 157.79 131.46 158.2 131.35 156.27 124.26" fill="#ccc"/><polygon points="156.9 121.89 156.54 122.41 158.47 131.28 158.91 131.19 156.9 121.89" fill="#ccc"/><polygon points="157.53 121.76 158.05 122.14 159.56 131.07 159.14 131.14 157.53 121.76" fill="#ccc"/><polygon points="159.01 124.36 159.01 124.36 159.79 131.03 160.19 130.98 159.28 124.01 159.01 124.36" fill="#ccc"/><polygon points="160.06 125.55 160.46 130.96 160.82 130.93 160.54 125.78 160.06 125.55" fill="#ccc"/><polygon points="160.73 120.23 161.21 120.63 161.59 130.91 161.16 130.91 160.73 120.23" fill="#ccc"/><polygon points="161.84 119.58 162.22 119.98 162.3 130.93 161.84 130.91 161.84 119.58" fill="#ccc"/><polygon points="163.44 120.34 162.97 120.73 162.58 130.94 163.01 130.98 163.44 120.34" fill="#ccc"/><polygon points="164.1 125.57 163.67 125.81 163.25 131.01 163.68 131.06 164.1 125.57" fill="#ccc"/><polygon points="164.89 124.01 165.24 124.35 164.36 131.17 163.89 131.09 164.89 124.01" fill="#ccc"/><polygon points="166.57 121.76 166.05 122.21 164.65 131.22 164.98 131.28 166.57 121.76" fill="#ccc"/><polygon points="167.32 121.89 167.63 122.4 165.78 131.46 165.24 131.34 167.32 121.89" fill="#ccc"/><polygon points="167.83 124.18 165.97 131.51 166.43 131.64 168.17 124.73 167.83 124.18" fill="#ccc"/><polygon points="168.86 125.41 168.38 125.78 166.63 131.69 167.07 131.82 168.86 125.41" fill="#ccc"/><polygon points="170.49 122.74 170.77 123.16 167.63 132 167.2 131.86 170.49 122.74" fill="#ccc"/><polygon points="170.77 126.22 170.23 126.34 167.96 132.12 168.31 132.24 170.77 126.22" fill="#ccc"/><polygon points="172.77 123.91 172.29 124.01 168.51 132.32 168.86 132.46 172.77 123.91" fill="#ccc"/><polygon points="173.19 124.74 173.19 125.41 169.47 132.72 169.12 132.56 173.19 124.74" fill="#ccc"/></g><g id="wetwipes"><path d="M141.08,176H142l1.35,4.57,1.27-4.57h.78l1.35,4.57L148,176h.88l-1.75,5.73h-1L145,177.33l-1.17,4.37h-1Z" transform="translate(-10.87 -6.17)" fill="#ccc"/><path d="M149.32,178.79a3.31,3.31,0,0,1,.67-2.19,2.3,2.3,0,0,1,3.52,0,3.31,3.31,0,0,1,.67,2.19v.29h-4a2.18,2.18,0,0,0,.42,1.4,1.41,1.41,0,0,0,1.14.53,1.57,1.57,0,0,0,1-.32,1.21,1.21,0,0,0,.45-.83h.87a2,2,0,0,1-.72,1.4,2.42,2.42,0,0,1-1.61.53A2.14,2.14,0,0,1,150,181,3.3,3.3,0,0,1,149.32,178.79Zm.87-.49h3.11a2.18,2.18,0,0,0-.49-1.27,1.43,1.43,0,0,0-2.12,0A2.06,2.06,0,0,0,150.19,178.3Z" transform="translate(-10.87 -6.17)" fill="#ccc"/><path d="M155.34,176v-1.66h.87V176h.88v.78h-.88v3.7a.37.37,0,0,0,.12.27.36.36,0,0,0,.26.11h.5v.87h-.78a1,1,0,0,1-1-1v-4h-.78V176Z" transform="translate(-10.87 -6.17)" fill="#ccc"/><path d="M160.79,176.25h.48l1.56,4.77,1.27-4.77h.57l1.27,4.67,1.54-4.67h.5l-1.8,5.45h-.49L164.38,177l-1.31,4.72h-.48Z" transform="translate(-10.87 -6.17)" fill="#ccc"/><path d="M169,174.12h.51v.78H169Zm0,7.58v-5.45h.51v5.45Z" transform="translate(-10.87 -6.17)" fill="#ccc"/><path d="M171.13,183.74v-7.49h.51v1.13a2,2,0,0,1,.73-1,1.89,1.89,0,0,1,1.12-.36,2.15,2.15,0,0,1,1.75.8,3.22,3.22,0,0,1,.67,2.12,3.11,3.11,0,0,1-.64,2,2.08,2.08,0,0,1-1.69.77,2,2,0,0,1-1.15-.35,2.09,2.09,0,0,1-.79-.9v3.2Zm3.75-3a3,3,0,0,0,.51-1.81,2.86,2.86,0,0,0-.51-1.79,1.56,1.56,0,0,0-1.34-.68,1.62,1.62,0,0,0-1.34.73,2.67,2.67,0,0,0-.56,1.74,2.77,2.77,0,0,0,.56,1.76,1.62,1.62,0,0,0,1.34.73A1.58,1.58,0,0,0,174.88,180.74Z" transform="translate(-10.87 -6.17)" fill="#ccc"/><path d="M177.54,181.1a3.26,3.26,0,0,1-.66-2.12,3.22,3.22,0,0,1,.66-2.12,2.19,2.19,0,0,1,1.77-.8,2.28,2.28,0,0,1,1.76.73,2.78,2.78,0,0,1,.66,1.94V179h-4.34a2.76,2.76,0,0,0,.52,1.77,1.68,1.68,0,0,0,1.4.67,2.09,2.09,0,0,0,1.17-.35,1.81,1.81,0,0,0,.74-.93h.51a1.87,1.87,0,0,1-.81,1.25,2.7,2.7,0,0,1-1.61.5A2.18,2.18,0,0,1,177.54,181.1Zm3.68-2.61v-.19a1.92,1.92,0,0,0-.61-1.28,1.89,1.89,0,0,0-1.3-.51,1.82,1.82,0,0,0-1.3.52,2,2,0,0,0-.62,1.32v.14Z" transform="translate(-10.87 -6.17)" fill="#ccc"/><path d="M183.1,181.33a1.56,1.56,0,0,1-.61-1.24H183a1.19,1.19,0,0,0,.47.94,1.75,1.75,0,0,0,1.14.39,2,2,0,0,0,1.24-.35,1.12,1.12,0,0,0,.46-.93.87.87,0,0,0-.48-.74,3,3,0,0,0-1.31-.37,2.52,2.52,0,0,1-1.38-.49,1.23,1.23,0,0,1-.52-1,1.21,1.21,0,0,1,.52-1.05,2.57,2.57,0,0,1,1.47-.37,2.42,2.42,0,0,1,1.45.4,1.26,1.26,0,0,1,.55,1.06h-.49a1.17,1.17,0,0,0-.49-.78,1.69,1.69,0,0,0-1-.28,1.89,1.89,0,0,0-1.1.28.83.83,0,0,0,.09,1.48,3,3,0,0,0,1.31.37,2.52,2.52,0,0,1,1.38.52,1.42,1.42,0,0,1-.09,2.25,2.7,2.7,0,0,1-1.59.43A2.19,2.19,0,0,1,183.1,181.33Z" transform="translate(-10.87 -6.17)" fill="#ccc"/></g><polygon id="frontFlap" points="59.36 72.82 281.17 72.82 278.33 136.06 58.6 139.31 59.36 72.82" fill="#bcbcbc" opacity="0.5"/></g></svg>