<svg xmlns="http://www.w3.org/2000/svg" xmlns:xlink="http://www.w3.org/1999/xlink" width="422" height="212" viewBox="0 0 422 212"><defs><style>.a{fill:#d9d9d9;stroke:#707070;}.b{clip-path:url(#a);}.c{fill:#727272;}.d{fill:#8c8c8c;}.e{fill:#939393;}.f{fill:#757575;}.g{fill:#a0a0a0;}.h{fill:#b2b2b2;}.i{fill:#a05d5d;stroke:#915757;stroke-width:0.87px;}.i,.l,.p{stroke-miterlimit:10;}.j{fill:#c1c1c1;}.k{fill:#aaa;}.l{fill:#c6c6c6;stroke:#d3d3d3;stroke-width:0.218px;}.m{fill:#ccc;}.n{fill:#bfbfbf;}.o,.q{fill:#bcbcbc;}.o{opacity:0.5;}.p{fill:none;stroke:#bfbfbf;stroke-width:3.482px;}.r{fill:#bababa;}</style><clipPath id="a"><rect class="a" width="422" height="212" transform="translate(982 1434)"/></clipPath></defs><g class="b" transform="translate(-982 -1434)"><g transform="translate(1009.042 1434)"><rect class="c" width="302.684" height="9.366" rx="2.402" transform="translate(65.232 86.428)"/><path class="d" d="M102.418,99.824a5.946,5.946,0,0,0,.348-1.941,5.588,5.588,0,0,0-5.493-5.667,5.458,5.458,0,0,0-4.883,3.116h0L18.9,205.95h0a6.982,6.982,0,1,0,11.76,7.529h0l70.42-111.54a5.71,5.71,0,0,0,1.306-2.072h0Z" transform="translate(-9.462 -5.371)"/><path class="e" d="M19.15,208.588h0a1.636,1.636,0,0,1-.461-2.263S92.364,94.88,93.27,93.531s3.125-1.358,3.813-1.323l.94.07L21.413,208.126A1.636,1.636,0,0,1,19.15,208.588Z" transform="translate(-9.462 -5.371)"/><path class="f" d="M102.766,97.491a7.173,7.173,0,0,1-.87,3.717L31.528,212.313a.87.87,0,0,1-1.132.252h0a.87.87,0,0,1-.252-1.123L102.523,96.351C102.488,96.107,102.766,96.5,102.766,97.491Z" transform="translate(-9.462 -5.371)"/><path class="d" d="M139.735,99.972a5.727,5.727,0,0,0,.357-1.941,5.588,5.588,0,0,0-5.5-5.667,5.466,5.466,0,0,0-4.883,3.116h0L56.214,206.1h0a6.986,6.986,0,0,0,11.769,7.529h0L138.4,102.1a5.78,5.78,0,0,0,1.306-2.072h0Z" transform="translate(-9.462 -5.371)"/><path class="f" d="M140.091,97.648a7.225,7.225,0,0,1-.87,3.717L68.845,212.514a.818.818,0,0,1-1.123.252h0a.81.81,0,0,1-.252-1.123l72.37-115.092C139.813,96.307,140.083,96.7,140.091,97.648Z" transform="translate(-9.462 -5.371)"/><path class="e" d="M56.78,208.588h0a1.636,1.636,0,0,1-.461-2.263S129.994,94.88,130.908,93.531s3.116-1.358,3.8-1.323l.94.07-76.6,115.849a1.645,1.645,0,0,1-2.272.461Z" transform="translate(-9.462 -5.371)"/><path class="d" d="M177.051,99.972a5.728,5.728,0,0,0,.357-1.941,5.588,5.588,0,0,0-5.5-5.667,5.449,5.449,0,0,0-4.875,3.116h0L93.565,206.116h0a6.977,6.977,0,0,0,11.76,7.512h0l70.42-111.54a5.78,5.78,0,0,0,1.306-2.072h0Z" transform="translate(-9.462 -5.371)"/><path class="f" d="M177.408,97.648a7.277,7.277,0,0,1-.87,3.717L106.2,212.514a.818.818,0,0,1-1.123.252h0a.87.87,0,0,1-.252-1.123L177.2,96.551C177.129,96.307,177.408,96.7,177.408,97.648Z" transform="translate(-9.462 -5.371)"/><path class="e" d="M93.809,208.588h0a1.636,1.636,0,0,1-.461-2.263S167.015,94.88,167.929,93.531s3.125-1.358,3.813-1.323l.94.07-76.6,115.849a1.636,1.636,0,0,1-2.272.461Z" transform="translate(-9.462 -5.371)"/><path class="d" d="M214.376,99.972a5.727,5.727,0,0,0,.348-1.941,5.58,5.58,0,0,0-5.493-5.667,5.466,5.466,0,0,0-4.883,3.116h0L130.873,206.116h0a6.986,6.986,0,1,0,11.769,7.529h0l70.42-111.54a5.779,5.779,0,0,0,1.306-2.072h0Z" transform="translate(-9.462 -5.371)"/><path class="f" d="M214.725,97.648a7.173,7.173,0,0,1-.87,3.717L143.486,212.514a.818.818,0,0,1-1.123.252h0a.81.81,0,0,1-.252-1.123l72.37-115.092C214.455,96.307,214.725,96.7,214.725,97.648Z" transform="translate(-9.462 -5.371)"/><path class="e" d="M130.83,208.588h0a1.636,1.636,0,0,1-.461-2.263S204.044,94.88,204.949,93.531s3.125-1.358,3.813-1.323l.94.07L133.1,208.126a1.636,1.636,0,0,1-2.272.461Z" transform="translate(-9.462 -5.371)"/><path class="d" d="M251.693,99.972a5.728,5.728,0,0,0,.357-1.941,5.588,5.588,0,0,0-5.5-5.667,5.449,5.449,0,0,0-4.875,3.116h0L168.207,206.116h0a6.982,6.982,0,0,0,11.76,7.529h0L250.378,102.1a5.684,5.684,0,0,0,1.314-2.072h0Z" transform="translate(-9.462 -5.371)"/><path class="f" d="M252.05,97.648a7.277,7.277,0,0,1-.87,3.717L180.8,212.514a.818.818,0,0,1-1.123.252h0a.81.81,0,0,1-.252-1.123L251.806,96.551C251.771,96.307,252.05,96.7,252.05,97.648Z" transform="translate(-9.462 -5.371)"/><path class="e" d="M168.3,209.04h0a1.645,1.645,0,0,1-.461-2.272S241.517,95.3,242.431,94.009s3.116-1.358,3.8-1.323.94.061.94.061L170.61,208.57a1.645,1.645,0,0,1-2.307.47Z" transform="translate(-9.462 -5.371)"/><path class="d" d="M288.992,99.972a5.727,5.727,0,0,0,.348-1.941,5.58,5.58,0,0,0-5.493-5.667,5.467,5.467,0,0,0-4.883,3.116h0L205.489,206.116h0a6.986,6.986,0,1,0,11.769,7.529h0l70.42-111.54a5.779,5.779,0,0,0,1.306-2.072h0Z" transform="translate(-9.462 -5.371)"/><path class="f" d="M289.366,97.648a7.173,7.173,0,0,1-.87,3.717L218.128,212.514a.818.818,0,0,1-1.123.252h0a.81.81,0,0,1-.252-1.123l72.37-115.092C289.1,96.307,289.366,96.7,289.366,97.648Z" transform="translate(-9.462 -5.371)"/><path class="e" d="M205.48,209.04h0a1.645,1.645,0,0,1-.461-2.272S278.694,95.3,279.6,94.009s3.125-1.358,3.813-1.323.94.061.94.061L207.752,208.6A1.636,1.636,0,0,1,205.48,209.04Z" transform="translate(-9.462 -5.371)"/><path class="d" d="M326.335,99.972a5.726,5.726,0,0,0,.357-1.941,5.588,5.588,0,0,0-5.5-5.667,5.449,5.449,0,0,0-4.875,3.116h0L242.858,206.1h0a6.986,6.986,0,1,0,11.769,7.529h0l70.411-111.54a5.919,5.919,0,0,0,1.314-2.072h0Z" transform="translate(-9.462 -5.371)"/><path class="f" d="M326.692,97.648a7.277,7.277,0,0,1-.87,3.717L255.445,212.514a.818.818,0,0,1-1.123.252h0a.81.81,0,0,1-.252-1.123L326.422,96.551C326.422,96.307,326.683,96.7,326.692,97.648Z" transform="translate(-9.462 -5.371)"/><path class="e" d="M242.858,209.04h0a1.645,1.645,0,0,1-.461-2.272S316.089,95.3,317,94.009s3.125-1.358,3.813-1.323.94.061.94.061L245.156,208.6a1.636,1.636,0,0,1-2.3.444Z" transform="translate(-9.462 -5.371)"/><path class="d" d="M363.66,99.972a5.945,5.945,0,0,0,.348-1.941,5.588,5.588,0,0,0-5.493-5.667,5.458,5.458,0,0,0-4.883,3.116h0L280.166,206.116h0a6.982,6.982,0,1,0,11.76,7.529h0l70.42-111.54a5.78,5.78,0,0,0,1.306-2.072h0Z" transform="translate(-9.462 -5.371)"/><path class="f" d="M364.008,97.648a7.173,7.173,0,0,1-.87,3.717L292.77,212.514a.87.87,0,0,1-1.132.252h0a.87.87,0,0,1-.252-1.123L363.764,96.551C363.729,96.307,364.008,96.7,364.008,97.648Z" transform="translate(-9.462 -5.371)"/><path class="e" d="M280.209,209.04h0a1.645,1.645,0,0,1-.47-2.272S353.406,95.3,354.329,94.009s3.125-1.358,3.813-1.323.94.061.94.061L282.481,208.6A1.636,1.636,0,0,1,280.209,209.04Z" transform="translate(-9.462 -5.371)"/><circle class="g" cx="6.868" cy="6.868" r="6.868" transform="translate(8.235 197.899)"/><circle class="g" cx="6.868" cy="6.868" r="6.868" transform="translate(45.56 197.899)"/><circle class="g" cx="6.868" cy="6.868" r="6.868" transform="translate(82.876 197.899)"/><circle class="g" cx="6.868" cy="6.868" r="6.868" transform="translate(120.202 197.899)"/><circle class="g" cx="6.868" cy="6.868" r="6.868" transform="translate(157.518 197.899)"/><circle class="g" cx="6.868" cy="6.868" r="6.868" transform="translate(194.835 197.899)"/><circle class="g" cx="6.868" cy="6.868" r="6.868" transform="translate(232.16 197.899)"/><circle class="g" cx="6.868" cy="6.868" r="6.868" transform="translate(269.476 197.899)"/><rect class="c" width="295.755" height="11.621" rx="2.402" transform="translate(0 200.379)"/><path class="g" d="M244.172,63.387H51.67L133.206,0h164.3Z"/><path class="h" d="M133.206,0l-2.272,63.387H51.67Z"/><path class="i" d="M145.7,20.021l-1.741,56.023a15.181,15.181,0,0,1-5.667,8.3C133.737,87.559,134,95.333,134,95.333V109.26l39.38,6.433V97.735s.81-5.362-5.623-11.795-9.427-65.92-9.427-65.92Z" transform="translate(-9.462 -5.371)"/><path class="i" d="M185.582,20.021l-1.741,56.023a15.181,15.181,0,0,1-5.667,8.3c-4.561,3.212-4.291,10.985-4.291,10.985V109.26l39.38,6.424V97.735s.81-5.362-5.623-11.795-9.427-65.92-9.427-65.92Z" transform="translate(-9.462 -5.371)"/><path class="i" d="M227.268,20.021l-1.741,56.023a15.163,15.163,0,0,1-5.675,8.3c-4.552,3.212-4.283,10.985-4.283,10.985V109.26l39.38,6.433V97.735s.8-5.362-5.623-11.795-9.427-65.92-9.427-65.92Z" transform="translate(-9.462 -5.371)"/><path class="i" d="M268.336,20.021,266.6,76.043a15.181,15.181,0,0,1-5.667,8.3c-4.561,3.212-4.291,10.985-4.291,10.985V109.26l39.319,6.424V97.735s.81-5.362-5.623-11.795-9.366-65.92-9.366-65.92Z" transform="translate(-9.462 -5.371)"/><path class="i" d="M132.31,32.86l-1.741,56.023a15.19,15.19,0,0,1-5.675,8.3c-4.552,3.212-4.283,10.985-4.283,10.985V122.1L160,128.532V110.548s.8-5.362-5.632-11.786-9.384-65.937-9.384-65.937Z" transform="translate(-9.462 -5.371)"/><path class="i" d="M171.707,32.86l-1.741,56.023a15.155,15.155,0,0,1-5.667,8.3c-4.561,3.212-4.291,10.985-4.291,10.985V122.1l39.327,6.433V110.548s.81-5.362-5.623-11.786-9.392-65.937-9.392-65.937Z" transform="translate(-9.462 -5.371)"/><path class="i" d="M214.211,32.86,212.47,88.882a15.19,15.19,0,0,1-5.675,8.3c-4.552,3.212-4.283,10.985-4.283,10.985V122.1l39.388,6.433V110.548s.8-5.362-5.632-11.786-9.384-65.937-9.384-65.937Z" transform="translate(-9.462 -5.371)"/><path class="i" d="M254.174,32.259l-1.741,56.023a15.181,15.181,0,0,1-5.667,8.3c-4.553,3.212-4.291,10.976-4.291,10.976V121.49l39.362,6.467V109.974s.81-5.353-5.623-11.786-9.392-65.928-9.392-65.928Z" transform="translate(-9.462 -5.371)"/><path class="i" d="M118.382,47.449l-1.741,56.023a15.224,15.224,0,0,1-5.675,8.3c-4.552,3.212-4.283,10.985-4.283,10.985v13.927l39.388,6.433V125.172s.8-5.362-5.632-11.795-9.384-65.928-9.384-65.928Z" transform="translate(-9.462 -5.371)"/><path class="i" d="M159.1,47.449l-1.741,56.023a15.224,15.224,0,0,1-5.675,8.3c-4.579,3.212-4.309,10.959-4.309,10.959v13.927l39.388,6.433V125.172s.8-5.362-5.632-11.795-9.392-65.928-9.392-65.928Z" transform="translate(-9.462 -5.371)"/><path class="i" d="M200.614,47.449l-1.741,56.023a15.163,15.163,0,0,1-5.675,8.3c-4.587,3.212-4.309,10.959-4.309,10.959v13.927l39.38,6.433V125.172s.81-5.362-5.623-11.795-9.384-65.928-9.384-65.928Z" transform="translate(-9.462 -5.371)"/><path class="i" d="M240.316,47.449l-1.741,56.023a15.181,15.181,0,0,1-5.667,8.3c-4.587,3.212-4.326,10.959-4.326,10.959v13.927l39.388,6.433V125.172s.8-5.362-5.632-11.795-9.392-65.928-9.392-65.928Z" transform="translate(-9.462 -5.371)"/><path class="i" d="M104.516,60.758l-1.741,56.014a15.189,15.189,0,0,1-5.675,8.3c-4.552,3.221-4.283,10.985-4.283,10.985v13.927l39.388,6.433V138.472s.8-5.353-5.623-11.786-9.427-65.928-9.427-65.928Z" transform="translate(-9.462 -5.371)"/><path class="i" d="M145.227,60.758l-1.741,56.014a15.19,15.19,0,0,1-5.675,8.3c-4.552,3.221-4.283,10.985-4.283,10.985v13.927l39.388,6.433V138.472s.8-5.353-5.623-11.786-9.427-65.928-9.427-65.928Z" transform="translate(-9.462 -5.371)"/><path class="i" d="M186.739,60.758,185,116.772a15.155,15.155,0,0,1-5.667,8.3c-4.561,3.221-4.291,10.985-4.291,10.985v13.927l39.38,6.433V138.472s.81-5.353-5.623-11.786-9.462-65.928-9.462-65.928Z" transform="translate(-9.462 -5.371)"/><path class="i" d="M227.268,60.758l-1.741,56.014a15.137,15.137,0,0,1-5.675,8.3c-4.552,3.221-4.283,10.985-4.283,10.985v13.927l39.38,6.433V138.472s.8-5.353-5.623-11.786S239.9,60.758,239.9,60.758Z" transform="translate(-9.462 -5.371)"/><path class="j" d="M298.123,103.907l-55.152,85.227,1.2-125.746L297.505,0Z"/><path class="k" d="M51.67,189.133h191.3l1.2-125.746H51.67Z"/><ellipse class="l" cx="7.268" cy="3.403" rx="7.268" ry="3.403" transform="translate(135.321 9.958)"/><ellipse class="l" cx="7.268" cy="3.403" rx="7.268" ry="3.403" transform="translate(174.971 9.958)"/><ellipse class="l" cx="7.268" cy="3.403" rx="7.268" ry="3.403" transform="translate(216.918 11.238)"/><ellipse class="l" cx="7.268" cy="3.403" rx="7.268" ry="3.403" transform="translate(257.873 11.238)"/><ellipse class="l" cx="7.268" cy="3.403" rx="7.268" ry="3.403" transform="translate(120.785 24.094)"/><ellipse class="l" cx="7.268" cy="3.403" rx="7.268" ry="3.403" transform="translate(107.162 38.474)"/><ellipse class="l" cx="7.268" cy="3.403" rx="7.268" ry="3.403" transform="translate(148.7 38.318)"/><ellipse class="l" cx="7.268" cy="3.403" rx="7.268" ry="3.403" transform="translate(189.916 38.318)"/><ellipse class="l" cx="7.268" cy="3.403" rx="7.268" ry="3.403" transform="translate(229.635 38.318)"/><ellipse class="l" cx="7.268" cy="3.403" rx="7.268" ry="3.403" transform="translate(216.692 51.984)"/><ellipse class="l" cx="7.268" cy="3.403" rx="7.268" ry="3.403" transform="translate(176.155 51.984)"/><ellipse class="l" cx="7.268" cy="3.403" rx="7.268" ry="3.403" transform="translate(134.581 51.984)"/><ellipse class="l" cx="7.268" cy="3.403" rx="7.268" ry="3.403" transform="translate(93.539 51.984)"/><ellipse class="l" cx="7.268" cy="3.403" rx="7.268" ry="3.403" transform="translate(160.895 24.373)"/><ellipse class="l" cx="7.268" cy="3.403" rx="7.268" ry="3.403" transform="translate(203.548 24.094)"/><ellipse class="l" cx="7.268" cy="3.403" rx="7.268" ry="3.403" transform="translate(243.371 23.616)"/><path class="m" d="M297.505,0l2.768,49.686-53.141,68.749-2.96-55.048Z"/><path class="n" d="M51.67,63.387l-5.719,54.969,5.719-7.73Z"/><path class="o" d="M51.67,63.387H244.747l-2.472,55.048L51.009,121.263Z"/><path class="p" d="M137.611,116.929,96.064,98.257,67.3,152.5l63.926-16.008,59.13,17.783L219.12,98.257Z"/><path class="q" d="M208.144,134.164c-1.88-.557-3.134,2.237-5.641,3.908s-5.023.557-6.9-.557,0-3.351,0-3.351,5.649-7.251,6.9-8.374,2.507-2.228.627-3.908-3.665-.331-5.545,1.34-3.238,4.248-4.492,5.919-1.253.557-1.253.557v-5.023c0-2.794-3.769-2.228-5.023,1.671s-5.649,10.054-6.276,11.168-2.507,1.671-3.134.557,1.889-2.925,3.142-5.153,2.463-6.093,1.253-8.8c-.749-1.628-3.142-3.351-5.023-2.237s-3.108,2.342-4.909,6.494c-1.741,3.987.435,9.479.435,9.479s-2.429.775-3.682-.339,0-5.58,0-7.834,0-3.908-2.507-3.908-3.769,5.023-4.4,6.145-.627,0-.627,0l.627-4.465s.627-3.351-1.88-2.794-2.507,4.465-3.134,6.7-3.769,5.58-3.769,5.58-2.507,2.228-3.134,1.114,1.14-2.524,1.741-3.639a17.409,17.409,0,0,0,1.993-8.087,3.264,3.264,0,0,0-3.142-3.543s-3.081-.461-5.014,3.543-2.559,8.391-1.88,10.611h0a1.959,1.959,0,0,1-1.375,2.411,9.044,9.044,0,0,1-4.283.331c-2.69-.74,0-2.785,1.253-3.9a8.417,8.417,0,0,0,2.507-6.145c0-2.785-.627-5.023-2.507-5.58s-5.11.757-6.276,3.351a30.605,30.605,0,0,0-1.88,9.488c0,1.671-3.142,1.114-3.142,1.114s-1.5-.522-.87-1.636a26.679,26.679,0,0,0,2.759-5.623c1.018-3.012,1.567-10.541,1.567-12.77s-1.915-7.582-5.963-3.969c-3.1,2.768-5.014,6.694-6.267,13.4s1.253,9.488,1.253,9.488-1.889,2.785-4.352,1.671-4.352-3.351-5.014-7.251,5.014-10.054,7.521-12.282,1.889-2.794.635-3.908-3.142-1.114-6.276,1.671-5.649,8.931-6.9,10.611-1.88,0-1.88,0,.627-7.26.627-9.488-.627-2.794-3.769-2.794-3.134,1.671-3.134,1.671v24.007c0,1.671-.627,3.343,3.769,4.465s3.134-2.237,3.134-2.237-1.253-5.023-.627-7.251,2.507,0,2.507,0a41.582,41.582,0,0,1,5.649,6.137c1.88,2.785,7.529,1.114,8.783,0s1.9-1.114,3.186,0a6.206,6.206,0,0,0,7.773.261c1.071-.87,1.741-.722,3.482.81,1.889,1.671,8.06.479,9.41-1.114,1.01-1.184,2.516,0,2.516,0,2.507,1.671,5.832.313,6.894-.557,1.863-1.523,3.769-7.26,3.142-2.794s0,5.58,3.134,5.58,2.507-5.58,2.507-7.251,1.271-1.889,1.262-.557A7.033,7.033,0,0,0,166,140.649c1.88,2.237,3.934,1.741,5.223.635s2.516.557,2.516.557c1.253,2.228,6.267,1.671,8.156,0a22.9,22.9,0,0,0,4.352-6.137c1.253-2.237,1.88-.566,1.88-.566s.627,2.237-.627,3.351-3.76,5.58-4.352,7.26a2.8,2.8,0,0,0,1.88,3.908c1.88.557,2.507-1.68,2.507-1.68a25.966,25.966,0,0,1,2.507-5.023c1.262-1.671,1.262-1.671,5.649.557S205.724,140.727,207,139.6,210.033,134.721,208.144,134.164Zm-84.078-1.245c-1.384,1.027-.87-5.728.157-9.323.235-.8,1.445-4.074,2.107-4.657s1.166-.722,1.166.635C127.5,122.917,125.712,131.692,124.066,132.919Zm11.429,2c-1.105.1-.374-3.386.27-5.162a4.3,4.3,0,0,1,1.219-1.993c.487-.322,1.306-.209,1.132.827C137.811,130.29,136.74,134.773,135.5,134.921Zm11.9-.461c-1.1.1,0-4.257.984-6.006A3.151,3.151,0,0,1,149.5,127.3c.522-.261,1.227-.2,1.045.827-.3,1.7-1.9,6.18-3.151,6.3Zm27.933-.87c-1.271.122-.827-3.212.783-5.762a5.676,5.676,0,0,1,1.506-1.741c.6-.313,1.288-.165,1.123.705-.374,1.985-1.967,6.659-3.412,6.807Z" transform="translate(-9.462 -5.371)"/><ellipse class="r" cx="0.705" cy="0.427" rx="0.705" ry="0.427" transform="translate(129.269 102.813) rotate(-35.76)"/><ellipse class="r" cx="0.705" cy="0.427" rx="0.705" ry="0.427" transform="matrix(0.962, -0.272, 0.272, 0.962, 134.379, 100.327)"/><ellipse class="r" cx="0.705" cy="0.427" rx="0.705" ry="0.427" transform="translate(139.073 98.78)"/><ellipse class="r" cx="0.427" cy="0.705" rx="0.427" ry="0.705" transform="matrix(0.213, -0.977, 0.977, 0.213, 143.309, 100.802)"/><ellipse class="r" cx="0.428" cy="0.707" rx="0.428" ry="0.707" transform="translate(148.989 102.075) rotate(-60.113)"/><path class="r" d="M130.534,104.411v.6l3.073,6.041.261-.157Z"/><path class="r" d="M130.969,103.9l.392.078,3.012,6.676-.3.139Z"/><path class="r" d="M132.579,105.656l.427.148,1.828,4.64-.322.131Z"/><path class="r" d="M132.771,102.845l-.191.348,2.516,7.155.331-.122Z"/><path class="r" d="M134.1,105.038l.374.218,1.471,4.8-.313.1Z"/><path class="r" d="M134.912,104.1l-.261.409,1.5,5.484.339-.1Z"/><path class="r" d="M135.426,102.157l-.3.427,1.576,7.26.366-.078Z"/><path class="r" d="M135.948,102.052l.418.313,1.236,7.3-.339.061Z"/><path class="r" d="M137.149,104.176h0l.644,5.458.331-.035-.749-5.7Z"/><path class="r" d="M138.011,105.151l.331,4.422.3-.017-.235-4.222Z"/><path class="r" d="M138.559,100.8l.392.331.313,8.409h-.357Z"/><path class="r" d="M139.465,100.268l.313.331.061,8.957-.374-.017Z"/><path class="r" d="M140.779,100.886l-.383.322-.322,8.356.348.035Z"/><path class="r" d="M141.319,105.169l-.357.2-.339,4.248.348.044Z"/><path class="r" d="M141.963,103.9l.287.27-.714,5.58-.383-.061Z"/><path class="r" d="M143.347,102.052l-.435.366-1.149,7.373.279.052Z"/><path class="r" d="M143.956,102.157l.244.418-1.506,7.416-.444-.1Z"/><path class="r" d="M144.374,104.037l-1.523,6,.374.1,1.419-5.649Z"/><path class="r" d="M145.218,105.038l-.4.3-1.436,4.831.366.113Z"/><path class="r" d="M146.55,102.853l.226.339-2.577,7.242-.348-.113Z"/><path class="r" d="M146.777,105.7l-.444.1-1.863,4.727.287.1Z"/><path class="r" d="M148.413,103.811l-.392.087-3.09,6.8.287.113Z"/><path class="r" d="M148.753,104.49v.548l-3.038,5.98-.3-.122Z"/><path class="r" d="M124.65,149.823h.7l1.105,3.734,1.036-3.734h.635l1.114,3.734,1.036-3.734H131l-1.436,4.683h-.731l-.958-3.578-.958,3.578h-.792Z" transform="translate(-9.462 -5.371)"/><path class="r" d="M131.439,152.121a2.733,2.733,0,0,1,.548-1.741,1.88,1.88,0,0,1,2.881,0,2.733,2.733,0,0,1,.548,1.741v.209h-3.264a1.741,1.741,0,0,0,.339,1.14,1.14,1.14,0,0,0,.931.435,1.3,1.3,0,0,0,.87-.252.949.949,0,0,0,.366-.688h.714a1.61,1.61,0,0,1-.583,1.149,1.985,1.985,0,0,1-1.323.435,1.741,1.741,0,0,1-1.436-.67,2.759,2.759,0,0,1-.592-1.758Zm.714-.392h2.542a1.671,1.671,0,0,0-.4-1.036,1.106,1.106,0,0,0-.87-.392,1.088,1.088,0,0,0-.87.392,1.628,1.628,0,0,0-.444,1.036Z" transform="translate(-9.462 -5.371)"/><path class="r" d="M136.322,149.823v-1.358h.714v1.358h.722v.635h-.722v3.02a.3.3,0,0,0,.1.226.287.287,0,0,0,.218.087h.409v.714h-.644a.783.783,0,0,1-.792-.792v-3.256h-.635v-.635Z" transform="translate(-9.462 -5.371)"/><path class="r" d="M140.779,150.05h.4l1.271,3.908,1.036-3.908h.47l1.036,3.821,1.262-3.821h.409l-1.471,4.457h-.4l-1.079-3.856-1.062,3.856h-.4Z" transform="translate(-9.462 -5.371)"/><path class="r" d="M147.482,148.309h.418v.635h-.418Zm0,6.2V150.05h.418v4.457Z" transform="translate(-9.462 -5.371)"/><path class="r" d="M149.24,156.178v-6.093h.418v.923a1.654,1.654,0,0,1,.592-.783,1.619,1.619,0,0,1,.923-.3,1.741,1.741,0,0,1,1.436.653,2.655,2.655,0,0,1,.54,1.741,2.611,2.611,0,0,1-.522,1.68,1.78,1.78,0,0,1-2.968-.4v2.611Zm3.09-2.455a2.437,2.437,0,0,0,.418-1.488,2.35,2.35,0,0,0-.418-1.462,1.288,1.288,0,0,0-1.1-.548,1.314,1.314,0,0,0-1.1.592,2.237,2.237,0,0,0-.461,1.419,2.3,2.3,0,0,0,.461,1.445,1.323,1.323,0,0,0,1.1.6A1.28,1.28,0,0,0,152.33,153.723Z" transform="translate(-9.462 -5.371)"/><path class="r" d="M154.489,154.019a3.064,3.064,0,0,1,0-3.482,1.793,1.793,0,0,1,1.445-.653,1.863,1.863,0,0,1,1.445.6,2.272,2.272,0,0,1,.54,1.584v.2h-3.551a2.254,2.254,0,0,0,.427,1.454,1.375,1.375,0,0,0,1.14.548,1.654,1.654,0,0,0,.958-.287,1.48,1.48,0,0,0,.609-.757h.418a1.558,1.558,0,0,1-.67,1.018,2.133,2.133,0,0,1-1.314.409,1.811,1.811,0,0,1-1.445-.635Zm3.012-2.133v-.157a1.576,1.576,0,0,0-.5-1.053,1.532,1.532,0,0,0-1.062-.418,1.5,1.5,0,0,0-1.062.435,1.61,1.61,0,0,0-.5,1.071v.122Z" transform="translate(-9.462 -5.371)"/><path class="r" d="M159.041,154.2a1.262,1.262,0,0,1-.5-1.01h.383a.984.984,0,0,0,.392.775,1.436,1.436,0,0,0,.931.313,1.636,1.636,0,0,0,1.01-.287.87.87,0,0,0,.383-.757.723.723,0,0,0-.4-.609,2.611,2.611,0,0,0-1.071-.3,2.037,2.037,0,0,1-1.123-.4,1.01,1.01,0,0,1-.435-.827.984.984,0,0,1,.435-.87,2.08,2.08,0,0,1,1.2-.3,2.011,2.011,0,0,1,1.184.322,1.036,1.036,0,0,1,.444.87h-.392a.957.957,0,0,0-.4-.635,1.393,1.393,0,0,0-.87-.235,1.523,1.523,0,0,0-.87.235.7.7,0,0,0-.339.6.714.714,0,0,0,.409.609,2.446,2.446,0,0,0,1.071.3,2.028,2.028,0,0,1,1.123.418,1.166,1.166,0,0,1-.07,1.845,2.159,2.159,0,0,1-1.3.348A1.741,1.741,0,0,1,159.041,154.2Z" transform="translate(-9.462 -5.371)"/></g></g></svg>