<svg xmlns="http://www.w3.org/2000/svg" viewBox="0 0 728.54 255.67"><g id="Milling"><rect id="background" x="2.5" y="75.07" width="87.64" height="27.14" fill="#707070"/><path id="wheatFunnel" d="M94.52,177.14,51,224.34,6.88,177.14V157.88s18.26-16.66,43.5-17.56,44.14,16.37,44.14,16.37Z" transform="translate(-4.38 -59.45)" fill="#bc1334"/><g id="structure"><polygon points="22.17 62.62 70.57 62.62 62.94 75.07 28.64 75.07 22.17 62.62" fill="#939393"/><polyline points="2.5 117.69 46.64 164.89 90.14 117.69" fill="none" stroke="#8e8d8d" stroke-miterlimit="10" stroke-width="3"/><polyline points="2.5 186.72 2.5 75.07 90.14 75.07 90.14 186.72" fill="none" stroke="#8e8d8d" stroke-miterlimit="10" stroke-width="5"/></g><g id="rightWheel"><circle cx="61.13" cy="121.1" r="12.89" fill="#7c7c7c"/><circle cx="61.13" cy="121.1" r="9.43" fill="#9b9b9b"/><circle cx="61.13" cy="121.1" r="5.4" fill="#707070"/></g><g id="leftWheel"><circle cx="31.6" cy="120.83" r="12.89" fill="#7c7c7c"/><circle cx="31.6" cy="120.83" r="9.43" fill="#9b9b9b"/><circle cx="31.6" cy="120.83" r="5.4" fill="#707070"/></g><g id="tube"><path d="M51.22,221.39A14.41,14.41,0,0,0,53,228.45c1.73,3.1,5.12,6.47,11.66,6.47H103.4a16.74,16.74,0,0,0,4-.46c3.89-.94,10.87-3.67,10.87-11.05V78.84s-1.34-15.35,12.06-15.35H150.2S165,62.21,165,75V92.91" transform="translate(-4.38 -59.45)" fill="none" stroke="#8e8d8d" stroke-linejoin="round" stroke-width="8"/><path d="M51,203.8l.18,17.59s.06,13,13.24,13.44c12.05.43,40.22,0,40.22,0s13.34-.71,13.34-11V79.31S116.68,64,130.09,64H150.2S165,62.68,165,75.47V92.91" transform="translate(-4.38 -59.45)" fill="none" stroke="#bc1334" stroke-miterlimit="10" stroke-width="5"/></g><g id="Wheat"><ellipse cx="46.66" cy="122.86" rx="1.45" ry="2.28" fill="#cf9c0b"/><ellipse cx="51.86" cy="104.95" rx="1.45" ry="2.28" fill="#cf9c0b"/><ellipse cx="56.24" cy="155.41" rx="2.31" ry="1.44" transform="translate(-111.92 73.81) rotate(-62.4)" fill="#cf9c0b"/><ellipse cx="60.58" cy="154.82" rx="2.31" ry="1.44" transform="translate(-109.07 77.34) rotate(-62.4)" fill="#cf9c0b"/><ellipse cx="54.03" cy="159.38" rx="2.31" ry="1.44" transform="translate(-116.63 73.98) rotate(-62.4)" fill="#cf9c0b"/><ellipse cx="59.24" cy="149.29" rx="2.31" ry="1.44" transform="translate(-104.89 73.19) rotate(-62.4)" fill="#cf9c0b"/><ellipse cx="47.25" cy="149.56" rx="2.31" ry="1.44" transform="translate(-111.56 62.7) rotate(-62.4)" fill="#cf9c0b"/><ellipse cx="43.54" cy="149.79" rx="2.31" ry="1.44" transform="translate(-113.76 59.54) rotate(-62.4)" fill="#cf9c0b"/><ellipse cx="43.11" cy="145.07" rx="2.31" ry="1.44" transform="translate(-109.8 56.63) rotate(-62.4)" fill="#cf9c0b"/><ellipse cx="51.39" cy="153.51" rx="2.35" ry="1.41" transform="translate(-90.76 9.06) rotate(-39.82)" fill="#cf9c0b"/><ellipse cx="49.47" cy="143.01" rx="2.35" ry="1.41" transform="translate(-84.48 5.39) rotate(-39.82)" fill="#cf9c0b"/><ellipse cx="47.32" cy="102.67" rx="1.45" ry="2.28" fill="#cf9c0b"/><ellipse cx="48.52" cy="109.52" rx="1.45" ry="2.28" fill="#cf9c0b"/><ellipse cx="45.57" cy="99.02" rx="1.45" ry="2.28" fill="#cf9c0b"/><ellipse cx="45.09" cy="107.23" rx="1.45" ry="2.28" fill="#cf9c0b"/><ellipse cx="52.69" cy="90.87" rx="1.45" ry="2.28" fill="#cf9c0b"/><ellipse cx="47.99" cy="95.96" rx="1.45" ry="2.28" fill="#cf9c0b"/><ellipse cx="46.6" cy="154.82" rx="1.44" ry="2.31" transform="translate(-71.69 -19.37) rotate(-28.04)" fill="#cf9c0b"/><ellipse cx="39.16" cy="155.06" rx="2.29" ry="1.45" transform="translate(-125.14 95.83) rotate(-75.91)" fill="#cf9c0b"/><ellipse cx="52.26" cy="147.64" rx="1.44" ry="2.31" transform="translate(-67.65 -17.55) rotate(-28.04)" fill="#cf9c0b"/><ellipse cx="61.31" cy="145.07" rx="1.44" ry="2.31" transform="translate(-65.38 -13.6) rotate(-28.04)" fill="#cf9c0b"/><ellipse cx="45.83" cy="144.04" rx="1.44" ry="2.31" transform="translate(-66.72 -21) rotate(-28.04)" fill="#cf9c0b"/><ellipse cx="44.71" cy="157.9" rx="1.44" ry="2.31" transform="translate(-73.36 -19.89) rotate(-28.04)" fill="#cf9c0b"/><ellipse cx="45.09" cy="89.97" rx="1.45" ry="2.28" fill="#cf9c0b"/><ellipse cx="53.31" cy="84.72" rx="1.45" ry="2.28" fill="#cf9c0b"/><ellipse cx="48.77" cy="83.12" rx="1.45" ry="2.28" fill="#cf9c0b"/><ellipse cx="41.79" cy="102.21" rx="1.45" ry="2.28" fill="#cf9c0b"/><ellipse cx="50.55" cy="174.03" rx="1.44" ry="2.31" transform="translate(-80.26 -15.25) rotate(-28.04)" fill="#cf9c0b"/><ellipse cx="52.9" cy="189.13" rx="2.3" ry="1.44" transform="translate(-147.28 114.39) rotate(-69.91)" fill="#cf9c0b"/><ellipse cx="50.55" cy="213.71" rx="2.3" ry="1.44" transform="translate(-171.89 128.32) rotate(-69.91)" fill="#cf9c0b"/><ellipse cx="50.92" cy="201.69" rx="1.44" ry="2.31" transform="translate(-93.22 -11.84) rotate(-28.04)" fill="#cf9c0b"/><ellipse cx="117.78" cy="159.84" rx="2.31" ry="1.44" transform="translate(-82.81 130.73) rotate(-62.4)" fill="#cf9c0b"/><ellipse cx="103.52" cy="235.4" rx="2.38" ry="1.39" transform="translate(-101 14.48) rotate(-27.37)" fill="#cf9c0b"/><ellipse cx="117.73" cy="221.06" rx="2.29" ry="1.45" transform="matrix(0.18, -0.98, 0.98, 0.18, -125.54, 236.79)" fill="#cf9c0b"/><ellipse cx="117.71" cy="185.26" rx="2.38" ry="1.57" transform="translate(-84.27 221.36) rotate(-83.38)" fill="#cf9c0b"/><ellipse cx="117.71" cy="146.46" rx="2.38" ry="1.57" transform="translate(-45.72 187.04) rotate(-83.38)" fill="#cf9c0b"/><ellipse cx="75.79" cy="235.4" rx="1.38" ry="2.4" transform="matrix(0.15, -0.99, 0.99, 0.15, -172.7, 215.46)" fill="#cf9c0b"/><ellipse cx="56.1" cy="233.14" rx="1.41" ry="2.35" transform="translate(-163.79 68.53) rotate(-50.46)" fill="#cf9c0b"/><ellipse cx="117.78" cy="135.91" rx="2.31" ry="1.44" transform="translate(-61.6 117.88) rotate(-62.4)" fill="#cf9c0b"/><ellipse cx="117.78" cy="100.57" rx="2.31" ry="1.44" transform="translate(-30.29 98.92) rotate(-62.4)" fill="#cf9c0b"/><ellipse cx="124.49" cy="64.94" rx="2.31" ry="1.44" transform="translate(4.89 85.73) rotate(-62.4)" fill="#cf9c0b"/><ellipse cx="117.78" cy="83.2" rx="1.41" ry="2.35" transform="translate(-27.13 56.07) rotate(-48.19)" fill="#cf9c0b"/><ellipse cx="117.78" cy="115.81" rx="1.38" ry="2.4" transform="translate(-39.14 -7.01) rotate(-21.96)" fill="#cf9c0b"/><ellipse cx="149.75" cy="63.92" rx="1.38" ry="2.4" transform="translate(65.01 146.09) rotate(-83.54)" fill="#cf9c0b"/><ellipse cx="165.12" cy="88.98" rx="1.43" ry="2.31" transform="translate(-26.23 44.53) rotate(-32.91)" fill="#cf9c0b"/></g></g><g id="Mashing"><polygon id="bottomWheat" points="219.12 132.91 194.01 132.91 194.01 132.91 168.9 132.91 136.86 132.91 136.86 161.6 170.39 175.94 194.01 178.56 194.01 178.56 194.01 178.56 194.01 178.56 194.01 178.56 217.63 175.94 251.16 161.6 251.16 132.91 219.12 132.91" fill="#ba455c"/><rect id="background-2" data-name="background" x="136.86" y="71.06" width="114.29" height="18.67" fill="#707070"/><path id="topWheat" d="M245.87,142.28a3.66,3.66,0,0,0-7.32,0h-5a3.66,3.66,0,0,0-7.32,0h-5a3.66,3.66,0,0,0-7.32,0h-6.06a3.66,3.66,0,0,0-7.32,0h-4.64a3.66,3.66,0,0,0-7.32,0h-5.88a3.66,3.66,0,0,0-7.31,0h-5a3.66,3.66,0,0,0-7.31,0h-4.95a3.66,3.66,0,0,0-7.31,0h-9.54v41.14H255.53V142.28Z" transform="translate(-4.38 -59.45)" fill="#ba455c"/><rect id="top" x="136.86" y="58.79" width="114.29" height="6.23" fill="#8e8d8d"/><rect id="topContainer" x="136.86" y="71.06" width="114.29" height="52.91" fill="none" stroke="#8e8d8d" stroke-miterlimit="10" stroke-width="5"/><g id="wheat-2" data-name="wheat"><ellipse cx="214.8" cy="152.16" rx="2.28" ry="1.38" transform="translate(-18.22 223.14) rotate(-65.02)" fill="#cf9c0b"/><ellipse cx="192.64" cy="173.37" rx="2.28" ry="1.38" transform="translate(-50.25 215.31) rotate(-65.02)" fill="#cf9c0b"/><ellipse cx="152.5" cy="173.37" rx="2.28" ry="1.38" transform="translate(-73.43 178.92) rotate(-65.02)" fill="#cf9c0b"/><ellipse cx="164.95" cy="173.37" rx="1.38" ry="2.28" transform="translate(-78.52 123.86) rotate(-48.81)" fill="#cf9c0b"/><ellipse cx="178.41" cy="159.55" rx="1.38" ry="2.28" transform="translate(-63.53 129.27) rotate(-48.81)" fill="#cf9c0b"/><ellipse cx="200.41" cy="166.22" rx="1.38" ry="2.28" transform="translate(-61.03 148.1) rotate(-48.81)" fill="#cf9c0b"/><ellipse cx="242.21" cy="151.73" rx="1.38" ry="2.28" transform="translate(-35.86 174.61) rotate(-48.81)" fill="#cf9c0b"/><ellipse cx="245.96" cy="173.37" rx="1.38" ry="2.28" transform="translate(-50.87 184.81) rotate(-48.81)" fill="#cf9c0b"/><ellipse cx="160.91" cy="151.73" rx="1.38" ry="2.28" transform="translate(-63.62 113.43) rotate(-48.81)" fill="#cf9c0b"/><ellipse cx="152.86" cy="159.12" rx="2.28" ry="1.38" transform="translate(-16.52 246.17) rotate(-87.75)" fill="#cf9c0b"/><ellipse cx="160.08" cy="165.73" rx="2.28" ry="1.38" transform="translate(-16.17 259.74) rotate(-87.75)" fill="#cf9c0b"/><ellipse cx="173.89" cy="151.52" rx="2.28" ry="1.38" transform="translate(11.29 259.89) rotate(-87.75)" fill="#cf9c0b"/><ellipse cx="172.32" cy="167.09" rx="2.28" ry="1.38" transform="translate(-5.78 273.28) rotate(-87.75)" fill="#cf9c0b"/><ellipse cx="200.41" cy="151.52" rx="2.28" ry="1.38" transform="translate(36.77 286.39) rotate(-87.75)" fill="#cf9c0b"/><ellipse cx="222.01" cy="159.55" rx="2.28" ry="1.38" transform="translate(49.5 315.69) rotate(-87.75)" fill="#cf9c0b"/><ellipse cx="206.89" cy="173.37" rx="2.28" ry="1.38" transform="matrix(0.04, -1, 1, 0.04, 21.17, 313.85)" fill="#cf9c0b"/><ellipse cx="246.57" cy="158.46" rx="2.28" ry="1.38" transform="translate(74.19 339.18) rotate(-87.75)" fill="#cf9c0b"/><ellipse cx="229" cy="152.16" rx="2.28" ry="1.38" transform="matrix(0.04, -1, 1, 0.04, 63.6, 315.56)" fill="#cf9c0b"/><ellipse cx="233.37" cy="173.37" rx="2.28" ry="1.38" transform="translate(46.61 340.31) rotate(-87.75)" fill="#cf9c0b"/><ellipse cx="214.8" cy="165.73" rx="2.28" ry="1.38" transform="translate(36.41 314.41) rotate(-87.75)" fill="#cf9c0b"/><ellipse cx="178.41" cy="174.03" rx="2.28" ry="1.38" transform="translate(-6.86 286.02) rotate(-87.75)" fill="#cf9c0b"/><ellipse cx="207.46" cy="158.98" rx="2.28" ry="1.38" transform="translate(-31.56 -15.62) rotate(-11.33)" fill="#cf9c0b"/><ellipse cx="229" cy="166.82" rx="2.28" ry="1.38" transform="translate(-32.68 -11.23) rotate(-11.33)" fill="#cf9c0b"/><ellipse cx="187.15" cy="151.52" rx="2.28" ry="1.38" transform="translate(-30.49 -19.75) rotate(-11.33)" fill="#cf9c0b"/><ellipse cx="185.46" cy="165.73" rx="2.28" ry="1.38" transform="matrix(0.98, -0.2, 0.2, 0.98, -33.31, -19.81)" fill="#cf9c0b"/><ellipse cx="241.48" cy="165.73" rx="2.28" ry="1.38" transform="translate(-32.22 -8.81) rotate(-11.33)" fill="#cf9c0b"/><ellipse cx="166.04" cy="158.46" rx="2.28" ry="1.38" transform="translate(-52.09 182.59) rotate(-65.02)" fill="#cf9c0b"/><ellipse cx="192.64" cy="159.55" rx="2.28" ry="1.38" transform="translate(-37.73 207.33) rotate(-65.02)" fill="#cf9c0b"/><ellipse cx="233.62" cy="159.55" rx="2.28" ry="1.38" transform="translate(-14.05 244.47) rotate(-65.02)" fill="#cf9c0b"/><ellipse cx="221.15" cy="173.37" rx="2.28" ry="1.38" transform="translate(-33.78 241.15) rotate(-65.02)" fill="#cf9c0b"/></g><g id="bottomContainer"><polyline points="136.86 185.82 136.86 132.91 251.16 132.91 251.16 185.82" fill="none" stroke="#8e8d8d" stroke-miterlimit="10" stroke-width="5"/><path d="M141.24,221.06s20,16.95,57.15,16.95,57.14-16.95,57.14-16.95" transform="translate(-4.38 -59.45)" fill="none" stroke="#8e8d8d" stroke-miterlimit="10" stroke-width="5"/></g><rect id="funnelTube" x="191.04" y="119.46" width="6.87" height="19.82" fill="#ba455c"/><g id="Tube-2" data-name="Tube"><path d="M199.31,236.37l.27,28.75s1.52,11.51,15.23,11.51H260.5s15.22-1.28,15.22-11.51V81.31S274.2,66,289.43,66H312s16.76-1.28,16.76,11.51V95.38" transform="translate(-4.38 -59.45)" fill="none" stroke="#8e8d8d" stroke-miterlimit="10" stroke-width="8"/><path d="M199.43,230.12l-.12,35.47s1.52,11.51,15.23,11.51h45.69s15.23-1.28,15.23-11.51V81.31S273.93,66,289.16,66H312s16.76-1.28,16.76,11.51V95.38" transform="translate(-4.38 -59.45)" fill="none" stroke="#ba455c" stroke-miterlimit="10" stroke-width="5"/></g><path id="lid" d="M250,115.36s-19.29-12.44-51.5-12.13a128.68,128.68,0,0,0-15.91,1.13V99c-19.76-1.4-27.2,4.22-27.2,4.22v8.15a63,63,0,0,0-8.4,4Z" transform="translate(-4.38 -59.45)" fill="#8e8d8d"/></g><g id="Boiling_BrewKettle" data-name="Boiling/BrewKettle"><rect id="backgroundBottom" x="296.28" y="158.09" width="114.29" height="18.67" fill="#707070"/><rect id="backgroundTop" x="296.28" y="72.14" width="114.29" height="18.67" fill="#707070"/><path id="topWheat-2" data-name="topWheat" d="M405.28,143.36a3.66,3.66,0,0,0-7.31,0h-5.05a3.66,3.66,0,0,0-7.31,0h-5.05a3.66,3.66,0,0,0-7.31,0h-6.06a3.66,3.66,0,0,0-7.32,0h-4.64a3.66,3.66,0,0,0-7.32,0H342a3.66,3.66,0,0,0-7.32,0h-4.94a3.66,3.66,0,0,0-7.32,0h-4.94a3.66,3.66,0,0,0-7.32,0h-9.53V184.5H415V143.36Z" transform="translate(-4.38 -59.45)" fill="#bc1334"/><rect id="top-2" data-name="top" x="296.28" y="59.87" width="114.29" height="6.23" fill="#8e8d8d"/><g id="topContainer-2" data-name="topContainer"><rect x="296.28" y="72.14" width="114.29" height="52.91" fill="none" stroke="#8e8d8d" stroke-miterlimit="10" stroke-width="5"/><line x1="296.28" y1="137.64" x2="296.28" y2="75.88" fill="none" stroke="#8e8d8d" stroke-miterlimit="10" stroke-width="5"/><line x1="410.57" y1="75.88" x2="410.57" y2="137.64" fill="none" stroke="#8e8d8d" stroke-miterlimit="10" stroke-width="5"/></g><path id="bottomWheat-2" data-name="bottomWheat" d="M300.66,230.09a44.05,44.05,0,0,1,17.26-3.2c9.61.22,13.17,6.82,22.25,8.31,8.36,1.37,13.44,1,22.82-4s24.52-1.84,35.24.19S413.38,228,415,226.88v46H300.66Z" transform="translate(-4.38 -59.45)" fill="#bc1334"/><g id="topContainer-3" data-name="topContainer"><rect x="296.28" y="158.3" width="114.29" height="52.91" fill="none" stroke="#8e8d8d" stroke-miterlimit="10" stroke-width="5"/><line x1="296.28" y1="223.8" x2="296.28" y2="162.04" fill="none" stroke="#8e8d8d" stroke-miterlimit="10" stroke-width="5"/><line x1="410.57" y1="162.04" x2="410.57" y2="223.8" fill="none" stroke="#8e8d8d" stroke-miterlimit="10" stroke-width="5"/></g><path id="bottomLid" d="M308.53,202.73h98.84s-14.61-11.13-49.57-11.59S308.53,202.73,308.53,202.73Z" transform="translate(-4.38 -59.45)" fill="#8e8d8d"/><rect id="top-3" data-name="top" x="296.28" y="146.01" width="114.29" height="6.23" fill="#8e8d8d"/><line id="fluidTunnel" x1="353.57" y1="117.75" x2="353.57" y2="163.46" fill="none" stroke="#a83d3d" stroke-linecap="round" stroke-miterlimit="10" stroke-width="4"/><g id="dials"><circle cx="304.16" cy="125.05" r="2.22" fill="#707070"/><circle cx="311.6" cy="125.05" r="2.22" fill="#707070"/><circle cx="319.1" cy="125.05" r="2.22" fill="#707070"/><circle cx="326.59" cy="125.05" r="2.22" fill="#707070"/><circle cx="333.64" cy="125.05" r="2.22" fill="#707070"/><circle cx="372.18" cy="125.05" r="2.22" fill="#707070"/><circle cx="379.63" cy="125.05" r="2.22" fill="#707070"/><circle cx="387.13" cy="125.05" r="2.22" fill="#707070"/><circle cx="394.62" cy="125.05" r="2.22" fill="#707070"/><circle cx="401.67" cy="125.05" r="2.22" fill="#707070"/></g><path id="lid-2" data-name="lid" d="M409.44,116.45s-19.3-12.45-51.51-12.14a128.51,128.51,0,0,0-15.9,1.13v-5.36c-19.76-1.4-27.2,4.22-27.2,4.22v8.15a61.3,61.3,0,0,0-8.4,4Z" transform="translate(-4.38 -59.45)" fill="#8e8d8d"/></g><g id="fermetation"><rect id="background-3" data-name="background" x="487.52" y="18.24" width="84.48" height="22.16" fill="#707070"/><path id="foam" d="M491.89,94.32s8.2,1.06,14.32-3.26,10.66-1.42,17.86,0,13-8.89,20.88-2.29S555,91,561.15,90.5s6.48,5.26,10.08,6l3.6.72L576.37,112H493.48Z" transform="translate(-4.38 -59.45)" fill="#fff"/><polygon id="liquid" points="489.1 52.51 571.99 52.51 571.99 131.68 530.06 178.88 487.52 131.68 489.1 52.51" fill="#ba455c"/><path id="lid-3" data-name="lid" d="M493.48,71.53h81.31s-18.71-9.92-40.66-9.92S493.48,71.53,493.48,71.53Z" transform="translate(-4.38 -59.45)" fill="#8e8d8d"/><g id="sturcture"><polyline points="487.52 131.68 530.06 178.88 571.99 131.68" fill="none" stroke="#8e8d8d" stroke-miterlimit="10" stroke-width="3"/><polyline points="487.52 201.55 487.52 18.24 571.99 18.24 571.99 183.06" fill="none" stroke="#8e8d8d" stroke-miterlimit="10" stroke-width="5"/></g><g id="rightTube"><path id="tube-3" data-name="tube" d="M659.91,106H631c-1.69,0-14.88,0-14.68,9.06.17,7.8.09,80.61.09,80.61l.34,28.82s.49,7.29-9.85,7.31-44.77-27.27-44.77-27.27" transform="translate(-4.38 -59.45)" fill="none" stroke="#878787" stroke-miterlimit="10" stroke-width="6"/><path id="tubFluid" d="M659.91,106H630.08a12.07,12.07,0,0,0-1.9.15c-3,.51-11.74.36-11.87,8.91-.12,7.87.18,80.61.18,80.61l.25,28.82s.49,7.29-9.85,7.31-44.77-27.27-44.77-27.27" transform="translate(-4.38 -59.45)" fill="none" stroke="#ba455c" stroke-linecap="round" stroke-miterlimit="10" stroke-width="4"/></g><g id="lowerTube"><path d="M534.3,235.15l-.17,41s-.2,11.63,5.35,11.63h11.71" transform="translate(-4.38 -59.45)" fill="none" stroke="#8e8d8d" stroke-miterlimit="10" stroke-width="6"/><path d="M534.26,231.81v44.45s-.2,11.63,5.35,11.63h11.58" transform="translate(-4.38 -59.45)" fill="none" stroke="#ba455c" stroke-miterlimit="10" stroke-width="4"/></g></g><g id="BeachwoodLagering"><g id="barrel"><g id="barrel-2" data-name="barrel"><rect x="568.3" y="209.17" width="5.99" height="37.79" fill="#d7cfcc"/><rect x="647.36" y="209.84" width="5.99" height="36.45" fill="#d7cfcc"/><path id="barrel-3" data-name="barrel" d="M650.19,269.35c-8.59-5.78-21.21-9.44-35.28-9.44-13.75,0-26.11,3.48-34.68,9v37.15c8.57,5.55,20.93,9,34.68,9,14.07,0,26.69-3.66,35.28-9.44Z" transform="translate(-4.38 -59.45)" fill="#d2994a"/></g><line x1="594.69" y1="203.71" x2="594.69" y2="251.82" fill="none" stroke="#c18946" stroke-linecap="round" stroke-miterlimit="10" stroke-width="2"/><line x1="626.09" y1="203.71" x2="626.09" y2="251.82" fill="none" stroke="#c18946" stroke-linecap="round" stroke-miterlimit="10" stroke-width="2"/></g></g><g id="filtraion"><g id="structure-2" data-name="structure"><rect x="596.7" y="90.62" width="30.14" height="4.41" rx="1.72" fill="#8e8d8d"/><rect x="596.7" y="98.44" width="30.14" height="4.41" rx="1.72" fill="#8e8d8d"/><rect x="596.7" y="106.26" width="30.14" height="4.41" rx="1.72" fill="#8e8d8d"/><rect x="596.7" y="114.08" width="30.14" height="4.41" rx="1.72" fill="#8e8d8d"/><rect x="596.7" y="121.9" width="30.14" height="4.41" rx="1.72" fill="#8e8d8d"/><rect x="601.5" y="79.76" width="21.72" height="55.96" rx="7.54" fill="#bc1334" stroke="#8e8d8d" stroke-miterlimit="10"/></g><g id="filter"><line x1="602.03" y1="86.29" x2="622.7" y2="86.29" fill="#feb500" stroke="#878787" stroke-miterlimit="10" stroke-width="0.25"/><line x1="602.03" y1="87.74" x2="622.7" y2="87.74" fill="#feb500" stroke="#878787" stroke-miterlimit="10" stroke-width="0.25"/><line x1="602.03" y1="89.18" x2="622.7" y2="89.18" fill="#feb500" stroke="#878787" stroke-miterlimit="10" stroke-width="0.25"/><line x1="602.03" y1="90.62" x2="622.7" y2="90.62" fill="#feb500" stroke="#878787" stroke-miterlimit="10" stroke-width="0.25"/><line x1="602.03" y1="92.06" x2="622.7" y2="92.06" fill="#feb500" stroke="#878787" stroke-miterlimit="10" stroke-width="0.25"/><line x1="602.03" y1="93.5" x2="622.7" y2="93.5" fill="#feb500" stroke="#878787" stroke-miterlimit="10" stroke-width="0.25"/><line x1="602.03" y1="94.94" x2="622.7" y2="94.94" fill="#feb500" stroke="#878787" stroke-miterlimit="10" stroke-width="0.25"/><line x1="602.03" y1="96.38" x2="622.7" y2="96.38" fill="#feb500" stroke="#878787" stroke-miterlimit="10" stroke-width="0.25"/><line x1="602.03" y1="97.82" x2="622.7" y2="97.82" fill="#feb500" stroke="#878787" stroke-miterlimit="10" stroke-width="0.25"/><line x1="602.03" y1="99.27" x2="622.7" y2="99.27" fill="#feb500" stroke="#878787" stroke-miterlimit="10" stroke-width="0.25"/><line x1="602.03" y1="100.71" x2="622.7" y2="100.71" fill="#feb500" stroke="#878787" stroke-miterlimit="10" stroke-width="0.25"/><line x1="602.03" y1="102.15" x2="622.7" y2="102.15" fill="#feb500" stroke="#878787" stroke-miterlimit="10" stroke-width="0.25"/><line x1="602.03" y1="103.59" x2="622.7" y2="103.59" fill="#feb500" stroke="#878787" stroke-miterlimit="10" stroke-width="0.25"/><line x1="602.03" y1="105.03" x2="622.7" y2="105.03" fill="#feb500" stroke="#878787" stroke-miterlimit="10" stroke-width="0.25"/><line x1="602.03" y1="106.47" x2="622.7" y2="106.47" fill="#feb500" stroke="#878787" stroke-miterlimit="10" stroke-width="0.25"/><line x1="602.03" y1="107.91" x2="622.7" y2="107.91" fill="#feb500" stroke="#878787" stroke-miterlimit="10" stroke-width="0.25"/><line x1="602.03" y1="109.36" x2="622.7" y2="109.36" fill="#feb500" stroke="#878787" stroke-miterlimit="10" stroke-width="0.25"/><line x1="602.03" y1="110.8" x2="622.7" y2="110.8" fill="#feb500" stroke="#878787" stroke-miterlimit="10" stroke-width="0.25"/><line x1="602.03" y1="112.24" x2="622.7" y2="112.24" fill="#feb500" stroke="#878787" stroke-miterlimit="10" stroke-width="0.25"/><line x1="602.03" y1="113.68" x2="622.7" y2="113.68" fill="#feb500" stroke="#878787" stroke-miterlimit="10" stroke-width="0.25"/><line x1="602.03" y1="115.12" x2="622.7" y2="115.12" fill="#feb500" stroke="#878787" stroke-miterlimit="10" stroke-width="0.25"/><line x1="602.03" y1="116.56" x2="622.7" y2="116.56" fill="#feb500" stroke="#878787" stroke-miterlimit="10" stroke-width="0.25"/><line x1="602.03" y1="118" x2="622.7" y2="118" fill="#feb500" stroke="#878787" stroke-miterlimit="10" stroke-width="0.25"/><line x1="602.03" y1="119.45" x2="622.7" y2="119.45" fill="#feb500" stroke="#878787" stroke-miterlimit="10" stroke-width="0.25"/><line x1="602.03" y1="120.89" x2="622.7" y2="120.89" fill="#feb500" stroke="#878787" stroke-miterlimit="10" stroke-width="0.25"/><line x1="602.03" y1="122.33" x2="622.7" y2="122.33" fill="#feb500" stroke="#878787" stroke-miterlimit="10" stroke-width="0.25"/><line x1="602.03" y1="123.77" x2="622.7" y2="123.77" fill="#feb500" stroke="#878787" stroke-miterlimit="10" stroke-width="0.25"/><line x1="602.03" y1="125.21" x2="622.7" y2="125.21" fill="#feb500" stroke="#878787" stroke-miterlimit="10" stroke-width="0.25"/><line x1="602.03" y1="126.65" x2="622.7" y2="126.65" fill="#feb500" stroke="#878787" stroke-miterlimit="10" stroke-width="0.25"/><line x1="602.03" y1="128.09" x2="622.7" y2="128.09" fill="#feb500" stroke="#878787" stroke-miterlimit="10" stroke-width="0.25"/><line x1="602.78" y1="86.29" x2="602.69" y2="128.09" fill="#feb500" stroke="#878787" stroke-miterlimit="10" stroke-width="0.25"/><line x1="603.53" y1="86.29" x2="603.44" y2="128.09" fill="#feb500" stroke="#878787" stroke-miterlimit="10" stroke-width="0.25"/><line x1="604.28" y1="86.29" x2="604.19" y2="128.09" fill="#feb500" stroke="#878787" stroke-miterlimit="10" stroke-width="0.25"/><line x1="605.03" y1="86.29" x2="604.94" y2="128.09" fill="#feb500" stroke="#878787" stroke-miterlimit="10" stroke-width="0.25"/><line x1="605.78" y1="86.29" x2="605.69" y2="128.09" fill="#feb500" stroke="#878787" stroke-miterlimit="10" stroke-width="0.25"/><line x1="606.53" y1="86.29" x2="606.44" y2="128.09" fill="#feb500" stroke="#878787" stroke-miterlimit="10" stroke-width="0.25"/><line x1="607.28" y1="86.29" x2="607.19" y2="128.09" fill="#feb500" stroke="#878787" stroke-miterlimit="10" stroke-width="0.25"/><line x1="608.02" y1="86.29" x2="607.94" y2="128.09" fill="#feb500" stroke="#878787" stroke-miterlimit="10" stroke-width="0.25"/><line x1="608.77" y1="86.29" x2="608.69" y2="128.09" fill="#feb500" stroke="#878787" stroke-miterlimit="10" stroke-width="0.25"/><line x1="609.52" y1="86.29" x2="609.44" y2="128.09" fill="#feb500" stroke="#878787" stroke-miterlimit="10" stroke-width="0.25"/><line x1="610.27" y1="86.29" x2="610.19" y2="128.09" fill="#feb500" stroke="#878787" stroke-miterlimit="10" stroke-width="0.25"/><line x1="611.02" y1="86.29" x2="610.94" y2="128.09" fill="#feb500" stroke="#878787" stroke-miterlimit="10" stroke-width="0.25"/><line x1="611.77" y1="86.29" x2="611.69" y2="128.09" fill="#feb500" stroke="#878787" stroke-miterlimit="10" stroke-width="0.25"/><line x1="612.52" y1="86.29" x2="612.44" y2="128.09" fill="#feb500" stroke="#878787" stroke-miterlimit="10" stroke-width="0.25"/><line x1="613.27" y1="86.29" x2="613.18" y2="128.09" fill="#feb500" stroke="#878787" stroke-miterlimit="10" stroke-width="0.25"/><line x1="614.02" y1="86.29" x2="613.93" y2="128.09" fill="#feb500" stroke="#878787" stroke-miterlimit="10" stroke-width="0.25"/><line x1="614.77" y1="86.29" x2="614.68" y2="128.09" fill="#feb500" stroke="#878787" stroke-miterlimit="10" stroke-width="0.25"/><line x1="615.52" y1="86.29" x2="615.43" y2="128.09" fill="#feb500" stroke="#878787" stroke-miterlimit="10" stroke-width="0.25"/><line x1="616.27" y1="86.29" x2="616.18" y2="128.09" fill="#feb500" stroke="#878787" stroke-miterlimit="10" stroke-width="0.25"/><line x1="617.02" y1="86.29" x2="616.93" y2="128.09" fill="#feb500" stroke="#878787" stroke-miterlimit="10" stroke-width="0.25"/><line x1="617.77" y1="86.29" x2="617.68" y2="128.09" fill="#feb500" stroke="#878787" stroke-miterlimit="10" stroke-width="0.25"/><line x1="618.52" y1="86.29" x2="618.43" y2="128.09" fill="#feb500" stroke="#878787" stroke-miterlimit="10" stroke-width="0.25"/><line x1="619.27" y1="86.29" x2="619.18" y2="128.09" fill="#feb500" stroke="#878787" stroke-miterlimit="10" stroke-width="0.25"/><line x1="620.02" y1="86.29" x2="619.93" y2="128.09" fill="#feb500" stroke="#878787" stroke-miterlimit="10" stroke-width="0.25"/><line x1="620.76" y1="86.29" x2="620.68" y2="128.09" fill="#feb500" stroke="#878787" stroke-miterlimit="10" stroke-width="0.25"/><line x1="621.51" y1="86.29" x2="621.43" y2="128.09" fill="#feb500" stroke="#878787" stroke-miterlimit="10" stroke-width="0.25"/><line x1="622.26" y1="86.29" x2="622.18" y2="128.09" fill="#feb500" stroke="#878787" stroke-miterlimit="10" stroke-width="0.25"/></g></g><g id="cooling"><path id="tube-4" data-name="tube" d="M492.74,122.43H467.91s-14,1.5-14.31,12.9,1.56,93.9,1.56,93.9v10s.5,10.65-9.84,10.68-33.35,0-33.35,0" transform="translate(-4.38 -59.45)" fill="none" stroke="#a59988" stroke-miterlimit="10" stroke-width="6"/><path id="tubeBottom" d="M457.32,222.07H444a4.55,4.55,0,0,1-4.53-4.53h0A4.55,4.55,0,0,1,444,213h13.33Z" transform="translate(-4.38 -59.45)" fill="#bc1334" stroke="#878787" stroke-miterlimit="10" stroke-width="0.75"/><path id="tubFluid-2" data-name="tubFluid" d="M494.59,122.43H468s-14,1.5-14.32,12.9,1.56,93.9,1.56,93.9v10s.5,10.65-9.84,10.68-37,0-37,0" transform="translate(-4.38 -59.45)" fill="none" stroke="#bc1334" stroke-miterlimit="10" stroke-width="4"/><path id="tubeTop" d="M453.25,155.8h13.33a4.55,4.55,0,0,0,4.53-4.53h0a4.55,4.55,0,0,0-4.53-4.53H453.25Z" transform="translate(-4.38 -59.45)" fill="#ba455c" stroke="#878787" stroke-miterlimit="10" stroke-width="0.75"/><path id="tube-5" data-name="tube" d="M493.89,122.44l-25.87.11s-14,1.5-14.32,12.9.88,62.35.88,62.35" transform="translate(-4.38 -59.45)" fill="none" stroke="#878787" stroke-miterlimit="10" stroke-width="6"/><path id="tubFluid-3" data-name="tubFluid" d="M494.59,122.43l-26.49.12s-14,1.5-14.32,12.9.8,62.35.8,62.35" transform="translate(-4.38 -59.45)" fill="none" stroke="#ba455c" stroke-miterlimit="10" stroke-width="4"/><g id="cooling-2" data-name="cooling"><rect x="434.82" y="140.35" width="35.72" height="9.06" rx="4.24" fill="#a83d3d" stroke="#878787" stroke-miterlimit="10" stroke-width="0.75"/><rect x="434.18" y="127.15" width="35.72" height="9.06" rx="4.24" fill="#a84a4a" stroke="#878787" stroke-miterlimit="10" stroke-width="0.75"/><rect x="432.61" y="113.77" width="36.34" height="9.06" rx="4.24" fill="#b24747" stroke="#878787" stroke-miterlimit="10" stroke-width="0.75"/><rect x="431.05" y="100.72" width="36.34" height="9.06" rx="4.24" fill="#c65454" stroke="#878787" stroke-miterlimit="10" stroke-width="0.75"/><rect x="437.55" y="193.18" width="38.38" height="9.06" rx="4.24" transform="translate(-44.59 165.4) rotate(-26.53)" fill="#af4646" stroke="#878787" stroke-miterlimit="10" stroke-width="0.75"/><rect x="436.65" y="179.97" width="38.38" height="9.06" rx="4.24" transform="translate(-38.79 163.61) rotate(-26.53)" fill="#ad4747" stroke="#878787" stroke-miterlimit="10" stroke-width="0.75"/><rect x="435.43" y="166.69" width="38.38" height="9.06" rx="4.24" transform="translate(-32.98 161.67) rotate(-26.53)" fill="#bc5353" stroke="#878787" stroke-miterlimit="10" stroke-width="0.75"/><rect x="434.27" y="153.52" width="38.38" height="9.06" rx="4.24" transform="translate(-27.22 159.76) rotate(-26.53)" fill="#ce5252" stroke="#878787" stroke-miterlimit="10" stroke-width="0.75"/><rect x="438.13" y="206.43" width="38.38" height="9.06" rx="4.24" transform="translate(-50.45 167.06) rotate(-26.53)" fill="#a83d3d" stroke="#878787" stroke-miterlimit="10" stroke-width="0.75"/></g></g><g id="carbonation"><polygon points="645.81 17.89 726.04 17.89 726.04 51.09 645.81 49.96 645.81 17.89" fill="#fff"/><path d="M650.19,100.77s5.84,8.27,12.52,2.38c0,0,5.2,5.28,12.33-.13,0,0,5.21,5.61,12.23.1,0,0,6.45,5.7,13,0a7.87,7.87,0,0,0,10.87.06s6.45,4.37,11.09,0a7.17,7.17,0,0,0,8.17,0V207.43H650.19Z" transform="translate(-4.38 -59.45)" fill="#ba455c"/><g id="topContainer-4" data-name="topContainer"><rect x="645.81" y="17.89" width="80.23" height="130.09" fill="none" stroke="#8e8d8d" stroke-miterlimit="10" stroke-width="5"/><line x1="645.81" y1="178.95" x2="645.81" y2="27.08" fill="none" stroke="#8e8d8d" stroke-miterlimit="10" stroke-width="5"/><line x1="726.04" y1="27.08" x2="726.04" y2="178.95" fill="none" stroke="#8e8d8d" stroke-miterlimit="10" stroke-width="5"/></g><g id="bubbles"><circle cx="698.01" cy="90.21" r="1.92" fill="#f4d487"/><circle cx="705.51" cy="63.16" r="1.92" fill="#f4d487"/><circle cx="709.34" cy="133.02" r="1.92" fill="#f4d487"/><circle cx="670.59" cy="86.93" r="1.92" fill="#f4d487"/><circle cx="684.49" cy="55.21" r="2.91" fill="#f4d487"/><circle cx="679.63" cy="119.93" r="2.91" fill="#f4d487"/><circle cx="667.37" cy="135.72" r="2.91" fill="#f4d487"/><circle cx="708.97" cy="81.99" r="2.91" fill="#f4d487"/><circle cx="656.69" cy="80.1" r="2.91" fill="#f4d487"/><circle cx="715.34" cy="52.79" r="2.91" fill="#f4d487"/><circle cx="705.51" cy="120.81" r="2.91" fill="#f4d487"/><circle cx="665.09" cy="64.53" r="1.92" fill="#f4d487"/><circle cx="663.17" cy="106.76" r="1.92" fill="#f4d487"/><circle cx="677.94" cy="98.31" r="1.92" fill="#f4d487"/><circle cx="690.33" cy="109.83" r="1.92" fill="#f4d487"/><circle cx="686.16" cy="76.54" r="1.92" fill="#f4d487"/><circle cx="712.93" cy="108.06" r="1.92" fill="#f4d487"/><circle cx="694.17" cy="129.51" r="1.92" fill="#f4d487"/><path d="M727.31,135.09a1.92,1.92,0,1,1,0-3.83" transform="translate(-4.38 -59.45)" fill="#f4d487"/><path d="M727.31,166.93a1.92,1.92,0,1,1,0-3.83" transform="translate(-4.38 -59.45)" fill="#f4d487"/><path d="M652.88,183.79a1.92,1.92,0,1,1,0,3.83" transform="translate(-4.38 -59.45)" fill="#f4d487"/><path d="M653.49,114.66a1.92,1.92,0,0,1,0,3.83" transform="translate(-4.38 -59.45)" fill="#f4d487"/></g><path id="lid-4" data-name="lid" d="M648.21,71.53h81.31s-18.71-9.92-40.66-9.92S648.21,71.53,648.21,71.53Z" transform="translate(-4.38 -59.45)" fill="#8e8d8d"/></g><g id="numbers"><circle cx="45.87" cy="41.12" r="10.37" fill="#595959"/><text transform="translate(40.15 48.25)" font-size="21" fill="#fff" font-family="MyriadPro-Regular, Myriad Pro">1</text><circle cx="193.21" cy="95.6" r="10.37" fill="#595959"/><text transform="translate(187.98 102.02)" font-size="21" fill="#fff" font-family="MyriadPro-Regular, Myriad Pro">2</text><circle cx="353.55" cy="101.57" r="10.37" fill="#595959"/><text transform="translate(348.33 107.99)" font-size="21" fill="#fff" font-family="MyriadPro-Regular, Myriad Pro">3</text><circle cx="452.04" cy="124.34" r="10.37" fill="#595959"/><text transform="translate(446.22 130.76)" font-size="21" fill="#fff" font-family="MyriadPro-Regular, Myriad Pro">4</text><circle cx="529.88" cy="81.48" r="10.37" fill="#595959"/><text transform="translate(524.61 88.45)" font-size="21" fill="#fff" font-family="MyriadPro-Regular, Myriad Pro">5</text><circle cx="611.69" cy="227.77" r="10.37" fill="#595959"/><text transform="translate(605.86 234.19)" font-size="21" fill="#fff" font-family="MyriadPro-Regular, Myriad Pro">6</text><circle cx="612.36" cy="105.56" r="10.37" fill="#595959"/><text transform="translate(607.58 112.47)" font-size="21" fill="#fff" font-family="MyriadPro-Regular, Myriad Pro">7</text><circle cx="686.52" cy="61.25" r="10.37" fill="#595959"/><text transform="translate(680.69 67.67)" font-size="21" fill="#fff" font-family="MyriadPro-Regular, Myriad Pro">8</text></g></svg>