<svg xmlns="http://www.w3.org/2000/svg" xmlns:xlink="http://www.w3.org/1999/xlink" width="740" height="320" viewBox="0 0 740 320"><defs><style>.a,.s{fill:#fff;}.a{stroke:#707070;}.b{clip-path:url(#a);}.c{fill:#707070;}.d{fill:#a03c3c;}.e{fill:#939393;}.aa,.ad,.af,.f,.g,.j,.k,.o,.p,.r,.u,.v,.w,.x{fill:none;}.ab,.f,.g,.j,.o,.w{stroke:#8e8d8d;}.aa,.ab,.ac,.ad,.ae,.af,.ag,.ah,.ai,.aj,.ak,.al,.am,.an,.ao,.f,.g,.k,.o,.p,.r,.u,.v,.w,.x{stroke-miterlimit:10;}.f{stroke-width:3.047px;}.g,.k,.p{stroke-width:5.079px;}.h{fill:#7c7c7c;}.i{fill:#9b9b9b;}.j{stroke-linejoin:round;}.j,.o{stroke-width:8.126px;}.k{stroke:#a03c3c;}.l{fill:#cf9c0b;}.m{fill:#a55350;}.n{fill:#8e8d8d;}.p{stroke:#a55350;}.ae,.ao,.q{fill:#a83d3d;}.af,.r{stroke:#a83d3d;}.aa,.r,.v{stroke-linecap:round;}.af,.r,.v,.x{stroke-width:4.063px;}.ag,.an,.t{fill:#ce5252;}.ac,.ae,.ag,.ah,.ai,.aj,.ak,.al,.am,.an,.ao,.u{stroke:#878787;}.ad,.u,.w{stroke-width:6.094px;}.v,.x{stroke:#ce5252;}.y{fill:#d7cfcc;}.z{fill:#d2994a;}.aa{stroke:#c18946;stroke-width:2.031px;}.ab{fill:#a83636;stroke-width:1.016px;}.ac{fill:#feb500;stroke-width:0.254px;}.ad{stroke:#a59988;}.ae,.ag,.ah,.ai,.aj{stroke-width:0.762px;}.ah{fill:#a84a4a;}.ai{fill:#b24747;}.aj{fill:#c65454;}.ak{fill:#af4646;}.ak,.al,.am,.an,.ao{stroke-width:0.762px;}.al{fill:#ad4747;}.am{fill:#bc5353;}.ap{fill:#bc5c5c;}.aq{fill:#f4d487;}</style><clipPath id="a"><rect class="a" width="740" height="320" transform="translate(590 40)"/></clipPath></defs><g class="b" transform="translate(-590 -40)"><g transform="translate(590 70.197)"><rect class="c" width="89.019" height="27.567" transform="translate(2.539 76.251)"/><path class="d" d="M96.007,179.926,51.8,227.869,6.988,179.926V160.363s18.547-16.922,44.184-17.836,44.834,16.627,44.834,16.627Z" transform="translate(-4.449 -60.385)"/><path class="e" d="M22.519,63.605H71.68L63.93,76.251H29.091Z"/><path class="f" d="M2.539,119.541l44.834,47.942,44.184-47.942"/><path class="g" d="M2.539,189.657V76.251H91.558V189.657"/><circle class="h" cx="13.093" cy="13.093" r="13.093" transform="translate(48.999 109.912)"/><circle class="i" cx="9.578" cy="9.578" r="9.578" transform="translate(52.513 113.427)"/><circle class="c" cx="5.485" cy="5.485" r="5.485" transform="translate(56.607 117.52)"/><circle class="h" cx="13.093" cy="13.093" r="13.093" transform="translate(19.004 109.638)"/><circle class="i" cx="9.578" cy="9.578" r="9.578" transform="translate(22.519 113.152)"/><circle class="c" cx="5.485" cy="5.485" r="5.485" transform="translate(26.612 117.246)"/><path class="j" d="M52.026,224.872a14.637,14.637,0,0,0,1.808,7.171c1.757,3.149,5.2,6.572,11.843,6.572h39.349a17,17,0,0,0,4.063-.467c3.951-.955,11.041-3.728,11.041-11.224V80.08s-1.361-15.591,12.25-15.591h20.183S167.6,63.189,167.6,76.18V94.371" transform="translate(-4.449 -60.385)"/><path class="k" d="M51.8,207.006l.183,17.867s.061,13.2,13.448,13.651c12.24.437,40.853,0,40.853,0s13.55-.721,13.55-11.173V80.558s-1.32-15.551,12.3-15.551h20.426S167.6,63.666,167.6,76.657V94.371" transform="translate(-4.449 -60.385)"/><ellipse class="l" cx="1.473" cy="2.316" rx="1.473" ry="2.316" transform="translate(45.921 122.477)"/><ellipse class="l" cx="1.473" cy="2.316" rx="1.473" ry="2.316" transform="translate(51.203 104.285)"/><ellipse class="l" cx="2.346" cy="1.463" rx="2.346" ry="1.463" transform="translate(50.293 98.883) rotate(-62.4)"/><ellipse class="l" cx="2.346" cy="1.463" rx="2.346" ry="1.463" transform="translate(54.699 98.284) rotate(-62.4)"/><ellipse class="l" cx="2.346" cy="1.463" rx="2.346" ry="1.463" transform="translate(48.042 102.913) rotate(-62.4)"/><ellipse class="l" cx="2.346" cy="1.463" rx="2.346" ry="1.463" transform="translate(53.336 92.673) rotate(-62.4)"/><ellipse class="l" cx="2.346" cy="1.463" rx="2.346" ry="1.463" transform="translate(41.162 92.937) rotate(-62.4)"/><ellipse class="l" cx="2.346" cy="1.463" rx="2.346" ry="1.463" transform="translate(37.389 93.175) rotate(-62.4)"/><ellipse class="l" cx="2.346" cy="1.463" rx="2.346" ry="1.463" transform="translate(36.96 88.386) rotate(-62.4)"/><ellipse class="l" cx="2.387" cy="1.432" rx="2.387" ry="1.432" transform="translate(45.004 95.964) rotate(-39.82)"/><ellipse class="l" cx="2.387" cy="1.432" rx="2.387" ry="1.432" transform="translate(43.056 85.293) rotate(-39.82)"/><ellipse class="l" cx="1.473" cy="2.316" rx="1.473" ry="2.316" transform="translate(46.592 101.969)"/><ellipse class="l" cx="1.473" cy="2.316" rx="1.473" ry="2.316" transform="translate(47.81 108.927)"/><ellipse class="l" cx="1.473" cy="2.316" rx="1.473" ry="2.316" transform="translate(44.814 98.262)"/><ellipse class="l" cx="1.473" cy="2.316" rx="1.473" ry="2.316" transform="translate(44.326 106.601)"/><ellipse class="l" cx="1.473" cy="2.316" rx="1.473" ry="2.316" transform="translate(52.046 89.984)"/><ellipse class="l" cx="1.473" cy="2.316" rx="1.473" ry="2.316" transform="translate(47.272 95.154)"/><ellipse class="l" cx="1.463" cy="2.346" rx="1.463" ry="2.346" transform="matrix(0.883, -0.47, 0.47, 0.883, 40.49, 95.488)"/><ellipse class="l" cx="2.326" cy="1.473" rx="2.326" ry="1.473" transform="translate(33.34 98.999) rotate(-75.91)"/><ellipse class="l" cx="1.463" cy="2.346" rx="1.463" ry="2.346" transform="matrix(0.883, -0.47, 0.47, 0.883, 46.239, 88.197)"/><ellipse class="l" cx="1.463" cy="2.346" rx="1.463" ry="2.346" transform="matrix(0.883, -0.47, 0.47, 0.883, 55.431, 85.584)"/><ellipse class="l" cx="1.463" cy="2.346" rx="1.463" ry="2.346" transform="matrix(0.883, -0.47, 0.47, 0.883, 39.7, 84.536)"/><ellipse class="l" cx="1.463" cy="2.346" rx="1.463" ry="2.346" transform="matrix(0.883, -0.47, 0.47, 0.883, 38.57, 98.623)"/><ellipse class="l" cx="1.473" cy="2.316" rx="1.473" ry="2.316" transform="translate(44.326 89.069)"/><ellipse class="l" cx="1.473" cy="2.316" rx="1.473" ry="2.316" transform="translate(52.676 83.737)"/><ellipse class="l" cx="1.473" cy="2.316" rx="1.473" ry="2.316" transform="translate(48.064 82.112)"/><ellipse class="l" cx="1.473" cy="2.316" rx="1.473" ry="2.316" transform="translate(40.975 101.502)"/><ellipse class="l" cx="1.463" cy="2.346" rx="1.463" ry="2.346" transform="matrix(0.883, -0.47, 0.47, 0.883, 44.498, 115.008)"/><ellipse class="l" cx="2.336" cy="1.463" rx="2.336" ry="1.463" transform="translate(47.1 133.407) rotate(-69.91)"/><ellipse class="l" cx="2.335" cy="1.462" rx="2.335" ry="1.462" transform="matrix(0.34, -0.94, 0.94, 0.34, 44.742, 157.577)"/><ellipse class="l" cx="1.463" cy="2.346" rx="1.463" ry="2.346" transform="matrix(0.883, -0.47, 0.47, 0.883, 44.874, 143.093)"/><ellipse class="l" cx="2.346" cy="1.463" rx="2.346" ry="1.463" transform="translate(112.808 103.388) rotate(-62.4)"/><ellipse class="l" cx="2.417" cy="1.412" rx="2.417" ry="1.412" transform="translate(97.916 178.563) rotate(-27.37)"/><ellipse class="l" cx="2.318" cy="1.467" rx="2.318" ry="1.467" transform="matrix(0.181, -0.984, 0.984, 0.181, 112.195, 165.756)"/><ellipse class="l" cx="2.417" cy="1.595" rx="2.417" ry="1.595" transform="matrix(0.115, -0.993, 0.993, 0.115, 113.244, 129.988)"/><ellipse class="l" cx="2.417" cy="1.595" rx="2.417" ry="1.595" transform="matrix(0.115, -0.993, 0.993, 0.115, 113.253, 90.585)"/><ellipse class="l" cx="1.402" cy="2.438" rx="1.402" ry="2.438" transform="translate(69.925 179.723) rotate(-81.35)"/><ellipse class="l" cx="1.432" cy="2.387" rx="1.432" ry="2.387" transform="translate(49.778 176.005) rotate(-50.46)"/><ellipse class="l" cx="2.346" cy="1.463" rx="2.346" ry="1.463" transform="translate(112.812 79.075) rotate(-62.4)"/><ellipse class="l" cx="2.346" cy="1.463" rx="2.346" ry="1.463" transform="translate(112.803 43.186) rotate(-62.4)"/><ellipse class="l" cx="2.346" cy="1.463" rx="2.346" ry="1.463" transform="translate(119.622 6.982) rotate(-62.4)"/><ellipse class="l" cx="1.432" cy="2.387" rx="1.432" ry="2.387" transform="translate(112.453 23.597) rotate(-48.19)"/><ellipse class="l" cx="1.402" cy="2.438" rx="1.402" ry="2.438" transform="matrix(0.927, -0.374, 0.374, 0.927, 112.976, 55.503)"/><ellipse class="l" cx="1.402" cy="2.438" rx="1.402" ry="2.438" transform="translate(145.079 5.672) rotate(-83.54)"/><ellipse class="l" cx="1.452" cy="2.346" rx="1.452" ry="2.346" transform="translate(160.772 28.802) rotate(-32.91)"/><path class="m" d="M222.567,135H139.013v29.141l34.057,14.566,23.992,2.661h0l23.992-2.661,34.057-14.566V135Z"/><rect class="c" width="116.088" height="18.964" transform="translate(139.013 72.178)"/><path class="m" d="M249.738,144.518a3.718,3.718,0,0,0-7.435,0h-5.079a3.718,3.718,0,0,0-7.435,0H224.71a3.718,3.718,0,1,0-7.435,0h-6.155a3.718,3.718,0,0,0-7.435,0h-4.713a3.718,3.718,0,1,0-7.435,0h-5.972a3.718,3.718,0,0,0-7.425,0H173.06a3.718,3.718,0,0,0-7.425,0h-5.028a3.718,3.718,0,0,0-7.425,0h-9.69v41.787H259.55V144.518Z" transform="translate(-4.449 -60.385)"/><rect class="n" width="116.088" height="6.328" transform="translate(139.013 59.715)"/><rect class="g" width="116.088" height="53.742" transform="translate(139.013 72.178)"/><ellipse class="l" cx="2.316" cy="1.402" rx="2.316" ry="1.402" transform="translate(211.478 95.655) rotate(-65.02)"/><ellipse class="l" cx="2.316" cy="1.402" rx="2.316" ry="1.402" transform="translate(188.968 117.203) rotate(-65.02)"/><ellipse class="l" cx="2.316" cy="1.402" rx="2.316" ry="1.402" transform="translate(148.205 117.198) rotate(-65.02)"/><ellipse class="l" cx="1.402" cy="2.316" rx="1.402" ry="2.316" transform="translate(160.436 115.226) rotate(-48.81)"/><ellipse class="l" cx="1.402" cy="2.316" rx="1.402" ry="2.316" transform="translate(174.102 101.188) rotate(-48.81)"/><ellipse class="l" cx="1.402" cy="2.316" rx="1.402" ry="2.316" transform="translate(196.455 107.96) rotate(-48.81)"/><ellipse class="l" cx="1.402" cy="2.316" rx="1.402" ry="2.316" transform="translate(238.906 93.244) rotate(-48.81)"/><ellipse class="l" cx="1.402" cy="2.316" rx="1.402" ry="2.316" transform="translate(242.71 115.213) rotate(-48.81)"/><ellipse class="l" cx="1.402" cy="2.316" rx="1.402" ry="2.316" transform="translate(156.327 93.245) rotate(-48.81)"/><ellipse class="l" cx="2.316" cy="1.402" rx="2.316" ry="1.402" transform="translate(149.323 103.502) rotate(-87.75)"/><ellipse class="l" cx="2.316" cy="1.402" rx="2.316" ry="1.402" transform="translate(156.675 110.221) rotate(-87.75)"/><ellipse class="l" cx="2.318" cy="1.403" rx="2.318" ry="1.403" transform="translate(170.942 95.769) rotate(-87.709)"/><ellipse class="l" cx="2.316" cy="1.402" rx="2.316" ry="1.402" transform="translate(169.097 111.605) rotate(-87.75)"/><ellipse class="l" cx="2.318" cy="1.403" rx="2.318" ry="1.403" transform="translate(197.9 95.748) rotate(-87.709)"/><ellipse class="l" cx="2.316" cy="1.402" rx="2.316" ry="1.402" transform="translate(219.575 103.949) rotate(-87.75)"/><ellipse class="l" cx="2.316" cy="1.402" rx="2.316" ry="1.402" transform="translate(204.223 117.977) rotate(-87.75)"/><ellipse class="l" cx="2.318" cy="1.403" rx="2.318" ry="1.403" transform="translate(244.833 102.765) rotate(-87.709)"/><ellipse class="l" cx="2.318" cy="1.403" rx="2.318" ry="1.403" transform="translate(226.964 96.364) rotate(-87.709)"/><ellipse class="l" cx="2.316" cy="1.402" rx="2.316" ry="1.402" transform="translate(231.119 117.977) rotate(-87.75)"/><ellipse class="l" cx="2.316" cy="1.402" rx="2.316" ry="1.402" transform="translate(212.264 110.213) rotate(-87.75)"/><ellipse class="l" cx="2.316" cy="1.402" rx="2.316" ry="1.402" transform="translate(175.286 118.641) rotate(-87.75)"/><ellipse class="l" cx="2.316" cy="1.402" rx="2.316" ry="1.402" transform="translate(203.738 100.15) rotate(-11.33)"/><ellipse class="l" cx="2.316" cy="1.402" rx="2.316" ry="1.402" transform="translate(225.618 108.119) rotate(-11.33)"/><ellipse class="l" cx="2.316" cy="1.402" rx="2.316" ry="1.402" transform="translate(183.109 92.578) rotate(-11.33)"/><ellipse class="l" cx="2.316" cy="1.402" rx="2.316" ry="1.402" transform="translate(181.397 107.006) rotate(-11.33)"/><ellipse class="l" cx="2.316" cy="1.402" rx="2.316" ry="1.402" transform="translate(238.297 107.001) rotate(-11.33)"/><ellipse class="l" cx="2.316" cy="1.402" rx="2.316" ry="1.402" transform="translate(161.961 102.064) rotate(-65.02)"/><ellipse class="l" cx="2.316" cy="1.402" rx="2.316" ry="1.402" transform="translate(188.96 103.169) rotate(-65.02)"/><ellipse class="l" cx="2.316" cy="1.402" rx="2.316" ry="1.402" transform="translate(230.591 103.162) rotate(-65.02)"/><ellipse class="l" cx="2.316" cy="1.402" rx="2.316" ry="1.402" transform="translate(217.926 117.199) rotate(-65.02)"/><path class="g" d="M139.013,188.743V135h116.1v53.742"/><path class="g" d="M143.462,224.537s20.315,17.217,58.049,17.217,58.039-17.217,58.039-17.217" transform="translate(-4.449 -60.385)"/><rect class="m" width="6.978" height="20.132" transform="translate(194.045 121.339)"/><path class="o" d="M202.445,240.088l.274,29.2s1.544,11.691,15.47,11.691H264.6s15.459-1.3,15.459-11.691V82.589s-1.544-15.551,13.926-15.551h22.925s17.024-1.3,17.024,11.691V96.88" transform="translate(-4.449 -60.385)"/><path class="p" d="M202.567,233.74l-.122,36.028s1.544,11.691,15.47,11.691h46.409s15.47-1.3,15.47-11.691V82.589s-1.554-15.551,13.915-15.551h23.2s17.024-1.3,17.024,11.691V96.88" transform="translate(-4.449 -60.385)"/><path class="n" d="M253.933,117.175s-19.593-12.636-52.31-12.321A130.7,130.7,0,0,0,185.462,106v-5.444c-20.071-1.422-27.628,4.286-27.628,4.286v8.278a63.993,63.993,0,0,0-8.532,4.063Z" transform="translate(-4.449 -60.385)"/><rect class="c" width="116.088" height="18.964" transform="translate(300.941 160.577)"/><rect class="c" width="116.088" height="18.964" transform="translate(300.941 73.275)"/><path class="q" d="M411.655,145.615a3.718,3.718,0,0,0-7.425,0H399.1a3.718,3.718,0,0,0-7.425,0h-5.129a3.718,3.718,0,0,0-7.425,0h-6.155a3.718,3.718,0,1,0-7.435,0h-4.713a3.718,3.718,0,1,0-7.435,0h-6a3.718,3.718,0,1,0-7.435,0h-5.018a3.718,3.718,0,0,0-7.435,0h-5.018a3.718,3.718,0,0,0-7.435,0h-9.68V187.4H421.528V145.615Z" transform="translate(-4.449 -60.385)"/><rect class="n" width="116.088" height="6.328" transform="translate(300.941 60.812)"/><rect class="g" width="116.088" height="53.742" transform="translate(300.941 73.275)"/><line class="g" y1="62.731" transform="translate(300.941 77.074)"/><line class="g" y2="62.731" transform="translate(417.028 77.074)"/><path class="q" d="M305.389,233.709a44.742,44.742,0,0,1,17.531-3.25c9.761.223,13.377,6.927,22.6,8.441,8.491,1.392,13.651,1.016,23.179-4.063s24.906-1.869,35.794.193,15.388-3.443,17.034-4.581v46.724H305.389Z" transform="translate(-4.449 -60.385)"/><rect class="g" width="116.088" height="53.742" transform="translate(300.941 160.79)"/><line class="g" y1="62.731" transform="translate(300.941 164.589)"/><line class="g" y2="62.731" transform="translate(417.028 164.589)"/><path class="n" d="M313.383,205.919H413.778s-14.84-11.305-50.35-11.772S313.383,205.919,313.383,205.919Z" transform="translate(-4.449 -60.385)"/><rect class="n" width="116.088" height="6.328" transform="translate(300.941 148.307)"/><line class="r" y2="46.429" transform="translate(359.132 119.602)"/><circle class="c" cx="2.255" cy="2.255" r="2.255" transform="translate(306.69 124.762)"/><circle class="c" cx="2.255" cy="2.255" r="2.255" transform="translate(314.247 124.762)"/><circle class="c" cx="2.255" cy="2.255" r="2.255" transform="translate(321.865 124.762)"/><circle class="c" cx="2.255" cy="2.255" r="2.255" transform="translate(329.472 124.762)"/><circle class="c" cx="2.255" cy="2.255" r="2.255" transform="translate(336.633 124.762)"/><circle class="c" cx="2.255" cy="2.255" r="2.255" transform="translate(375.78 124.762)"/><circle class="c" cx="2.255" cy="2.255" r="2.255" transform="translate(383.347 124.762)"/><circle class="c" cx="2.255" cy="2.255" r="2.255" transform="translate(390.965 124.762)"/><circle class="c" cx="2.255" cy="2.255" r="2.255" transform="translate(398.572 124.762)"/><circle class="c" cx="2.255" cy="2.255" r="2.255" transform="translate(405.733 124.762)"/><path class="n" d="M415.881,118.282s-19.6-12.646-52.32-12.331a130.535,130.535,0,0,0-16.15,1.148v-5.444c-20.071-1.422-27.628,4.286-27.628,4.286v8.278a62.265,62.265,0,0,0-8.532,4.063Z" transform="translate(-4.449 -60.385)"/><rect class="c" width="85.809" height="22.509" transform="translate(495.189 18.527)"/><path class="s" d="M499.628,95.8s8.329,1.077,14.545-3.311,10.828-1.442,18.141,0,13.2-9.03,21.208-2.326,10.208,2.265,16.455,1.757,6.582,5.343,10.239,6.094l3.657.731,1.564,15.012H501.243Z" transform="translate(-4.449 -60.385)"/><path class="t" d="M496.794,53.336h84.194v80.415L538.4,181.694l-43.209-47.942Z"/><path class="n" d="M501.243,72.655h82.589s-19-10.076-41.3-10.076S501.243,72.655,501.243,72.655Z" transform="translate(-4.449 -60.385)"/><path class="f" d="M495.189,133.751,538.4,181.694l42.59-47.942"/><path class="g" d="M495.189,204.72V18.527h85.8V185.94"/><path class="u" d="M670.29,107.667H640.926c-1.717,0-15.114,0-14.911,9.2.173,7.923.091,81.878.091,81.878l.345,29.273s.5,7.4-10,7.425-45.474-27.7-45.474-27.7" transform="translate(-4.449 -60.385)"/><path class="v" d="M670.29,107.667h-30.3a12.261,12.261,0,0,0-1.93.152c-3.047.518-11.925.366-12.057,9.05-.122,7.994.183,81.878.183,81.878l.254,29.273s.5,7.4-10,7.425-45.474-27.7-45.474-27.7" transform="translate(-4.449 -60.385)"/><path class="w" d="M542.7,238.849l-.173,41.645s-.2,11.813,5.434,11.813H559.86" transform="translate(-4.449 -60.385)"/><path class="x" d="M542.664,235.456v45.149s-.2,11.813,5.434,11.813H559.86" transform="translate(-4.449 -60.385)"/><rect class="y" width="6.084" height="38.384" transform="translate(577.239 212.46)"/><rect class="y" width="6.084" height="37.023" transform="translate(657.543 213.141)"/><path class="z" d="M660.418,273.587c-8.725-5.871-21.544-9.589-35.835-9.589-13.966,0-26.521,3.535-35.226,9.142v37.734c8.7,5.637,21.259,9.142,35.226,9.142,14.291,0,27.11-3.718,35.835-9.589Z" transform="translate(-4.449 -60.385)"/><line class="aa" y2="48.867" transform="translate(604.045 206.914)"/><line class="aa" y2="48.867" transform="translate(635.938 206.914)"/><rect class="n" width="30.614" height="4.479" rx="1.747" transform="translate(606.086 92.045)"/><rect class="n" width="30.614" height="4.479" rx="1.747" transform="translate(606.086 99.988)"/><rect class="n" width="30.614" height="4.479" rx="1.747" transform="translate(606.086 107.931)"/><rect class="n" width="30.614" height="4.479" rx="1.747" transform="translate(606.086 115.874)"/><rect class="n" width="30.614" height="4.479" rx="1.747" transform="translate(606.086 123.818)"/><rect class="ab" width="22.062" height="56.84" rx="7.659" transform="translate(610.962 81.015)"/><line class="ac" x2="20.995" transform="translate(611.5 87.647)"/><line class="ac" x2="20.995" transform="translate(611.5 89.12)"/><line class="ac" x2="20.995" transform="translate(611.5 90.583)"/><line class="ac" x2="20.995" transform="translate(611.5 92.045)"/><line class="ac" x2="20.995" transform="translate(611.5 93.508)"/><line class="ac" x2="20.995" transform="translate(611.5 94.971)"/><line class="ac" x2="20.995" transform="translate(611.5 96.433)"/><line class="ac" x2="20.995" transform="translate(611.5 97.896)"/><line class="ac" x2="20.995" transform="translate(611.5 99.359)"/><line class="ac" x2="20.995" transform="translate(611.5 100.832)"/><line class="ac" x2="20.995" transform="translate(611.5 102.294)"/><line class="ac" x2="20.995" transform="translate(611.5 103.757)"/><line class="ac" x2="20.995" transform="translate(611.5 105.219)"/><line class="ac" x2="20.995" transform="translate(611.5 106.682)"/><line class="ac" x2="20.995" transform="translate(611.5 108.145)"/><line class="ac" x2="20.995" transform="translate(611.5 109.607)"/><line class="ac" x2="20.995" transform="translate(611.5 111.08)"/><line class="ac" x2="20.995" transform="translate(611.5 112.543)"/><line class="ac" x2="20.995" transform="translate(611.5 114.006)"/><line class="ac" x2="20.995" transform="translate(611.5 115.468)"/><line class="ac" x2="20.995" transform="translate(611.5 116.931)"/><line class="ac" x2="20.995" transform="translate(611.5 118.394)"/><line class="ac" x2="20.995" transform="translate(611.5 119.856)"/><line class="ac" x2="20.995" transform="translate(611.5 121.329)"/><line class="ac" x2="20.995" transform="translate(611.5 122.792)"/><line class="ac" x2="20.995" transform="translate(611.5 124.254)"/><line class="ac" x2="20.995" transform="translate(611.5 125.717)"/><line class="ac" x2="20.995" transform="translate(611.5 127.18)"/><line class="ac" x2="20.995" transform="translate(611.5 128.642)"/><line class="ac" x2="20.995" transform="translate(611.5 130.105)"/><line class="ac" x1="0.091" y2="42.458" transform="translate(612.17 87.647)"/><line class="ac" x1="0.091" y2="42.458" transform="translate(612.932 87.647)"/><line class="ac" x1="0.091" y2="42.458" transform="translate(613.694 87.647)"/><line class="ac" x1="0.091" y2="42.458" transform="translate(614.456 87.647)"/><line class="ac" x1="0.091" y2="42.458" transform="translate(615.218 87.647)"/><line class="ac" x1="0.091" y2="42.458" transform="translate(615.979 87.647)"/><line class="ac" x1="0.091" y2="42.458" transform="translate(616.741 87.647)"/><line class="ac" x1="0.081" y2="42.458" transform="translate(617.503 87.647)"/><line class="ac" x1="0.081" y2="42.458" transform="translate(618.265 87.647)"/><line class="ac" x1="0.081" y2="42.458" transform="translate(619.027 87.647)"/><line class="ac" x1="0.081" y2="42.458" transform="translate(619.788 87.647)"/><line class="ac" x1="0.081" y2="42.458" transform="translate(620.55 87.647)"/><line class="ac" x1="0.081" y2="42.458" transform="translate(621.312 87.647)"/><line class="ac" x1="0.081" y2="42.458" transform="translate(622.074 87.647)"/><line class="ac" x1="0.091" y2="42.458" transform="translate(622.825 87.647)"/><line class="ac" x1="0.091" y2="42.458" transform="translate(623.587 87.647)"/><line class="ac" x1="0.091" y2="42.458" transform="translate(624.349 87.647)"/><line class="ac" x1="0.091" y2="42.458" transform="translate(625.111 87.647)"/><line class="ac" x1="0.091" y2="42.458" transform="translate(625.873 87.647)"/><line class="ac" x1="0.091" y2="42.458" transform="translate(626.634 87.647)"/><line class="ac" x1="0.091" y2="42.458" transform="translate(627.396 87.647)"/><line class="ac" x1="0.091" y2="42.458" transform="translate(628.158 87.647)"/><line class="ac" x1="0.091" y2="42.458" transform="translate(628.92 87.647)"/><line class="ac" x1="0.091" y2="42.458" transform="translate(629.682 87.647)"/><line class="ac" x1="0.081" y2="42.458" transform="translate(630.443 87.647)"/><line class="ac" x1="0.081" y2="42.458" transform="translate(631.205 87.647)"/><line class="ac" x1="0.081" y2="42.458" transform="translate(631.967 87.647)"/><path class="ad" d="M500.491,124.356H475.27s-14.22,1.524-14.535,13.1,1.585,95.377,1.585,95.377v10.157s.508,10.818-9.995,10.848-33.875,0-33.875,0" transform="translate(-4.449 -60.385)"/><path class="ae" d="M464.514,225.563h-13.53a4.622,4.622,0,0,1-4.6-4.6h0a4.622,4.622,0,0,1,4.6-4.611h13.54Z" transform="translate(-4.449 -60.385)"/><path class="af" d="M502.37,124.356H475.362s-14.22,1.524-14.545,13.1,1.585,95.377,1.585,95.377v10.157s.508,10.818-9.995,10.848-37.582,0-37.582,0" transform="translate(-4.449 -60.385)"/><path class="ag" d="M460.38,158.251h13.54a4.622,4.622,0,0,0,4.6-4.6h0a4.622,4.622,0,0,0-4.6-4.6H460.38Z" transform="translate(-4.449 -60.385)"/><path class="u" d="M501.659,124.366l-26.277.112s-14.22,1.524-14.545,13.1.894,63.331.894,63.331" transform="translate(-4.449 -60.385)"/><path class="x" d="M502.37,124.356l-26.907.122s-14.22,1.524-14.545,13.1.813,63.331.813,63.331" transform="translate(-4.449 -60.385)"/><rect class="ae" width="36.282" height="9.203" rx="4.307" transform="translate(441.66 142.558)"/><rect class="ah" width="36.282" height="9.203" rx="4.307" transform="translate(441.01 129.15)"/><rect class="ai" width="36.912" height="9.203" rx="4.307" transform="translate(439.415 115.56)"/><rect class="aj" width="36.912" height="9.203" rx="4.307" transform="translate(437.83 102.304)"/><rect class="ak" width="38.984" height="9.203" rx="4.307" transform="translate(439.988 145.044) rotate(-26.53)"/><rect class="al" width="38.984" height="9.203" rx="4.307" transform="translate(439.068 131.629) rotate(-26.53)"/><rect class="am" width="38.984" height="9.203" rx="4.307" transform="translate(437.835 118.144) rotate(-26.53)"/><rect class="an" width="38.984" height="9.203" rx="4.307" transform="translate(436.656 104.761) rotate(-26.53)"/><rect class="ao" width="38.984" height="9.203" rx="4.307" transform="translate(440.574 158.508) rotate(-26.53)"/><path class="s" d="M655.969,18.171h81.492V51.894l-81.492-1.148Z"/><path class="ap" d="M660.418,102.355s5.932,8.4,12.717,2.417c0,0,5.282,5.363,12.524-.132,0,0,5.292,5.7,12.422.1,0,0,6.551,5.79,13.2,0a7.994,7.994,0,0,0,11.041.061s6.551,4.439,11.264,0a7.283,7.283,0,0,0,8.3,0v105.89H660.418Z" transform="translate(-4.449 -60.385)"/><rect class="g" width="81.492" height="132.136" transform="translate(655.969 18.171)"/><line class="g" y1="154.259" transform="translate(655.969 27.506)"/><line class="g" y2="154.259" transform="translate(737.461 27.506)"/><circle class="aq" cx="1.95" cy="1.95" r="1.95" transform="translate(707.04 89.679)"/><circle class="aq" cx="1.95" cy="1.95" r="1.95" transform="translate(714.658 62.203)"/><circle class="aq" cx="1.95" cy="1.95" r="1.95" transform="translate(718.548 133.162)"/><circle class="aq" cx="1.95" cy="1.95" r="1.95" transform="translate(679.188 86.347)"/><circle class="aq" cx="2.956" cy="2.956" r="2.956" transform="translate(692.301 53.123)"/><circle class="aq" cx="2.956" cy="2.956" r="2.956" transform="translate(687.365 118.861)"/><circle class="aq" cx="2.956" cy="2.956" r="2.956" transform="translate(674.912 134.899)"/><circle class="aq" cx="2.956" cy="2.956" r="2.956" transform="translate(717.166 80.324)"/><circle class="aq" cx="2.956" cy="2.956" r="2.956" transform="translate(664.064 78.404)"/><circle class="aq" cx="2.956" cy="2.956" r="2.956" transform="translate(723.637 50.665)"/><circle class="aq" cx="2.956" cy="2.956" r="2.956" transform="translate(713.652 119.755)"/><circle class="aq" cx="1.95" cy="1.95" r="1.95" transform="translate(673.602 63.595)"/><circle class="aq" cx="1.95" cy="1.95" r="1.95" transform="translate(671.652 106.489)"/><circle class="aq" cx="1.95" cy="1.95" r="1.95" transform="translate(686.654 97.906)"/><circle class="aq" cx="1.95" cy="1.95" r="1.95" transform="translate(699.239 109.607)"/><circle class="aq" cx="1.95" cy="1.95" r="1.95" transform="translate(695.003 75.794)"/><circle class="aq" cx="1.95" cy="1.95" r="1.95" transform="translate(722.194 107.81)"/><circle class="aq" cx="1.95" cy="1.95" r="1.95" transform="translate(703.139 129.597)"/><path class="aq" d="M738.751,137.215a1.95,1.95,0,1,1,0-3.89" transform="translate(-4.449 -60.385)"/><path class="aq" d="M738.751,169.556a1.95,1.95,0,1,1,0-3.89" transform="translate(-4.449 -60.385)"/><path class="aq" d="M663.15,186.681a1.95,1.95,0,1,1,0,3.89" transform="translate(-4.449 -60.385)"/><path class="aq" d="M663.769,116.464a1.95,1.95,0,0,1,0,3.89" transform="translate(-4.449 -60.385)"/><path class="n" d="M658.406,72.655H741s-19-10.076-41.3-10.076S658.406,72.655,658.406,72.655Z" transform="translate(-4.449 -60.385)"/></g></g></svg>