<svg xmlns="http://www.w3.org/2000/svg" xmlns:xlink="http://www.w3.org/1999/xlink" width="422" height="212" viewBox="0 0 422 212"><defs><style>.a{fill:#d9d9d9;stroke:#707070;}.b{clip-path:url(#a);}.c{fill:#dbdbdb;}.d,.f{fill:#777;}.e{fill:#686868;}.e,.f{stroke:#777;stroke-width:0.864px;}.e,.f,.g,.j{stroke-miterlimit:10;}.g{fill:none;stroke:#eaeaea;}.g,.j{stroke-linecap:round;stroke-width:1.729px;}.h{fill:#898989;}.i{fill:#aaa;}.j,.k{fill:#c5c5c5;}.j{stroke:#915757;}.l{fill:#915757;}.m{fill:#969696;}.n{fill:#5b5b5b;}</style><clipPath id="a"><rect class="a" width="422" height="212" transform="translate(91 1774)"/></clipPath></defs><g class="b" transform="translate(-91 -1774)"><g transform="translate(169.708 1774.057)"><path class="c" d="M242.579,128.883a73.942,73.942,0,0,1,13.009-18c5.126-5.273,11.315-10.3,18.516-12.309a44.085,44.085,0,0,1,9.88-1.158,55.011,55.011,0,0,1,10.191.363c6.768.959,13.1,3.924,16.968,9.759a26.321,26.321,0,0,1,4.132,15.62,10.313,10.313,0,0,1-2.723,6.915,5.342,5.342,0,0,1-7.494.259c-2.2-1.772-4.141-5.014-2.913-7.883.7-1.642,2.083-.666,3.1.225a25.932,25.932,0,0,1,4.512,5.524,23.244,23.244,0,0,1,2.68,4.979c2.187,6.448,4.2,15.006.493,21.256-1.219,2.049-4.4,5.714-7.226,4.6-1.582-.622-3.648-5.23-1.167-5.9,1.979-.536,4.512.934,5.809,2.325a19.1,19.1,0,0,1,4.59,10.3c.994,7.659-2.273,15.283-6.388,21.558a63.706,63.706,0,0,1-16.605,17.012c-6.423,4.521-13.908,7.78-21.878,7.832-8.246,0-15.559-3.458-22.189-8.108-6.232-4.322-12.188-9.612-16.251-16.1-3.051-4.875-6.146-12.1-1.729-17.141,2.023-2.334,5.23-1.1,5.368,1.979a8.644,8.644,0,0,1-4.728,7.987c-3.613,1.858-8.1,1.547-11.989.994a85.784,85.784,0,0,1-13.217-3.259c-4.322-1.331-8.584-2.732-12.966-3.674-3.691-.8-7.624-1.513-11.367-.692-5.9,1.3-13.3,6.716-12.568,13.554.277,2.541,1.971,5.074,4.6,5.593,3.034.588,5.359-1.919,6.353-4.512,2.438-6.3-5.247-8.748-10.088-8.29-8.54.821-16.087,6.051-23.659,9.681-8.212,3.89-16.64,7.978-25.794,8.929a35.017,35.017,0,0,1-20.054-3.7,47.012,47.012,0,0,1-15.127-13.32,80.917,80.917,0,0,1-6-9.024c-.441-.769-.864-1.539-1.288-2.308a10.65,10.65,0,0,1-1.245-2.489c-.354-1.547,1.167-3.224,2.481-3.864a6.1,6.1,0,0,1,6.8,1.5,5.339,5.339,0,0,1-.1,7.313c-2.04,2.36-5.359,3.458-8.385,3.752a14.41,14.41,0,0,1-8.964-2.178c-6.483-3.829-12.015-11.237-11.9-19.017.086-6,3.363-10.857,8.367-13.977s10.831-4.607,16.545-5.662c2.948-.545,5.913-.813,8.869-1.262a9.171,9.171,0,0,0,6.544-4.279c2.827-4.365,4.184-9.906,4.789-15.015.51-4.322.692-10.433-3.043-13.45a2.455,2.455,0,0,0-3.017-.372,6.6,6.6,0,0,0-2.533,2.317,14.168,14.168,0,0,0-2.2,7.633c-.052,2.334.424,4.893,2.256,6.509a7.278,7.278,0,0,0,6.6,1.314c5.186-1.2,10-5.282,13.537-9.137a41.725,41.725,0,0,0,5.558-8.108A44.785,44.785,0,0,0,123.169,89.9c.778-3.726-.19-7.84,1.357-11.393,1.461-3.345,4.46-5.256,7.78-6.544,1.15-.449.648-2.325-.519-1.876a16.981,16.981,0,0,0-7.2,4.694,13.839,13.839,0,0,0-2.853,8.644,42.7,42.7,0,0,1-.3,5.368,31.586,31.586,0,0,1-1.556,5.541,50.827,50.827,0,0,1-5.3,10.459,34.87,34.87,0,0,1-9.984,10.053c-2.87,1.91-9.059,5.247-11.5.864-1.184-2.109-.916-5.022-.337-7.27s1.729-4.841,4.123-5.264l-.743-.1c3.968,2.152,3.535,8.549,3.1,12.309-.562,4.849-1.9,10.226-4.651,14.341a7.209,7.209,0,0,1-2.42,2.343,13.232,13.232,0,0,1-5.109,1.115c-2.593.285-5.282.743-7.883,1.262-5.4,1.081-10.892,2.636-15.62,5.541-4.529,2.792-8.1,6.984-9.1,12.318-1.314,6.967,1.556,13.779,6.189,18.922,4.262,4.728,10.191,8.367,16.744,7.615,5.091-.588,11.834-3.838,11.4-9.941-.346-4.91-6.051-8.281-10.589-6.466-2.446.985-4.78,3.873-3.855,6.613A27.661,27.661,0,0,0,76.7,173.53q1.279,2.256,2.7,4.452c6.915,10.684,16.692,20.3,29.623,22.647,7.3,1.331,14.695.285,21.731-2.04,8.143-2.714,15.983-6.665,23.572-10.641a53.519,53.519,0,0,1,11.791-4.979c2.939-.726,6.155-1.02,9.007.2a4.391,4.391,0,0,1,2.593,2.325c.493,1.392-.216,3.008-1,4.141-1.729,2.438-4.676,2.178-5.938-.51-1.444-3.086.571-6.63,2.732-8.808a16.07,16.07,0,0,1,8.808-4.478c3.907-.622,8.169.467,11.937,1.409,4.149,1.046,8.212,2.412,12.309,3.648a77.027,77.027,0,0,0,12.387,2.853c3.613.458,7.512.64,10.987-.64a10.675,10.675,0,0,0,6.509-6.146c.916-2.4,1.34-5.748-.545-7.78a4.772,4.772,0,0,0-6.483-.588,10.762,10.762,0,0,0-3.458,6.319c-.571,2.827.181,5.7,1.184,8.333a35.225,35.225,0,0,0,5.186,8.973A66.724,66.724,0,0,0,248,206.438c6.31,4.253,13.269,7.4,20.979,7.65,14.989.484,28.767-9.716,37.766-20.9,8.54-10.615,15.369-26.753,5.351-38.76-1.979-2.368-8.765-5.671-10.3-1.081a6.915,6.915,0,0,0,2.55,7.131c2.265,1.435,5.031.285,6.915-1.184,5.584-4.322,6.224-11.652,5.186-18.153a44.45,44.45,0,0,0-2.256-8.973,28.474,28.474,0,0,0-2.775-5.091,30.063,30.063,0,0,0-4.322-5.454c-1.15-1.081-2.8-2.412-4.5-2.031-1.867.424-2.593,2.706-2.688,4.383-.164,2.844,1.539,5.688,3.613,7.5s4.763,2.878,7.451,1.833a9.206,9.206,0,0,0,5.083-4.806c2.144-4.668,1.374-10.433-.069-15.2A23.866,23.866,0,0,0,306,99.822c-5.29-3.345-11.7-4.322-17.859-4.417-6.336-.086-12.966.225-18.8,2.878-6.448,2.922-12.015,7.78-16.752,12.966a75.791,75.791,0,0,0-11.7,16.683c-.562,1.115,1.115,2.1,1.686.985Z" transform="translate(-52.798 -2.161)"/><path class="d" d="M147.814,87.305H164.5a1.409,1.409,0,0,1,1.409,1.409v7.555a1.409,1.409,0,0,0,1.409,1.409h36.513a1.409,1.409,0,0,0,1.409-1.409V88.714a1.409,1.409,0,0,1,1.409-1.409h16.2a1.409,1.409,0,0,1,1.409,1.409v13.692a1.392,1.392,0,0,0,.277.864l41.3,56.186A1.409,1.409,0,0,1,264.7,161.7l-158.273.415a1.409,1.409,0,0,1-1.15-2.23l40.5-56.186a1.426,1.426,0,0,0,.259-.787l.389-14.194A1.4,1.4,0,0,1,147.814,87.305Z" transform="translate(-52.798 -2.161)"/><path class="e" d="M198.381,28.75s4.754,7.347,17.72,3.89c7.555-2.014,11.462-4.019,11.816-8.264.259-3.034-.441-7.78-4.037-13.346C218,1.945,197.085.657,184.983,4.979S148.678,16.216,134.848,33.5c-12.491,15.62-10.485,31.853-.864,39.391a6.587,6.587,0,0,0,6.915.648c4.4-2.144,13.831-4.46,15.084-15.507.182-1.582-1.988-5.333-2.161-7.244C153,41.284,185.848,28.318,198.381,28.75Z" transform="translate(-52.798 -2.161)"/><path class="f" d="M156.354,57.051s3.561,2.386,3.561,5.843S146.085,76.725,139.17,79.318a7.105,7.105,0,0,1-5.186-6.051S148.462,67.692,156.354,57.051Z" transform="translate(-52.798 -2.161)"/><path class="f" d="M228.2,24.67s2.472,3.458,1.227,6.708-17.885,7.918-25.267,7.84a7.1,7.1,0,0,1-2.662-7.512S217.035,31.724,228.2,24.67Z" transform="translate(-52.798 -2.161)"/><path class="g" d="M227.745,41.794c.631,2.593-2.325,5.541-6.6,6.578s-8.238-.233-8.869-2.835" transform="translate(-52.798 -2.161)"/><path class="g" d="M233.45,45.26c.864,4.443-4.408,9.241-11.834,10.727s-14.159-.908-15.023-5.342" transform="translate(-52.798 -2.161)"/><path class="g" d="M239.579,52.383c.657,5.048-7,10.209-17.107,11.514S203.654,62.168,203,57.129" transform="translate(-52.798 -2.161)"/><rect class="h" width="4.486" height="52.297" rx="2.243" transform="translate(163.297 110.396) rotate(-35.51)"/><path class="h" d="M175.371,184.352l.519,26.961a.934.934,0,0,0,.934.916h31.5a.934.934,0,0,0,.942-.934V198.33a.925.925,0,0,1,.4-.769c1.66-1.132,7.978-5.437,11.021-7.486l-10.485.207a.934.934,0,0,1-.951-.925l-.078-5.014a.934.934,0,0,0-.934-.925h-31.9a.942.942,0,0,0-.968.934Z" transform="translate(-52.798 -2.161)"/><path class="i" d="M159.353,190.731h30.073a.631.631,0,0,1,.631.622V213.12a.631.631,0,0,1-.631.631H159.051a.631.631,0,0,1-.631-.631V206.9a.614.614,0,0,0-.441-.6c-1.2-.372-4.642-1.452-7.5-2.645,0,0,3.795-2.014,7.909-4.443a.631.631,0,0,0,.311-.545v-7.322a.622.622,0,0,1,.657-.622Z" transform="translate(-52.798 -2.161)"/><line class="j" x2="18.965" transform="translate(112.243 194.492)"/><line class="j" x2="18.965" transform="translate(112.243 200.076)"/><line class="j" x2="18.965" transform="translate(112.243 205.66)"/><circle class="k" cx="18.075" cy="18.075" r="18.075" transform="translate(0 105.285)"/><circle class="l" cx="4.599" cy="4.599" r="4.599" transform="translate(9.88 109.685)"/><path class="l" d="M65.375,119.643s-4.806,3.907-6.25,14.79c0,0,5.385,4.141,16.346.415,0,0-1.288-11.523-5.887-15.2Z" transform="translate(-52.798 -2.161)"/><line class="j" y2="8.8" transform="translate(27.549 117.482)"/><line class="j" x1="8.635" y1="0.078" transform="translate(23.521 121.881)"/><path class="k" d="M229.068,76.474h15a10.373,10.373,0,0,1,10.373,10.373v19.319a6.051,6.051,0,0,1-6.051,6.051H223.881a5.186,5.186,0,0,1-5.186-5.186V86.847A10.373,10.373,0,0,1,229.068,76.474Z"/><path class="m" d="M220.752,76.474h31.015a2.688,2.688,0,0,1,2.688,2.688v5.887H218.695V78.514a2.04,2.04,0,0,1,2.057-2.04Z"/><rect class="n" width="2.853" height="7.633" rx="1.426" transform="translate(224.832 74.002)"/><rect class="n" width="2.853" height="7.633" rx="1.426" transform="translate(245.414 74.002)"/><line class="j" y2="18.965" transform="translate(228.93 88.636)"/><circle class="j" cx="4.037" cy="4.037" r="4.037" transform="translate(236.363 88.628)"/><circle class="j" cx="5.454" cy="5.454" r="5.454" transform="translate(234.946 96.701)"/></g></g></svg>