<svg xmlns="http://www.w3.org/2000/svg" viewBox="0 0 306 245.18"><g id="Phone"><path d="M280.63,149.1a85.54,85.54,0,0,1,15.05-20.82c5.93-6.1,13.09-11.91,21.42-14.24a51,51,0,0,1,11.43-1.34,63.64,63.64,0,0,1,11.79.42c7.83,1.11,15.16,4.54,19.63,11.29a30.45,30.45,0,0,1,4.78,18.07c-.18,2.89-1,5.94-3.15,8a6.18,6.18,0,0,1-8.67.3c-2.55-2.05-4.79-5.8-3.37-9.12.81-1.9,2.41-.77,3.59.26a30,30,0,0,1,5.22,6.39,26.89,26.89,0,0,1,3.1,5.76c2.53,7.46,4.86,17.36.57,24.59-1.41,2.37-5.09,6.61-8.36,5.32-1.83-.72-4.22-6.05-1.35-6.82,2.29-.62,5.22,1.08,6.72,2.69a22.1,22.1,0,0,1,5.31,11.91c1.15,8.86-2.63,17.68-7.39,24.94a73.7,73.7,0,0,1-19.21,19.68c-7.43,5.23-16.09,9-25.31,9.06-9.54,0-18-4-25.67-9.38-7.21-5-14.1-11.12-18.8-18.62-3.53-5.64-7.11-14-2-19.83,2.34-2.7,6.05-1.27,6.21,2.29a10,10,0,0,1-5.47,9.24c-4.18,2.15-9.37,1.79-13.87,1.15a99.24,99.24,0,0,1-15.29-3.77c-5-1.54-9.93-3.16-15-4.25-4.27-.92-8.82-1.75-13.15-.8-6.83,1.5-15.39,7.77-14.54,15.68.32,2.94,2.28,5.87,5.32,6.47,3.51.68,6.2-2.22,7.35-5.22,2.82-7.29-6.07-10.12-11.67-9.59-9.88.95-18.61,7-27.37,11.2-9.5,4.5-19.25,9.23-29.84,10.33a40.51,40.51,0,0,1-23.2-4.28c-7-3.67-12.74-9.22-17.5-15.41A93.61,93.61,0,0,1,91,200.21c-.51-.89-1-1.78-1.49-2.67a12.32,12.32,0,0,1-1.44-2.88c-.41-1.79,1.35-3.73,2.87-4.47,2.62-1.28,5.93-.28,7.87,1.74,2.35,2.44,2,6-.12,8.46-2.36,2.73-6.2,4-9.7,4.34a16.67,16.67,0,0,1-10.37-2.52c-7.5-4.43-13.9-13-13.77-22,.1-6.94,3.89-12.56,9.68-16.17s12.53-5.33,19.14-6.55c3.41-.63,6.84-.94,10.26-1.46a10.61,10.61,0,0,0,7.57-4.95c3.27-5.05,4.84-11.46,5.54-17.37.59-5,.8-12.07-3.52-15.56a2.84,2.84,0,0,0-3.49-.43,7.63,7.63,0,0,0-2.93,2.68,16.39,16.39,0,0,0-2.55,8.83c-.06,2.7.49,5.66,2.61,7.53a8.42,8.42,0,0,0,7.63,1.52c6-1.39,11.57-6.11,15.66-10.57a48.27,48.27,0,0,0,6.43-9.38A51.81,51.81,0,0,0,142.49,104c.9-4.31-.22-9.07,1.57-13.18,1.69-3.87,5.16-6.08,9-7.57,1.33-.52.75-2.69-.6-2.17-3.12,1.22-6.17,2.8-8.33,5.43-2.39,2.92-3.16,6.32-3.3,10a49.4,49.4,0,0,1-.35,6.21,36.54,36.54,0,0,1-1.8,6.41,58.8,58.8,0,0,1-6.13,12.1A40.34,40.34,0,0,1,121,132.86c-3.32,2.21-10.48,6.07-13.3,1-1.37-2.44-1.06-5.81-.39-8.41s2-5.6,4.77-6.09l-.86-.11c4.59,2.49,4.09,9.89,3.59,14.24-.65,5.61-2.2,11.83-5.38,16.59a8.34,8.34,0,0,1-2.8,2.71c-1.8,1-3.91,1.07-5.91,1.29-3,.33-6.11.86-9.12,1.46-6.25,1.25-12.6,3.05-18.07,6.41-5.24,3.23-9.37,8.08-10.53,14.25-1.52,8.06,1.8,15.94,7.16,21.89,4.93,5.47,11.79,9.68,19.37,8.81,5.89-.68,13.69-4.44,13.19-11.5-.4-5.68-7-9.58-12.25-7.48-2.83,1.14-5.53,4.48-4.46,7.65a32,32,0,0,0,2.72,5.18q1.48,2.61,3.12,5.15c8,12.36,19.31,23.48,34.27,26.2,8.45,1.54,17,.33,25.14-2.36,9.42-3.14,18.49-7.71,27.27-12.31,4.38-2.28,8.82-4.58,13.64-5.76,3.4-.84,7.12-1.18,10.42.23a5.08,5.08,0,0,1,3,2.69c.57,1.61-.25,3.48-1.16,4.79-2,2.82-5.41,2.52-6.87-.59-1.67-3.57.66-7.67,3.16-10.19a18.59,18.59,0,0,1,10.19-5.18c4.52-.72,9.45.54,13.81,1.63,4.8,1.21,9.5,2.79,14.24,4.22a89.11,89.11,0,0,0,14.33,3.3c4.18.53,8.69.74,12.71-.74a12.35,12.35,0,0,0,7.53-7.11c1.06-2.78,1.55-6.65-.63-9a5.52,5.52,0,0,0-7.5-.68,12.45,12.45,0,0,0-4,7.31c-.66,3.27.21,6.59,1.37,9.64a40.75,40.75,0,0,0,6,10.38,77.19,77.19,0,0,0,18.13,16.45c7.3,4.92,15.35,8.56,24.27,8.85,17.34.56,33.28-11.24,43.69-24.18,9.88-12.28,17.78-30.95,6.19-44.84-2.29-2.74-10.14-6.56-11.91-1.25a8,8,0,0,0,2.95,8.25c2.62,1.66,5.82.33,8-1.37,6.46-5,7.2-13.48,6-21a51.42,51.42,0,0,0-2.61-10.38,32.94,32.94,0,0,0-3.21-5.89,34.78,34.78,0,0,0-5-6.31c-1.33-1.25-3.24-2.79-5.21-2.35-2.16.49-3,3.13-3.11,5.07-.19,3.29,1.78,6.58,4.18,8.68s5.51,3.33,8.62,2.12a10.65,10.65,0,0,0,5.88-5.56c2.48-5.4,1.59-12.07-.08-17.58A27.61,27.61,0,0,0,354,115.48c-6.12-3.87-13.54-5-20.66-5.11-7.33-.1-15,.26-21.75,3.33-7.46,3.38-13.9,9-19.38,15A87.68,87.68,0,0,0,278.68,148c-.65,1.29,1.29,2.43,1.95,1.14Z" transform="translate(-61.08 -2.5)" fill="#dbdbdb"/><path d="M171,101H190.3a1.63,1.63,0,0,1,1.63,1.63v8.74a1.63,1.63,0,0,0,1.63,1.63H235.8a1.63,1.63,0,0,0,1.63-1.63v-8.74a1.63,1.63,0,0,1,1.63-1.63H257.8a1.63,1.63,0,0,1,1.63,1.63v15.84a1.61,1.61,0,0,0,.32,1l47.78,65a1.63,1.63,0,0,1-1.31,2.59l-183.1.48a1.63,1.63,0,0,1-1.33-2.58l46.85-65a1.65,1.65,0,0,0,.3-.91l.45-16.42A1.62,1.62,0,0,1,171,101Z" transform="translate(-61.08 -2.5)" fill="#777"/><path d="M229.5,33.26s5.5,8.5,20.5,4.5c8.74-2.33,13.26-4.65,13.67-9.56.3-3.51-.51-9-4.67-15.44-6.8-10.51-31-12-45-7s-42,13-58,33c-14.45,18.07-12.13,36.85-1,45.57a7.62,7.62,0,0,0,8,.75c5.09-2.48,16-5.16,17.45-17.94.21-1.83-2.3-6.17-2.5-8.38C177,47.76,215,32.76,229.5,33.26Z" transform="translate(-61.08 -2.5)" fill="#686868" stroke="#777" stroke-miterlimit="10"/><path d="M180.88,66S185,68.76,185,72.76s-16,16-24,19a8.22,8.22,0,0,1-6-7S171.75,78.31,180.88,66Z" transform="translate(-61.08 -2.5)" fill="#777" stroke="#777" stroke-miterlimit="10"/><path d="M264,28.54s2.86,4,1.42,7.76-20.69,9.16-29.23,9.07a8.21,8.21,0,0,1-3.08-8.69S251.08,36.7,264,28.54Z" transform="translate(-61.08 -2.5)" fill="#777" stroke="#777" stroke-miterlimit="10"/><path d="M263.47,48.35c.73,3-2.69,6.41-7.63,7.61s-9.53-.27-10.26-3.28" transform="translate(-61.08 -2.5)" fill="none" stroke="#eaeaea" stroke-linecap="round" stroke-miterlimit="10" stroke-width="2"/><path d="M270.07,52.36c1,5.14-5.1,10.69-13.69,12.41S240,63.72,239,58.59" transform="translate(-61.08 -2.5)" fill="none" stroke="#eaeaea" stroke-linecap="round" stroke-miterlimit="10" stroke-width="2"/><path d="M277.16,60.6c.76,5.84-8.1,11.81-19.79,13.32s-21.77-2-22.53-7.83" transform="translate(-61.08 -2.5)" fill="none" stroke="#eaeaea" stroke-linecap="round" stroke-miterlimit="10" stroke-width="2"/><rect x="267.08" y="123.09" width="5.19" height="60.5" rx="2.6" transform="translate(-99.99 182.65) rotate(-35.51)" fill="#898989"/></g><g id="Layer_3" data-name="Layer 3"><path d="M202.88,213.27l.6,31.19a1.08,1.08,0,0,0,1.08,1.06H241a1.08,1.08,0,0,0,1.09-1.08v-15a1.07,1.07,0,0,1,.46-.89c1.92-1.31,9.23-6.29,12.75-8.66l-12.13.24a1.08,1.08,0,0,1-1.1-1.07l-.09-5.8a1.08,1.08,0,0,0-1.08-1.07H204A1.09,1.09,0,0,0,202.88,213.27Z" transform="translate(-61.08 -2.5)" fill="#898989"/><path d="M184.35,220.65h34.79a.73.73,0,0,1,.73.72v25.18a.73.73,0,0,1-.73.73H184a.73.73,0,0,1-.73-.73v-7.19a.71.71,0,0,0-.51-.69c-1.39-.43-5.37-1.68-8.68-3.06,0,0,4.39-2.33,9.15-5.14a.73.73,0,0,0,.36-.63v-8.47A.72.72,0,0,1,184.35,220.65Z" transform="translate(-61.08 -2.5)" fill="#aaa"/><line x1="129.85" y1="225" x2="151.79" y2="225" fill="#c5c5c5" stroke="#ba455c" stroke-linecap="round" stroke-miterlimit="10" stroke-width="2"/><line x1="129.85" y1="231.46" x2="151.79" y2="231.46" fill="#c5c5c5" stroke="#ba455c" stroke-linecap="round" stroke-miterlimit="10" stroke-width="2"/><line x1="129.85" y1="237.92" x2="151.79" y2="237.92" fill="#c5c5c5" stroke="#ba455c" stroke-linecap="round" stroke-miterlimit="10" stroke-width="2"/><circle cx="20.91" cy="142.71" r="20.91" fill="#c5c5c5"/><circle cx="16.75" cy="132.21" r="5.32" fill="#ba455c"/><path d="M75.63,138.41s-5.56,4.52-7.23,17.11c0,0,6.23,4.79,18.91.48,0,0-1.49-13.33-6.81-17.59Z" transform="translate(-61.08 -2.5)" fill="#ba455c"/><line x1="31.87" y1="135.91" x2="31.87" y2="146.09" fill="#c5c5c5" stroke="#ba455c" stroke-linecap="round" stroke-miterlimit="10" stroke-width="2"/><line x1="37.2" y1="141.09" x2="27.21" y2="141" fill="#c5c5c5" stroke="#ba455c" stroke-linecap="round" stroke-miterlimit="10" stroke-width="2"/><path d="M265,88.47h17.35a12,12,0,0,1,12,12v22.35a7,7,0,0,1-7,7H259a6,6,0,0,1-6-6V100.47A12,12,0,0,1,265,88.47Z" fill="#c5c5c5"/><path d="M255.38,88.47h35.88a3.11,3.11,0,0,1,3.11,3.11v6.81a0,0,0,0,1,0,0H253a0,0,0,0,1,0,0V90.83A2.36,2.36,0,0,1,255.38,88.47Z" fill="#969696"/><rect x="260.1" y="85.61" width="3.3" height="8.83" rx="1.65" fill="#5b5b5b"/><rect x="283.91" y="85.61" width="3.3" height="8.83" rx="1.65" fill="#5b5b5b"/><line x1="264.84" y1="102.54" x2="264.84" y2="124.48" fill="#c5c5c5" stroke="#ba455c" stroke-linecap="round" stroke-miterlimit="10" stroke-width="2"/><circle cx="278.11" cy="107.2" r="4.67" fill="#c5c5c5" stroke="#ba455c" stroke-linecap="round" stroke-miterlimit="10" stroke-width="2"/><circle cx="278.11" cy="118.18" r="6.31" fill="#c5c5c5" stroke="#ba455c" stroke-linecap="round" stroke-miterlimit="10" stroke-width="2"/></g></svg>