<svg xmlns="http://www.w3.org/2000/svg" viewBox="0 0 734.73 229.93"><g id="truck"><polygon id="BodyShadow" points="476.12 0.08 481.28 2.34 477.7 170.02 472.63 169.51 476.12 0.08" fill="#898989"/><path id="bottomBody" d="M615.76,281.69,531,279.36a7.37,7.37,0,0,1-4.06-1.36l-36.6-26.15a37.14,37.14,0,0,1-3.28-4.24l-5.65,5.16-3.91-.06L8.74,254.31v40.46a3.07,3.07,0,0,0,3,3.07L59.31,297a30.29,30.29,0,0,1-1.41-9.18c0-17.29,14.43-31.31,32.23-31.31s32.23,14,32.23,31.31a30.37,30.37,0,0,1-1.49,9.43l245.8,1,249.8-2.28Z" transform="translate(-4.77 -85.01)" fill="#494949"/><path id="frontBottom" d="M734,285.78l-1.28,10.28s4.54-.47,3.94,1.88-9.44,2.91-16.21,2.82-14.07,0-14.07,0l-24.1-.39c5.73-10.35,4.5-14.6,4.5-14.6l12.36-6.48Z" transform="translate(-4.77 -85.01)" fill="#4f4f4e"/><g id="frontTire"><ellipse cx="646.37" cy="199.11" rx="31.13" ry="30.82" fill="#4c4c4c"/><ellipse id="innerTire" cx="646.38" cy="198.75" rx="17.79" ry="18.35" fill="#666"/></g><path id="sideDetail" d="M617,277.84s-.39,4.81-.47,7.24c-.23,7.92,3.47,15.69,3.47,15.69l-253.35-2.56a24.17,24.17,0,0,1-12.32-3.69c-4-2.6-8-6.88-7.81-13.56.31-11.08,24.34-20.1,44.21-20.72,24.35-.76,82.83-.32,102.55,0l4.26,0s1.25,0,3,1.69S515,270,528.87,276.86Z" transform="translate(-4.77 -85.01)" fill="#4f4f4e"/><path id="Front" d="M485.91,85.34l-4.5,167.43s6.86,0,19.78,10c12.26,9.48,19,15.37,23.17,18a17.51,17.51,0,0,0,9,2.65l83.2,1.68s-.83-33.65,32.83-34.85c33.39-1.2,37.3,25.77,37.4,35.55h49.46s3,.1,3.19-2,0-19.73,0-19.73.17-2.08-2.52-6.41-50.49-75.3-76.39-102.8S572,80.64,485.91,85.34Z" transform="translate(-4.77 -85.01)" fill="#afafaf"/><path id="window" d="M558.69,155.93s64.11,1.41,82.68,2.81c15.07,1.14,18.76,2.61,25.08,6,3.29,1.76,7.08,5.46,8.55,7,2.54,2.68,35.76,45.93,39.16,52.71,0,0,2.17.92-10.23-1.34s-110.56-24.28-110.56-24.28-12-.17-19.87-14.35S558.69,155.93,558.69,155.93Z" transform="translate(-4.77 -85.01)" fill="#d3d3d3"/><path id="headLight" d="M691.43,247.1s11.48,6.66,15.57,16.09,2.11,9.05,13.45,11.44c0,0-.27-12.57-4.22-16.34S709.37,247,691.43,247.1Z" transform="translate(-4.77 -85.01)" fill="#cecece"/><g id="backTire"><ellipse cx="85.45" cy="201.94" rx="29.22" ry="27.99" fill="#4c4c4c"/><ellipse id="innerTire-2" data-name="innerTire" cx="85.46" cy="201.61" rx="16.7" ry="16.67" fill="#666"/></g><path id="Body" d="M6.64,85.09H480.9l-3.4,167.62L5.89,254.31a1.12,1.12,0,0,1-1.12-1.12V87A1.87,1.87,0,0,1,6.64,85.09Z" transform="translate(-4.77 -85.01)" fill="#ccc"/></g><g id="Logo"><polygon id="LogoWire" points="226.59 65.32 136.34 25.8 73.45 139.78 212.67 106.28 341.45 143.51 404.1 26.23 226.59 65.32" fill="none" stroke="#9b9a9a" stroke-miterlimit="10" stroke-width="3"/><polygon id="LogoWire-2" data-name="LogoWire" points="225.88 63.7 135.39 24.61 72.74 138.16 211.96 104.66 340.74 141.89 403.39 24.61 225.88 63.7" fill="none" stroke="#c8102e" stroke-miterlimit="10" stroke-width="3"/><path id="Kleenex" d="M378.59,171.21c-4.46-1.32-7.43,5.28-13.37,9.25s-11.88,1.32-16.33-1.32,0-7.93,0-7.93,13.36-17.18,16.33-19.82,5.94-5.28,1.49-9.25-8.67-.79-13.12,3.17-7.67,10-10.64,14-3,1.32-3,1.32V148.75c0-6.61-8.91-5.29-11.88,4s-13.37,23.78-14.85,26.43-5.94,4-7.43,1.32,4.47-6.92,7.44-12.2,5.84-14.54,3-20.83c-1.76-3.85-7.43-7.93-11.88-5.29s-7.37,5.53-11.61,15.37c-4.07,9.43,1,22.43,1,22.43s-5.74,1.84-8.71-.8,0-13.22,0-18.5,0-9.25-5.94-9.25-8.91,11.89-10.39,14.53-1.49,0-1.49,0l1.49-10.57s1.48-7.92-4.46-6.6-5.94,10.57-7.42,15.85-8.91,13.22-8.91,13.22-5.94,5.28-7.43,2.64,2.71-6,4.19-8.61a41.25,41.25,0,0,0,4.72-19.14c0-8.25-7.44-8.39-7.44-8.39s-7.3-1.09-11.86,8.39c-4.46,9.25-6.07,19.86-4.46,25.11l0,.1a4.64,4.64,0,0,1-3.26,5.72c-2.46.69-7,1.65-10.13.78-6.35-1.76,0-6.6,3-9.25s5.94-7.92,5.94-14.53-1.49-11.89-5.94-13.21-12.1,1.79-14.85,7.92c-3,6.61-4.46,18.5-4.46,22.47s-7.42,2.64-7.42,2.64-3.56-1.24-2.08-3.88a62.64,62.64,0,0,0,6.53-13.3c2.42-7.14,3.71-25,3.71-30.24s-4.52-17.94-14.1-9.4c-7.35,6.56-11.88,15.86-14.85,31.71s3,22.47,3,22.47-4.46,6.6-10.4,4-10.39-7.93-11.88-17.18,11.88-23.78,17.82-29.06,4.46-6.61,1.49-9.25-7.43-2.65-14.85,4-13.37,21.14-16.34,25.1-4.45,0-4.45,0,1.48-17.17,1.48-22.46-1.48-6.6-8.91-6.6-7.42,4-7.42,4v56.81c0,4-1.49,7.93,8.91,10.57s7.42-5.28,7.42-5.28-3-11.89-1.48-17.18,5.94,0,5.94,0,8.91,7.93,13.36,14.54,17.82,2.64,20.79,0,4.49-2.65,7.54.1a14.72,14.72,0,0,0,18.41.62c2.53-2,4.12-1.72,8.21,1.92,4.45,4,19.06,1.13,22.27-2.64,2.38-2.81,5.94,0,5.94,0,5.94,4,13.82.73,16.34-1.32,4.41-3.61,8.91-17.18,7.42-6.61s0,13.21,7.43,13.21,5.94-13.21,5.94-17.17,3-4.46,3-1.33c-.07,5.92,4,10.4,4,10.4,4.45,5.29,9.32,4.14,12.29,1.5s5.94,1.32,5.94,1.32c3,5.28,14.85,4,19.31,0s7.42-9.25,10.39-14.54,4.46-1.32,4.46-1.32,1.48,5.29-1.49,7.93S320.67,195,319.19,199s0,7.92,4.45,9.24,5.94-4,5.94-4,3-7.93,5.94-11.89,3-4,13.37,1.32,23.76-6.61,26.73-9.25S383,172.53,378.59,171.21Zm-199-3c-3.27,2.44-2.14-13.56.38-22.07.56-1.89,3.42-9.65,5-11,1.71-1.52,2.75-1.7,2.75,1.5C187.66,144.59,183.44,165.35,179.55,168.26Zm27,4.67c-2.6.25-.88-8,.64-12.21.44-1.24,1.42-3.75,2.89-4.73,1.15-.76,3.1-.48,2.67,2C212.09,162,209.56,172.64,206.6,172.93Zm28.17-1.09c-2.6.26,0-10.07,2.33-14.22a7.41,7.41,0,0,1,2.66-2.71c1.23-.63,2.9-.49,2.48,2C241.53,161,237.73,171.56,234.77,171.84Zm66.13-2c-3,.3-2-7.6,1.85-13.63.78-1.22,2.27-3.5,3.56-4.17s3.05-.4,2.66,1.66C308.08,158.46,304.32,169.53,300.9,169.86Z" transform="translate(-4.77 -85.01)" fill="#c8102e"/><g id="logorown"><ellipse cx="214.56" cy="122.1" rx="1.6" ry="0.96" transform="translate(-35.68 63.39) rotate(-35.76)" fill="#c5a259"/><ellipse cx="226.05" cy="117.09" rx="1.6" ry="0.96" transform="translate(-28.11 -19.03) rotate(-15.8)" fill="#c5a259"/><ellipse cx="231.69" cy="29.07" rx="1.6" ry="0.96" fill="#c5a259"/><ellipse cx="246.21" cy="117.09" rx="0.96" ry="1.6" transform="translate(74.69 247.77) rotate(-77.73)" fill="#c5a259"/><ellipse cx="258.19" cy="121.95" rx="0.96" ry="1.6" transform="matrix(0.5, -0.87, 0.87, 0.5, 18.71, 199.57)" fill="#c5a259"/><polygon points="210.78 40.83 210.78 42.19 217.74 55.84 218.32 55.49 210.78 40.83" fill="#c5a259"/><polygon points="211.77 39.66 212.65 39.84 219.47 54.94 218.78 55.24 211.77 39.66" fill="#c5a259"/><polygon points="215.41 43.63 216.38 43.97 220.5 54.46 219.78 54.76 215.41 43.63" fill="#c5a259"/><polygon points="215.84 37.3 215.41 38.07 221.1 54.25 221.85 53.97 215.84 37.3" fill="#c5a259"/><polygon points="218.85 42.25 219.7 42.74 223.02 53.59 222.32 53.81 218.85 42.25" fill="#c5a259"/><polygon points="220.69 40.13 220.09 41.05 223.49 53.45 224.25 53.24 220.69 40.13" fill="#c5a259"/><polygon points="221.85 35.74 221.18 36.7 224.75 53.11 225.57 52.93 221.85 35.74" fill="#c5a259"/><polygon points="223.02 35.49 223.98 36.2 226.76 52.71 226 52.84 223.02 35.49" fill="#c5a259"/><polygon points="225.75 40.3 225.75 40.3 227.2 52.65 227.94 52.55 226.26 39.66 225.75 40.3" fill="#c5a259"/><polygon points="227.69 42.5 228.43 52.51 229.1 52.45 228.58 42.92 227.69 42.5" fill="#c5a259"/><polygon points="228.93 32.66 229.81 33.41 230.52 52.41 229.72 52.42 228.93 32.66" fill="#c5a259"/><polygon points="230.98 31.46 231.69 32.2 231.83 52.45 230.98 52.42 230.98 31.46" fill="#c5a259"/><polygon points="233.95 32.86 233.08 33.59 232.35 52.48 233.15 52.55 233.95 32.86" fill="#c5a259"/><polygon points="235.16 42.54 234.36 42.99 233.6 52.6 234.38 52.7 235.16 42.54" fill="#c5a259"/><polygon points="236.62 39.66 237.28 40.29 235.65 52.89 234.78 52.75 236.62 39.66" fill="#c5a259"/><polygon points="239.74 35.49 238.77 36.33 236.18 52.99 236.8 53.11 239.74 35.49" fill="#c5a259"/><polygon points="241.13 35.74 241.69 36.68 238.27 53.45 237.28 53.21 241.13 35.74" fill="#c5a259"/><polygon points="242.07 39.98 238.63 53.53 239.48 53.76 242.69 40.98 242.07 39.98" fill="#c5a259"/><polygon points="243.98 42.25 243.08 42.93 239.84 53.86 240.66 54.11 243.98 42.25" fill="#c5a259"/><polygon points="246.99 37.3 247.5 38.07 241.69 54.44 240.9 54.18 246.99 37.3" fill="#c5a259"/><polygon points="247.5 43.74 246.5 43.97 242.3 54.65 242.94 54.89 247.5 43.74" fill="#c5a259"/><polygon points="251.2 39.46 250.31 39.66 243.33 55.03 243.98 55.29 251.2 39.46" fill="#c5a259"/><polygon points="251.97 41.01 251.97 42.25 245.11 55.77 244.45 55.48 251.97 41.01" fill="#c5a259"/></g><path d="M177.23,209.39h1.61l2.51,8.44,2.34-8.44h1.44l2.51,8.44,2.34-8.44h1.63L188.37,220h-1.8l-2.15-8.09L182.25,220h-1.8Z" transform="translate(-4.77 -85.01)" fill="#c8102e"/><path d="M192.48,214.59a6.23,6.23,0,0,1,1.23-4.05,4.28,4.28,0,0,1,6.53,0,6.23,6.23,0,0,1,1.23,4.05v.54h-7.38a4,4,0,0,0,.78,2.58,2.59,2.59,0,0,0,2.11,1,2.87,2.87,0,0,0,1.86-.58,2.17,2.17,0,0,0,.83-1.55h1.61a3.62,3.62,0,0,1-1.33,2.6,4.44,4.44,0,0,1-3,1,4,4,0,0,1-3.27-1.51A6.22,6.22,0,0,1,192.48,214.59Zm1.61-.9h5.75a3.87,3.87,0,0,0-.9-2.34,2.63,2.63,0,0,0-3.93,0A3.82,3.82,0,0,0,194.09,213.69Z" transform="translate(-4.77 -85.01)" fill="#c8102e"/><path d="M203.62,209.39v-3.08h1.61v3.08h1.63v1.44h-1.63v6.83a.72.72,0,0,0,.71.71h.92V220h-1.44a1.82,1.82,0,0,1-1.28-.52,1.77,1.77,0,0,1-.52-1.28v-7.35h-1.44v-1.44Z" transform="translate(-4.77 -85.01)" fill="#c8102e"/><path d="M213.69,209.91h.9l2.88,8.81,2.35-8.81h1.06l2.34,8.63,2.86-8.63H227L223.67,220h-.9l-2.43-8.73L217.92,220H217Z" transform="translate(-4.77 -85.01)" fill="#c8102e"/><path d="M228.85,206h.94v1.44h-.94Zm0,14V209.91h.94V220Z" transform="translate(-4.77 -85.01)" fill="#c8102e"/><path d="M232.82,223.76V209.91h.94V212a3.78,3.78,0,0,1,1.35-1.78,3.57,3.57,0,0,1,2.08-.66,4,4,0,0,1,3.24,1.47,6,6,0,0,1,1.23,3.92,5.68,5.68,0,0,1-1.18,3.78,4,4,0,0,1-5.25.78,3.92,3.92,0,0,1-1.47-1.67v5.93Zm7-5.56a5.5,5.5,0,0,0,.95-3.35,5.29,5.29,0,0,0-.95-3.31,2.91,2.91,0,0,0-2.48-1.26,3,3,0,0,0-2.48,1.35,5,5,0,0,0-1.05,3.22,5.16,5.16,0,0,0,1.05,3.26,3,3,0,0,0,2.48,1.35A2.91,2.91,0,0,0,239.77,218.2Z" transform="translate(-4.77 -85.01)" fill="#c8102e"/><path d="M244.69,218.87a6.88,6.88,0,0,1,0-7.85,4,4,0,0,1,3.26-1.47,4.19,4.19,0,0,1,3.26,1.35,5.11,5.11,0,0,1,1.23,3.59v.45h-8a5.21,5.21,0,0,0,1,3.29,3.13,3.13,0,0,0,2.58,1.23,3.92,3.92,0,0,0,2.18-.64,3.41,3.41,0,0,0,1.37-1.73h.94a3.5,3.5,0,0,1-1.51,2.32,4.91,4.91,0,0,1-3,.92A4.07,4.07,0,0,1,244.69,218.87ZM251.5,214v-.35a3.61,3.61,0,0,0-1.14-2.37,3.45,3.45,0,0,0-2.41-.94,3.35,3.35,0,0,0-2.39,1,3.68,3.68,0,0,0-1.16,2.43V214Z" transform="translate(-4.77 -85.01)" fill="#c8102e"/><path d="M255,219.29a2.89,2.89,0,0,1-1.13-2.29h.87a2.2,2.2,0,0,0,.88,1.75,3.23,3.23,0,0,0,2.1.71,3.87,3.87,0,0,0,2.3-.64,2.11,2.11,0,0,0,.85-1.73,1.63,1.63,0,0,0-.9-1.37,5.65,5.65,0,0,0-2.41-.68,4.76,4.76,0,0,1-2.56-.9,2.32,2.32,0,0,1-1-1.87,2.25,2.25,0,0,1,1-1.94,4.66,4.66,0,0,1,2.72-.68,4.38,4.38,0,0,1,2.67.73,2.3,2.3,0,0,1,1,2h-.9a2.18,2.18,0,0,0-.9-1.44,3.15,3.15,0,0,0-1.89-.52,3.49,3.49,0,0,0-2,.52,1.58,1.58,0,0,0-.76,1.37,1.62,1.62,0,0,0,.92,1.37,5.84,5.84,0,0,0,2.42.69,4.55,4.55,0,0,1,2.55.94,2.61,2.61,0,0,1-.17,4.16,4.78,4.78,0,0,1-2.93.81A4.06,4.06,0,0,1,255,219.29Z" transform="translate(-4.77 -85.01)" fill="#c8102e"/><path id="Body-2" data-name="Body" d="M6.73,85.74H481.28l-3.41,167.63L5.15,255V87.33A1.59,1.59,0,0,1,6.73,85.74Z" transform="translate(-4.77 -85.01)" fill="#ccc" opacity="0.2"/></g></svg>