<svg xmlns="http://www.w3.org/2000/svg" xmlns:xlink="http://www.w3.org/1999/xlink" width="740" height="320" viewBox="0 0 740 320"><defs><style>.a{fill:#fff;stroke:#707070;}.b{clip-path:url(#a);}.c{fill:#898989;}.d{fill:#494949;}.e{fill:#4f4f4e;}.f{fill:#4c4c4c;}.g{fill:#666;}.h{fill:#afafaf;}.i{fill:#d3d3d3;}.j{fill:#cecece;}.k,.p{fill:#ccc;}.l,.m{fill:none;stroke-miterlimit:10;stroke-width:3.021px;}.l{stroke:#9b9a9a;}.m{stroke:#c8102e;}.n{fill:#c8102e;}.o{fill:#c5a259;}.p{opacity:0.2;}</style><clipPath id="a"><rect class="a" width="740" height="320" transform="translate(589 40)"/></clipPath></defs><g class="b" transform="translate(-589 -40)"><g transform="translate(589 84.214)"><path class="c" d="M479.519.081l5.2,2.276L481.11,171.234,476,170.72Z"/><path class="d" d="M620.156,283.7l-85.365-2.347a7.423,7.423,0,0,1-4.089-1.37L493.84,253.648a37.412,37.412,0,0,1-3.3-4.27l-5.69,5.2-3.938-.06L8.8,256.125v40.749a3.092,3.092,0,0,0,3.021,3.092l47.91-.846a30.506,30.506,0,0,1-1.42-9.245c0-17.413,14.533-31.534,32.46-31.534s32.46,14.1,32.46,31.534a30.587,30.587,0,0,1-1.5,9.5l247.555,1.007,251.583-2.3Z" transform="translate(-4.804 -85.617)"/><path class="e" d="M739.24,287.82l-1.289,10.353s4.572-.473,3.968,1.893-9.507,2.931-16.326,2.84-14.17,0-14.17,0l-24.272-.393c5.771-10.424,4.532-14.7,4.532-14.7l12.448-6.526Z" transform="translate(-4.804 -85.617)"/><ellipse class="f" cx="31.352" cy="31.04" rx="31.352" ry="31.04" transform="translate(619.632 169.491)"/><ellipse class="g" cx="17.917" cy="18.481" rx="17.917" ry="18.481" transform="translate(633.077 181.688)"/><path class="e" d="M621.4,279.823s-.393,4.844-.473,7.292c-.232,7.977,3.495,15.8,3.495,15.8l-255.159-2.578a24.342,24.342,0,0,1-12.408-3.716c-4.029-2.619-8.057-6.929-7.866-13.657.312-11.159,24.514-20.243,44.526-20.868,24.524-.765,83.421-.322,103.282,0h4.29s1.259,0,3.021,1.7,14.563,8.128,28.532,15.037Z" transform="translate(-4.804 -85.617)"/><path class="h" d="M489.379,85.949l-4.532,168.625s6.909,0,19.921,10.071c12.348,9.548,19.136,15.48,23.335,18.128a17.635,17.635,0,0,0,9.064,2.669l83.794,1.692s-.836-33.89,33.064-35.1c33.628-1.209,37.566,25.954,37.667,35.8h49.813s3.021.1,3.213-2.014,0-19.871,0-19.871.171-2.095-2.538-6.456-50.85-75.838-76.935-103.534S576.083,81.216,489.379,85.949Z" transform="translate(-4.804 -85.617)"/><path class="i" d="M562.678,157.043s64.568,1.42,83.27,2.83c15.178,1.148,18.894,2.629,25.259,6.043,3.313,1.773,7.131,5.5,8.611,7.05,2.558,2.7,36.015,46.258,39.44,53.086,0,0,2.185.927-10.3-1.35s-111.349-24.453-111.349-24.453-12.086-.171-20.012-14.452S562.678,157.043,562.678,157.043Z" transform="translate(-4.804 -85.617)"/><path class="j" d="M696.366,248.864s11.562,6.708,15.681,16.2,2.125,9.115,13.546,11.522c0,0-.272-12.66-4.25-16.457S714.434,248.763,696.366,248.864Z" transform="translate(-4.804 -85.617)"/><ellipse class="f" cx="29.429" cy="28.19" rx="29.429" ry="28.19" transform="translate(56.631 175.192)"/><ellipse class="g" cx="16.819" cy="16.789" rx="16.819" ry="16.789" transform="translate(69.251 186.26)"/><path class="k" d="M6.687,85.7H484.333l-3.424,168.817L5.932,256.125A1.128,1.128,0,0,1,4.8,255V87.621A1.883,1.883,0,0,1,6.687,85.7Z" transform="translate(-4.804 -85.617)"/><path class="l" d="M228.208,65.786l-90.894-39.8L73.974,140.778l140.214-33.739,129.7,37.5,63.1-118.117Z"/><path class="m" d="M227.492,64.155,136.356,24.786l-63.1,114.361,140.214-33.739,129.7,37.5,63.1-118.117Z"/><path class="n" d="M381.293,172.432c-4.492-1.329-7.483,5.318-13.465,9.316s-11.965,1.329-16.447-1.329,0-7.987,0-7.987,13.455-17.3,16.447-19.961,5.982-5.318,1.5-9.316-8.732-.8-13.214,3.193-7.725,10.071-10.716,14.1-3.021,1.329-3.021,1.329V149.812c0-6.657-8.974-5.328-11.965,4.029s-13.465,23.95-14.956,26.619-5.982,4.029-7.483,1.329,4.5-6.969,7.493-12.287,5.882-14.644,3.021-20.979c-1.773-3.878-7.483-7.987-11.965-5.328s-7.423,5.569-11.693,15.48c-4.1,9.5,1.007,22.59,1.007,22.59s-5.781,1.853-8.772-.806,0-13.314,0-18.632,0-9.316-5.982-9.316-8.974,11.975-10.464,14.634-1.5,0-1.5,0l1.5-10.645s1.491-7.977-4.492-6.647-5.982,10.645-7.473,15.963-8.974,13.314-8.974,13.314-5.982,5.318-7.483,2.659,2.729-6.043,4.22-8.671a41.545,41.545,0,0,0,4.754-19.277c0-8.309-7.493-8.45-7.493-8.45s-7.352-1.1-11.945,8.45c-4.492,9.316-6.113,20-4.492,25.289v.1a4.673,4.673,0,0,1-3.283,5.761c-2.478.695-7.05,1.662-10.2.786-6.4-1.773,0-6.647,3.021-9.316s5.982-7.977,5.982-14.634-1.5-11.975-5.982-13.3-12.186,1.8-14.956,7.977c-3.021,6.657-4.492,18.632-4.492,22.63s-7.473,2.659-7.473,2.659-3.585-1.249-2.095-3.908a63.087,63.087,0,0,0,6.577-13.395c2.437-7.191,3.736-25.178,3.736-30.456s-4.552-18.068-14.2-9.467c-7.4,6.607-11.965,15.973-14.956,31.936s3.021,22.63,3.021,22.63-4.492,6.647-10.474,4.029S151,175.172,149.5,165.856s11.965-23.95,17.947-29.267,4.492-6.657,1.5-9.316-7.483-2.669-14.956,4.029-13.465,21.291-16.457,25.279-4.482,0-4.482,0,1.491-17.293,1.491-22.62-1.491-6.647-8.974-6.647-7.473,4.029-7.473,4.029v57.216c0,4.029-1.5,7.987,8.974,10.645s7.473-5.318,7.473-5.318-3.021-11.975-1.491-17.3,5.982,0,5.982,0,8.974,7.987,13.455,14.644,17.947,2.659,20.938,0,4.522-2.669,7.594.1a14.825,14.825,0,0,0,18.541.624c2.548-2.014,4.149-1.732,8.269,1.934,4.482,4.029,19.2,1.138,22.429-2.659,2.4-2.83,5.982,0,5.982,0,5.982,4.029,13.919.735,16.457-1.329,4.441-3.636,8.974-17.3,7.473-6.657s0,13.3,7.483,13.3,5.982-13.3,5.982-17.293,3.021-4.492,3.021-1.339c-.07,5.962,4.029,10.474,4.029,10.474,4.482,5.328,9.387,4.17,12.378,1.511s5.982,1.329,5.982,1.329c3.021,5.318,14.956,4.029,19.448,0s7.473-9.316,10.464-14.644,4.492-1.329,4.492-1.329,1.491,5.328-1.5,7.987-8.994,13.153-10.484,17.182,0,7.977,4.482,9.306,5.982-4.029,5.982-4.029,3.021-7.987,5.982-11.975,3.021-4.029,13.465,1.329,23.93-6.657,26.921-9.316S385.734,173.762,381.293,172.432Zm-200.421-3.021c-3.293,2.457-2.155-13.657.383-22.228.564-1.9,3.444-9.719,5.036-11.079,1.722-1.531,2.77-1.712,2.77,1.511-.06,8.007-4.311,28.915-8.228,31.846Zm27.193,4.7c-2.619.252-.886-8.057.645-12.3.443-1.249,1.43-3.777,2.911-4.764,1.158-.765,3.122-.483,2.689,2.014-.7,4.089-3.253,14.8-6.234,15.1Zm28.371-1.1c-2.619.262,0-10.142,2.347-14.322a7.463,7.463,0,0,1,2.679-2.729c1.239-.635,2.921-.493,2.5,2.014-.7,4.17-4.532,14.8-7.513,15.087Zm66.6-2.014c-3.021.3-2.014-7.654,1.863-13.727.786-1.229,2.286-3.525,3.585-4.2s3.072-.4,2.679,1.672c-.886,4.844-4.673,15.993-8.118,16.326Z" transform="translate(-4.804 -85.617)"/><ellipse class="o" cx="1.611" cy="0.967" rx="1.611" ry="0.967" transform="translate(209.408 37.506) rotate(-35.76)"/><ellipse class="o" cx="1.611" cy="0.967" rx="1.611" ry="0.967" transform="matrix(0.962, -0.272, 0.272, 0.962, 221.047, 31.825)"/><ellipse class="o" cx="1.611" cy="0.967" rx="1.611" ry="0.967" transform="translate(231.732 28.311)"/><ellipse class="o" cx="0.967" cy="1.611" rx="0.967" ry="1.611" transform="matrix(0.213, -0.977, 0.977, 0.213, 241.374, 32.899)"/><ellipse class="o" cx="0.967" cy="1.611" rx="0.967" ry="1.611" transform="matrix(0.5, -0.866, 0.866, 0.5, 253.347, 37.24)"/><path class="o" d="M212.285,41.121v1.37l7.01,13.747.584-.352Z"/><path class="o" d="M213.282,39.943l.886.181,6.869,15.208-.695.3Z"/><path class="o" d="M216.948,43.941l.977.342,4.149,10.565-.725.3Z"/><path class="o" d="M217.381,37.566l-.433.775,5.731,16.3.755-.282Z"/><path class="o" d="M220.412,42.552l.856.493,3.344,10.927-.7.222Z"/><path class="o" d="M222.265,40.416l-.6.927,3.424,12.489.765-.211Z"/><path class="o" d="M223.434,36l-.675.967,3.6,16.527.826-.181Z"/><path class="o" d="M224.612,35.743l.967.715,2.8,16.628-.765.131Z"/><path class="o" d="M227.362,40.588h0l1.46,12.438.745-.1-1.692-12.982Z"/><path class="o" d="M229.315,42.8l.745,10.081.675-.06-.524-9.6Z"/><path class="o" d="M230.564,32.893l.886.755.715,19.136-.806.01Z"/><path class="o" d="M232.629,31.685l.715.745.141,20.395-.856-.03Z"/><path class="o" d="M235.62,33.095l-.876.735-.735,19.025.806.07Z"/><path class="o" d="M236.839,42.844l-.806.453-.765,9.679.786.1Z"/><path class="o" d="M238.309,39.943l.665.634-1.642,12.69-.876-.141Z"/><path class="o" d="M241.451,35.743l-.977.846-2.608,16.779.624.121Z"/><path class="o" d="M242.851,36l.564.947-3.444,16.89-1-.242Z"/><path class="o" d="M243.8,40.265l-3.465,13.647.856.232,3.233-12.871Z"/><path class="o" d="M245.722,42.552l-.906.685-3.263,11.008.826.252Z"/><path class="o" d="M248.753,37.566l.514.775-5.851,16.487-.8-.262Z"/><path class="o" d="M249.267,44.052l-1.007.232L244.03,55.04l.645.242Z"/><path class="o" d="M252.993,39.742l-.9.2-7.03,15.48.655.262Z"/><path class="o" d="M253.769,41.3v1.249L246.86,56.168l-.665-.292Z"/><path class="n" d="M178.5,210.885h1.621l2.528,8.5,2.357-8.5h1.45l2.528,8.5,2.357-8.5h1.642l-3.263,10.686H187.9l-2.165-8.148-2.185,8.148h-1.813Z" transform="translate(-4.804 -85.617)"/><path class="n" d="M193.854,216.122a6.274,6.274,0,0,1,1.239-4.079,4.311,4.311,0,0,1,6.577,0,6.274,6.274,0,0,1,1.239,4.079v.544h-7.433a4.029,4.029,0,0,0,.786,2.6,2.609,2.609,0,0,0,2.125,1.007,2.891,2.891,0,0,0,1.873-.584,2.185,2.185,0,0,0,.836-1.561h1.621a3.646,3.646,0,0,1-1.339,2.619,4.472,4.472,0,0,1-3.021,1.007,4.029,4.029,0,0,1-3.293-1.521,6.264,6.264,0,0,1-1.209-4.109Zm1.621-.906h5.791a3.9,3.9,0,0,0-.906-2.357,2.649,2.649,0,0,0-3.958,0A3.847,3.847,0,0,0,195.476,215.215Z" transform="translate(-4.804 -85.617)"/><path class="n" d="M205.074,210.885v-3.1H206.7v3.1h1.642v1.45H206.7v6.879a.725.725,0,0,0,.715.715h.927v1.642h-1.45a1.833,1.833,0,0,1-1.289-.524,1.783,1.783,0,0,1-.524-1.289v-7.4h-1.45V210.9Z" transform="translate(-4.804 -85.617)"/><path class="n" d="M215.215,211.408h.906l2.9,8.873,2.367-8.873h1.068l2.357,8.692,2.88-8.692h.927l-3.354,10.162h-.906l-2.447-8.792-2.437,8.792h-.927Z" transform="translate(-4.804 -85.617)"/><path class="n" d="M230.484,207.471h.947v1.45h-.947Zm0,14.1V211.408h.947V221.57Z" transform="translate(-4.804 -85.617)"/><path class="n" d="M234.482,225.357V211.408h.947v2.1a3.807,3.807,0,0,1,1.36-1.793,3.6,3.6,0,0,1,2.095-.665,4.029,4.029,0,0,1,3.263,1.48,6.043,6.043,0,0,1,1.239,3.948,5.721,5.721,0,0,1-1.188,3.807,4.029,4.029,0,0,1-5.287.786,3.948,3.948,0,0,1-1.48-1.682v5.972Zm7.05-5.6a5.539,5.539,0,0,0,.957-3.374,5.328,5.328,0,0,0-.957-3.334,2.931,2.931,0,0,0-2.5-1.269,3.021,3.021,0,0,0-2.5,1.36,5.036,5.036,0,0,0-1.058,3.243,5.2,5.2,0,0,0,1.057,3.283,3.021,3.021,0,0,0,2.5,1.36,2.931,2.931,0,0,0,2.447-1.269Z" transform="translate(-4.804 -85.617)"/><path class="n" d="M246.437,220.432a6.929,6.929,0,0,1,0-7.906,4.029,4.029,0,0,1,3.283-1.48,4.22,4.22,0,0,1,3.283,1.36,5.146,5.146,0,0,1,1.239,3.616v.453h-8.057a5.247,5.247,0,0,0,1.007,3.313,3.152,3.152,0,0,0,2.6,1.239,3.948,3.948,0,0,0,2.2-.645,3.434,3.434,0,0,0,1.38-1.742h.947a3.525,3.525,0,0,1-1.521,2.337,4.945,4.945,0,0,1-3.021.927A4.1,4.1,0,0,1,246.437,220.432Zm6.859-4.9v-.353a3.636,3.636,0,0,0-1.148-2.387,3.475,3.475,0,0,0-2.427-.947,3.374,3.374,0,0,0-2.407,1.007,3.706,3.706,0,0,0-1.168,2.447v.232Z" transform="translate(-4.804 -85.617)"/><path class="n" d="M256.82,220.855a2.911,2.911,0,0,1-1.138-2.306h.876a2.216,2.216,0,0,0,.886,1.762,3.253,3.253,0,0,0,2.115.715,3.9,3.9,0,0,0,2.316-.645,2.125,2.125,0,0,0,.856-1.742,1.642,1.642,0,0,0-.906-1.38,5.691,5.691,0,0,0-2.427-.685,4.794,4.794,0,0,1-2.578-.906,2.337,2.337,0,0,1-1.007-1.883,2.266,2.266,0,0,1,1.007-1.954,4.693,4.693,0,0,1,2.739-.685,4.411,4.411,0,0,1,2.689.735,2.316,2.316,0,0,1,1.007,2.014h-.906a2.2,2.2,0,0,0-.906-1.45,3.173,3.173,0,0,0-1.9-.524,3.515,3.515,0,0,0-2.014.524,1.591,1.591,0,0,0-.765,1.38,1.632,1.632,0,0,0,.927,1.38,5.882,5.882,0,0,0,2.437.695,4.582,4.582,0,0,1,2.568.947,2.629,2.629,0,0,1-.171,4.19,4.814,4.814,0,0,1-2.951.816A4.089,4.089,0,0,1,256.82,220.855Z" transform="translate(-4.804 -85.617)"/><path class="p" d="M6.778,86.352H484.716l-3.434,168.827L5.187,256.82V87.953a1.6,1.6,0,0,1,1.591-1.6Z" transform="translate(-4.804 -85.617)"/></g></g></svg>