<svg xmlns="http://www.w3.org/2000/svg" xmlns:xlink="http://www.w3.org/1999/xlink" width="740" height="320" viewBox="0 0 740 320"><defs><style>.a{fill:#fff;stroke:#707070;}.b{clip-path:url(#a);}.c{fill:#c8102e;}.d,.j,.l,.m{fill:none;stroke-miterlimit:10;}.d{stroke:#b71131;}.d,.j,.m{stroke-width:3px;}.e{fill:#af1230;}.f{fill:#b7b7b7;}.g{fill:#c4c4c4;}.h{fill:#d8d8d8;}.i{fill:#b71332;}.j{stroke:#b7b7b7;}.j,.l,.m{stroke-linecap:round;}.k{fill:#4c4a4a;}.l,.m{stroke:#4c4a4a;}.l{stroke-width:5px;stroke-dasharray:8.22 8.22;}.m{stroke-dasharray:4.1 4.1;}</style><clipPath id="a"><rect class="a" width="740" height="320" transform="translate(578 40)"/></clipPath></defs><g class="b" transform="translate(-578 -40)"><g transform="translate(588.651 40.083)"><path class="c" d="M509.39,79.44l-124-73-122,77-46.99,70v160H555.39v-160Z"/><line class="d" x1="0.46" y2="167" transform="translate(222.44 146.44)"/><line class="d" x1="0.46" y2="200.15" transform="translate(244.37 113.29)"/><line class="d" x1="0.46" y2="237" transform="translate(266.3 76.44)"/><line class="d" x1="0.47" y2="239.6" transform="translate(288.23 73.84)"/><line class="d" x1="0.47" y2="261.2" transform="translate(310.16 52.24)"/><line class="d" x1="0.46" y2="270.66" transform="translate(332.1 42.78)"/><line class="d" x1="0.46" y2="288.95" transform="translate(354.03 24.49)"/><line class="d" x1="0.46" y2="299.71" transform="translate(375.96 13.73)"/><line class="d" x1="0.47" y2="302.55" transform="translate(397.89 10.89)"/><line class="d" x1="0.47" y2="290.19" transform="translate(419.82 23.25)"/><line class="d" x1="0.47" y2="277.55" transform="translate(441.75 35.89)"/><line class="d" x1="0.46" y2="261.2" transform="translate(463.69 52.24)"/><line class="d" x1="0.46" y2="252.7" transform="translate(485.62 60.74)"/><line class="d" x1="0.46" y2="237" transform="translate(507.55 76.44)"/><line class="d" x1="0.47" y2="203.45" transform="translate(529.48 109.99)"/><line class="d" x1="0.47" y2="170.63" transform="translate(551.41 142.81)"/><path class="e" d="M230.4,146.44l47.99-52,107-61,111,62,42,51-29-67-125-73-121,77Z"/><path class="f" d="M213.16,166.61l10.2,7.16a1.11,1.11,0,0,0,1.57-.3L277.16,95.2a1.33,1.33,0,0,1,.34-.33l113.56-69.5a4.36,4.36,0,0,1,4.49,0l116.5,69.51a1.21,1.21,0,0,1,.39.39L558.72,173a1.12,1.12,0,0,0,1.54.38l13.07-7.84a1.12,1.12,0,0,0,.38-1.54L525.44,84.2a1.15,1.15,0,0,0-.38-.38l-126.93-76a9.36,9.36,0,0,0-9.66,0l-124,74.94a1.19,1.19,0,0,0-.37.37L212.86,165.1a1.12,1.12,0,0,0,.3,1.51Z" transform="translate(-7.9 -6.56)"/><rect class="g" width="76.1" height="76.1" rx="1" transform="translate(349.04 83.84)"/><rect class="c" width="58.59" height="58.59" rx="0.83" transform="translate(357.9 92.59)"/><rect class="h" width="114.23" height="114.23" transform="translate(270.16 193.07)"/><path class="i" d="M284.39,201.88h83.97l-41.08,41.65Z"/><path class="i" d="M375.22,206.59v83.96l-41.65-41.08Z"/><path class="i" d="M369.26,298.7H285.3l41.08-41.65Z"/><path class="i" d="M278.47,293.21V209.24l41.65,41.08Z"/><rect class="h" width="114.23" height="114.23" transform="translate(390.49 193.07)"/><path class="i" d="M405.03,201.78H489l-41.09,41.65Z"/><path class="i" d="M495.85,206.49v83.97L454.2,249.37Z"/><path class="i" d="M489.9,298.6H405.93l41.08-41.65Z"/><path class="i" d="M399.1,293.12V209.15l41.65,41.08Z"/><path class="c" d="M711.33,97.35l1.65,216.09H598.9V97.35Z"/><line class="j" y2="209.42" transform="translate(613.86 102.6)"/><line class="j" y2="209.42" transform="translate(624.73 102.6)"/><line class="j" x2="10.87" transform="translate(613.86 118.01)"/><line class="j" x2="10.87" transform="translate(613.86 132.92)"/><line class="j" x2="10.87" transform="translate(613.86 147.83)"/><line class="j" x2="10.87" transform="translate(613.86 162.74)"/><line class="j" x2="10.87" transform="translate(613.86 177.65)"/><line class="j" x2="10.87" transform="translate(613.86 192.56)"/><line class="j" x2="10.87" transform="translate(613.86 207.47)"/><line class="j" x2="10.87" transform="translate(613.86 222.38)"/><line class="j" x2="10.87" transform="translate(613.86 237.29)"/><line class="j" x2="10.87" transform="translate(613.86 252.2)"/><line class="j" x2="10.87" transform="translate(613.86 267.12)"/><line class="j" x2="10.87" transform="translate(613.86 282.03)"/><line class="j" x2="10.87" transform="translate(613.86 296.94)"/><path class="f" d="M726.74,91.62a63.75,63.75,0,0,1-1.17,12.21l-124,1.61A63.35,63.35,0,1,1,726.74,91.62Z" transform="translate(-7.9 -6.56)"/><path class="e" d="M643.73,104.89s74.39,37.72,75.5,173.3V103.92Z" transform="translate(-7.9 -6.56)"/><path class="k" d="M108.55,196.99h-78v-13.4h78Z"/><path class="k" d="M36.25,196.99l-5.7,30.74,6.99-1.56,5.96-30.29Z"/><path class="k" d="M67.06,196.99h6.21v40.06l-6.21-3.77Z"/><path class="k" d="M97.34,196.99,103.82,243l4.73-17.34-3.44-29.78Z"/><path class="k" d="M188.68,246.94s-.64-3.53-8.66-6.2S148,234,132.2,233.1l-15.75-.88h-7.17l2.44,17.35H88.4A51.13,51.13,0,0,0,75,239.85s-17.07-12.44-36.51-6.57l-16.3,1L7.9,263.55h2.62a44.87,44.87,0,0,1,84.37,21.27c0,1.54-.08,3.05-.23,4.55l.23.07h42.34c3.36-8.27,12.51-14.21,23.28-14.21,8.65,0,16.26,3.84,20.65,9.64l.46-.05s6.85-2.62,7.06-5.51S188.68,246.94,188.68,246.94Zm-51.47,17.44h-2.74V247.27h2.74Zm5.25,0h-2.74V247.27h2.74Zm5.24,0H145V247.27h2.73Zm5.25,0h-2.74V247.27H153Zm5.25,0h-2.74V247.27h2.74Zm5.24,0H160.7V247.27h2.74Z" transform="translate(-7.9 -6.56)"/><rect class="k" width="8.68" height="22.05" transform="translate(116.07 204.51)"/><path class="k" d="M132.65,196.71v4.15a3,3,0,0,0-2.15,2.63v7.59h-4.09v-8.25a7.47,7.47,0,0,1,2.74-4.56C131.49,196.55,132.65,196.71,132.65,196.71Z" transform="translate(-7.9 -6.56)"/><path class="k" d="M50.23,249.15a34,34,0,1,0,34,34A34,34,0,0,0,50.23,249.15Zm0,52.16a18.14,18.14,0,1,1,18.14-18.13A18.14,18.14,0,0,1,50.23,301.31Z" transform="translate(-7.9 -6.56)"/><circle class="k" cx="10.59" cy="10.59" r="10.59" transform="translate(31.74 266.02)"/><circle class="l" cx="34.03" cy="34.03" r="34.03" transform="matrix(0.198, -0.98, 0.98, 0.198, 2.234, 303.242)"/><path class="k" d="M160.7,279.32a19.58,19.58,0,1,0,19.58,19.57,19.58,19.58,0,0,0-19.58-19.57Zm0,30a4.325,4.325,0,1,1,0,.01Z" transform="translate(-7.9 -6.56)"/><circle class="k" cx="6.09" cy="6.09" r="6.09" transform="translate(146.72 286.24)"/><circle class="m" cx="19.58" cy="19.58" r="19.58" transform="translate(128.396 305.422) rotate(-73.15)"/></g></g></svg>