<svg xmlns="http://www.w3.org/2000/svg" viewBox="0 0 718.85 313.52"><g id="Barn"><polygon points="509.39 79.44 385.39 6.44 263.39 83.44 216.4 153.44 216.4 313.44 555.39 313.44 555.39 153.44 509.39 79.44" fill="#c8102e"/><line x1="222.9" y1="146.44" x2="222.44" y2="313.44" fill="none" stroke="#b71131" stroke-miterlimit="10" stroke-width="3"/><line x1="244.83" y1="113.29" x2="244.37" y2="313.44" fill="none" stroke="#b71131" stroke-miterlimit="10" stroke-width="3"/><line x1="266.76" y1="76.44" x2="266.3" y2="313.44" fill="none" stroke="#b71131" stroke-miterlimit="10" stroke-width="3"/><line x1="288.7" y1="73.84" x2="288.23" y2="313.44" fill="none" stroke="#b71131" stroke-miterlimit="10" stroke-width="3"/><line x1="310.63" y1="52.24" x2="310.16" y2="313.44" fill="none" stroke="#b71131" stroke-miterlimit="10" stroke-width="3"/><line x1="332.56" y1="42.78" x2="332.1" y2="313.44" fill="none" stroke="#b71131" stroke-miterlimit="10" stroke-width="3"/><line x1="354.49" y1="24.49" x2="354.03" y2="313.44" fill="none" stroke="#b71131" stroke-miterlimit="10" stroke-width="3"/><line x1="376.42" y1="13.73" x2="375.96" y2="313.44" fill="none" stroke="#b71131" stroke-miterlimit="10" stroke-width="3"/><line x1="398.36" y1="10.89" x2="397.89" y2="313.44" fill="none" stroke="#b71131" stroke-miterlimit="10" stroke-width="3"/><line x1="420.29" y1="23.25" x2="419.82" y2="313.44" fill="none" stroke="#b71131" stroke-miterlimit="10" stroke-width="3"/><line x1="442.22" y1="35.89" x2="441.75" y2="313.44" fill="none" stroke="#b71131" stroke-miterlimit="10" stroke-width="3"/><line x1="464.15" y1="52.24" x2="463.69" y2="313.44" fill="none" stroke="#b71131" stroke-miterlimit="10" stroke-width="3"/><line x1="486.08" y1="60.74" x2="485.62" y2="313.44" fill="none" stroke="#b71131" stroke-miterlimit="10" stroke-width="3"/><line x1="508.01" y1="76.44" x2="507.55" y2="313.44" fill="none" stroke="#b71131" stroke-miterlimit="10" stroke-width="3"/><line x1="529.95" y1="109.99" x2="529.48" y2="313.44" fill="none" stroke="#b71131" stroke-miterlimit="10" stroke-width="3"/><line x1="551.88" y1="142.81" x2="551.41" y2="313.44" fill="none" stroke="#b71131" stroke-miterlimit="10" stroke-width="3"/><polygon id="roofShadow" points="230.4 146.44 278.39 94.44 385.39 33.44 496.39 95.44 538.39 146.44 509.39 79.44 384.39 6.44 263.39 83.44 230.4 146.44" fill="#af1230"/><path id="roof" d="M213.16,166.61l10.2,7.16a1.11,1.11,0,0,0,1.57-.3L277.16,95.2a1.33,1.33,0,0,1,.34-.33l113.56-69.5a4.36,4.36,0,0,1,4.49,0l116.5,69.51a1.21,1.21,0,0,1,.39.39L558.72,173a1.12,1.12,0,0,0,1.54.38l13.07-7.84a1.12,1.12,0,0,0,.38-1.54l-48.27-79.8a1.15,1.15,0,0,0-.38-.38l-126.93-76a9.36,9.36,0,0,0-9.66,0l-124,74.94a1.19,1.19,0,0,0-.37.37L212.86,165.1A1.12,1.12,0,0,0,213.16,166.61Z" transform="translate(-7.9 -6.56)" fill="#b1b3b3"/><g id="topWindow"><rect x="349.04" y="83.84" width="76.1" height="76.1" rx="1" fill="#c4c4c4"/><rect x="357.9" y="92.59" width="58.59" height="58.59" rx="0.83" fill="#c8102e"/></g><g id="leftDoor"><rect x="270.16" y="193.07" width="114.23" height="114.23" fill="#d8d8d8"/><polygon points="284.39 201.88 368.36 201.88 327.28 243.53 284.39 201.88" fill="#b71332"/><polygon points="375.22 206.59 375.22 290.55 333.57 249.47 375.22 206.59" fill="#b71332"/><polygon points="369.26 298.7 285.3 298.7 326.38 257.05 369.26 298.7" fill="#b71332"/><polygon points="278.47 293.21 278.47 209.24 320.12 250.32 278.47 293.21" fill="#b71332"/></g><g id="rightDoor"><rect x="390.49" y="193.07" width="114.23" height="114.23" fill="#d8d8d8"/><polygon points="405.03 201.78 489 201.78 447.91 243.43 405.03 201.78" fill="#b71332"/><polygon points="495.85 206.49 495.85 290.46 454.2 249.37 495.85 206.49" fill="#b71332"/><polygon points="489.9 298.6 405.93 298.6 447.01 256.95 489.9 298.6" fill="#b71332"/><polygon points="399.1 293.12 399.1 209.15 440.75 250.23 399.1 293.12" fill="#b71332"/></g></g><g id="silo"><polygon points="711.33 97.35 712.98 313.44 598.9 313.44 598.9 97.35 711.33 97.35" fill="#c8102e"/><g id="ladder"><line x1="613.86" y1="102.6" x2="613.86" y2="312.02" fill="none" stroke="#b1b3b3" stroke-linecap="round" stroke-miterlimit="10" stroke-width="3"/><line x1="624.73" y1="102.6" x2="624.73" y2="312.02" fill="none" stroke="#b1b3b3" stroke-linecap="round" stroke-miterlimit="10" stroke-width="3"/><line x1="613.86" y1="118.01" x2="624.73" y2="118.01" fill="none" stroke="#b1b3b3" stroke-linecap="round" stroke-miterlimit="10" stroke-width="3"/><line x1="613.86" y1="132.92" x2="624.73" y2="132.92" fill="none" stroke="#b1b3b3" stroke-linecap="round" stroke-miterlimit="10" stroke-width="3"/><line x1="613.86" y1="147.83" x2="624.73" y2="147.83" fill="none" stroke="#b1b3b3" stroke-linecap="round" stroke-miterlimit="10" stroke-width="3"/><line x1="613.86" y1="162.74" x2="624.73" y2="162.74" fill="none" stroke="#b1b3b3" stroke-linecap="round" stroke-miterlimit="10" stroke-width="3"/><line x1="613.86" y1="177.65" x2="624.73" y2="177.65" fill="none" stroke="#b1b3b3" stroke-linecap="round" stroke-miterlimit="10" stroke-width="3"/><line x1="613.86" y1="192.56" x2="624.73" y2="192.56" fill="none" stroke="#b1b3b3" stroke-linecap="round" stroke-miterlimit="10" stroke-width="3"/><line x1="613.86" y1="207.47" x2="624.73" y2="207.47" fill="none" stroke="#b1b3b3" stroke-linecap="round" stroke-miterlimit="10" stroke-width="3"/><line x1="613.86" y1="222.38" x2="624.73" y2="222.38" fill="none" stroke="#b1b3b3" stroke-linecap="round" stroke-miterlimit="10" stroke-width="3"/><line x1="613.86" y1="237.29" x2="624.73" y2="237.29" fill="none" stroke="#b1b3b3" stroke-linecap="round" stroke-miterlimit="10" stroke-width="3"/><line x1="613.86" y1="252.2" x2="624.73" y2="252.2" fill="none" stroke="#b1b3b3" stroke-linecap="round" stroke-miterlimit="10" stroke-width="3"/><line x1="613.86" y1="267.12" x2="624.73" y2="267.12" fill="none" stroke="#b1b3b3" stroke-linecap="round" stroke-miterlimit="10" stroke-width="3"/><line x1="613.86" y1="282.03" x2="624.73" y2="282.03" fill="none" stroke="#b1b3b3" stroke-linecap="round" stroke-miterlimit="10" stroke-width="3"/><line x1="613.86" y1="296.94" x2="624.73" y2="296.94" fill="none" stroke="#b1b3b3" stroke-linecap="round" stroke-miterlimit="10" stroke-width="3"/></g><path id="topSilo" d="M726.74,91.62a63.75,63.75,0,0,1-1.17,12.21l-124,1.61A63.35,63.35,0,1,1,726.74,91.62Z" transform="translate(-7.9 -6.56)" fill="#b1b3b3"/><path d="M643.73,104.89s74.39,37.72,75.5,173.3V103.92Z" transform="translate(-7.9 -6.56)" fill="#af1230"/></g><g id="tractor"><g id="body"><polygon points="108.55 196.99 97.34 196.99 30.55 196.99 30.55 183.59 108.55 183.59 108.55 196.99" fill="#6d6d6d"/><polygon points="36.25 196.99 30.55 227.73 37.54 226.17 43.5 195.88 36.25 196.99" fill="#6d6d6d"/><polygon points="67.06 196.99 73.27 196.99 73.27 237.05 67.06 233.28 67.06 196.99" fill="#6d6d6d"/><polygon points="97.34 196.99 103.82 243 108.55 225.66 105.11 195.88 97.34 196.99" fill="#6d6d6d"/><path d="M188.68,246.94s-.64-3.53-8.66-6.2S148,234,132.2,233.1l-15.75-.88h-7.17l2.44,17.35H88.4A51.13,51.13,0,0,0,75,239.85s-17.07-12.44-36.51-6.57l-16.3,1L7.9,263.55h2.62a44.87,44.87,0,0,1,84.37,21.27c0,1.54-.08,3.05-.23,4.55l.23.07h41.94l.4,0c3.36-8.27,12.51-14.21,23.28-14.21,8.65,0,16.26,3.84,20.65,9.64l.46-.05s6.85-2.62,7.06-5.51S188.68,246.94,188.68,246.94Zm-51.47,17.44h-2.74V247.27h2.74Zm5.25,0h-2.74V247.27h2.74Zm5.24,0H145V247.27h2.73Zm5.25,0h-2.74V247.27H153Zm5.25,0h-2.74V247.27h2.74Zm5.24,0H160.7V247.27h2.74Z" transform="translate(-7.9 -6.56)" fill="#6d6d6d"/><rect x="116.07" y="204.51" width="8.68" height="22.05" fill="#6d6d6d"/><path d="M132.65,196.71v4.15a3,3,0,0,0-2.15,2.63c0,2,0,7.59,0,7.59h-4.09v-8.25a7.47,7.47,0,0,1,2.74-4.56C131.49,196.55,132.65,196.71,132.65,196.71Z" transform="translate(-7.9 -6.56)" fill="#6d6d6d"/></g><g id="bigWheel"><path d="M50.23,249.15a34,34,0,1,0,34,34A34,34,0,0,0,50.23,249.15Zm0,52.16a18.14,18.14,0,1,1,18.14-18.13A18.14,18.14,0,0,1,50.23,301.31Z" transform="translate(-7.9 -6.56)" fill="#6d6d6d"/><circle cx="42.33" cy="276.61" r="10.59" fill="#6d6d6d"/><circle cx="50.23" cy="283.18" r="34.03" transform="translate(-245.19 269.79) rotate(-78.58)" fill="none" stroke="#6d6d6d" stroke-linecap="round" stroke-miterlimit="10" stroke-width="5" stroke-dasharray="8.22 8.22"/></g><g id="littleWheel"><path d="M160.7,279.32a19.58,19.58,0,1,0,19.58,19.57A19.57,19.57,0,0,0,160.7,279.32Zm0,30a10.44,10.44,0,1,1,10.44-10.44A10.43,10.43,0,0,1,160.7,309.33Z" transform="translate(-7.9 -6.56)" fill="#6d6d6d"/><circle cx="152.81" cy="292.33" r="6.09" fill="#6d6d6d"/><circle cx="160.7" cy="298.89" r="19.58" transform="translate(-179.83 359.52) rotate(-73.15)" fill="none" stroke="#6d6d6d" stroke-linecap="round" stroke-miterlimit="10" stroke-width="3" stroke-dasharray="4.1 4.1"/></g></g></svg>