<?xml version="1.0" encoding="utf-8"?>
<!-- Generator: Adobe Illustrator 24.1.0, SVG Export Plug-In . SVG Version: 6.00 Build 0)  -->
<svg version="1.1" id="nav-mobile" xmlns="http://www.w3.org/2000/svg" xmlns:xlink="http://www.w3.org/1999/xlink" x="0px" y="0px"
	 viewBox="0 0 132.8 109.1" style="enable-background:new 0 0 132.8 109.1;" xml:space="preserve">
<style type="text/css">
	.st0{fill:#E6E7E8;}
</style>
<path id="bottom" class="st0" d="M125.8,106H7.1c-3.9,0-7.1-2.5-7.1-5.5V95c0-3,3.2-5.5,7.1-5.5h118.7c3.9,0,7.1,2.5,7.1,5.5v5.6
	C132.8,103.5,129.7,106,125.8,106z"/>
<path id="middle" class="st0" d="M125.8,62.5H7.1c-3.9,0-7.1-2.2-7.1-5v-5c0-2.7,3.2-5,7.1-5h118.7c3.9,0,7.1,2.2,7.1,5v5
	C132.8,60.2,129.7,62.5,125.8,62.5z"/>
<path id="top" class="st0" d="M125.8,20.5H7.1C3.2,20.5,0,18,0,15V9.4C0,6.4,3.2,4,7.1,4h118.7c3.9,0,7.1,2.5,7.1,5.5V15
	C132.8,18,129.7,20.5,125.8,20.5z"/>
</svg>
