<svg xmlns="http://www.w3.org/2000/svg" xmlns:xlink="http://www.w3.org/1999/xlink" width="100" height="100" viewBox="0 0 100 100"><defs><style>.a{fill:#fff;stroke:#707070;}.b{clip-path:url(#a);}.c{fill:#4c4c4c;}</style><clipPath id="a"><rect class="a" width="100" height="100" transform="translate(323 1767)"/></clipPath></defs><g class="b" transform="translate(-323 -1767)"><g transform="translate(336.899 1767)"><path class="c" d="M54.555,17.779c.867,0,6.058,3.457,6.058,3.457l3.106-3.874a17.988,17.988,0,0,0-9.164-8.231C47.641,12.588,45,16.912,45,16.912l3.457,4.324S53.688,17.779,54.555,17.779Z" transform="translate(-18.295 -9.131)"/><path class="c" d="M36.842,38.7A25.769,25.769,0,0,1,45,23.925c-.691-2.327-3.951-4.236-3.951-4.236-6.157,2.052-12.072,13.674-10.81,14.355S36.842,38.7,36.842,38.7Z" transform="translate(-18.295 -9.131)"/><path class="c" d="M71.917,38.7s5.334-3.962,6.585-4.653-4.642-12.3-10.8-14.355c0,0-3.292,1.91-3.962,4.236A25.769,25.769,0,0,1,71.917,38.7Z" transform="translate(-18.295 -9.131)"/><path class="c" d="M54.555,22.421C43,26.526,39.717,42.253,39.717,42.253L46.3,50.187c1.778-1.372,8.1-3.292,8.1-3.292s6.673,1.91,8.451,3.292l6.585-7.935S66.112,26.526,54.555,22.421Z" transform="translate(-18.295 -9.131)"/><path class="c" d="M38.005,59.263c.121-2.546,4.456-6.969,4.456-6.969-3.984-6.914-15.6-16.034-15.6-16.034-5.092,7.331-3.292,16.945-3.292,16.945C28.534,53.919,38.005,59.263,38.005,59.263Z" transform="translate(-18.295 -9.131)"/><path class="c" d="M66.693,52.338s4.39,4.39,4.456,6.969c0,0,9.5-5.389,14.432-6.058,0,0,1.811-9.614-3.292-16.945C82.31,36.3,70.688,45.424,66.693,52.338Z" transform="translate(-18.295 -9.131)"/><path class="c" d="M73.926,62.556s-2,1.767-2.195,3.172-3.172,1.877-3.995.23,0-4.39-1.4-6.64S61.875,52.986,54.413,51.3c-7.5,1.679-10.514,5.773-11.951,7.968s-.582,5-1.4,6.64-3.753,1.174-3.984-.23S34.878,62.5,34.878,62.5c-5.279-4.686-16.55-6.684-16.55-6.684C19.03,64.97,20.8,76.351,31,84.79c7.375,6.113,16.308,7.551,20.709,7.891-.055,2.842-.209,12.829,0,14.607.263,2.085,2.689,1.833,2.689,1.833s2.436.252,2.689-1.833c.23-1.778.066-11.765,0-14.607,4.39-.34,13.334-1.778,20.709-7.891,10.206-8.44,11.962-19.82,12.665-28.973C90.464,55.861,79.2,57.859,73.926,62.556Z" transform="translate(-18.295 -9.131)"/></g></g></svg>