<svg xmlns="http://www.w3.org/2000/svg" width="99.74" height="40.106" viewBox="0 0 99.74 40.106"><defs><style>.a{fill:none;stroke:#fff;stroke-miterlimit:10;stroke-width:2px;}.b{fill:#fff;}</style></defs><g transform="translate(-0.081 0.031)"><path class="a" d="M46.444,13.913,20.163,1.44,1.97,37.673,42.4,26.982,79.8,38.86l18.2-37.42Z"/><path class="b" d="M3355.181,769.343c-1.261-.421-2.1,1.687-3.79,2.95s-3.363.421-4.624-.421,0-2.529,0-2.529,3.79-5.491,4.624-6.324,1.684-1.684.422-2.95-2.453-.253-3.714,1.013a28.343,28.343,0,0,0-3.013,4.466c-.847,1.263-.839.424-.839.424v-3.8c0-2.108-2.523-1.684-3.365,1.266s-3.79,7.587-4.2,8.429-1.681,1.263-2.1.421,1.264-2.206,2.106-3.893,1.652-4.634.836-6.644c-.5-1.22-2.1-2.529-3.362-1.687s-2.084,1.766-3.287,4.905c-1.153,3,.284,7.154.284,7.154s-1.625.586-2.464-.256,0-4.216,0-5.9,0-2.953-1.681-2.953-2.523,3.795-2.943,4.637-.419,0-.419,0l.419-3.371s.42-2.529-1.262-2.108-1.681,3.356-2.1,5.058a14.733,14.733,0,0,1-2.523,4.216s-1.681,1.684-2.1.842.766-1.9,1.188-2.746a14.561,14.561,0,0,0,1.335-6.1c0-2.633-2.1-2.675-2.1-2.675s-2.068-.351-3.362,2.675c-1.259,2.95-1.717,6.333-1.259,8.008v.03a1.651,1.651,0,0,1-.125,1.131,1.352,1.352,0,0,1-.8.7,5.528,5.528,0,0,1-2.87.25c-1.8-.564,0-2.108.842-2.953a6.745,6.745,0,0,0,1.681-4.634c0-2.1-.422-3.795-1.681-4.216s-3.425.574-4.2,2.529a25.7,25.7,0,0,0-1.261,7.166c0,1.266-2.1.842-2.1.842s-1-.394-.585-1.239a21.3,21.3,0,0,0,1.846-4.24,50.663,50.663,0,0,0,1.051-9.649c0-1.687-1.281-5.723-3.993-3-2.079,2.09-3.363,5.058-4.2,10.116s.842,7.166.842,7.166-1.261,2.108-2.943,1.263-2.943-2.529-3.362-5.491,3.362-7.587,5.043-9.271,1.261-2.108.42-2.953-2.1-.842-4.2,1.266-3.791,6.742-4.627,8.008-1.259,0-1.259,0,.419-5.491.419-7.166-.406-2.1-2.518-2.1-2.1,1.266-2.1,1.266v18.124c0,1.263-.422,2.529,2.521,3.356s2.1-1.687,2.1-1.687-.842-3.792-.419-5.491,1.681,0,1.681,0a30.974,30.974,0,0,1,3.79,4.637c1.27,2.108,5.046.842,5.885,0s1.272-.842,2.136.034a3.812,3.812,0,0,0,5.212.2c.715-.644,1.164-.549,2.323.61,1.262,1.266,5.4.363,6.305-.842.674-.894,1.681,0,1.681,0,1.681,1.266,3.912.235,4.624-.421,1.251-1.15,2.523-5.491,2.1-2.108s0,4.216,2.1,4.216,1.681-4.216,1.681-5.491.853-1.425.842-.421a5.7,5.7,0,0,0,1.145,3.316c1.261,1.684,2.64,1.318,3.479.476s1.681.421,1.681.421c.842,1.687,4.2,1.266,5.466,0a17.452,17.452,0,0,0,2.943-4.637c.842-1.687,1.261-.421,1.261-.421s.419,1.687-.42,2.529a22.615,22.615,0,0,0-2.943,5.491,2.176,2.176,0,0,0,1.259,2.95c1.259.421,1.684-1.263,1.684-1.263a20.751,20.751,0,0,1,1.681-3.795c.842-1.266.839-1.263,3.79.424s6.728-2.108,7.567-2.95S3356.443,769.761,3355.181,769.343Zm-56.347-.943c-.926.781-.6-4.323.109-7.038a14.852,14.852,0,0,1,1.407-3.52c.485-.485.78-.54.78.479,0,2.526-1.194,9.149-2.3,10.076Zm7.659,1.492c-.737.079-.249-2.556.178-3.9a3.44,3.44,0,0,1,.812-1.507c.325-.244.877-.156.755.61-.195,1.312-.909,4.7-1.746,4.789Zm7.976-.348c-.736.082,0-3.212.658-4.536a2.238,2.238,0,0,1,.752-.863c.349-.2.812-.156.7.61-.2,1.312-1.275,4.7-2.112,4.786Zm18.718-.631c-.853.095-.541-2.44.525-4.347a4.251,4.251,0,0,1,1.007-1.333c.365-.214.864-.125.755.531-.254,1.507-1.318,5.04-2.288,5.146Z" transform="translate(-3266.556 -748.251)"/></g></svg>