<svg xmlns="http://www.w3.org/2000/svg" xmlns:xlink="http://www.w3.org/1999/xlink" width="740" height="320" viewBox="0 0 740 320"><defs><style>.a{fill:#fff;stroke:#707070;}.b{clip-path:url(#a);}.c{fill:#727272;}.d{fill:#8c8c8c;}.e{fill:#939393;}.f{fill:#757575;}.g{fill:#a0a0a0;}.h{fill:#f4f4f4;}.i{fill:#c8102e;}.j{fill:#a87e62;}.k{fill:#ba9170;}.l{fill:#b71332;stroke-width:1.059px;}.l,.q{stroke:#c8102e;}.l,.n,.q{stroke-miterlimit:10;}.m{fill:#af876b;}.n{fill:#c6c6c6;stroke:#d3d3d3;stroke-width:0.265px;}.o,.s{fill:#c4a182;}.p{fill:#bc9d82;}.q{fill:none;stroke-width:2.119px;}.r{fill:#c5a259;}.s{opacity:0.7;}</style><clipPath id="a"><rect class="a" width="740" height="320" transform="translate(592 40)"/></clipPath></defs><g class="b" transform="translate(-592 -40)"><g transform="translate(592 99.853)"><rect class="c" width="334.233" height="7.627" rx="2.924" transform="translate(405.768 98.039)"/><path class="d" d="M467.642,225.315a3.729,3.729,0,0,0,.381-1.589c0-2.542-2.712-4.608-6.07-4.608a6.441,6.441,0,0,0-5.381,2.532h0L375.45,311.69h0a4.682,4.682,0,0,0-1.324,3.178c0,3.178,3.464,5.7,7.733,5.7a8.527,8.527,0,0,0,6.578-2.744h0L466.2,227a4.629,4.629,0,0,0,1.441-1.684h0Z" transform="translate(-31.271 -120.729)"/><path class="e" d="M375.694,313.862h0a1.133,1.133,0,0,1-.508-1.843s81.355-90.761,82.361-91.831,3.443-1.112,4.237-1.059h1.059l-84.67,94.363a2.2,2.2,0,0,1-2.479.371Z" transform="translate(-31.271 -120.729)"/><path class="f" d="M468.023,223.376a4.7,4.7,0,0,1-.932,3.019L389.359,316.9a1.059,1.059,0,0,1-1.239.2h0a.572.572,0,0,1-.286-.911l79.925-93.738C467.726,222.285,468.023,222.6,468.023,223.376Z" transform="translate(-31.271 -120.729)"/><path class="d" d="M508.849,225.431a3.581,3.581,0,0,0,.392-1.578c0-2.553-2.722-4.619-6.07-4.619a6.462,6.462,0,0,0-5.392,2.532h0l-81.132,90.041h0a4.693,4.693,0,0,0-1.314,3.178c0,3.178,3.453,5.7,7.722,5.7a8.538,8.538,0,0,0,6.578-2.754h0l77.774-90.772a4.862,4.862,0,0,0,1.451-1.684h0Z" transform="translate(-31.271 -120.729)"/><path class="f" d="M509.241,223.514a4.8,4.8,0,0,1-.932,3.03l-77.742,90.5a1.112,1.112,0,0,1-1.239.212h0a.572.572,0,0,1-.275-.922l79.914-93.706C508.933,222.454,509.241,222.772,509.241,223.514Z" transform="translate(-31.271 -120.729)"/><path class="e" d="M417.25,313.862h0a1.133,1.133,0,0,1-.508-1.843s81.344-90.761,82.35-91.831,3.453-1.112,4.237-1.059h1.059l-84.6,94.331A2.214,2.214,0,0,1,417.25,313.862Z" transform="translate(-31.271 -120.729)"/><path class="d" d="M550.056,225.431a3.579,3.579,0,0,0,.392-1.578c0-2.553-2.712-4.619-6.07-4.619a6.462,6.462,0,0,0-5.392,2.532h0l-81.132,90.041h0a4.746,4.746,0,0,0-1.314,3.178c0,3.178,3.453,5.7,7.722,5.7a8.559,8.559,0,0,0,6.589-2.754h0L548.615,227.1a4.714,4.714,0,0,0,1.441-1.684h0Z" transform="translate(-31.271 -120.729)"/><path class="f" d="M550.448,223.514a4.725,4.725,0,0,1-.932,3.03l-77.732,90.5a1.134,1.134,0,0,1-1.25.212h0a.583.583,0,0,1-.275-.922l79.914-93.706C550.141,222.454,550.448,222.772,550.448,223.514Z" transform="translate(-31.271 -120.729)"/><path class="e" d="M458.129,313.862h0a1.144,1.144,0,0,1-.508-1.843s81.355-90.761,82.361-91.831,3.453-1.112,4.237-1.059h1.059L460.693,313.46A2.225,2.225,0,0,1,458.129,313.862Z" transform="translate(-31.271 -120.729)"/><path class="d" d="M591.273,225.431a3.719,3.719,0,0,0,.381-1.578c0-2.553-2.712-4.619-6.07-4.619a6.44,6.44,0,0,0-5.381,2.532h0l-81.122,90.041h0a4.7,4.7,0,0,0-1.324,3.178c0,3.178,3.464,5.7,7.733,5.7a8.538,8.538,0,0,0,6.578-2.754h0L589.833,227.1a4.715,4.715,0,0,0,1.441-1.684h0Z" transform="translate(-31.271 -120.729)"/><path class="f" d="M591.655,223.514a4.724,4.724,0,0,1-.932,3.03l-77.732,90.5a1.112,1.112,0,0,1-1.239.212h0c-.424-.2-.551-.614-.286-.922l79.925-93.706C591.358,222.454,591.655,222.772,591.655,223.514Z" transform="translate(-31.271 -120.729)"/><path class="e" d="M499.018,313.862h0a1.133,1.133,0,0,1-.508-1.843s81.344-90.761,82.351-91.831,3.453-1.112,4.237-1.059h1.059l-84.6,94.331a2.214,2.214,0,0,1-2.542.4Z" transform="translate(-31.271 -120.729)"/><path class="d" d="M632.48,225.431a3.579,3.579,0,0,0,.392-1.578c0-2.553-2.722-4.619-6.07-4.619a6.462,6.462,0,0,0-5.392,2.532h0l-81.132,90.041h0a4.693,4.693,0,0,0-1.314,3.178c0,3.178,3.453,5.7,7.722,5.7a8.538,8.538,0,0,0,6.578-2.754h0L631.019,227.1a4.862,4.862,0,0,0,1.451-1.684h0Z" transform="translate(-31.271 -120.729)"/><path class="f" d="M632.872,223.514a4.8,4.8,0,0,1-.932,3.03L554.2,317.04a1.112,1.112,0,0,1-1.239.212h0a.572.572,0,0,1-.275-.922L632.6,222.624C632.565,222.454,632.872,222.772,632.872,223.514Z" transform="translate(-31.271 -120.729)"/><path class="e" d="M540.395,314.233h0a1.133,1.133,0,0,1-.508-1.843s81.355-90.772,82.361-91.842,3.443-1.059,4.237-1.059l1.059.053-84.649,94.321A2.246,2.246,0,0,1,540.395,314.233Z" transform="translate(-31.271 -120.729)"/><path class="d" d="M673.719,225.431a3.581,3.581,0,0,0,.392-1.578c0-2.553-2.712-4.619-6.07-4.619a6.462,6.462,0,0,0-5.392,2.532h0l-81.132,90.041h0a4.746,4.746,0,0,0-1.314,3.178c0,3.178,3.453,5.7,7.722,5.7a8.559,8.559,0,0,0,6.589-2.754h0L672.278,227.1a4.714,4.714,0,0,0,1.441-1.684h0Z" transform="translate(-31.271 -120.729)"/><path class="f" d="M674.079,223.514a4.724,4.724,0,0,1-.932,3.03l-77.732,90.5a1.134,1.134,0,0,1-1.25.212h0a.583.583,0,0,1-.275-.922L673.8,222.624C673.772,222.454,674.079,222.772,674.079,223.514Z" transform="translate(-31.271 -120.729)"/><path class="e" d="M581.443,314.233h0a1.144,1.144,0,0,1-.508-1.843s81.355-90.772,82.361-91.842,3.453-1.059,4.237-1.059l1.059.053-84.586,94.331A2.256,2.256,0,0,1,581.443,314.233Z" transform="translate(-31.271 -120.729)"/><path class="d" d="M714.905,225.431a3.72,3.72,0,0,0,.381-1.578c0-2.553-2.712-4.619-6.07-4.619a6.44,6.44,0,0,0-5.381,2.532h0l-81.122,90.041h0a4.7,4.7,0,0,0-1.324,3.178c0,3.178,3.464,5.7,7.733,5.7a8.538,8.538,0,0,0,6.578-2.754h0L713.454,227.1a4.713,4.713,0,0,0,1.441-1.684h0Z" transform="translate(-31.271 -120.729)"/><path class="f" d="M715.286,223.514a4.725,4.725,0,0,1-.932,3.03l-77.711,90.518a1.112,1.112,0,0,1-1.239.212h0c-.424-.2-.551-.614-.286-.922l79.914-93.706C715.032,222.454,715.286,222.772,715.286,223.514Z" transform="translate(-31.271 -120.729)"/><path class="e" d="M622.745,314.233h0a1.133,1.133,0,0,1-.508-1.843s81.355-90.772,82.361-91.842,3.443-1.059,4.237-1.059l1.059.053-84.6,94.331a2.246,2.246,0,0,1-2.553.36Z" transform="translate(-31.271 -120.729)"/><path class="d" d="M756.112,225.431a3.581,3.581,0,0,0,.392-1.578c0-2.553-2.722-4.619-6.07-4.619a6.462,6.462,0,0,0-5.392,2.532h0L663.91,311.807h0a4.693,4.693,0,0,0-1.314,3.178c0,3.178,3.453,5.7,7.722,5.7a8.538,8.538,0,0,0,6.578-2.754h0L754.65,227.1a4.862,4.862,0,0,0,1.451-1.684h0Z" transform="translate(-31.271 -120.729)"/><path class="f" d="M756.5,223.514a4.8,4.8,0,0,1-.932,3.03l-77.743,90.5a1.112,1.112,0,0,1-1.239.212h0a.572.572,0,0,1-.275-.922l79.914-93.706C756.2,222.454,756.5,222.772,756.5,223.514Z" transform="translate(-31.271 -120.729)"/><path class="e" d="M663.963,314.233h0a1.133,1.133,0,0,1-.508-1.843s81.344-90.772,82.351-91.842,3.453-1.059,4.237-1.059l1.059.053-84.6,94.331A2.246,2.246,0,0,1,663.963,314.233Z" transform="translate(-31.271 -120.729)"/><ellipse class="g" cx="7.585" cy="5.593" rx="7.585" ry="5.593" transform="translate(342.834 188.811)"/><ellipse class="g" cx="7.585" cy="5.593" rx="7.585" ry="5.593" transform="translate(384.041 188.811)"/><ellipse class="g" cx="7.585" cy="5.593" rx="7.585" ry="5.593" transform="translate(425.248 188.811)"/><ellipse class="g" cx="7.585" cy="5.593" rx="7.585" ry="5.593" transform="translate(466.466 188.811)"/><ellipse class="g" cx="7.585" cy="5.593" rx="7.585" ry="5.593" transform="translate(507.673 188.811)"/><ellipse class="g" cx="7.585" cy="5.593" rx="7.585" ry="5.593" transform="translate(548.88 188.811)"/><ellipse class="g" cx="7.585" cy="5.593" rx="7.585" ry="5.593" transform="translate(590.098 188.811)"/><ellipse class="g" cx="7.585" cy="5.593" rx="7.585" ry="5.593" transform="translate(631.305 188.811)"/><rect class="c" width="326.584" height="9.47" rx="2.924" transform="translate(333.735 190.824)"/><rect class="c" width="336.658" height="7.627" rx="2.924" transform="translate(79.533 98.039)"/><path class="d" d="M141.629,225.315a3.739,3.739,0,0,0,.392-1.589c0-2.542-2.744-4.608-6.112-4.608a6.536,6.536,0,0,0-5.434,2.532h0L48.728,311.722h0a4.64,4.64,0,0,0-1.335,3.178c0,3.178,3.485,5.7,7.786,5.7a8.633,8.633,0,0,0,6.631-2.744h0l78.325-90.825a4.661,4.661,0,0,0,1.451-1.684h0Z" transform="translate(-31.271 -120.729)"/><path class="e" d="M49.014,313.862h0a1.133,1.133,0,0,1-.508-1.843s81.937-90.761,82.954-91.831,3.475-1.112,4.237-1.059h1.059L51.535,313.491a2.246,2.246,0,0,1-2.521.371Z" transform="translate(-31.271 -120.729)"/><path class="f" d="M142.021,223.376a4.746,4.746,0,0,1-.943,3.019L62.775,316.9a1.059,1.059,0,0,1-1.25.2h0a.561.561,0,0,1-.275-.911l80.507-93.706C141.714,222.285,142.021,222.6,142.021,223.376Z" transform="translate(-31.271 -120.729)"/><path class="d" d="M183.133,225.431a3.581,3.581,0,0,0,.392-1.578c0-2.553-2.733-4.619-6.112-4.619a6.515,6.515,0,0,0-5.424,2.532h0L90.274,311.807h0a4.7,4.7,0,0,0-1.324,3.178c0,3.178,3.485,5.7,7.775,5.7a8.623,8.623,0,0,0,6.631-2.754h0L181.671,227.1a4.788,4.788,0,0,0,1.462-1.684h0Z" transform="translate(-31.271 -120.729)"/><path class="f" d="M183.525,223.514a4.725,4.725,0,0,1-.932,3.03l-78.3,90.518a1.133,1.133,0,0,1-1.25.212h0c-.424-.2-.551-.614-.286-.922l80.507-93.706C183.26,222.454,183.525,222.772,183.525,223.514Z" transform="translate(-31.271 -120.729)"/><path class="e" d="M90.867,313.862h0a1.133,1.133,0,0,1-.508-1.843s81.937-90.761,82.954-91.831,3.475-1.112,4.237-1.059h1.059L93.389,313.491A2.246,2.246,0,0,1,90.867,313.862Z" transform="translate(-31.271 -120.729)"/><path class="d" d="M224.647,225.431a3.58,3.58,0,0,0,.392-1.578c0-2.553-2.744-4.619-6.112-4.619a6.536,6.536,0,0,0-5.434,2.532h0l-81.715,90.041h0a4.714,4.714,0,0,0-1.335,3.178c0,3.178,3.485,5.7,7.786,5.7a8.633,8.633,0,0,0,6.631-2.754h0L223.185,227.1a4.65,4.65,0,0,0,1.451-1.684h0Z" transform="translate(-31.271 -120.729)"/><path class="f" d="M225.039,223.514a4.756,4.756,0,0,1-.943,3.03l-78.3,90.5a1.134,1.134,0,0,1-1.25.212h0a.572.572,0,0,1-.275-.922l80.507-93.706C224.732,222.454,225.039,222.772,225.039,223.514Z" transform="translate(-31.271 -120.729)"/><path class="e" d="M132.053,313.862h0a1.133,1.133,0,0,1-.519-1.843s81.948-90.761,82.965-91.831,3.464-1.112,4.237-1.059H219.8l-85.264,94.363A2.246,2.246,0,0,1,132.053,313.862Z" transform="translate(-31.271 -120.729)"/><path class="d" d="M266.151,225.431a3.581,3.581,0,0,0,.392-1.578c0-2.553-2.733-4.619-6.112-4.619a6.515,6.515,0,0,0-5.424,2.532h0l-81.726,90.041h0a4.7,4.7,0,0,0-1.324,3.178c0,3.178,3.485,5.7,7.786,5.7a8.6,8.6,0,0,0,6.621-2.754h0L264.689,227.1a4.756,4.756,0,0,0,1.451-1.684h0Z" transform="translate(-31.271 -120.729)"/><path class="f" d="M266.543,223.514a4.725,4.725,0,0,1-.932,3.03l-78.3,90.5a1.134,1.134,0,0,1-1.25.212h0c-.424-.2-.551-.614-.286-.922l80.507-93.706C266.236,222.454,266.543,222.772,266.543,223.514Z" transform="translate(-31.271 -120.729)"/><path class="e" d="M173.228,313.862h0a1.133,1.133,0,0,1-.508-1.843s81.937-90.761,82.954-91.831,3.475-1.112,4.237-1.059h1.059L175.76,313.46A2.246,2.246,0,0,1,173.228,313.862Z" transform="translate(-31.271 -120.729)"/><path class="d" d="M307.665,225.431a3.582,3.582,0,0,0,.392-1.578c0-2.553-2.733-4.619-6.112-4.619a6.536,6.536,0,0,0-5.434,2.532h0L214.8,311.807h0a4.714,4.714,0,0,0-1.335,3.178c0,3.178,3.485,5.7,7.786,5.7a8.633,8.633,0,0,0,6.631-2.754h0L306.2,227.1a4.65,4.65,0,0,0,1.451-1.684h0Z" transform="translate(-31.271 -120.729)"/><path class="f" d="M308.057,223.514a4.756,4.756,0,0,1-.943,3.03l-78.3,90.518a1.133,1.133,0,0,1-1.25.212h0c-.424-.2-.551-.614-.286-.922l80.507-93.706C307.75,222.454,308.057,222.772,308.057,223.514Z" transform="translate(-31.271 -120.729)"/><path class="e" d="M214.912,314.233h0a1.133,1.133,0,0,1-.508-1.843s81.937-90.772,82.954-91.842,3.475-1.059,4.237-1.059l1.059.053-85.211,94.331A2.278,2.278,0,0,1,214.912,314.233Z" transform="translate(-31.271 -120.729)"/><path class="d" d="M349.169,225.431a3.591,3.591,0,0,0,.4-1.578c0-2.553-2.744-4.619-6.123-4.619a6.515,6.515,0,0,0-5.424,2.532h0L256.3,311.807h0a4.7,4.7,0,0,0-1.324,3.178c0,3.178,3.485,5.7,7.786,5.7a8.633,8.633,0,0,0,6.631-2.754h0L347.718,227.1a4.756,4.756,0,0,0,1.451-1.684h0Z" transform="translate(-31.271 -120.729)"/><path class="f" d="M349.571,223.514a4.756,4.756,0,0,1-.943,3.03l-78.3,90.5a1.133,1.133,0,0,1-1.25.212h0c-.424-.2-.551-.614-.275-.922l80.507-93.706C349.264,222.454,349.571,222.772,349.571,223.514Z" transform="translate(-31.271 -120.729)"/><path class="e" d="M256.257,314.233h0a1.133,1.133,0,0,1-.508-1.843s81.937-90.772,82.954-91.842,3.475-1.059,4.237-1.059l1.059.053-85.211,94.331a2.278,2.278,0,0,1-2.532.36Z" transform="translate(-31.271 -120.729)"/><path class="d" d="M390.683,225.431a3.582,3.582,0,0,0,.392-1.578c0-2.553-2.733-4.619-6.112-4.619a6.5,6.5,0,0,0-5.424,2.532h0l-81.715,90.041h0a4.7,4.7,0,0,0-1.324,3.178c0,3.178,3.475,5.7,7.775,5.7a8.633,8.633,0,0,0,6.631-2.754h0L389.221,227.1a4.788,4.788,0,0,0,1.462-1.684h0Z" transform="translate(-31.271 -120.729)"/><path class="f" d="M391.075,223.514a4.756,4.756,0,0,1-.943,3.03l-78.293,90.5a1.134,1.134,0,0,1-1.25.212h0c-.424-.2-.551-.614-.286-.922l80.507-93.706C390.768,222.454,391.075,222.772,391.075,223.514Z" transform="translate(-31.271 -120.729)"/><path class="e" d="M297.856,314.233h0a1.133,1.133,0,0,1-.508-1.843s81.937-90.772,82.954-91.842,3.475-1.059,4.237-1.059l1.059.053-85.211,94.331A2.278,2.278,0,0,1,297.856,314.233Z" transform="translate(-31.271 -120.729)"/><path class="d" d="M432.2,225.431a3.738,3.738,0,0,0,.392-1.578c0-2.553-2.744-4.619-6.123-4.619a6.515,6.515,0,0,0-5.424,2.532h0l-81.726,90.041h0a4.7,4.7,0,0,0-1.324,3.178c0,3.178,3.485,5.7,7.786,5.7a8.633,8.633,0,0,0,6.631-2.754h0L430.735,227.1a4.756,4.756,0,0,0,1.451-1.684h0Z" transform="translate(-31.271 -120.729)"/><path class="f" d="M432.589,223.514a4.756,4.756,0,0,1-.943,3.03l-78.3,90.5a1.134,1.134,0,0,1-1.25.212h0c-.424-.2-.551-.614-.275-.922l80.507-93.706C432.282,222.454,432.579,222.772,432.589,223.514Z" transform="translate(-31.271 -120.729)"/><path class="e" d="M339.37,314.233h0a1.133,1.133,0,0,1-.508-1.843s81.937-90.772,82.954-91.842,3.475-1.059,4.237-1.059l1.059.053L341.9,313.873A2.277,2.277,0,0,1,339.37,314.233Z" transform="translate(-31.271 -120.729)"/><ellipse class="g" cx="7.638" cy="5.593" rx="7.638" ry="5.593" transform="translate(16.144 188.811)"/><ellipse class="g" cx="7.638" cy="5.593" rx="7.638" ry="5.593" transform="translate(57.647 188.811)"/><ellipse class="g" cx="7.638" cy="5.593" rx="7.638" ry="5.593" transform="translate(99.162 188.811)"/><ellipse class="g" cx="7.638" cy="5.593" rx="7.638" ry="5.593" transform="translate(140.665 188.811)"/><ellipse class="g" cx="7.638" cy="5.593" rx="7.638" ry="5.593" transform="translate(182.18 188.811)"/><ellipse class="g" cx="7.638" cy="5.593" rx="7.638" ry="5.593" transform="translate(223.694 188.811)"/><ellipse class="g" cx="7.638" cy="5.593" rx="7.638" ry="5.593" transform="translate(265.198 188.811)"/><ellipse class="g" cx="7.638" cy="5.593" rx="7.638" ry="5.593" transform="translate(306.712 188.811)"/><rect class="c" width="342.728" height="9.47" rx="2.924" transform="translate(0 190.824)"/><path class="e" d="M99.967,99l-82.5,91.99H285.2L365.26,99Z"/><path class="h" d="M149.362,137.943s-.752-1.939,6.356-1.949,8.061.455,9.4,1.769-1.282,4.947-1.282,4.947l1.059,7.309-.614,3.485,2.119,20.974,1.324,10.9.943,14.481,1.907,2.966,2.966,4.078,2.267,5.657.763,8.474.085,7.224.254,20.678.4,51.7-14.174,5.212-11.875-.254-11.292-4.5-1.642-71.535-.159-13.771,3.485-8.866,3.866-6.525,1.282-16.864,1.133-21.737,1.144-12.224.307-6.2-.742-5.519Z" transform="translate(-31.271 -120.729)"/><path class="i" d="M176.978,216.1a21.885,21.885,0,0,0-4.311-11.737,16.367,16.367,0,0,1-3.464-8.941q-1.875-21.186-3.708-42.319c-.064-.773-.212-1.525.508-2.182.551-.5.371-1.059.064-1.79a11.493,11.493,0,0,1-.254-8.676c.667-1.843.222-3.411-1.3-3.983-4.883-1.822-9.809-1.345-14.693,0a2.267,2.267,0,0,0-1.695,2.33c.053,1.97.657,3.856.763,5.837a9.534,9.534,0,0,1-.731,4.841c-.286.572-.445.985,0,1.451.636.678.445,1.462.392,2.235-1.006,13.771-1.97,27.542-3.03,41.313-.244,3.114-.593,6.271-2.426,8.983-.636.953-1.419,1.822-1.981,2.818a28.855,28.855,0,0,0-3.4,14.957c.191,12.161.3,24.364.434,36.493h.064q.222,20.127.456,40.307c0,2.807,1.112,4.936,3.782,6a24.766,24.766,0,0,0,6.133,2.013c8.474.985,16.949.869,25.243-1.854,3.051-1,4.237-2.648,4.237-5.5-.254-20.127-.434-40.19-.773-60.285C177.148,230.929,177.656,223.514,176.978,216.1Zm-5-10.021c.286.678-.614.72-.784,1.165.35.36.72.169,1.059.212.731.1,1.377.212.593,1.186-.466.572-.36.636.487.636s1.059.434.689,1.123c-.159.36-.773.4-.678,1.059.614.424,2.754.371.646,1.79-.275.191-.233.551-.064.583,1.367.286,1.112.657.434,1.663s.9.6,1.2,1.144c.424.731-1.6.583-.508,1.451.265.2.667.191.593.689s-.551.636-.922.731c-1.2.3-2.288-.233-3.792-.434,1.059-.858,2.044-.434,2.691-1.059-.36-1.059-1.419-.551-1.992-1.059.424-.54,1.642.2,1.61-.922,0-1.642-1.737-.477-2.383-1.335.551-.636,1.419-.244,2.119-.667-.371-1.059-1.324-.837-2.119-.975-.318-.064-.6-.191-.583-.561,0-.127.18-.275.307-.371.392-.265,1.324.159,1.2-.689s-1.059-.445-1.536-.678a1.707,1.707,0,0,1-.318-.233c.222-.5,1.345-.2,1.059-1.059s-1.3-.424-1.854-.89c-.117-.71,1.059-.4.89-1.059s-.922-.318-1.4-.455c-.3-.1-.805.169-.784-.413s.371-.561.773-.583c.657,0,1.324-.127,1.981-.159.466-.159,1.091-.583,1.388.159Zm3.866,14.258c-1.239,1.282-2.521.593-3.686.614a6.61,6.61,0,0,1,3.686-.614Zm-5.3-15.826c-1.261.805-2.447.318-3.75.053a4.46,4.46,0,0,1,3.824-.117ZM166.7,187.836c.286,2.744.593,5.7.89,8.665,0,.318.456.678,0,.943a1.059,1.059,0,0,1-.858,0c-.413-.169-.265-.593-.3-.943a86.31,86.31,0,0,0-.9-8.909c-.106-.53-.434-1.059-.053-1.536.074-.1.455,0,.657,0,.816.275.826.869.636,1.727Zm-.434-6.123c-.148.953-.953.487-1.472.413-2.616-.4-5.3-.646-7.881-.975a12.8,12.8,0,0,0-7.013,1.059c-.5.222-1.218.826-1.61.2-.53-.826.328-1.218.922-1.642a9.078,9.078,0,0,1,5.3-1.758,97.709,97.709,0,0,1,10.741,1.07,1.218,1.218,0,0,1,1.059,1.578ZM149.32,138a1.515,1.515,0,0,1,1.25-.911c4.142-.434,8.294-.879,12.447-.074.9.18,1.97.328,2.119,1.822-1.811-1.367-2.606-.4-3.093,1.388-.307-.932.519-1.949-.614-2.468a.411.411,0,0,0-.275.159c-.413.625.191,1.96-.742,1.939s-.127-1.4-.794-2.066c-.318.318-.964.392-.53,1.144.307.519.434,1.059-.424,1.186-.614.074-1.2.117-1.282-.816,0-.36.392-1.292-.561-1.059s-.127.742,0,1.112c.138.54-.053.816-.593.847s-1.144.212-1.271-.593c-.064-.466-.085-.943-.127-1.441-.89.35-.89.35-.6,1.059.138.36.212.752-.222.922s-.879.169-1.059-.318a7.988,7.988,0,0,1-.212-1.059c-.085-.286-.18-.625-.614-.4s-.466.265-.18.657.72.985-.18,1.229-1.239-.148-1.388-.985c0-.307.445-1.335-.731-.752-.5.254-.36-.36-.275-.572Zm13.707,21.218a.54.54,0,0,1,.381-.816c.519-.18.593.328.614.636.064.72,0,1.43,0,2.119h0v1.621c0,.318.169.847-.4.742-.318,0-.858-.2-.625-.847a4.936,4.936,0,0,0,.032-3.453ZM149.5,150.739c1.78-1.441,12.521-1.716,14.576-.392a118.58,118.58,0,0,0-14.576.424Zm1.059-4.809c.487-.286,1.377,0,1.462-.816.1-1.059-1.218-.159-1.483-1.324a41.568,41.568,0,0,1,7.51-.487.625.625,0,0,1,.7.667c0,.36-.413.371-.7.4l-3.443.3c1.059.551,2.119,0,2.691.657.318.36,2.6-.191.763,1.441-.4.371.985.159.922,1.123-1.536.1-3.125.18-4.7.307a18.158,18.158,0,0,0-2.511.371c-.445.106-.911.572-1.123-.212s.487-.667.9-.816l.71-.265c-.752-.7-1.758,0-2.394-.625-.053-.466.339-.466.657-.689Zm-.254-3.866a13,13,0,0,1,7.616-.477Zm.3,22.161c.318,0,.593.064.614.508a2.119,2.119,0,0,1-1.621.932.371.371,0,0,1-.456-.424,1.271,1.271,0,0,1,1.419-.985Zm-.826,2.309c2.85-.477,2.553-.551,2.786-3.665.169-2.352-.593-4.8.53-7.066.35-.7-.244-1.292-.18-2.055.127-1.462.805-1.314,1.674-1.377a5.381,5.381,0,0,1,3.422.424c-.805.6-1.8.275-2.828.71,1.78.413,3.538-.233,5.434,1.218h-4.237c-.392,0-.752.148-.763.593s.508.413.805.424a8.273,8.273,0,0,1,4.407.953l-2.521.381-.064.307c.583.159,1.155.36,1.737.477s1.059.169.985.805-.667.339-1.059.381a36.444,36.444,0,0,0-3.686.561,36.018,36.018,0,0,1,3.739.455c.54.169,1.4,0,1.377.858s-.9.477-1.409.614a7.794,7.794,0,0,1-1.239.138L161.5,162.8c-2.119.339-3.856.1-6.006.89a23.452,23.452,0,0,1,4.979.328c.508.148,1.059.307.922.89s-.678.36-1.059.35a18.009,18.009,0,0,0-4.672.54,16.578,16.578,0,0,1,5.71,1.133,52.764,52.764,0,0,1-12.383.138.742.742,0,0,1,.742-.508Zm3.57,3.347a5.508,5.508,0,0,0,3.527-.053c2.362-.869,4.958-1.059,7.172-2.341.307-.18.72-.275.9.191a.625.625,0,0,1-.4.879c-.975.307-1.96.583-2.945.869a28.357,28.357,0,0,0-5.985,1.917,1.282,1.282,0,0,1-1.059.117c-1.822-1-3.941-1.218-5.731-2.341,1.6-.286,3.03.371,4.481.794Zm-5.2,3.178c1.059-.169,1.769-1.3,3.072-.869s.731,1.261.657,2.023,0,1.271,1.006,1.176c.117,0,1.229-.085.837.837.71-1,2.309-1.059,2.585-2.542.572.932-.286,1.441-.328,2.172.826-.159,1.695-1.208,2.415.106.455-1.059,1.409-.614,2.119-.551a18.465,18.465,0,0,0,4.587,0c.413,0,.964-.36,1.059.3s-.434.752-.858.975c-1.059.583-2.3.265-3.432.36a12.648,12.648,0,0,1-3.453-.657,5.064,5.064,0,0,1-4.7.159,4.237,4.237,0,0,1-4.163-.106h0c-.275.222-.583.53-.943.36s-.254-.593-.117-.932c.318-.773,1.144-1.61-.381-2.066-.254-.074-.18-.71,0-.731Zm-.424,24.5a5.53,5.53,0,0,1,3.008-1.674c-1.25-.561-2.034,0-2.892-.085.106-.975,1.208-.879,1.536-1.547-.487-.678-1.758.413-1.758-.466,0-1.059,1.589-.805,2.246-1.61-.6-.561-1.367.169-2.044-.3.212-.858,1.059-.763,1.642-1.059.35-.18.985-.085.858-.7s-.689-.307-1.059-.339-.837.159-1.292-.159c.35-1.144,1.716-.7,2.256-1.472.085-.286-.148-.265-.307-.307-.636-.2-1.695.583-1.886-.286-.233-1.059,1.059-.879,1.684-1.186.307-.148.816-.191.752-.636-.127-.9-.943.074-1.377-.508,2.426-1.059,4.788-2.225,7.574-2.119a22.037,22.037,0,0,0-2.362-.244c-.89,0-1.79.127-2.691.2V182.6c3.294-1.335,6.6-.2,10.116-.074-.519.847-1.25.71-1.928,1.155,1.208.519,2.436.508,3.379,1.261-.413.975-1.5,0-2,.657.392.9,2.225.244,1.939,1.292-.222.826-1.748.169-2.606.646l3.273,1.123v.328H159.3a26.241,26.241,0,0,0,4.333,2.119l-5.222.064c1.981.689,4.015.614,5.911,1.5-1.261,0-2.521,0-3.782.064-.636,0-1.769-.371-1.79.519s1.059.4,1.684.477a12.129,12.129,0,0,1,4.078.953c-1.96.445-3.972,0-5.89.636,2.119.508,4.354.4,6.356,1.833a51.513,51.513,0,0,0-8.6.17c2.691.943,5.71,0,8.326,1.494h-3.718c-.339,0-.816,0-.847.5s.445.456.794.53c.667.159,1.451-.064,2.119.773-5.3.6-10.371.265-15.625.752a2.913,2.913,0,0,1,1.864-1.059c.487-.169.932-.413.784-1.059s-.689-.286-1.059-.318c-.752-.064-1.483.445-2.436.106,1.059-.805,2.32-.879,3.5-1.388-.858-.286-1.6.244-2.394-.085Zm10.381,7.415-10.974.127a28.537,28.537,0,0,1,10.932-.1Zm-8.739-1.843c2.712-.085,5.424-.932,8.178-.2C154.786,203.631,152.053,203.323,149.362,203.133Zm-8.888,11.239c1.324-.487,2.659,0,3.909-.583-.943-.837-2.521-.222-2.892-1.684.646-.614,1.642,0,2.415-.667l-2.034-.689c1.059-1.271,3.019.159,3.718-1.525-.9-.477-2.013.138-2.839-.763,1.483-.794,3.114-.138,4.862-.7l-2.532-.614c7.235-1.695,12.955-1.758,15.063-.1l-4.64.625c2.214.593,4.491.3,6.674,1.059-1.981.636-4.142.275-6.186,1.5l8.114.4c-1.208.805-2.659.466-4.237,1.25,1.716.477,3.273.339,5.053,1.155l-8.835.805v.371l9.756.561c-2.733.064-5.212,1.515-7.924,1.5,2.68.625,5.424.286,8.135.689-3.453.932-7.023.561-10.593.911,3.58,1.059,7.341.2,10.985.975-1.716,1.165-3.708.657-5.551.9s-3.8-.244-6.027.826c3.422.5,6.419-.212,9.385.4-3.729,1.43-7.881.275-11.578,2.055l14.131-.159v.466c-4.746.953-9.65.381-14.4,1.409a57.551,57.551,0,0,0,10.466.117c.784,0,1.578-.106,2.362-.085.434,0,1.133-.222,1.208.434s-.689.487-1.059.53a115.259,115.259,0,0,1-15.773.445c-3.019-.106-5.847-1.059-8.782-1.642l5.381-.064v-.18c-1.525-.275-3.051-.54-4.576-.837-.572-.117-1.515-.2-1.356-.879s1.144-.434,1.674-.244a3.888,3.888,0,0,0,2.691.17c-1.419-1.4-3.559-.551-4.926-2.119,1.515-.339,2.977-.074,4.354-.773a8.93,8.93,0,0,1-4.311-1.324c1.568-.636,3.178,0,4.714-.763-1.674-.519-3.294-.138-5.1-1.112l5.89-.434c-1.589-1.261-3.517-.233-4.852-1.631Zm25.794,12.849a9.089,9.089,0,0,1-4.343.381,6.981,6.981,0,0,1,4.29-.381Zm-6.96.392c-4.968.731-9.894,0-14.83-.614,4.883.127,9.83.572,14.777.614Zm15.021,0c.064,1.144-1.059,1.059-1.536,1.547.328.614,1.059-.074,1.472.561a99.383,99.383,0,0,1-33.739-.275l1.239-.159c-.847-.53-1.684-1.006-2.627-1.515,11.737,2.1,23.453,2.977,35.137-.127Zm-2.044,23.739c-1.557-.53-3.051-1.261-4.682-1.674a8.263,8.263,0,0,1,4.82.869c1.367.657,2.013.392,2.68-.71.159-.265.275-.551.413-.826l.4.36c-1.038,2.744-1.133,2.871-3.686,2.013Zm.413,1.059a14.511,14.511,0,0,1-3.623,1.059.742.742,0,0,1-.879-.7c0-.561.508-.381.805-.381,1.08.042,2.235-.742,3.665.064Zm-.286-2.606c-1.4-.36-2.8-.71-4.237-1.059-.466-.117-1.059-.1-1.059-.773s-.392-1.43.371-1.811c1.8-.879,2.966-2.564,4.714-3.517,2.119-1.112,3.75-.244,3.824,2.119v.72h.053a11.4,11.4,0,0,1-.159,2.341,2.913,2.913,0,0,1-3.559,2.023Zm-11.43-3.612c2.447,1.515,2.521,3.7.18,5.4a17.2,17.2,0,0,0-2.288,2.458c.826.551.381,1.059-.159,1.345-.922.4-1.939.583-2.627-.572.763-.477,1.864.784,2.362-.551-1.61.18-2.574-.794-3.39-1.949a11.928,11.928,0,0,1-.847-1.684l-.2.689c-.784-.339-1-1.176-1.472-1.758-.89-1.059.2-1.875.636-2.722.138-.265.318-1.123.943-.35a.455.455,0,0,1,0,.18c.265-.667.477-1.356.794-2a2.733,2.733,0,0,1,2.479-1.811,2.85,2.85,0,0,1,2.564,1.727,9.449,9.449,0,0,1,.805,6.049c2.182-1.292.657-2.828.169-4.407Zm2.415-.2c-.487-.943-.763-2.119-1.811-2.7-.318-.169-.731-.381-.445-.794s.784-.169,1.123.074a7.108,7.108,0,0,1,2.436,4.682,7.828,7.828,0,0,1-1.059,6.229,2.458,2.458,0,0,0-.36,1.314c-1.059.138-1.557,1.515-2.9,1.2.212-1.155,1.218-1.695,1.854-2.362a7.574,7.574,0,0,0,1.112-7.6Zm-12.2,3.432c.074,2.712,1.875,4.64,3.676,6.494-3.178-1.059-4.8-4.534-4.29-8.623.339-2.754,1.727-4.6,3.856-4.873a8.051,8.051,0,0,0-3.294,7.044Zm2.214,6.61a7.659,7.659,0,0,0,9.841-1.2h0c2.235-2.881,2.458-6.1,1.419-9.671,1.642,1.345,1.78,4.777.678,7.849a8.824,8.824,0,0,1-8.231,5.847c-3.8-.212-7.023-3.517-7.945-7.3-.794-3.263.339-7.341,2.246-8.474-2.267,6.377-1.61,10.752,1.939,12.987Zm-1.441-14.83a34.1,34.1,0,0,0-5.466,1.737c-1.059.381-1.568.148-1.748-.985s-.466-2-.7-3c-.636-2.775-.127-3.655,2.691-4.343,1.642-.392,3.305-.7,4.979-.943a37.15,37.15,0,0,1,5.466-.5,45.55,45.55,0,0,1,11.652,1.133c2.511.6,2.828,1.133,2.489,3.612-.18,1.314-.392,2.627-.53,3.951s-.593,1.515-1.79,1.059a30.317,30.317,0,0,0-17.1-1.674Zm-4.725,8.083c-1.695.6-3.443,1.059-5.169,1.578-.53.159-.879-.265-1.324-.4-1.695-1.833-1.059-4.11-1.144-6.25,0-.975,2.066-1.97,2.945-1.419,1.727,1.059,3.422,2.193,5.053,3.4C148.409,246.819,148.144,248.937,147.244,249.287Zm.307.678c-1.981.858-3.792,2.225-6.027,2.277-1.176,0-1.4-1.239-1.864-2.119.583-.233.689.445,1.059.413.286,1.5,1.282,1.621,2.3.847,1.367-1.049,2.987-1.038,4.513-1.388ZM143.557,263c-1.409.911-2.553-.159-3.814-.434,1.3-.371,2.479.6,3.792.434Zm-.191-23.231c.085.985.636,1.917.18,2.966a27.807,27.807,0,0,1-1.462-6.589c-.053-.328.286-.773.519-1.059s.508-.424.773-.159a.71.71,0,0,1,0,.646c-1.377,1.356-.148,2.765-.032,4.195Zm-3.464-8.347c2.458,0,4.661,1.261,7.1,1.366-2.532.254-4.979.254-7.119-1.366ZM171.47,242.02l.985-6.261.646.085a43.429,43.429,0,0,1-.858,6.282Zm-3.538-9.046c2.383-.752,4.894-.742,7.256-1.483a12.309,12.309,0,0,1-7.277,1.441Zm-28.1,41.768c1.864-.445,3.591.519,5.424-.148a19.418,19.418,0,0,1-5.54-2.119c1.864-.159,3.326.5,5.042-.053l-4-1.123c-.477-.138-1.059-.318-.879-.932s.742-.413,1.208-.413a11.876,11.876,0,0,0,3.326,0c-1.653-.784-3.411-.477-4.534-1.78,1.409.159,2.818.339,4.237.466.18,0,3.75.053,4.788-.858a1.356,1.356,0,0,0,.583.265c.847.2.593-.434.593-.434a4.237,4.237,0,0,1-.138-1.388c.117-.434.487,0,.487,0a8.474,8.474,0,0,1,1.059,1.165c.36.53,1.441.191,1.674,0s.36-.212.614,0a1.176,1.176,0,0,0,1.483,0c.2-.159.328-.138.667.148a1.832,1.832,0,0,0,1.79-.233c.191-.222.477,0,.477,0a1.25,1.25,0,0,0,1.324-.127c.35-.3.7-1.4.593-.54s0,1.059.614,1.059.466-1.059.455-1.388.244-.371.244-.117a1.356,1.356,0,0,0,.339.837.636.636,0,0,0,.985.117c.244-.222.487.1.487.1.244.424,1.2.307,1.557,0a4.438,4.438,0,0,0,.826-1.176c.233-.434.36-.117.36-.117a.731.731,0,0,1-.117.646,5.541,5.541,0,0,0-.826,1.4.54.54,0,0,0,.371.741c.36.1.477-.328.477-.328a4.967,4.967,0,0,1,.466-.964c.2-.275.233-.318.752-.074,0,.1,0,.159.053.169h.222a1.324,1.324,0,0,0,1.112-.064,7.1,7.1,0,0,1,1.314,0,3.4,3.4,0,0,0,1.314.159c1.653-.222,2.627-1.547,4.131-1.727.222,0,.434-.222.869.191-1.314,1.981-3.739,1.949-5.487,3.178l5.053-.911c-1.314,1.123-3.178,1.186-4.5,2.627a11.291,11.291,0,0,0,3.633-.508c.413-.085,1.059-.487,1.208.254s-.445.794-.89.943c-1.059.328-2.055.614-3.464,1.059,1.621.339,2.733-.328,4.068-.3-1.059,1.695-3.04,1.684-4.65,2.7,1.8.191,3.284-.689,4.83-.657l.169.519-6.568,2.7a13.867,13.867,0,0,0,5.477-.964c.392-.169.731-.879,1.059,0a.9.9,0,0,1-.7,1.366c-1.5.392-2.977.858-4.883,1.409,2.309,1.218,3.655-1.059,5.688-.561-1.483,1.97-4.1,1.547-5.773,3.125,2.119,0,3.845-.678,5.752-.794a9.957,9.957,0,0,1-4.322,2.235,87.277,87.277,0,0,1-24.576.773c-1.451-.18-3.241.318-4.131-1.695-.212-.487-1.494-.508-2.214-1.133l7.267.837c-2.712-.752-5.477-1.25-7.924-2.691,1.4-.5,2.765.191,4.47-.4l-4.237-1.578.074-.413,4.756.392C143.992,275.547,141.259,276.712,139.829,274.742Zm5.519-9.417c.551-.71,1.992.826.89.636a2.426,2.426,0,0,1-.869-.2c-.18-.085-.244-.222-.064-.434Zm8.411-1.441a4.237,4.237,0,0,1,.392-.9c.138-.117.222-.138.233.117a5.922,5.922,0,0,1-.625,2.564c-.307.222-.233-1.091-.042-1.78Zm2.225,1.144a.784.784,0,0,1,.222-.381.145.145,0,0,1,.222.159c-.032.159-.244,1.186-.487,1.208s-.117-.646,0-.985Zm2.4-.275a.6.6,0,0,1,.212-.222.135.135,0,0,1,.2.159c-.032.159-.35,1.186-.583,1.208s-.064-.805.127-1.144Zm5.3-.18a1.249,1.249,0,0,1,.286-.339c.117-.053.244,0,.212.138-.064.381-.36,1.282-.636,1.314s-.2-.614.1-1.112Zm-23.135,22.574a.54.54,0,0,1-.148-.794c.138-.265.392-.2.636-.169.455,0,.932,1.059,1.282.244s-1-.583-1.43-1.642a72.827,72.827,0,0,0,35.095-.392c-1.059,1.377-2.945,1.282-4.237,2.669,1.451.2,2.648-.466,4.015-.244a20.859,20.859,0,0,1-2.182.7,80.973,80.973,0,0,1-31.779.074,4.628,4.628,0,0,1-1.292-.445Zm9.47,17.182c4.386-.106,8.771.275,13.178-.127a26.684,26.684,0,0,1-13.22.127Zm16.25-6.356c-2.436,1.5-4.852,1.4-7.246,1.61a46.816,46.816,0,0,0,6.229.636c-2.182.975-4.566,1.059-6.864,1.695l5.922-.064v.678a40.465,40.465,0,0,1-21-1.356,50.511,50.511,0,0,0,7.606.191L143.5,299.89c1.684-.625,3.347.254,5.159-.212-1.9-1.907-4.756-1.356-6.949-3.083,2.2.1,4.025.9,5.953.519a18.866,18.866,0,0,1-6.6-2.733c2.373.5,4.333,1.165,6.589.932-1.9-1.208-4.237-1.059-5.858-2.532,2.119-.074,4.025,1.282,6.218.752-.508-1.239-1.78-1.155-2.754-1.536a33.161,33.161,0,0,1-3.125-1.2c2.352,0,4.64.657,7.129.392-1.9-1.059-4.237-.434-5.773-2.246,7.087,2.288,14.332,1.674,21.567,1.409-1.578.816-3.422.477-4.979,1.483l5.72-.064c-1.43,1.79-3.369,1.631-5.18,1.907,1.907.71,3.888.307,5.858.89l-7.818.922c1.568.975,2.924.7,4.237.689h4.311a25.114,25.114,0,0,1-6.2,1.483,19.779,19.779,0,0,0,5.212.36Zm4.8,3.39,5.1-1.441c-.7,1.059-2.436,1.589-5.138,1.494Zm5.169-6.663c-.89.551-1.366.794-.085,1.631.583.392-.975.646-.985,1.419.148.6,1.165-.36,1.165.561s-.689.858-1.261,1.059a6.112,6.112,0,0,1-3.443.148l2.765-1.441c-.657-.911-1.716-.169-2.447-.837.5-.18.89-.275,1.239-.445s.975-.169.943-.7-.583-.424-.985-.381c-.244,0-.519.053-.625-.233a.466.466,0,0,1,.286-.583c.54-.275,1.621-.127,1.409-1.059-.265-1.144-1.388.1-2.119-.54.763-.445,1.9-.54,2.044-1.462.1-.583-.847-.106-1.186-.487.053-.35.381-.392.625-.53a3.867,3.867,0,0,1,2.511-.7c-.742.911,1.144,1.991-.212,2.892-.487.328-.191.54.233.71a.53.53,0,0,1,.085,1.027Zm-5.583-32.341a14.672,14.672,0,0,0,4.481-.678c.328-.074.742-.35.943.127s-.265.678-.572.763c-1.568.456-2.6,2.119-4.523,1.917a1.79,1.79,0,0,0-1.059.487c-.36.286-.731.636-1.059.869-.636-.445-.847.424-1.059.636l-.3-.148c-.36-.212,0-.636,0-.636s1.059-1.409,1.3-1.621.477-.434.106-.752-.7,0-1.059.275a6.567,6.567,0,0,0-.847,1.133c-.233.328-.244.117-.244.117v-.964c0-.53-.72-.413-.953.328a12.458,12.458,0,0,1-1.176,2.119c-.117.212-.477.328-.593.117s.35-.561.583-1a2.045,2.045,0,0,0,.222-1.684c-.148-.307-.6-.636-.964-.413a2.119,2.119,0,0,0-.922,1.25,2.828,2.828,0,0,0,.106,1.811s-.466.148-.71-.053,0-1.059,0-1.494,0-.752-.487-.742-.71.964-.826,1.176-.127,0-.127,0l.117-.847s.106-.646-.371-.53-.466.858-.583,1.282a3.74,3.74,0,0,1-.71,1.059s-.477.434-.593.222.212-.487.328-.7a3.369,3.369,0,0,0,.36-1.557.614.614,0,0,0-.6-.667s-.593-.085-.953.689a3.316,3.316,0,0,0-.328,2.034h0a.371.371,0,0,1-.265.456,1.589,1.589,0,0,1-.816.074c-.508-.138,0-.53.233-.742a1.621,1.621,0,0,0,.466-1.186c0-.53-.127-.953-.487-1.059a1.144,1.144,0,0,0-1.2.657,5.932,5.932,0,0,0-.339,1.811c0,.328-.593.222-.593.222s-.286-.1-.169-.307a5.3,5.3,0,0,0,.508-1.059,11.769,11.769,0,0,0,.275-2.447c0-.424-.381-1.441-1.144-.742a4.152,4.152,0,0,0-1.176,2.574,2.172,2.172,0,0,0,.265,1.811s-.36.53-.837.328a1.684,1.684,0,0,1-.975-1.377c-.127-.741.932-1.928,1.409-2.362s.36-.54.117-.752-.6-.2-1.2.339a10.372,10.372,0,0,0-1.292,2.034c-.244.328-.36,0-.36,0s.1-1.388.1-1.811-.127-.54-.731-.53-.593.328-.593.328V265.2a15.561,15.561,0,0,0-3.676-4.481,1.059,1.059,0,0,1-.975.964,4,4,0,0,1-1.419,0c-.646-.138-1.684,0-1.61-1.006s1.059-.614,1.61-.678.932.138,1.006,0l.117-.159a4,4,0,0,0-2.383-.879,1.621,1.621,0,0,1-1.451-.54c.064-.117.1-.254.169-.286.763-.328,2.119.4,2.267-.455.212-1.3-1.79-.53-2.235-1.737.847-.5,1.854.138,2.7-.265-.138-.36-.508-.254-.752-.381-.5-.275-1.451-.085-1.43-.847,0-.953,1.218-.244,1.388-.561.847-1.621,2.606-1.271,3.877-1.949a16.69,16.69,0,0,1,2.521-.784,10.985,10.985,0,0,0-1.727,4,2.362,2.362,0,0,0-.18.869c.117.667,3.6,2.182,4.068,1.695s.678-.254,1.112,0c4.237,2.8,8.008,2.627,12.14-.487a1.874,1.874,0,0,1,.413-.275c1.578,1.631,2.479-.5,3.729-.667.964-.138,1.218-.71.763-1.557s-.328-1.218.72-1.059a12.9,12.9,0,0,0,4.311-.5c.487-.106.985-.265,1.144.434s-.381.667-.752.826l-2.7,1.144c1.864.36,3.083-.583,4.672-.466-1.78,1.472-4.047,1.388-5.646,2.881,1.621-.053,3.178.064,4.513-.964.275-.222.7-.445.964-.085s-.138.742-.487.953c-1.239.72-2.775.72-4.237,1.79,1.917.265,3.326-.561,5.191-.71-1.727,2.341-3.962,2.352-5.9,3.432Zm4.788-39.088a12.415,12.415,0,0,1-3.845-.17c1.409-.911,2.8-.381,3.888-1.059a.974.974,0,0,1,.466.434c.127.53-.106.752-.551.847Z" transform="translate(-31.271 -120.729)"/><path class="i" d="M155.824,245.346a1.367,1.367,0,0,1,1.324-1.61,1.833,1.833,0,0,1,1.939,1.059,8.189,8.189,0,0,1,.583,6.642,2.256,2.256,0,0,1-1.917,1.706,1.96,1.96,0,0,1-2.119-1.419c-.741-2.119-1.536-4.333.233-6.356a7.86,7.86,0,0,0,0,5.964,1.78,1.78,0,0,0,1.758,1.292,1.652,1.652,0,0,0,1.642-1.409,7.341,7.341,0,0,0-.254-5.3C157.974,243.641,157.434,243.524,155.824,245.346Z" transform="translate(-31.271 -120.729)"/><path class="i" d="M154.2,250.738c-1.5-1.335-1.144-2.7,0-4.068C154.161,248.026,154.182,249.382,154.2,250.738Z" transform="translate(-31.271 -120.729)"/><path class="i" d="M157.328,249.287c.413-.191.339-.455.381-.667.127-.551-.5-1.578.6-1.515s.572,1.165.742,1.78c.254.869-.381,1.218-1.165,1s-1.547.508-1.843-.561a2.034,2.034,0,0,1,.307-2.044c.763-.625.773.222.816.742S157.01,248.842,157.328,249.287Z" transform="translate(-31.271 -120.729)"/><path class="j" d="M645.965,53.5H444.771L520.056,1.917,701.674,0Z"/><path class="k" d="M520.014,1.917,519.675,53.5H444.729Z"/><path class="l" d="M560.373,131.6l-1.854,57.478a15.55,15.55,0,0,1-5.922,8.474c-4.767,3.294-4.481,11.26-4.481,11.26v14.3l41.154,6.589V211.342s.847-5.5-5.879-12.1-9.809-67.647-9.809-67.647Z" transform="translate(-31.271 -120.729)"/><path class="l" d="M602.089,131.6l-1.854,57.478a15.55,15.55,0,0,1-5.922,8.474c-4.767,3.294-4.481,11.26-4.481,11.26v14.3l41.154,6.589V211.342s.847-5.5-5.879-12.1S615.3,131.6,615.3,131.6Z" transform="translate(-31.271 -120.729)"/><path class="l" d="M645.658,130.591,643.8,188.069a15.509,15.509,0,0,1-5.922,8.474c-4.767,3.294-4.481,11.271-4.481,11.271V222.1l41.165,6.6V210.325s.847-5.5-5.879-12.087-9.8-67.647-9.8-67.647Z" transform="translate(-31.271 -120.729)"/><path class="l" d="M688.55,129.426,686.7,186.894a15.551,15.551,0,0,1-5.922,8.474c-4.767,3.294-4.481,11.271-4.481,11.271v14.29l41.154,6.6V209.16s.847-5.5-5.879-12.1-9.809-67.637-9.809-67.637Z" transform="translate(-31.271 -120.729)"/><path class="l" d="M546.369,142.6l-1.886,57.478a15.508,15.508,0,0,1-5.922,8.474c-4.767,3.305-4.481,11.271-4.481,11.271v14.29l41.154,6.6V222.349s.847-5.5-5.879-12.1-9.809-67.647-9.809-67.647Z" transform="translate(-31.271 -120.729)"/><path class="l" d="M587.587,142.6l-1.854,57.478a15.508,15.508,0,0,1-5.922,8.474c-4.756,3.305-4.481,11.271-4.481,11.271v14.29l41.186,6.642V222.349s.847-5.5-5.879-12.1-9.809-67.647-9.809-67.647Z" transform="translate(-31.271 -120.729)"/><path class="l" d="M632.025,142.6l-1.854,57.478a15.561,15.561,0,0,1-5.932,8.474c-4.756,3.305-4.481,11.271-4.481,11.271v14.29l41.154,6.6V222.349s.847-5.5-5.879-12.1-9.809-67.647-9.809-67.647Z" transform="translate(-31.271 -120.729)"/><path class="l" d="M673.8,141.947l-1.854,57.478a15.5,15.5,0,0,1-5.932,8.474c-4.756,3.294-4.481,11.271-4.481,11.271v14.29l41.165,6.6V221.724s.837-5.5-5.879-12.087-9.82-67.69-9.82-67.69Z" transform="translate(-31.271 -120.729)"/><path class="l" d="M531.867,157.572l-1.854,57.467a15.508,15.508,0,0,1-5.922,8.474c-4.756,3.305-4.481,11.271-4.481,11.271v14.29l41.154,6.6v-18.39s.847-5.5-5.879-12.1-9.809-67.647-9.809-67.647Z" transform="translate(-31.271 -120.729)"/><path class="l" d="M574.42,157.572l-1.854,57.467a15.508,15.508,0,0,1-5.922,8.474c-4.767,3.305-4.481,11.271-4.481,11.271v14.29l41.165,6.6v-18.39s.847-5.5-5.879-12.1-9.809-67.647-9.809-67.647Z" transform="translate(-31.271 -120.729)"/><path class="l" d="M617.809,157.572l-1.854,57.467a15.561,15.561,0,0,1-5.932,8.474c-4.756,3.305-4.481,11.271-4.481,11.271v14.29l41.165,6.6v-18.39s.837-5.5-5.89-12.1-9.809-67.647-9.809-67.647Z" transform="translate(-31.271 -120.729)"/><path class="l" d="M659.3,157.572l-1.854,57.467a15.5,15.5,0,0,1-5.932,8.474c-4.756,3.305-4.47,11.271-4.47,11.271v14.29l41.165,6.6v-18.39s.837-5.5-5.879-12.1-9.82-67.647-9.82-67.647Z" transform="translate(-31.271 -120.729)"/><path class="l" d="M517.376,171.226,515.522,228.7a15.561,15.561,0,0,1-5.932,8.474c-4.756,3.294-4.481,11.271-4.481,11.271v14.29l41.165,6.6V250.96s.837-5.5-5.89-12.087-9.809-67.647-9.809-67.647Z" transform="translate(-31.271 -120.729)"/><path class="l" d="M559.918,171.226,558.064,228.7a15.509,15.509,0,0,1-5.922,8.474c-4.767,3.294-4.481,11.271-4.481,11.271v14.29l41.154,6.6V250.96s.847-5.5-5.879-12.087-9.852-67.647-9.852-67.647Z" transform="translate(-31.271 -120.729)"/><path class="l" d="M603.307,171.226,601.453,228.7a15.561,15.561,0,0,1-5.932,8.474c-4.756,3.294-4.481,11.271-4.481,11.271v14.29l41.165,6.6V250.96s.837-5.5-5.879-12.087-9.809-67.647-9.809-67.647Z" transform="translate(-31.271 -120.729)"/><path class="l" d="M645.658,171.226,643.8,228.7a15.509,15.509,0,0,1-5.922,8.474c-4.767,3.294-4.481,11.271-4.481,11.271v14.29l41.165,6.6V250.96s.847-5.5-5.879-12.087-9.8-67.647-9.8-67.647Z" transform="translate(-31.271 -120.729)"/><path class="k" d="M702.638,118.229l-57.976,64.289,1.261-129.013L701.674,0Z"/><path class="m" d="M444.729,182.508H644.673L645.923,53.5H444.729Z"/><ellipse class="n" cx="7.595" cy="3.496" rx="7.595" ry="3.496" transform="translate(528.192 6.366)"/><ellipse class="n" cx="7.595" cy="3.496" rx="7.595" ry="3.496" transform="translate(569.632 6.366)"/><ellipse class="n" cx="7.595" cy="3.496" rx="7.595" ry="3.496" transform="translate(613.476 5.191)"/><ellipse class="n" cx="7.595" cy="3.496" rx="7.595" ry="3.496" transform="translate(656.283 5.191)"/><ellipse class="n" cx="7.595" cy="3.496" rx="7.595" ry="3.496" transform="translate(513.955 18.676)"/><ellipse class="n" cx="7.595" cy="3.496" rx="7.595" ry="3.496" transform="translate(498.764 33.135)"/><ellipse class="n" cx="7.595" cy="3.496" rx="7.595" ry="3.496" transform="translate(542.174 32.976)"/><ellipse class="n" cx="7.595" cy="3.496" rx="7.595" ry="3.496" transform="translate(585.256 32.976)"/><ellipse class="n" cx="7.595" cy="3.496" rx="7.595" ry="3.496" transform="translate(626.771 32.976)"/><ellipse class="n" cx="7.595" cy="3.496" rx="7.595" ry="3.496" transform="translate(613.243 47.001)"/><ellipse class="n" cx="7.595" cy="3.496" rx="7.595" ry="3.496" transform="translate(570.871 47.001)"/><ellipse class="n" cx="7.595" cy="3.496" rx="7.595" ry="3.496" transform="translate(527.429 47.001)"/><ellipse class="n" cx="7.595" cy="3.496" rx="7.595" ry="3.496" transform="translate(484.527 47.001)"/><ellipse class="n" cx="7.595" cy="3.496" rx="7.595" ry="3.496" transform="translate(554.929 18.676)"/><ellipse class="n" cx="7.595" cy="3.496" rx="7.595" ry="3.496" transform="translate(599.504 18.379)"/><ellipse class="n" cx="7.595" cy="3.496" rx="7.595" ry="3.496" transform="translate(641.124 17.892)"/><path class="o" d="M701.674,0l3.58,49.025-56.239,61.027-3.093-56.482Z"/><path class="p" d="M444.824,53.5l-5.974,56.387,5.974-7.924Z"/><path class="q" d="M539.4,120.136,495.343,101.1l-30.487,55.275,67.764-16.313L595.3,158.186,625.8,101.1Z"/><path class="i" d="M642.671,251.818c-2.172-.646-3.623,2.564-6.515,4.5s-5.773.636-7.945-.646,0-3.856,0-3.856,6.5-8.369,7.945-9.65,2.892-2.574.731-4.5-4.237-.381-6.356,1.547-3.739,4.883-5.18,6.811-1.451.646-1.451.646v-5.784c0-3.178-4.333-2.574-5.773,1.928s-6.515,11.568-7.235,12.86-2.892,1.928-3.612.646,2.119-3.369,3.623-5.943,2.839-7.076,1.441-10.138c-.858-1.875-3.623-3.856-5.784-2.574s-3.591,2.691-5.657,7.479c-1.981,4.587.5,10.921.5,10.921s-2.8.89-4.237-.392,0-6.43,0-9,0-4.5-2.892-4.5-4.343,5.784-5.063,7.076-.72,0-.72,0l.72-5.148s.72-3.856-2.172-3.178-2.892,5.138-3.612,7.712-4.333,6.43-4.333,6.43-2.892,2.574-3.612,1.292,1.314-2.913,2.034-4.237a20.127,20.127,0,0,0,2.3-9.311,3.761,3.761,0,0,0-3.623-4.089s-3.549-.53-5.773,4.089-2.955,9.661-2.172,12.214v.053a2.267,2.267,0,0,1-1.589,2.786,10.529,10.529,0,0,1-4.936.381c-3.093-.858,0-3.178,1.451-4.5a9.725,9.725,0,0,0,2.892-7.076c0-3.178-.731-5.784-2.892-6.43s-5.89.869-7.235,3.856a35.435,35.435,0,0,0-2.119,10.932c0,1.928-3.623,1.292-3.623,1.292s-1.727-.6-1.059-1.9a30.485,30.485,0,0,0,3.178-6.472c1.176-3.475,1.811-12.15,1.811-14.714s-2.2-8.739-6.875-4.576c-3.57,3.178-5.773,7.722-7.224,15.434s1.451,10.932,1.451,10.932-2.172,3.178-5.063,1.928-5.064-3.856-5.784-8.358,5.784-11.578,8.676-14.152,2.172-3.178.72-4.5-3.612-1.282-7.224,1.939-6.5,10.286-7.955,12.214-2.119,0-2.119,0,.731-8.358.731-10.932-.731-3.178-4.343-3.178-3.612,1.939-3.612,1.939V259.53c0,1.928-.72,3.856,4.333,5.148s3.623-2.574,3.623-2.574-1.451-5.784-.731-8.358,2.892,0,2.892,0a47.8,47.8,0,0,1,6.5,7.076c2.172,3.178,8.676,1.282,10.127,0s2.182-1.292,3.665,0a7.161,7.161,0,0,0,8.962.307c1.229-.985,2-.837,3.994.932,2.172,1.928,9.28.551,10.847-1.282,1.155-1.366,2.892,0,2.892,0,2.892,1.928,6.727.35,7.945-.646,2.119-1.758,4.343-8.358,3.612-3.178s0,6.43,3.623,6.43,2.892-6.43,2.892-8.358,1.462-2.172,1.441-.646a8.177,8.177,0,0,0,1.97,5.063c2.172,2.574,4.534,2.013,5.985.731s2.892.646,2.892.646c1.441,2.564,7.224,1.928,9.4,0a26.547,26.547,0,0,0,5.053-7.076c1.451-2.574,2.172-.646,2.172-.646s.72,2.574-.72,3.856-4.343,6.43-5.064,8.368a3.178,3.178,0,0,0,2.172,4.491c2.119.646,2.892-1.928,2.892-1.928a29.66,29.66,0,0,1,2.892-5.784c1.441-1.928,1.441-1.928,6.5.646s11.568-3.178,13.008-4.5S644.832,252.454,642.671,251.818Zm-96.884-1.441c-1.6,1.186-1.059-6.6.18-10.741.275-.922,1.674-4.693,2.426-5.371s1.345-.826,1.345.731C549.78,238.853,547.662,248.937,545.787,250.378Zm13.167,2.278c-1.271.117-.424-3.909.307-5.943a5.137,5.137,0,0,1,1.409-2.309c.562-.371,1.5-.233,1.3.953C561.623,247.348,560.373,252.518,558.954,252.655Zm13.707-.53c-1.261.117,0-4.9,1.133-6.928a3.591,3.591,0,0,1,1.3-1.314c.593-.307,1.409-.244,1.2.953-.339,1.981-2.15,7.15-3.633,7.277Zm32.2-.964c-1.472.138-.964-3.7.9-6.642a6.548,6.548,0,0,1,1.727-2.023c.7-.36,1.494-.191,1.3.805C608.349,245.611,606.517,250.992,604.864,251.162Z" transform="translate(-31.271 -120.729)"/><ellipse class="r" cx="0.784" cy="0.466" rx="0.784" ry="0.466" transform="translate(530.227 105.338) rotate(-35.76)"/><ellipse class="r" cx="0.782" cy="0.465" rx="0.782" ry="0.465" transform="translate(534.085 103.401) rotate(-15.709)"/><ellipse class="r" cx="0.784" cy="0.466" rx="0.784" ry="0.466" transform="translate(541.02 100.888)"/><ellipse class="r" cx="0.466" cy="0.784" rx="0.466" ry="0.784" transform="matrix(0.213, -0.977, 0.977, 0.213, 545.654, 103.093)"/><ellipse class="r" cx="0.466" cy="0.784" rx="0.466" ry="0.784" transform="matrix(0.5, -0.866, 0.866, 0.5, 551.471, 105.203)"/><path class="r" d="M531.624,107.085v.657l3.39,6.642.275-.169Z"/><path class="r" d="M532.1,106.513l.434.1,3.316,7.341-.339.148Z"/><path class="r" d="M533.88,108.452l.466.159,2.013,5.106-.36.148Z"/><path class="r" d="M534.081,105.369l-.2.371,2.765,7.871.36-.127Z"/><path class="r" d="M535.543,107.774l.413.244,1.621,5.275-.339.106Z"/><path class="r" d="M536.444,106.746l-.3.445,1.663,6.038.371-.106Z"/><path class="r" d="M537.005,104.607l-.318.466,1.737,7.987.392-.085Z"/><path class="r" d="M537.577,104.49l.466.339,1.356,8.04-.371.064Z"/><path class="r" d="M538.9,106.831h0l.71,6.006.36-.042-.816-6.282Z"/><path class="r" d="M539.855,107.89l.36,4.873.328-.021-.254-4.64Z"/><path class="r" d="M540.458,103.1l.424.371.35,9.248-.392.011Z"/><path class="r" d="M541.454,102.52l.339.36.074,9.862-.413-.021Z"/><path class="r" d="M542.895,103.208l-.424.35-.35,9.195.392.032Z"/><path class="r" d="M543.488,107.922l-.392.212-.371,4.682.381.042Z"/><path class="r" d="M544.2,106.513l.318.307-.784,6.133-.424-.064Z"/><path class="r" d="M545.723,104.49l-.477.4-1.26,8.1.3.064Z"/><path class="r" d="M546.391,104.607l.275.455L545,113.229l-.487-.117Z"/><path class="r" d="M546.857,106.672l-1.684,6.6.424.106,1.557-6.218Z"/><path class="r" d="M547.778,107.774l-.434.328-1.578,5.328.4.117Z"/><path class="r" d="M549.24,105.369l.254.371-2.828,7.966-.381-.127Z"/><path class="r" d="M549.494,108.494l-.487.117-2.044,5.2.318.117Z"/><path class="r" d="M551.3,106.418l-.434.1-3.39,7.479.307.127Z"/><path class="r" d="M551.676,107.17v.6l-3.347,6.578-.318-.138Z"/><path class="i" d="M544.664,270.4h.773l1.229,4.11,1.133-4.11h.7l1.218,4.11,1.144-4.11h.794l-1.578,5.159h-.869l-1.059-3.941-1.059,3.941h-.879Z" transform="translate(-31.271 -120.729)"/><path class="i" d="M552.079,272.93a3,3,0,0,1,.6-1.97,1.938,1.938,0,0,1,1.589-.741,1.97,1.97,0,0,1,1.589.742,3.05,3.05,0,0,1,.593,1.97v.265h-3.591a1.97,1.97,0,0,0,.381,1.261,1.271,1.271,0,0,0,1.059.477,1.388,1.388,0,0,0,.9-.286,1.059,1.059,0,0,0,.4-.752h.784a1.769,1.769,0,0,1-.636,1.271,2.245,2.245,0,0,1-1.451.466,1.928,1.928,0,0,1-1.589-.731,3.04,3.04,0,0,1-.636-1.97Zm.784-.434h2.8a1.918,1.918,0,0,0-.434-1.144,1.292,1.292,0,0,0-1.917,0,1.928,1.928,0,0,0-.445,1.144Z" transform="translate(-31.271 -120.729)"/><path class="i" d="M557.5,270.4v-1.494h.752V270.4h.794v.7h-.794v3.326a.318.318,0,0,0,.106.244.339.339,0,0,0,.233.106h.456v.784h-.71a.848.848,0,0,1-.614-.254.89.89,0,0,1-.254-.625V271.1h-.7v-.7Z" transform="translate(-31.271 -120.729)"/><path class="i" d="M562.407,270.653h.434l1.4,4.29,1.144-4.29h.519l1.144,4.237,1.388-4.237h.413l-1.621,4.9h-.434l-1.186-4.237-1.176,4.237H564Z" transform="translate(-31.271 -120.729)"/><path class="i" d="M569.78,268.725h.466v.71h-.466Zm0,6.833v-4.9h.466v4.9Z" transform="translate(-31.271 -120.729)"/><path class="i" d="M571.719,277.39v-6.737h.456v1.006a1.811,1.811,0,0,1,.657-.858,1.758,1.758,0,0,1,1.059-.328,1.949,1.949,0,0,1,1.578.72,2.934,2.934,0,0,1,.593,1.907,2.775,2.775,0,0,1-.572,1.843,1.9,1.9,0,0,1-1.525.689,1.917,1.917,0,0,1-1.059-.307,1.96,1.96,0,0,1-.71-.816v2.881Zm3.379-2.7a2.66,2.66,0,0,0,.466-1.631,2.553,2.553,0,0,0-.466-1.61,1.409,1.409,0,0,0-1.208-.614,1.472,1.472,0,0,0-1.208.657,2.468,2.468,0,0,0-.509,1.568,2.542,2.542,0,0,0,.509,1.589,1.472,1.472,0,0,0,1.208.657A1.43,1.43,0,0,0,575.1,274.689Z" transform="translate(-31.271 -120.729)"/><path class="i" d="M577.492,275.007a3.358,3.358,0,0,1,0-3.814,1.981,1.981,0,0,1,1.589-.72,2.118,2.118,0,0,1,1.589.657,2.51,2.51,0,0,1,.593,1.758v.212h-3.941a2.479,2.479,0,0,0,.477,1.6,1.494,1.494,0,0,0,1.25.6,1.865,1.865,0,0,0,1.059-.318,1.673,1.673,0,0,0,.667-.837h.456a1.684,1.684,0,0,1-.731,1.123,2.373,2.373,0,0,1-1.451.456,1.981,1.981,0,0,1-1.557-.72Zm3.316-2.341V272.5a1.78,1.78,0,0,0-.551-1.155,1.705,1.705,0,0,0-1.176-.466,1.62,1.62,0,0,0-1.165.477,1.79,1.79,0,0,0-.562,1.186v.127Z" transform="translate(-31.271 -120.729)"/><path class="i" d="M582.5,275.219a1.4,1.4,0,0,1-.551-1.112h.424a1.059,1.059,0,0,0,.424.847,1.568,1.568,0,0,0,1.059.35,1.822,1.822,0,0,0,1.112-.318,1,1,0,0,0,.413-.837.784.784,0,0,0-.434-.667,2.712,2.712,0,0,0-1.176-.328,2.342,2.342,0,0,1-1.239-.445,1.139,1.139,0,0,1,0-1.854,2.246,2.246,0,0,1,1.324-.328,2.119,2.119,0,0,1,1.292.35,1.144,1.144,0,0,1,.5.964h-.434a1.059,1.059,0,0,0-.477-.657,1.578,1.578,0,0,0-.922-.254,1.705,1.705,0,0,0-1,.254.784.784,0,0,0-.371.667.794.794,0,0,0,.455.667,2.628,2.628,0,0,0,1.176.339,2.235,2.235,0,0,1,1.239.455,1.292,1.292,0,0,1-.085,2.034,2.373,2.373,0,0,1-1.42.381,1.949,1.949,0,0,1-1.313-.508Z" transform="translate(-31.271 -120.729)"/><path class="s" d="M444.729,53.5H645.923l-3.1,58.008L442.97,112.88Z"/></g></g></svg>