<svg xmlns="http://www.w3.org/2000/svg" xmlns:xlink="http://www.w3.org/1999/xlink" width="422" height="212" viewBox="0 0 422 212"><defs><style>.a{fill:#d9d9d9;stroke:#707070;}.b{clip-path:url(#a);}.c{fill:#4c4c4c;}.d{fill:#494949;}.e{fill:#ccc;}.f{fill:#898989;}.g{fill:#4f4f4e;}.h{fill:#9f9fa0;}.i{fill:#afafaf;}.j{fill:#d3d3d3;}.k{fill:#666;}.l,.n{fill:none;stroke-miterlimit:10;}.l{stroke:#919191;stroke-width:0.466px;}.m{fill:#cecece;}.n{stroke:#9e7e7e;stroke-width:3.724px;}.o{fill:#8f8f8f;}.p{fill:#565656;}.q{fill:#7a7a7a;}.r{fill:#919191;}.s{fill:#848484;}.t{fill:#d8d8d8;}.u{fill:#999;}</style><clipPath id="a"><rect class="a" width="422" height="212" transform="translate(91 1094)"/></clipPath></defs><g class="b" transform="translate(-91 -1094)"><g transform="translate(95.539 1094)"><ellipse class="c" cx="22.987" cy="23.872" rx="22.987" ry="23.872" transform="translate(324.776 163.184)"/><path class="d" d="M30.669,146.109l5.8,34.3,97.676,8.9L322.16,196.2l-.531-11.024L257.4,183.323l-30.063-22.55-5.27-14.664Z"/><path class="e" d="M30.669,43.191,222.063,32.866l-2.328,120.328-189.067.6Z"/><path class="f" d="M222.063,32.866l3.808,1.629-2.5,119.062-3.743-.363Z"/><path class="g" d="M324.981,195.612s-.289,3.724-.344,5.586c-.177,6.136,1.127,8.379,1.127,8.379l-186.106-6.731a17.224,17.224,0,0,1-9.1-2.868c-2.97-2.011-5.912-5.326-5.772-10.5.233-8.584,11.536-15.427,26.209-15.912,17.969-.587,61.151-1.974,75.712-1.7h3.147a3.517,3.517,0,0,1,2.2,1.3c1.266,1.3,17.55,16.4,27.82,21.721Z" transform="translate(-2.421 -13.416)"/><path class="g" d="M411.344,201.767l-.931,7.96s3.342-.363,2.914,1.452-6.983,2.262-11.973,2.188-10.39,0-10.39,0-5.959,8.463-15.595,8.463c-5.437,0-7.784-2.532-7.784-2.532a23.136,23.136,0,0,0,8.91-17.541l9.124-5.028Z" transform="translate(-2.421 -13.416)"/><path class="h" d="M415.357,200.221s.112,1.918-1.424,2.449a5.4,5.4,0,0,1-2.737.344s-.065-1.285-.81-1.248Z" transform="translate(-2.421 -13.416)"/><path class="i" d="M228.19,46.478,224.866,166.7s-.931,3.007,14.6,17.206c8.6,7.858,13.966,11.908,17.1,13.966a12.393,12.393,0,0,0,6.638,2.048l61.449,1.3s-.615-26.069,24.207-27c24.645-.931,27.54,19.971,27.615,27.55h36.516s2.234.065,2.356-1.546,0-15.288,0-15.288.121-1.611-1.862-4.962-37.242-58.339-56.393-79.641S299.135,35.706,228.19,46.478Z" transform="translate(-2.421 -13.416)"/><path class="j" d="M281.92,101.167s47.325,1.089,61.039,2.179c11.126.875,13.845,2.02,18.518,4.655a30.473,30.473,0,0,1,6.285,5.4c1.862,2.086,26.4,35.584,28.909,40.836,0,0,1.6.717-7.551-1.033s-81.634-18.816-81.634-18.816-8.836-.13-14.664-11.117S281.92,101.167,281.92,101.167Z" transform="translate(-2.421 -13.416)"/><ellipse class="k" cx="13.137" cy="14.217" rx="13.137" ry="14.217" transform="translate(334.626 172.56)"/><path class="l" d="M385.946,152.533" transform="translate(-2.421 -13.416)"/><path class="m" d="M379.922,171.8s8.473,5.158,11.489,12.467,1.555,7.011,9.934,8.854c0,0-.2-9.729-3.119-12.653S393.161,171.7,379.922,171.8Z" transform="translate(-2.421 -13.416)"/><path class="n" d="M117.758,86.019,71.635,64.168,39.709,127.637l70.955-18.723L176.3,129.722l31.935-65.555Z"/><ellipse class="o" cx="0.803" cy="0.485" rx="0.803" ry="0.485" transform="matrix(0.778, -0.628, 0.628, 0.778, 108.849, 69.474)"/><ellipse class="o" cx="0.791" cy="0.493" rx="0.791" ry="0.493" transform="translate(114.145 66.611) rotate(-17.64)"/><ellipse class="o" cx="0.782" cy="0.493" rx="0.782" ry="0.493" transform="translate(119.388 64.791)"/><ellipse class="o" cx="0.493" cy="0.791" rx="0.493" ry="0.791" transform="translate(124.056 67.121) rotate(-76.26)"/><ellipse class="o" cx="0.493" cy="0.801" rx="0.493" ry="0.801" transform="matrix(0.543, -0.839, 0.839, 0.543, 129.885, 69.324)"/><path class="o" d="M109.9,71.374v.7l3.417,7.067.289-.177Z"/><path class="o" d="M110.385,70.769l.438.093,3.342,7.811-.344.158Z"/><path class="o" d="M112.172,72.826l.475.168,2.03,5.428-.363.158Z"/><path class="o" d="M112.386,69.54l-.214.41,2.793,8.37.372-.14Z"/><path class="o" d="M113.857,72.109l.419.251,1.629,5.614-.335.112Z"/><path class="o" d="M114.76,71.011l-.289.475,1.667,6.415.372-.1Z"/><path class="o" d="M115.338,68.739l-.335.493,1.75,8.5.41-.093Z"/><path class="o" d="M115.906,68.609l.475.363,1.369,8.547-.382.074Z"/><path class="o" d="M117.246,71.095h0l.717,6.4.363-.047-.829-6.676Z"/><path class="o" d="M118.205,72.23l.363,5.186.326-.028-.261-4.935Z"/><path class="o" d="M118.811,67.147l.438.382.344,9.841-.391.009Z"/><path class="o" d="M119.816,66.523l.344.382.074,10.484-.419-.019Z"/><path class="o" d="M121.278,67.249l-.428.372-.363,9.785.4.028Z"/><path class="o" d="M121.874,72.258l-.391.233-.382,4.972.391.056Z"/><path class="o" d="M122.591,70.769l.317.326-.791,6.517-.428-.065Z"/><path class="o" d="M124.117,68.609l-.475.438-1.276,8.621.307.065Z"/><path class="o" d="M124.8,68.739l.279.484L123.4,77.9l-.493-.121Z"/><path class="o" d="M125.263,70.927l-1.694,7.02.428.121,1.573-6.62Z"/><path class="o" d="M126.2,72.109l-.447.344-1.592,5.661.41.13Z"/><path class="o" d="M127.674,69.54l.261.41-2.858,8.463-.391-.13Z"/><path class="o" d="M127.935,72.873l-.493.121-2.067,5.53.317.121Z"/><path class="o" d="M129.741,70.666l-.428.1-3.426,7.96.317.13Z"/><path class="o" d="M130.123,71.467v.642l-3.37,7-.326-.158Z"/><path class="p" d="M29.542,211.9h-7.6l11.582-42.567,6.9,4.162Z"/><path class="q" d="M69.456,21.107V21c0-4.19-4.059-7.588-9.078-7.588S51.3,16.815,51.3,21v.1c-15.036,1-27,11.573-27,24.375V182.866L60.332,198.48l36.041-15.614V45.481C96.428,32.68,84.492,22.1,69.456,21.107Z" transform="translate(-2.421 -13.416)"/><path class="p" d="M82.4,211.9H90l-7.588-42.567-6.9,4.162Z"/><path class="r" d="M77.854,22.736l.074,168.128,18.5-8.007V45.481C96.428,31.339,84.418,24.961,77.854,22.736Z" transform="translate(-2.421 -13.416)"/><rect class="s" width="73.394" height="4.972" rx="0.959" transform="translate(21.284 41.897)"/><rect class="s" width="73.394" height="4.972" rx="0.959" transform="translate(21.284 155.037)"/><path class="t" d="M129.508,160.586c-.875.931-1.713,2.793-2.523,3.38s-1.76,0-2.551.987A58.041,58.041,0,0,0,120.98,171c-1.555,2.653-3.38,4.813-4.05,6.741-.791,2.272-.261,4.134.559,4.832,1.257,1.08,3.473,3.417,7.365.745s7.448-10.093,11.964-15.018c1.741-1.918,2.467-4.413,4-6.182,2.1-2.4,9.543-8,11.228-10.018,1.862-2.225-2.113-.81-2.02-2.048.14-2.011,1.285-3.082.493-3.724s-2.421,0-4.553,1.061c-1.043.512-.531-.7-1.8.121C140.373,149.9,134.07,155.605,129.508,160.586Z" transform="translate(-2.421 -13.416)"/><path class="u" d="M113.839,194.532c-.493,1.527-10.633,28.667-11.173,30.166-.112.289-.121.829-.577.7s-.4-.614-.289-.987c.41-1.285,11.852-32.084,12.1-32.587a68.5,68.5,0,0,1,3.175-6.88,1.145,1.145,0,0,0,0-1.145,8.547,8.547,0,0,1,.54-8.379,23.36,23.36,0,0,0,2.681-6.238c.819-3.594,1.648-7.178,3.6-10.4l.819-1.043-1.061,2.719a28.043,28.043,0,0,0-1.955,8.91,18.778,18.778,0,0,1,1.452-2.942,38.573,38.573,0,0,0,4.395-10.009,12.587,12.587,0,0,1,2.2-4.041,53.321,53.321,0,0,0-3.184,11.256,45.436,45.436,0,0,0,3.845-6.6,64.381,64.381,0,0,1,3.268-7.551,9.2,9.2,0,0,1,1.285-1.816c-1.443,3.622-3.212,7.132-3.9,11.275a70.556,70.556,0,0,0,6.322-10.418,16.545,16.545,0,0,1,4.357-6.154c-1.1,1.8-2.253,3.566-3.184,5.447a29.2,29.2,0,0,0-2.346,5.754c3.277-3.017,5.586-6.769,8.054-10.465a15.707,15.707,0,0,1,2.467-2.793,63.858,63.858,0,0,0-4.72,8.128c4.655-3.724,8.063-8.631,13.137-11.871-1.573,1.583-3.166,3.147-4.711,4.767s-3.2,3.175-3.873,5.465c3.585-.931,6.955-2.1,9.608-4.711,1.192-1.173,2.6-2.132,3.91-3.193l.186.2-2.076,1.964a64.969,64.969,0,0,0-5.009,4.99,22.8,22.8,0,0,0-2.039,3.631c-.289.493.1.5.466.466a9.506,9.506,0,0,0,3.212-1.006,24.039,24.039,0,0,0,6.08-4.59,5.586,5.586,0,0,1-1.676,2.346c-2.5,2.234-5.279,4.152-7.737,6.443a2.728,2.728,0,0,0-.493.577,37.92,37.92,0,0,0,5.326-2.793c-3.575,3.259-8.379,4.99-11.722,8.575,1.788-.568,3.38-1.555,5.167-2.141-3.193,2.076-6.517,3.994-9.31,6.9a27.513,27.513,0,0,0,6.173-2.439c-.093.67-.512.782-.819.931a29.719,29.719,0,0,1-4.19,1.983,8.063,8.063,0,0,0-3.929,2.942,15.334,15.334,0,0,1-1.592,1.927l5.707-3.072a2.653,2.653,0,0,1-1.3,1.424c-2.048,1.369-4.339,2.393-6.015,4.273-.987,1.117-1.955,2.253-3,3.389l7.709-3.882a5.521,5.521,0,0,1-2.374,1.992c-1.695,1.033-3.594,1.75-5.121,3.045a13.612,13.612,0,0,0-2.9,3.389c-2.02,3.342-5.242,4.5-9.04,4.478-.531,0-1.033-.084-1.359.475a64.871,64.871,0,0,0-3.24,6.163m12.876-12.653a10.13,10.13,0,0,0-7.067,2.672,21.1,21.1,0,0,0,3.4-.587c-1.21,1.257-3.1,1.415-4.395,2.588a7.448,7.448,0,0,0,8.044-4.581Zm-4.413-1.2c3.324.484,7.551-2.793,8.379-4.841a9.31,9.31,0,0,0-6.871,2.579,33.959,33.959,0,0,1,3.305-.931c-1.387,1.452-3.2,2.058-4.832,3.287Zm1.7-13.035c-2.141,2.877-3.128,7.113-2.132,8.938.419-1.508.084-3.156.987-4.553a20.27,20.27,0,0,0,.27,4.543c1.9-2.709,1.089-5.689.857-8.808ZM138.66,154a40.173,40.173,0,0,0-.931,4.711c2.672-2.29,2.868-5.084,2.383-8.147-2.039,2.151-3.724,4.357-3.529,7.6a12.1,12.1,0,0,1,2.058-4.041Zm-2.421,13.212c-2.616.177-4.953.615-6.955,2.542l3.268-.633c-1.033,1.024-2.5,1.322-3.668,2.272,2.933.54,5.475-.9,7.337-4.059Zm-1.527-11.638c-1.862,2.048-3.808,6.61-2.9,7.728.466-1.331.447-2.793,1.434-3.9,0,.773-.149,1.527-.223,2.281s-.1,1.508-.158,2.43c2.048-2.113,2.346-3.519,1.834-8.417Zm-15.4,25.138a12.373,12.373,0,0,0,1.424-7.448c0-.186,0-.419-.27-.466s-.279.2-.372.363c-.484.745-.931,1.48-1.434,2.234a6.517,6.517,0,0,0-.549,5.8c.14-1.695,0-3.454,1.173-5.1.2,1.732-.419,3.147.009,4.739Zm32.9-29.793c-3.026.093-6.257.67-7.048,2.309l3.259-.736c-.931,1.117-2.328,1.294-3.454,2.113,2.244.4,5.354-1.192,7.225-3.547Zm-24.71,17.615a15.289,15.289,0,0,1,1.006-3.575,24.349,24.349,0,0,0,.186,3.38c1.313-1.2,1.955-5.828,1.145-7.746a11.47,11.47,0,0,0-2.355,8.081Zm15.139-14.468c1.555-.931,2.793-4.562,2.4-6.7-2.2,1.248-3.855,4.32-3.454,6.517.633-1.331.782-2.793,1.909-3.855a26.609,26.609,0,0,0-.875,4.18Zm-3.37,4.562,3.566-1.006c-.875,1.424-2.616,1.5-3.892,2.607,3.231-.186,5.223-2.123,7.523-4.031-2.793.214-5.214.512-7.216,2.57Zm-5.139,6.778c2.886.074,4.832-1.527,6.769-3.5-2.365.158-4.534.354-6.461,2.048a29.965,29.965,0,0,0,3.724-.931c-1.061,1.4-2.728,1.667-4.05,2.523ZM146.174,149.9a27.8,27.8,0,0,1,2.57-1.676c-.261,1.033-1.155,1.536-1.452,2.4a4.339,4.339,0,0,0,3.426-3.948C148.1,147.1,146.258,148.39,146.174,149.9Z" transform="translate(-2.421 -13.416)"/><path class="t" d="M115.1,131.1c-.475,1.182-.624,3.166-1.173,3.957s-1.629.54-2.011,1.741a53.663,53.663,0,0,0-1.117,6.713c-.521,2.961-1.462,5.586-1.424,7.56,0,2.356,1.182,3.9,2.169,4.283,1.527.587,4.376,2.02,7.039-1.722s3.445-11.768,5.894-17.792c.931-2.337.754-4.888,1.573-7.02,1.117-2.9,6.052-10.511,6.918-12.932.931-2.663-2.225-.056-2.57-1.229-.559-1.909.13-3.268-.829-3.631s-2.216.829-3.827,2.467c-.791.819-.726-.475-1.62.7-.745.987-2.467,3.2-3.352,4.655A88.915,88.915,0,0,0,115.1,131.1Z" transform="translate(-2.421 -13.416)"/><path class="u" d="M97.285,225.415c.065-2.467,14.264-64.754,14.552-67.212a1.136,1.136,0,0,0-.391-1.071,8.491,8.491,0,0,1-2.523-7.9,22.438,22.438,0,0,0,.223-6.648c-.531-3.585-1.061-7.16-.419-10.781l.382-1.248v2.868a27.112,27.112,0,0,0,1.406,8.854,18.333,18.333,0,0,1,.27-3.193,37.139,37.139,0,0,0,.484-10.7,12.262,12.262,0,0,1,.568-4.469,52.353,52.353,0,0,0,1.117,11.443,42.828,42.828,0,0,0,1.164-7.374,64.56,64.56,0,0,1,.289-8.054,9.5,9.5,0,0,1,.531-2.113c0,3.836-.382,7.662.466,11.7a67.037,67.037,0,0,0,2.076-11.722,15.828,15.828,0,0,1,1.8-7.141c-.372,2.02-.791,4.041-.978,6.089a29.021,29.021,0,0,0-.084,6.089c1.927-3.892,2.737-8.137,3.65-12.355a14.767,14.767,0,0,1,1.276-3.37,63.905,63.905,0,0,0-1.424,9.078c2.961-4.962,4.32-10.67,7.821-15.372-.875,1.992-1.778,3.976-2.616,5.977s-1.806,4.013-1.6,6.35c2.951-2.113,5.651-4.3,7.15-7.588.68-1.48,1.629-2.849,2.449-4.264l.242.121-1.2,2.5a61.131,61.131,0,0,0-2.793,6.285,22.849,22.849,0,0,0-.568,4.031c-.084.549.279.428.6.279a9.171,9.171,0,0,0,2.6-2.02,22.923,22.923,0,0,0,3.948-6.275,5.512,5.512,0,0,1-.7,2.728c-1.5,2.9-3.37,5.586-4.8,8.547a2.7,2.7,0,0,0-.251.7,35.937,35.937,0,0,0,3.91-4.339c-2.123,4.208-5.875,7.448-7.7,11.852,1.434-1.127,2.551-2.57,3.985-3.724-2.2,2.989-4.544,5.866-6.08,9.5a26.471,26.471,0,0,0,4.8-4.339,1.117,1.117,0,0,1-.41,1.164,28.631,28.631,0,0,1-3.138,3.24,7.653,7.653,0,0,0-2.56,4.031,13.872,13.872,0,0,1-.782,2.318l4.152-4.767a2.5,2.5,0,0,1-.689,1.76c-1.387,1.955-3.128,3.668-3.994,5.968-.5,1.359-.987,2.728-1.536,4.134l5.7-6.182a5.26,5.26,0,0,1-1.471,2.635c-1.182,1.527-2.672,2.793-3.622,4.534a13.323,13.323,0,0,0-1.443,4.106c-.661,3.724-3.2,5.9-6.7,7.178-.484.177-.987.261-1.08.931-.354,2.253-14.813,64.046-14.9,66.318m13.482-56.552,7.914-18.984a9.7,9.7,0,0,0-5.54,4.841,20.652,20.652,0,0,0,2.923-1.676c-.67,1.555-2.346,2.346-3.119,3.864a7.169,7.169,0,0,0,5.735-7.029Zm-4.488.391c3.231-.68,5.949-5.111,5.94-7.281a8.91,8.91,0,0,0-5.391,4.655,32.707,32.707,0,0,1,2.719-1.937c-.754,1.657-2.225,2.83-3.268,4.516Zm-3.119-12.55c-.931,3.38-.317,7.6,1.257,8.947-.158-1.536-1.052-2.933-.726-4.525a20.008,20.008,0,0,0,1.862,4.1c.773-3.305-1.024-5.772-2.393-8.566Zm8.463-14.236a41.552,41.552,0,0,0,.829,4.655c1.639-3.017.81-5.651-.736-8.3-1.108,2.663-1.862,5.26-.512,8.184a11.694,11.694,0,0,1,.419-4.581Zm2.523,12.969c-2.346,1.052-4.339,2.244-5.484,4.655l2.793-1.685c-.577,1.285-1.816,2.067-2.56,3.324,2.849-.615,4.674-2.8,5.251-6.34Zm-5.586-10.186c-.987,2.514-1.127,7.365.112,8.091,0-1.378-.6-2.719-.084-4.078.27.717.419,1.462.614,2.179s.447,1.415.736,2.29c1.108-2.8.847-4.19-1.387-8.528Zm-5.139,28.266a12.1,12.1,0,0,0-1.387-7.383c-.084-.168-.186-.363-.4-.335s-.186.289-.223.456c-.177.847-.363,1.695-.512,2.551a6.517,6.517,0,0,0,1.583,5.521c-.484-1.611-1.22-3.193-.754-5.1C111.567,150.773,111.52,152.328,112.479,153.622Zm19.552-38.536c-2.793,1.117-5.521,2.793-5.661,4.516l2.737-1.778c-.419,1.331-1.676,1.974-2.421,3.11,2.207-.493,4.5-3.007,5.372-5.819Zm-16.377,24.57a15.4,15.4,0,0,1-.372-3.64,24.209,24.209,0,0,0,1.4,3.045c.773-1.536-.3-6.024-1.741-7.5A11.173,11.173,0,0,0,115.654,139.657Zm8.724-18.435c1.08-1.415.931-5.139-.2-6.992-1.573,1.862-1.992,5.279-.838,7.169.112-1.443-.289-2.877.372-4.2a27,27,0,0,0,.67,4.059Zm-1.48,5.4,2.923-2.141c-.3,1.611-1.862,2.272-2.644,3.724,2.9-1.266,4.041-3.724,5.475-6.257C126.138,122.9,124.024,124.015,122.9,126.622Zm-2.29,7.97c2.681-.931,3.9-3.045,4.972-5.5-2.123.931-4.05,1.862-5.214,4.069a30.413,30.413,0,0,0,3.11-2.141c-.5,1.5-1.937,2.309-2.849,3.547Zm5.465-18.463a24.012,24.012,0,0,1,1.76-2.411c.13,1.043-.512,1.8-.475,2.7a4.18,4.18,0,0,0,1.741-4.795c-2.225,1.276-3.473,3.054-3.007,4.478Z" transform="translate(-2.421 -13.416)"/><path class="t" d="M24.784,155.764c.447,1.2.54,3.193,1.071,4s1.6.6,1.946,1.862a48.707,48.707,0,0,1,.931,6.769c.456,2.989,1.322,5.586,1.238,7.635-.093,2.356-1.248,3.873-2.235,4.218-1.518.531-4.357,1.862-6.908-1.965s-3.138-11.964-5.4-18.09c-.931-2.374-.642-4.925-1.4-7.095-1-2.951-5.745-10.744-6.582-13.2-.884-2.709,2.067.614,2.43-.549.587-1.862-.326-3.575.633-3.9s2.2,1.043,3.724,2.793c.763.838,1.108-.931,1.955.289C18.8,142.105,22.475,149.572,24.784,155.764Z" transform="translate(-2.421 -13.416)"/><path class="u" d="M26.3,189.328a60.926,60.926,0,0,0-.633-6.731c-.084-.624-.577-.717-1.052-.931-3.454-1.331-5.94-3.5-6.517-7.244a12.932,12.932,0,0,0-1.341-4.041,38.155,38.155,0,0,0-3.51-4.571,5.186,5.186,0,0,1-1.406-2.644l5.53,6.238c-.512-1.4-.931-2.793-1.443-4.125-.81-2.3-2.514-4.031-3.845-6a2.467,2.467,0,0,1-.652-1.76l4.022,4.8a15.726,15.726,0,0,1-.726-2.309,7.663,7.663,0,0,0-2.458-4.059,28.229,28.229,0,0,1-3.082-3.268,1.117,1.117,0,0,1-.382-1.154,26.33,26.33,0,0,0,4.655,4.385c-1.452-3.631-3.724-6.517-5.856-9.534,1.406,1.164,2.477,2.616,3.882,3.724-1.722-4.441-5.391-7.69-7.448-11.908a35.379,35.379,0,0,0,3.8,4.376,2.374,2.374,0,0,0-.233-.7c-1.369-2.942-3.166-5.661-4.6-8.566a5.307,5.307,0,0,1-.642-2.728,22.345,22.345,0,0,0,3.864,6.275,8.621,8.621,0,0,0,2.542,2.048c.307.168.67.289.587-.261a21.768,21.768,0,0,0-.484-4.013A62.073,62.073,0,0,0,6.2,128.354c-.391-.838-.773-1.676-1.154-2.514l.251-.112C6.08,127.153,7,128.521,7.644,130c1.424,3.3,4.069,5.512,6.955,7.662.242-2.318-.67-4.311-1.471-6.331s-1.657-3.985-2.486-5.977c3.389,4.72,4.655,10.409,7.448,15.39a63.032,63.032,0,0,0-1.229-9.031,15.157,15.157,0,0,1,1.2,3.37c.819,4.2,1.546,8.435,3.38,12.327a28.462,28.462,0,0,0,0-6.042c-.13-2.039-.521-4.05-.847-6.07a15.828,15.828,0,0,1,1.694,7.15,67.307,67.307,0,0,0,1.862,11.675c.931-3.994.633-7.8.689-11.6a8.864,8.864,0,0,1,.484,2.095,62.1,62.1,0,0,1,.13,8.007,43.545,43.545,0,0,0,1.015,7.337A51.524,51.524,0,0,0,27.8,148.632a12.243,12.243,0,0,1,.484,4.441,36.674,36.674,0,0,0,.27,10.632,19.021,19.021,0,0,1,.214,3.175,26.935,26.935,0,0,0,1.555-8.77c0-.931.047-1.862.065-2.84l.354,1.238c.559,3.612,0,7.15-.633,10.7a22.42,22.42,0,0,0,.1,6.6,8.379,8.379,0,0,1-2.663,7.8,1.155,1.155,0,0,0-.41,1.052c.242,2.449.289,4.9.307,7.355,0,.54-1.164,32.5-1.276,33.816,0,.382-.223.829-.633.791s-.27-.54-.261-.838c0-1.564,1-29.793,1.127-31.311m-1.452-12.1c-.736-1.518-2.393-2.337-3.017-3.892a21.758,21.758,0,0,0,2.858,1.722,9.618,9.618,0,0,0-5.4-4.916,7.1,7.1,0,0,0,5.53,7.113ZM20.688,169.2c.931.54,1.741,1.35,2.663,1.974a8.826,8.826,0,0,0-5.27-4.758c-.047,2.151,2.57,6.6,5.754,7.337-1.033-1.657-2.421-2.849-3.175-4.516Zm3.929.559a19.738,19.738,0,0,0,1.946-4.022c.3,1.573-.614,2.951-.81,4.469,1.592-1.3,2.281-5.493,1.424-8.854-1.415,2.784-3.268,5.2-2.588,8.445Zm-5.242-18.183c1.369-2.886.7-5.475-.354-8.137-1.583,2.607-2.458,5.2-.884,8.23a45.933,45.933,0,0,0,.931-4.609,11.657,11.657,0,0,1,.279,4.553Zm2.039,14.738c-.717-1.266-1.927-2.058-2.477-3.342l2.719,1.722c-1.089-2.458-3.045-3.678-5.344-4.758C16.759,163.454,18.537,165.661,21.414,166.312Zm-.931-8.035c.289-.857.559-1.555.763-2.262s.372-1.443.652-2.151c.484,1.359-.084,2.672-.158,4.05,1.238-.7,1.2-5.521.261-8.035C19.71,154.181,19.45,155.559,20.483,158.277Zm7.839,15.6c.428,1.862-.335,3.454-.847,5.046a6.424,6.424,0,0,0,1.676-5.456c-.13-.847-.3-1.695-.456-2.542,0-.168,0-.41-.214-.447s-.326.158-.41.317a12.1,12.1,0,0,0-1.518,7.3c.987-1.2.978-2.793,1.778-4.18ZM13.035,145.448c-.717-1.145-1.955-1.806-2.346-3.138l2.681,1.806c-.1-1.75-2.793-3.417-5.53-4.571C8.687,142.338,10.912,144.88,13.035,145.448ZM24.514,156.2c-1.452,1.452-2.607,5.884-1.862,7.448a23.742,23.742,0,0,0,1.434-2.989,15,15,0,0,1-.428,3.594,11.079,11.079,0,0,0,.884-8.054Zm-8.379-14.4c.633,1.331.2,2.737.289,4.171,1.182-1.862.829-5.214-.7-7.122-1.145,1.806-1.378,5.5-.335,6.927a26.73,26.73,0,0,0,.726-3.976Zm-5.018,4.562c1.378,2.532,2.458,5,5.316,6.3-.745-1.452-2.29-2.141-2.551-3.724l2.877,2.16c-1.08-2.579-3.166-3.7-5.661-4.739Zm4.953,9.124a29.083,29.083,0,0,0,3.045,2.188c-1.117-2.225-3.017-3.166-5.1-4.134,1.015,2.458,2.188,4.609,4.832,5.586C17.96,157.812,16.554,156.974,16.07,155.484Zm-5.214-19.347a4.143,4.143,0,0,0,1.639,4.795c.047-.931-.568-1.667-.419-2.691a26.068,26.068,0,0,1,1.7,2.346c.484-1.369-.745-3.156-2.923-4.488Z" transform="translate(-2.421 -13.416)"/></g></g></svg>