<svg xmlns="http://www.w3.org/2000/svg" viewBox="0 0 443.59 227.7"><g id="Truck"><ellipse cx="373.52" cy="200.91" rx="24.69" ry="25.64" fill="#4c4c4c"/><polygon id="darkShade" points="32.94 156.93 39.17 193.77 144.08 203.33 346.02 210.73 345.45 198.89 276.46 196.9 244.17 172.68 238.51 156.93 32.94 156.93" fill="#494949"/><polygon id="Body" points="32.94 46.39 238.51 35.3 236.01 164.54 32.94 165.18 32.94 46.39" fill="#ccc"/><polygon id="BodyShadow" points="238.51 35.3 242.6 37.05 239.92 164.93 235.9 164.54 238.51 35.3" fill="#898989"/><path id="sideDetail" d="M349.05,210.1s-.31,4-.37,6c-.19,6.59,1.21,9,1.21,9L150,217.87a18.5,18.5,0,0,1-9.77-3.08c-3.19-2.16-6.35-5.72-6.2-11.28.25-9.22,12.39-16.57,28.15-17.09,19.3-.63,65.68-2.12,81.32-1.83l3.38,0s1,0,2.36,1.4,18.85,17.62,29.88,23.33Z" transform="translate(-2.6 -14.41)" fill="#4f4f4e"/><path id="frontBottom" d="M441.81,216.71l-1,8.55s3.59-.39,3.13,1.56-7.5,2.43-12.86,2.35-11.16,0-11.16,0-6.4,9.09-16.75,9.09c-5.84,0-8.36-2.72-8.36-2.72a24.85,24.85,0,0,0,9.57-18.84l9.8-5.4Z" transform="translate(-2.6 -14.41)" fill="#4f4f4e"/><path id="hoodBottomShadow" d="M446.12,215.05s.12,2.06-1.53,2.63a5.8,5.8,0,0,1-2.94.37s-.07-1.38-.87-1.34Z" transform="translate(-2.6 -14.41)" fill="#9f9fa0"/><path id="Front" d="M245.09,49.92l-3.57,129.13s-1,3.23,15.68,18.48c9.24,8.44,15,12.79,18.37,15a13.31,13.31,0,0,0,7.13,2.2l66,1.4s-.66-28,26-29c26.47-1,29.58,21.45,29.66,29.59h39.22s2.4.07,2.53-1.66,0-16.42,0-16.42.13-1.73-2-5.33-40-62.66-60.57-85.54S321.29,38.35,245.09,49.92Z" transform="translate(-2.6 -14.41)" fill="#afafaf"/><path id="window" d="M302.8,108.66s50.83,1.17,65.56,2.34c11.95.94,14.87,2.17,19.89,5A32.73,32.73,0,0,1,395,121.8c2,2.24,28.35,38.22,31.05,43.86,0,0,1.72.77-8.11-1.11s-87.68-20.21-87.68-20.21-9.49-.14-15.75-11.94S302.8,108.66,302.8,108.66Z" transform="translate(-2.6 -14.41)" fill="#d3d3d3"/><ellipse id="innerTire" cx="373.52" cy="200.61" rx="14.11" ry="15.27" fill="#666"/><path d="M414.53,163.83" transform="translate(-2.6 -14.41)" fill="none" stroke="#919191" stroke-miterlimit="10" stroke-width="0.5"/><path id="headLight" d="M408.06,184.52s9.1,5.54,12.34,13.39,1.67,7.53,10.67,9.51c0,0-.21-10.45-3.35-13.59S422.28,184.42,408.06,184.52Z" transform="translate(-2.6 -14.41)" fill="#cecece"/><polygon id="LogoWire" points="126.48 92.39 76.94 68.92 42.65 137.09 118.86 116.98 189.36 139.33 223.66 68.92 126.48 92.39" fill="none" stroke="#ba455c" stroke-miterlimit="10" stroke-width="4"/><g id="logorown"><ellipse cx="120.11" cy="88.99" rx="0.86" ry="0.52" transform="matrix(0.78, -0.63, 0.63, 0.78, -31.84, 80.74)" fill="#8f8f8f"/><ellipse cx="126.17" cy="86.2" rx="0.85" ry="0.53" transform="translate(-22.79 27.88) rotate(-17.64)" fill="#8f8f8f"/><ellipse cx="129.07" cy="70.12" rx="0.84" ry="0.53" fill="#8f8f8f"/><ellipse cx="136.8" cy="86.2" rx="0.53" ry="0.85" transform="translate(17.97 184.19) rotate(-76.26)" fill="#8f8f8f"/><ellipse cx="143.12" cy="88.91" rx="0.53" ry="0.86" transform="translate(-11.9 146.3) rotate(-57.08)" fill="#8f8f8f"/><polygon points="118.04 76.66 118.04 77.41 121.71 85 122.02 84.81 118.04 76.66" fill="#8f8f8f"/><polygon points="118.56 76.01 119.03 76.11 122.62 84.5 122.25 84.67 118.56 76.01" fill="#8f8f8f"/><polygon points="120.48 78.22 120.99 78.4 123.17 84.23 122.78 84.4 120.48 78.22" fill="#8f8f8f"/><polygon points="120.71 74.69 120.48 75.13 123.48 84.12 123.88 83.97 120.71 74.69" fill="#8f8f8f"/><polygon points="122.29 77.45 122.74 77.72 124.49 83.75 124.13 83.87 122.29 77.45" fill="#8f8f8f"/><polygon points="123.26 76.27 122.95 76.78 124.74 83.67 125.14 83.56 123.26 76.27" fill="#8f8f8f"/><polygon points="123.88 73.83 123.52 74.36 125.4 83.49 125.84 83.39 123.88 73.83" fill="#8f8f8f"/><polygon points="124.49 73.69 125 74.08 126.47 83.26 126.06 83.34 124.49 73.69" fill="#8f8f8f"/><polygon points="125.93 76.36 125.93 76.36 126.7 83.23 127.09 83.18 126.2 76.01 125.93 76.36" fill="#8f8f8f"/><polygon points="126.96 77.58 127.35 83.15 127.7 83.12 127.42 77.82 126.96 77.58" fill="#8f8f8f"/><polygon points="127.61 72.12 128.08 72.53 128.45 83.1 128.03 83.11 127.61 72.12" fill="#8f8f8f"/><polygon points="128.69 71.45 129.06 71.86 129.14 83.12 128.69 83.1 128.69 71.45" fill="#8f8f8f"/><polygon points="130.26 72.23 129.8 72.63 129.41 83.14 129.84 83.17 130.26 72.23" fill="#8f8f8f"/><polygon points="130.9 77.61 130.48 77.86 130.07 83.2 130.49 83.26 130.9 77.61" fill="#8f8f8f"/><polygon points="131.67 76.01 132.01 76.36 131.16 83.36 130.7 83.29 131.67 76.01" fill="#8f8f8f"/><polygon points="133.31 73.69 132.8 74.16 131.43 83.42 131.76 83.49 133.31 73.69" fill="#8f8f8f"/><polygon points="134.04 73.83 134.34 74.35 132.54 83.67 132.01 83.54 134.04 73.83" fill="#8f8f8f"/><polygon points="134.54 76.18 132.72 83.72 133.18 83.85 134.87 76.74 134.54 76.18" fill="#8f8f8f"/><polygon points="135.55 77.45 135.07 77.82 133.36 83.9 133.8 84.04 135.55 77.45" fill="#8f8f8f"/><polygon points="137.13 74.69 137.41 75.13 134.34 84.22 133.92 84.08 137.13 74.69" fill="#8f8f8f"/><polygon points="137.41 78.27 136.88 78.4 134.66 84.34 135 84.47 137.41 78.27" fill="#8f8f8f"/><polygon points="139.35 75.9 138.89 76.01 135.21 84.56 135.55 84.7 139.35 75.9" fill="#8f8f8f"/><polygon points="139.76 76.76 139.76 77.45 136.14 84.97 135.79 84.8 139.76 76.76" fill="#8f8f8f"/></g></g><g id="beerTank"><polygon points="31.73 227.59 23.57 227.59 36.01 181.87 43.42 186.34 31.73 227.59" fill="#565656"/><path d="M74.6,22.67s0-.07,0-.11c0-4.5-4.36-8.15-9.75-8.15s-9.75,3.65-9.75,8.15c0,0,0,.07,0,.11-16.15,1.07-29,12.43-29,26.18V196.41l38.7,16.77,38.71-16.77V48.85C103.57,35.1,90.75,23.74,74.6,22.67Z" transform="translate(-2.6 -14.41)" fill="#7a7a7a"/><polygon points="88.5 227.59 96.67 227.59 88.52 181.87 81.11 186.34 88.5 227.59" fill="#565656"/><path d="M83.62,24.42,83.7,205l19.87-8.6V48.85C103.57,33.66,90.67,26.81,83.62,24.42Z" transform="translate(-2.6 -14.41)" fill="#919191"/><rect x="22.86" y="45" width="78.83" height="5.34" rx="1.03" fill="#848484"/><rect x="22.86" y="166.52" width="78.83" height="5.34" rx="1.03" fill="#848484"/></g><g id="Wheat"><path d="M139.1,172.48c-.94,1-1.84,3-2.71,3.63s-1.89,0-2.74,1.06c-1.51,2-2.59,4.57-3.71,6.49-1.67,2.85-3.63,5.17-4.35,7.24-.85,2.44-.28,4.44.6,5.19,1.35,1.16,3.73,3.67,7.91.8s8-10.84,12.85-16.13c1.87-2.06,2.65-4.74,4.3-6.64,2.26-2.58,10.25-8.59,12.06-10.76,2-2.39-2.27-.87-2.17-2.2.15-2.16,1.38-3.31.53-4s-2.6,0-4.89,1.14c-1.12.55-.57-.75-1.93.13C150.77,161,144,167.13,139.1,172.48Z" transform="translate(-2.6 -14.41)" fill="#d8d8d8"/><path d="M122.27,208.94c-.53,1.64-11.42,30.79-12,32.4-.12.31-.13.89-.62.75s-.43-.66-.31-1.06c.44-1.38,12.73-34.46,13-35,1-2.5,2.13-5,3.41-7.39a1.23,1.23,0,0,0,0-1.23,9.18,9.18,0,0,1,.58-9,25.09,25.09,0,0,0,2.88-6.7c.88-3.86,1.77-7.71,3.87-11.17l.88-1.12-1.14,2.92a30.12,30.12,0,0,0-2.1,9.57,20.17,20.17,0,0,1,1.56-3.16A41.43,41.43,0,0,0,137,168a13.52,13.52,0,0,1,2.36-4.34,57.27,57.27,0,0,0-3.42,12.09,48.8,48.8,0,0,0,4.13-7.09,69.15,69.15,0,0,1,3.51-8.11,9.88,9.88,0,0,1,1.38-1.95c-1.55,3.89-3.45,7.66-4.19,12.11a75.78,75.78,0,0,0,6.79-11.19,17.77,17.77,0,0,1,4.68-6.61c-1.18,1.93-2.42,3.83-3.42,5.85a31.36,31.36,0,0,0-2.52,6.18c3.52-3.24,6-7.27,8.65-11.24a16.87,16.87,0,0,1,2.65-3,68.59,68.59,0,0,0-5.07,8.73c5-4,8.66-9.27,14.11-12.75-1.69,1.7-3.4,3.38-5.06,5.12s-3.44,3.41-4.16,5.87c3.85-1,7.47-2.26,10.32-5.06,1.28-1.26,2.79-2.29,4.2-3.43l.2.21-2.23,2.11a69.77,69.77,0,0,0-5.38,5.36,24.49,24.49,0,0,0-2.19,3.9c-.31.53.11.54.5.5a10.21,10.21,0,0,0,3.45-1.08,25.82,25.82,0,0,0,6.53-4.93,6,6,0,0,1-1.8,2.52c-2.68,2.4-5.67,4.46-8.31,6.92a2.93,2.93,0,0,0-.53.62,40.73,40.73,0,0,0,5.72-3c-3.84,3.5-9,5.36-12.59,9.21,1.92-.61,3.63-1.67,5.55-2.3-3.43,2.23-7,4.29-10,7.41a29.55,29.55,0,0,0,6.63-2.62c-.1.72-.55.84-.88,1a31.92,31.92,0,0,1-4.5,2.13,8.66,8.66,0,0,0-4.22,3.16,16.47,16.47,0,0,1-1.71,2.07l6.13-3.3a2.85,2.85,0,0,1-1.4,1.53c-2.2,1.47-4.66,2.57-6.46,4.59-1.06,1.2-2.1,2.42-3.22,3.64l8.28-4.17a5.93,5.93,0,0,1-2.55,2.14c-1.82,1.11-3.86,1.88-5.5,3.27a14.62,14.62,0,0,0-3.11,3.64c-2.17,3.59-5.63,4.83-9.71,4.81-.57,0-1.11-.09-1.46.51a69.67,69.67,0,0,0-3.48,6.62m13.83-13.59a10.88,10.88,0,0,0-7.59,2.87,22.66,22.66,0,0,0,3.65-.63c-1.3,1.35-3.33,1.52-4.72,2.78A8,8,0,0,0,137.51,192.16Zm-4.74-1.29c3.57.52,8.11-3,9-5.2a10,10,0,0,0-7.38,2.77,36.48,36.48,0,0,1,3.55-1C136.47,188.9,134.52,189.55,132.77,190.87Zm1.83-14c-2.3,3.09-3.36,7.64-2.29,9.6.45-1.62.09-3.39,1.06-4.89a21.77,21.77,0,0,0,.29,4.88C135.72,183.45,134.85,180.25,134.6,176.9Zm14.31-11.36c-.25,1.67-.93,3.24-1,5.06,2.87-2.46,3.08-5.46,2.56-8.75-2.19,2.31-4,4.68-3.79,8.16A13,13,0,0,1,148.91,165.54Zm-2.6,14.19c-2.81.19-5.32.66-7.47,2.73l3.51-.68c-1.11,1.1-2.68,1.42-3.94,2.44C141.58,184.67,144.31,183.12,146.31,179.73Zm-1.64-12.5c-2,2.2-4.09,7.1-3.12,8.3.5-1.43.48-3,1.54-4.19,0,.83-.16,1.64-.24,2.45s-.11,1.62-.17,2.61C144.9,174,145.22,172.49,144.67,167.23Zm-16.54,27a13.29,13.29,0,0,0,1.53-8c0-.2,0-.45-.29-.5s-.3.22-.4.39c-.52.8-1,1.59-1.54,2.4a7,7,0,0,0-.59,6.23c.15-1.82,0-3.71,1.26-5.48C128.34,191,127.67,192.52,128.13,194.23Zm35.34-32c-3.25.1-6.72.72-7.57,2.48l3.5-.79c-1,1.2-2.5,1.39-3.71,2.27C158.12,166.49,161.46,164.78,163.47,162.25Zm-26.54,18.92a16.42,16.42,0,0,1,1.08-3.84,26.15,26.15,0,0,0,.2,3.63c1.41-1.29,2.1-6.26,1.23-8.32A12.32,12.32,0,0,0,136.93,181.17Zm16.26-15.54c1.67-1,3-4.9,2.58-7.2-2.36,1.34-4.14,4.64-3.71,7,.68-1.43.84-3,2.05-4.14A28.58,28.58,0,0,0,153.19,165.63Zm-3.62,4.9,3.83-1.08c-.94,1.53-2.81,1.61-4.18,2.8,3.47-.2,5.61-2.28,8.08-4.33C154.32,168,151.72,168.32,149.57,170.53Zm-5.52,7.28c3.1.08,5.19-1.64,7.27-3.76-2.54.17-4.87.38-6.94,2.2a32.19,32.19,0,0,0,4-1C147.26,176.6,145.47,176.89,144.05,177.81ZM157,161a29.86,29.86,0,0,1,2.76-1.8c-.28,1.11-1.24,1.65-1.56,2.58a4.66,4.66,0,0,0,3.68-4.24C159.07,158,157.09,159.38,157,161Z" transform="translate(-2.6 -14.41)" fill="#999"/><path d="M123.63,140.81c-.51,1.27-.67,3.4-1.26,4.25s-1.75.58-2.16,1.87c-.72,2.3-.82,5.07-1.2,7.21-.56,3.18-1.57,6-1.53,8.12,0,2.53,1.27,4.19,2.33,4.6,1.64.63,4.7,2.17,7.56-1.85s3.7-12.64,6.33-19.11c1-2.51.81-5.25,1.69-7.54,1.2-3.12,6.5-11.29,7.43-13.89,1-2.86-2.39-.06-2.76-1.32-.6-2.05.14-3.51-.89-3.9s-2.38.89-4.11,2.65c-.85.88-.78-.51-1.74.75-.8,1.06-2.65,3.44-3.6,5A95.5,95.5,0,0,0,123.63,140.81Z" transform="translate(-2.6 -14.41)" fill="#d8d8d8"/><path d="M104.49,242.11c.07-2.65,15.32-69.55,15.63-72.19a1.22,1.22,0,0,0-.42-1.15,9.12,9.12,0,0,1-2.71-8.49,24.1,24.1,0,0,0,.24-7.14c-.57-3.85-1.14-7.69-.45-11.58l.41-1.34c0,1,0,2.05,0,3.08a29.12,29.12,0,0,0,1.51,9.51,19.69,19.69,0,0,1,.29-3.43,39.89,39.89,0,0,0,.52-11.49,13.17,13.17,0,0,1,.61-4.8,56.23,56.23,0,0,0,1.2,12.29,46,46,0,0,0,1.25-7.92,69.34,69.34,0,0,1,.31-8.65,10.21,10.21,0,0,1,.57-2.27c0,4.12-.41,8.23.5,12.57a72,72,0,0,0,2.23-12.59,17,17,0,0,1,1.93-7.67c-.4,2.17-.85,4.34-1.05,6.54a31.17,31.17,0,0,0-.09,6.54c2.07-4.18,2.94-8.74,3.92-13.27a15.86,15.86,0,0,1,1.37-3.62,68.64,68.64,0,0,0-1.53,9.75c3.18-5.33,4.64-11.46,8.4-16.51-.94,2.14-1.91,4.27-2.81,6.42s-1.94,4.31-1.72,6.82c3.17-2.27,6.07-4.62,7.68-8.15.73-1.59,1.75-3.06,2.63-4.58l.26.13-1.29,2.69a65.66,65.66,0,0,0-3,6.75,24.54,24.54,0,0,0-.61,4.33c-.09.59.3.46.64.3a9.85,9.85,0,0,0,2.79-2.17,24.62,24.62,0,0,0,4.24-6.74,5.92,5.92,0,0,1-.75,2.93c-1.61,3.12-3.62,6-5.16,9.18a2.9,2.9,0,0,0-.27.75,38.6,38.6,0,0,0,4.2-4.66c-2.28,4.52-6.31,8-8.27,12.73,1.54-1.21,2.74-2.76,4.28-4-2.36,3.21-4.88,6.3-6.53,10.2a28.43,28.43,0,0,0,5.16-4.66,1.2,1.2,0,0,1-.44,1.25,30.75,30.75,0,0,1-3.37,3.48,8.22,8.22,0,0,0-2.75,4.33,14.9,14.9,0,0,1-.84,2.49l4.46-5.12a2.69,2.69,0,0,1-.74,1.89c-1.49,2.1-3.36,3.94-4.29,6.41-.54,1.46-1.06,2.93-1.65,4.44l6.12-6.64a5.65,5.65,0,0,1-1.58,2.83c-1.27,1.64-2.87,3-3.89,4.87a14.31,14.31,0,0,0-1.55,4.41c-.71,4-3.44,6.34-7.2,7.71-.52.19-1.06.28-1.16,1-.38,2.42-15.91,68.79-16,71.23m14.48-60.74M128.7,160a10.42,10.42,0,0,0-5.95,5.2,22.18,22.18,0,0,0,3.14-1.8c-.72,1.67-2.52,2.52-3.35,4.15A7.7,7.7,0,0,0,128.7,160Zm-4.82.42c3.47-.73,6.39-5.49,6.38-7.82a9.57,9.57,0,0,0-5.79,5,35.12,35.12,0,0,1,2.92-2.08C126.58,157.3,125,158.56,123.88,160.37Zm-3.35-13.48c-1,3.63-.34,8.16,1.35,9.61-.17-1.65-1.13-3.15-.78-4.86a21.49,21.49,0,0,0,2,4.4C123.93,152.54,122,149.89,120.53,146.89Zm9.09-15.29c.37,1.62.31,3.3.89,5,1.76-3.24.87-6.07-.79-8.92-1.19,2.86-2,5.65-.55,8.79A12.56,12.56,0,0,1,129.62,131.6Zm2.71,13.93c-2.52,1.13-4.66,2.41-5.89,5l3-1.81c-.62,1.38-1.95,2.22-2.75,3.57C129.75,151.68,131.71,149.33,132.33,145.53Zm-6-10.94c-1.06,2.7-1.21,7.91.12,8.69,0-1.48-.64-2.92-.09-4.38.29.77.45,1.57.66,2.34s.48,1.52.79,2.46C129,140.74,128.72,139.25,126.32,134.59ZM120.81,165a13,13,0,0,0-1.49-7.93c-.09-.18-.2-.39-.43-.36s-.2.31-.24.49c-.19.91-.39,1.82-.55,2.74a7,7,0,0,0,1.7,5.93c-.52-1.73-1.31-3.43-.81-5.48C119.83,161.94,119.78,163.61,120.81,165Zm21-41.39c-3,1.2-5.93,3-6.08,4.85l2.94-1.91c-.45,1.43-1.8,2.12-2.6,3.34C138.44,129.36,140.9,126.66,141.84,123.64ZM124.22,150a16.54,16.54,0,0,1-.4-3.91,26,26,0,0,0,1.5,3.27c.83-1.65-.32-6.47-1.87-8.06A12,12,0,0,0,124.22,150Zm9.37-19.8c1.16-1.52,1-5.52-.22-7.51-1.69,2-2.14,5.67-.9,7.7.12-1.55-.31-3.09.4-4.51A29,29,0,0,0,133.59,130.24ZM132,136l3.14-2.3c-.32,1.73-2,2.44-2.84,4,3.12-1.36,4.34-4,5.88-6.72C135.48,132,133.21,133.2,132,136Zm-2.46,8.56c2.88-1,4.19-3.27,5.34-5.91-2.28,1-4.35,2-5.6,4.37a32.67,32.67,0,0,0,3.34-2.3C132.08,142.33,130.54,143.2,129.56,144.53Zm5.87-19.83a25.79,25.79,0,0,1,1.89-2.59c.14,1.12-.55,1.93-.51,2.9a4.49,4.49,0,0,0,1.87-5.15C136.27,121.26,134.93,123.17,135.43,124.7Z" transform="translate(-2.6 -14.41)" fill="#999"/><path d="M26.62,167.3c.48,1.29.58,3.43,1.15,4.3s1.72.64,2.09,2c.67,2.33.7,5.11,1,7.27.49,3.21,1.42,6,1.33,8.2-.1,2.53-1.34,4.16-2.4,4.53-1.63.57-4.68,2-7.42-2.11S19,178.64,16.57,172.06c-1-2.55-.69-5.29-1.5-7.62C14,161.27,8.9,152.9,8,150.26c-.95-2.91,2.22.66,2.61-.59.63-2-.35-3.84.68-4.19s2.36,1.12,4,3c.82.9,1.19-1,2.1.31C20.19,152.63,24.14,160.65,26.62,167.3Z" transform="translate(-2.6 -14.41)" fill="#d8d8d8"/><path d="M28.25,203.35a65.44,65.44,0,0,0-.68-7.23c-.09-.67-.62-.77-1.13-1-3.71-1.43-6.38-3.76-7-7.78A13.89,13.89,0,0,0,18,183c-1-1.85-2.53-3.26-3.77-4.91a5.57,5.57,0,0,1-1.51-2.84l5.94,6.7c-.55-1.5-1-3-1.55-4.43-.87-2.47-2.7-4.33-4.13-6.44a2.65,2.65,0,0,1-.7-1.89l4.32,5.16a16.89,16.89,0,0,1-.78-2.48,8.23,8.23,0,0,0-2.64-4.36A30.32,30.32,0,0,1,9.87,164a1.2,1.2,0,0,1-.41-1.24,28.28,28.28,0,0,0,5,4.71c-1.56-3.9-4-7-6.29-10.24,1.51,1.25,2.66,2.81,4.17,4-1.85-4.77-5.79-8.26-8-12.79a38,38,0,0,0,4.08,4.7,2.55,2.55,0,0,0-.25-.75c-1.47-3.16-3.4-6.08-4.94-9.2a5.7,5.7,0,0,1-.69-2.93A24,24,0,0,0,6.69,147a9.26,9.26,0,0,0,2.73,2.2c.33.18.72.31.63-.28a23.38,23.38,0,0,0-.52-4.31,66.67,66.67,0,0,0-2.87-6.75c-.42-.9-.83-1.8-1.24-2.7l.27-.12c.84,1.53,1.83,3,2.52,4.59,1.53,3.54,4.37,5.92,7.47,8.23.26-2.49-.72-4.63-1.58-6.8s-1.78-4.28-2.67-6.42c3.64,5.07,5,11.18,8,16.53a67.7,67.7,0,0,0-1.32-9.7,16.28,16.28,0,0,1,1.29,3.62c.88,4.51,1.66,9.06,3.63,13.24a30.57,30.57,0,0,0,0-6.49c-.14-2.19-.56-4.35-.91-6.52A17,17,0,0,1,23.94,153a72.29,72.29,0,0,0,2,12.54c1-4.29.68-8.38.74-12.46a9.52,9.52,0,0,1,.52,2.25,66.7,66.7,0,0,1,.14,8.6,46.77,46.77,0,0,0,1.09,7.88,55.34,55.34,0,0,0,1.43-12.17,13.15,13.15,0,0,1,.52,4.77,39.39,39.39,0,0,0,.29,11.42,20.43,20.43,0,0,1,.23,3.41,28.93,28.93,0,0,0,1.67-9.42c0-1,.05-2,.07-3.05l.38,1.33c.6,3.88,0,7.68-.68,11.49a24.08,24.08,0,0,0,.11,7.09,9,9,0,0,1-2.86,8.38,1.24,1.24,0,0,0-.44,1.13c.26,2.63.31,5.26.33,7.9,0,.58-1.25,34.91-1.37,36.32,0,.41-.24.89-.68.85s-.29-.58-.28-.9c0-1.68,1.07-32,1.21-33.63m-1.56-13c-.79-1.63-2.57-2.51-3.24-4.18a23.37,23.37,0,0,0,3.07,1.85,10.33,10.33,0,0,0-5.8-5.28A7.63,7.63,0,0,0,26.77,193.76Zm-4.58-12c1,.58,1.87,1.45,2.86,2.12a9.48,9.48,0,0,0-5.66-5.11c-.05,2.31,2.76,7.09,6.18,7.88C24.49,184.84,23,183.56,22.19,181.77Zm4.22.6a21.2,21.2,0,0,0,2.09-4.32c.32,1.69-.66,3.17-.87,4.8,1.71-1.4,2.45-5.9,1.53-9.51C27.67,176.29,25.68,178.88,26.41,182.37Zm-5.63-19.53c1.47-3.1.75-5.88-.38-8.74-1.7,2.8-2.64,5.59-.95,8.84.61-1.68.58-3.34,1-4.95A12.52,12.52,0,0,1,20.78,162.84ZM23,178.63c-.77-1.36-2.07-2.21-2.66-3.59l2.92,1.85c-1.17-2.64-3.27-3.95-5.74-5.11C18,175.56,19.91,177.93,23,178.63ZM22,170c.31-.92.6-1.67.82-2.43s.4-1.55.7-2.31c.52,1.46-.09,2.87-.17,4.35,1.33-.75,1.29-5.93.28-8.63C21.17,165.6,20.89,167.08,22,170Zm8.42,16.76c.46,2-.36,3.71-.91,5.42a6.9,6.9,0,0,0,1.8-5.86c-.14-.91-.32-1.82-.49-2.73,0-.18,0-.44-.23-.48s-.35.17-.44.34a13,13,0,0,0-1.63,7.84C29.58,190,29.57,188.29,30.43,186.8ZM14,156.22c-.77-1.23-2.1-1.94-2.52-3.37l2.88,1.94c-.11-1.88-3-3.67-5.94-4.91C9.33,152.88,11.72,155.61,14,156.22Zm12.33,11.55c-1.56,1.56-2.8,6.32-2,8a25.5,25.5,0,0,0,1.54-3.21,16.11,16.11,0,0,1-.46,3.86A11.9,11.9,0,0,0,26.36,167.77Zm-9-15.47c.68,1.43.22,2.94.31,4.48,1.27-2,.89-5.6-.75-7.65-1.23,1.94-1.48,5.91-.36,7.44A28.71,28.71,0,0,0,17.31,152.3Zm-5.39,4.9c1.48,2.72,2.64,5.37,5.71,6.77-.8-1.56-2.46-2.3-2.74-4L18,162.29C16.84,159.52,14.6,158.32,11.92,157.2ZM17.26,167a31.24,31.24,0,0,0,3.27,2.35c-1.2-2.39-3.24-3.4-5.48-4.44,1.09,2.64,2.35,4.95,5.19,6C19.29,169.5,17.78,168.6,17.26,167Zm-5.6-20.78a4.45,4.45,0,0,0,1.76,5.15c.05-1-.61-1.79-.45-2.89A28,28,0,0,1,14.8,151C15.32,149.53,14,147.61,11.66,146.18Z" transform="translate(-2.6 -14.41)" fill="#999"/></g></svg>