<svg xmlns="http://www.w3.org/2000/svg" xmlns:xlink="http://www.w3.org/1999/xlink" width="100" height="100" viewBox="0 0 100 100"><defs><style>.a{fill:#fff;stroke:#707070;}.b{clip-path:url(#a);}.c{fill:#4c4c4c;}</style><clipPath id="a"><rect class="a" width="100" height="100" transform="translate(323 2015)"/></clipPath></defs><g class="b" transform="translate(-323 -2015)"><g transform="translate(350.749 2015)"><path class="c" d="M406.13,24.73a22.947,22.947,0,0,0-14.643-5.789,19.862,19.862,0,0,0,6.15,11.6,21.034,21.034,0,0,0,13.512,5.008S409.806,27.925,406.13,24.73Z" transform="translate(-391.486 -0.08)"/><path class="c" d="M413.662.08a19.822,19.822,0,0,0-4.768,12.22,20.914,20.914,0,0,0,5.088,13.462s4.878-5.95,4.888-10.817A23.037,23.037,0,0,0,413.662.08Z" transform="translate(-391.486 -0.08)"/><path class="c" d="M406.13,40.6a23.037,23.037,0,0,0-14.643-5.789,19.832,19.832,0,0,0,6.15,11.6,20.943,20.943,0,0,0,13.512,5.008S409.806,43.81,406.13,40.6Z" transform="translate(-391.486 -0.08)"/><path class="c" d="M406.13,57.181a23.037,23.037,0,0,0-14.643-5.789,19.832,19.832,0,0,0,6.15,11.6A20.944,20.944,0,0,0,411.148,68S409.806,60.387,406.13,57.181Z" transform="translate(-391.486 -0.08)"/><path class="c" d="M406.13,73.117a22.947,22.947,0,0,0-14.643-5.789,19.862,19.862,0,0,0,6.15,11.548,21.034,21.034,0,0,0,13.512,5.008S409.806,76.262,406.13,73.117Z" transform="translate(-391.486 -0.08)"/><path class="c" d="M406.13,88.942a23.037,23.037,0,0,0-14.643-5.809,19.832,19.832,0,0,0,6.15,11.619,20.943,20.943,0,0,0,13.512,5.008S409.806,92.147,406.13,88.942Z" transform="translate(-391.486 -0.08)"/><path class="c" d="M429.878,30.879a19.832,19.832,0,0,0,6.11-11.6,23.037,23.037,0,0,0-14.643,5.759c-3.676,3.2-5.008,10.777-5.008,10.777a20.944,20.944,0,0,0,13.542-4.938Z" transform="translate(-391.486 -0.08)"/><path class="c" d="M416.366,51.743a21.034,21.034,0,0,0,13.512-5.008,19.862,19.862,0,0,0,6.11-11.6,22.977,22.977,0,0,0-14.643,5.789C417.668,44.161,416.366,51.743,416.366,51.743Z" transform="translate(-391.486 -0.08)"/><path class="c" d="M416.366,68.319a21.034,21.034,0,0,0,13.512-5.008,19.862,19.862,0,0,0,6.11-11.6A22.927,22.927,0,0,0,421.344,57.5C417.668,60.727,416.366,68.319,416.366,68.319Z" transform="translate(-391.486 -0.08)"/><path class="c" d="M416.366,84.195a20.943,20.943,0,0,0,13.512-5.008,19.832,19.832,0,0,0,6.11-11.6,23.037,23.037,0,0,0-14.643,5.789C417.668,76.613,416.366,84.195,416.366,84.195Z" transform="translate(-391.486 -0.08)"/><path class="c" d="M416.366,100.08a21.034,21.034,0,0,0,13.512-5.008,19.862,19.862,0,0,0,6.11-11.6,22.977,22.977,0,0,0-14.643,5.789C417.668,92.5,416.366,100.08,416.366,100.08Z" transform="translate(-391.486 -0.08)"/></g></g></svg>