<svg xmlns="http://www.w3.org/2000/svg" xmlns:xlink="http://www.w3.org/1999/xlink" width="100" height="100" viewBox="0 0 100 100"><defs><style>.a{fill:#fff;stroke:#707070;}.b{clip-path:url(#a);}.c{fill:#4c4c4c;}</style><clipPath id="a"><rect class="a" width="100" height="100" transform="translate(1043 1767)"/></clipPath></defs><g class="b" transform="translate(-1043 -1767)"><g transform="translate(1075.05 1767)"><path class="c" d="M169.39,23.49s4.4.13,4.81-5.86S169.39,0,169.39,0s-5.22,11.64-4.81,17.63S169.39,23.49,169.39,23.49Z" transform="translate(-151.37)"/><path class="c" d="M168.06,33.24c1.84-3.63.09-6.66-7.64-11-8.86-5-9-11.43-9-11.43.24,15.68,4.75,20,6.85,22.31C159.88,35,166.19,36.91,168.06,33.24Z" transform="translate(-151.37)"/><path class="c" d="M168.06,48.66c1.84-3.64.09-6.67-7.64-11-8.86-5-9-11.43-9-11.43.24,15.69,4.75,20,6.85,22.31C159.88,50.38,166.19,52.32,168.06,48.66Z" transform="translate(-151.37)"/><path class="c" d="M168.06,64.07c1.84-3.64.09-6.67-7.64-11-8.86-5-9-11.42-9-11.42.24,15.68,4.75,20,6.85,22.31C159.88,65.79,166.19,67.73,168.06,64.07Z" transform="translate(-151.37)"/><path class="c" d="M168.06,79.91c1.84-3.63.09-6.66-7.64-11-8.86-5-9-11.43-9-11.43.24,15.68,4.75,20,6.85,22.31C159.88,81.63,166.19,83.58,168.06,79.91Z" transform="translate(-151.37)"/><path class="c" d="M170.52,33.29c1.87,3.67,8.17,1.72,9.84-.11,2.09-2.31,6.6-6.63,6.85-22.31,0,0-.19,6.46-9.05,11.43C170.43,26.62,168.67,29.65,170.52,33.29Z" transform="translate(-151.37)"/><path class="c" d="M178.16,37.71c-7.73,4.33-9.49,7.36-7.64,11s8.17,1.72,9.84-.11c2.09-2.3,6.6-6.63,6.85-22.31C187.21,26.28,187,32.75,178.16,37.71Z" transform="translate(-151.37)"/><path class="c" d="M178.16,53.12c-7.73,4.33-9.49,7.36-7.64,11s8.17,1.72,9.84-.12c2.09-2.3,6.6-6.62,6.85-22.31C187.21,41.69,187,48.16,178.16,53.12Z" transform="translate(-151.37)"/><path class="c" d="M178.16,69c-7.73,4.32-9.49,7.35-7.64,11s8.17,1.72,9.84-.11c2.09-2.31,6.6-6.63,6.85-22.31C187.21,57.54,187,64,178.16,69Z" transform="translate(-151.37)"/><path class="c" d="M172.36,84a25.738,25.738,0,0,0-3,.5,25.741,25.741,0,0,0-3-.5c-.91,0-.87.45-.87.45s.69,12.88,1.32,14.15a3.22,3.22,0,0,0,2.52,1.37s1.88-.09,2.51-1.37,1.32-14.15,1.32-14.15S173.27,84,172.36,84Z" transform="translate(-151.37)"/></g></g></svg>